<?xml version="1.0" encoding="utf-8"?>
<!-- Generator: Adobe Illustrator 19.1.1, SVG Export Plug-In . SVG Version: 6.00 Build 0)  -->
<svg version="1.1" id="Capa_1" xmlns="http://www.w3.org/2000/svg" xmlns:xlink="http://www.w3.org/1999/xlink" x="0px" y="0px"
	 viewBox="-245 247 20 20" style="enable-background:new -245 247 20 20;" xml:space="preserve">
<style type="text/css">
	.st0{fill:#187FCF;}
</style>
<g>
	<path class="st0" d="M-233.2,260.7c-0.1-0.1-0.1-0.3,0-0.5l3.1-3.1l-3.1-3.1c-0.1-0.1-0.1-0.3,0-0.5s0.3-0.1,0.5,0l3.3,3.3
		c0.1,0.1,0.1,0.3,0,0.5l-3.3,3.3c-0.1,0.1-0.2,0.1-0.2,0.1S-233.1,260.7-233.2,260.7z"/>
	<path class="st0" d="M-236.6,260.7c-0.1-0.1-0.1-0.3,0-0.5l3.1-3.1l-3.1-3.1c-0.1-0.1-0.1-0.3,0-0.5s0.3-0.1,0.5,0l3.3,3.3
		c0.1,0.1,0.1,0.3,0,0.5l-3.3,3.3c-0.1,0.1-0.2,0.1-0.2,0.1S-236.5,260.7-236.6,260.7z"/>
	<path class="st0" d="M-240.1,260.7c-0.1-0.1-0.1-0.3,0-0.5l3.1-3.1l-3.1-3.1c-0.1-0.1-0.1-0.3,0-0.5s0.3-0.1,0.5,0l3.3,3.3
		c0.1,0.1,0.1,0.3,0,0.5l-3.3,3.3c-0.1,0.1-0.2,0.1-0.2,0.1S-240,260.7-240.1,260.7z"/>
</g>
</svg>
