<?xml version="1.0" encoding="utf-8"?>
<!-- Generator: Adobe Illustrator 19.1.1, SVG Export Plug-In . SVG Version: 6.00 Build 0)  -->
<svg version="1.1" id="Capa_1" xmlns="http://www.w3.org/2000/svg" xmlns:xlink="http://www.w3.org/1999/xlink" x="0px" y="0px"
	 viewBox="-8 11 493 493" style="enable-background:new -8 11 493 493;" xml:space="preserve">
<style type="text/css">
	.st0{fill:#187FCF;}
</style>
<path class="st0" d="M16.2,340.5c-6.9,6.9-10.8,16.3-10.8,26.1c0,9.8,3.9,19.2,10.8,26.1l11.6,11.6l-32.4,32.4
	c-4.4,4.5-4.5,11.7,0,16.1l47.8,47.8c2.1,2.1,5,3.3,8,3.3c3,0,5.9-1.2,8-3.3l32.4-32.4l11.5,11.5c6.9,6.9,16.3,10.8,26.1,10.8
	c9.8,0,19.2-3.9,26.2-10.8l57.7-57.7L73.9,282.8L16.2,340.5z"/>
<path class="st0" d="M481.7,62.1l-47.8-47.8c-4.4-4.5-11.7-4.5-16.1,0l-32.4,32.4l-11.6-11.5c-14.4-14.4-37.8-14.4-52.3,0
	l-57.7,57.7l139.3,139.3l57.7-57.7c14.4-14.4,14.4-37.9,0-52.3l-11.5-11.6l32.4-32.4C486.1,73.8,486.1,66.6,481.7,62.1z"/>
<path class="st0" d="M246.8,109.8c-9.7-9.7-25.3-9.7-35,0c-9.7,9.7-9.7,25.3,0,35l139.3,139.3c4.8,4.8,11.2,7.3,17.5,7.3
	c6.3,0,12.7-2.4,17.5-7.3c9.7-9.7,9.7-25.3,0-35L246.8,109.8z"/>
<path class="st0" d="M248.5,284.3L214,318.9L177.1,282l34.6-34.6c9.7-9.7,9.7-25.3,0-35c-9.7-9.7-25.3-9.7-35,0L142.1,247
	l-16.2-16.2c-9.7-9.7-25.3-9.7-35,0c-9.7,9.7-9.7,25.3,0,35l33.7,33.7c0,0,0,0,0,0c0,0,0,0,0,0l105.6,105.6
	c4.8,4.8,11.2,7.3,17.5,7.3c6.3,0,12.7-2.4,17.5-7.3c9.7-9.7,9.7-25.3,0-35L249,353.9l34.5-34.6c9.7-9.7,9.7-25.4,0-35
	C273.9,274.7,258.1,274.7,248.5,284.3z"/>
</svg>
