<?xml version="1.0" encoding="utf-8"?>
<!-- Generator: Adobe Illustrator 19.1.1, SVG Export Plug-In . SVG Version: 6.00 Build 0)  -->
<svg version="1.1" id="Capa_1" xmlns="http://www.w3.org/2000/svg" xmlns:xlink="http://www.w3.org/1999/xlink" x="0px" y="0px"
	 viewBox="-321.7 11.8 500 500" style="enable-background:new -321.7 11.8 500 500;" xml:space="preserve">
<style type="text/css">
	.st0{fill:#187FCF;}
</style>
<g>
	<circle class="st0" cx="-241.8" cy="113.8" r="40.4"/>
	<path class="st0" d="M-16.5,283.7h-19.3v-56.2h-49.4v56.2h-7.7v-56.2h-49.4v86.7h49.4v-13.6h7.7v13.6h49.4v-13.6h8.5l-5.5,22.3
		h-90.8c-0.7,0-1.4,0.1-2,0.3h-4v2.2c-1.5,1.5-2.5,3.6-2.5,6c0,2.3,1,4.4,2.5,6v18.9h58v-16.4H-37l-5.5,22.3h-103.3l-17.4-97.8
		c1.2-1.9,2-4,2.3-6.3c1.2-8.6-4.8-16.5-13.4-17.7c-24.6-3.4-37.6-7.8-43.7-14.8c-5.9-6.9-8.1-19.7-11.1-40.1
		c-0.1-0.8-0.3-1.4-0.5-2.1c-1.4-12.4-11.1-22.7-21.4-27.6c0,0-3.9-2.1-8.4-3c-4.2-0.8-9.2-0.8-9.2-0.8h-0.2
		c-14,0.4-30.5,8.2-34,24.5l-18.7,87.2c-2.5,11.7,2.7,22.1,11.1,29.3l-0.1,134.6c0,11.8,9.6,21.4,21.4,21.4l0,0
		c11.8,0,21.4-9.6,21.4-21.4l0.1-127.4c8.8-3.5,16.3-10.3,18.6-21l7.1-33c11.2,13.1,29.7,20.6,62.4,25.1l17.9,100.6l6.9,42.3
		c0.3,2,1.3,3.7,2.7,4.9c-5.6,2.6-9.6,8.3-9.6,14.9c0,9,7.4,16.4,16.4,16.4s16.4-7.4,16.4-16.4c0-5.1-2.4-9.7-6.1-12.7h77.8
		c-3.7,3-6.1,7.6-6.1,12.7c0,9,7.4,16.4,16.4,16.4s16.4-7.4,16.4-16.4c0-6.3-3.5-11.7-8.7-14.5c2-1.6,3.3-3.9,3.3-6.7
		c0-4.7-3.8-8.4-8.4-8.4h-95l-4.2-25.4H-36c3.9,0,7.2-2.6,8.2-6.4l19.4-78.3c0.6-2.5,0.1-5.2-1.6-7.2
		C-11.5,284.9-13.9,283.7-16.5,283.7z"/>
	<rect x="-15" y="392.7" class="st0" width="86.7" height="49.4"/>
	<rect x="16.3" y="301.1" class="st0" width="49.4" height="86.7"/>
	<path class="st0" d="M86.5,444h75.6c3.2,0,5.7-2.6,5.7-5.7v-67.5c0-3.2-2.6-5.7-5.7-5.7H86.5c-3.2,0-5.7,2.6-5.7,5.7v67.5
		C80.8,441.4,83.3,444,86.5,444z"/>
	<path class="st0" d="M174.6,285.7l-72.3-28.2c-2.9-1.1-6.2,0.3-7.4,3.2l-24.2,62c-1.1,2.9,0.3,6.2,3.2,7.4l72.4,28.3
		c2.9,1.1,6.2-0.3,7.4-3.2l24.2-62C179,290.2,177.5,286.9,174.6,285.7z"/>
	<path class="st0" d="M-0.6,293.2c0.7,2.2,3.7,3.2,6.7,2.2l74.2-23.3c3-1,4.9-3.5,4.2-5.6L70.2,221c-0.7-2.2-3.7-3.2-6.7-2.2
		l-74.2,23.3c-3,1-4.9,3.5-4.2,5.6L-0.6,293.2z"/>
</g>
</svg>
