<?xml version="1.0" encoding="utf-8"?>
<!-- Generator: Adobe Illustrator 19.1.1, SVG Export Plug-In . SVG Version: 6.00 Build 0)  -->
<svg version="1.1" id="Capa_1" xmlns="http://www.w3.org/2000/svg" xmlns:xlink="http://www.w3.org/1999/xlink" x="0px" y="0px"
	 viewBox="627.4 180.6 150 150" style="enable-background:new 627.4 180.6 150 150;" xml:space="preserve">
<style type="text/css">
	.st0{fill:#187FCF;}
</style>
<g>
	<g>
		<g>
			<path class="st0" d="M697.7,330.6L697.7,330.6v-19.7c-2.6,1.2-5.3,1.8-8.2,1.8c-2.7,0-5.3-0.5-7.7-1.6c-2.4-1-4.5-2.4-6.3-4.3
				c-3.7-3.8-5.7-8.7-5.6-14c0.1-5.1,2.1-9.9,5.8-13.6c3.6-3.6,8.5-5.7,13.6-5.7c0.1,0,0.2,0,0.3,0c2.8,0,5.6,0.6,8.2,1.8l0-19.6
				h-23.5c0.6-1,1.4-2.2,2.4-3.6c1.9-2.7,3.3-5.9,3.2-9.4c-0.1-8-6.7-14.6-14.7-14.7c-0.1,0-0.1,0-0.2,0c-8.2,0-14.9,6.7-14.9,14.9
				c0,3.5,1.4,6.6,3.2,9.2c0.9,1.3,1.8,2.7,2.4,3.6h-21.9c-3.5,0-6.3,2.8-6.3,6.3v62.4c0,3.5,2.8,6.3,6.3,6.3L697.7,330.6
				L697.7,330.6z"/>
			<path class="st0" d="M757.7,260.3c1.2,2.5,1.8,5.3,1.8,8.2c0,5.2-2,10.2-5.7,13.9c-3.7,3.7-8.6,5.7-13.9,5.7c-0.1,0-0.2,0-0.3,0
				c-5.1-0.1-9.9-2.1-13.6-5.8c-3.6-3.6-5.7-8.5-5.7-13.6c0-2.9,0.6-5.8,1.8-8.4h-15h-2.3h-2.4l0,23.5c-0.8-0.5-2.4-1.5-3.8-2.5
				c-2.6-1.8-5.7-3.1-9.1-3.1c-0.1,0-0.1,0-0.2,0c-8,0.1-14.6,6.7-14.7,14.7c0,2.8,0.7,5.3,1.9,7.6c2.6,4.5,7.4,7.6,13,7.6
				c3.4,0,6.4-1.4,9.1-3.1c1.7-1,3-2,3.8-2.5v0.1v28h0h2.3h2.3h64c3.5,0,6.3-2.8,6.3-6.3v-64H757.7z"/>
			<path class="st0" d="M771.1,180.6h-68.7v28.8c0,0,2.5-2.2,3.3-2.7c2.6-2.1,5.9-3.4,9.5-3.4c8.3,0,15,6.8,14.9,15.1
				c-0.1,8-6.7,14.6-14.7,14.7c-0.1,0-0.1,0-0.2,0c-3.6,0-6.9-1.3-9.5-3.4c-0.8-0.6-3.3-2.7-3.3-2.7v28.8h4.7h23.5
				c-0.2,0.4-1.5,2.4-2.5,3.8c-1.9,2.6-3.1,5.8-3.1,9.3c0.1,8,6.7,14.6,14.7,14.7c0.1,0,0.1,0,0.2,0c3.9,0,7.4-1.5,10-3.9
				c3-2.7,4.9-6.7,4.9-11c0-3.4-1.3-6.5-3.1-9.1c-1.1-1.7-2-2.9-2.5-3.7c0,0,0,0,0,0h27.7h0.4v-2.7v-66
				C777.4,183.4,774.6,180.6,771.1,180.6z"/>
		</g>
	</g>
</g>
</svg>
