<?xml version="1.0" encoding="utf-8"?>
<!-- Generator: Adobe Illustrator 19.1.1, SVG Export Plug-In . SVG Version: 6.00 Build 0)  -->
<svg version="1.1" id="Capa_1" xmlns="http://www.w3.org/2000/svg" xmlns:xlink="http://www.w3.org/1999/xlink" x="0px" y="0px"
	 viewBox="-301.6 192.2 150 128.7" style="enable-background:new -301.6 192.2 150 128.7;" xml:space="preserve">
<style type="text/css">
	.st0{fill:#187FCF;}
</style>
<g>
	<g>
		<path class="st0" d="M-172.2,223.9c-2-15.9-15.4-28.2-31.8-28.2c-7.8,0-14.9,2.9-20.5,7.5c-5.3-6.7-13.3-11.1-22.5-11.1
			c-13.7,0-25.1,9.6-27.9,22.4c-14.9,1-26.7,13.3-26.7,28.5c0,15.8,12.8,28.6,28.7,28.6c3.4,0,6.6-0.7,9.6-1.8
			c5.2,7.2,13.6,11.9,23.1,11.9c5.8,0,11.2-1.8,15.8-4.8c5.2,5,12.2,8.1,20,8.1c11.4,0,21.2-6.8,25.8-16.5c1.4,0.3,2.8,0.4,4.3,0.4
			c12.6,0,22.8-10.2,22.8-22.7C-151.6,234.6-160.7,225-172.2,223.9z"/>
		<circle class="st0" cx="-233.8" cy="297.5" r="13"/>
		<circle class="st0" cx="-254.6" cy="313.1" r="7.8"/>
		<circle class="st0" cx="-270.2" cy="318.3" r="2.6"/>
	</g>
</g>
</svg>
