<?xml version="1.0" encoding="utf-8"?>
<!-- Generator: Adobe Illustrator 19.1.1, SVG Export Plug-In . SVG Version: 6.00 Build 0)  -->
<svg version="1.1" id="Capa_1" xmlns="http://www.w3.org/2000/svg" xmlns:xlink="http://www.w3.org/1999/xlink" x="0px" y="0px"
	 viewBox="281 175.4 150 161.2" style="enable-background:new 281 175.4 150 161.2;" xml:space="preserve">
<style type="text/css">
	.st0{fill:#187FCF;}
</style>
<g>
	<path class="st0" d="M428.6,280.1l-11.7-0.9v44.7l-57.1,12.3c-2.7,0.6-5.4,0.6-8.1,0l-54.8-11.5c-1-0.2-1.7-1.1-1.7-2.1l-1-36.6
		c0-1.2,0.8-2.1,2-2.2l46.6-4.1c0.8-0.1,1.5-0.6,1.8-1.3l11.2-27.2v74.6l50.6-9.6v-37.9l-29.8-1.9c-2.4-0.2-4.5-1.6-5.5-3.8
		l-15.4-34.4l-15.5,35c-0.3,0.7-1,1.2-1.8,1.3l-54.9,5.5c-1.7,0.2-2.9-1.5-2.2-3.1l14.6-31.2c0.3-0.6,0.9-1.1,1.6-1.2l56.3-10.3
		l1.9-0.3l1.8,0.3l57.5,10.4c0.7,0.1,1.3,0.6,1.6,1.2l14.3,31.3C431.5,278.5,430.3,280.2,428.6,280.1z M369.7,204.3h-6.8v14.4
		c0,1.5-1.2,2.7-2.7,2.7H352c-1.5,0-2.7-1.2-2.7-2.7v-14.4h-6.8c-2.1,0-3.4-2.3-2.3-4.1l13.6-23.5c1-1.8,3.7-1.8,4.7,0l13.6,23.5
		C373.1,202.1,371.7,204.3,369.7,204.3z"/>
</g>
</svg>
