<?xml version="1.0" encoding="utf-8"?>
<!-- Generator: Adobe Illustrator 16.0.0, SVG Export Plug-In . SVG Version: 6.00 Build 0)  -->
<!DOCTYPE svg PUBLIC "-//W3C//DTD SVG 1.1//EN" "http://www.w3.org/Graphics/SVG/1.1/DTD/svg11.dtd">
<svg version="1.1" id="Layer_1" xmlns="http://www.w3.org/2000/svg" xmlns:xlink="http://www.w3.org/1999/xlink" x="0px" y="0px"
	 width="59px" height="52px" viewBox="0 0 59 52" enable-background="new 0 0 59 52" xml:space="preserve">
<path fill="#FFFFFF" stroke="#231F20" stroke-width="3" stroke-linecap="round" stroke-linejoin="round" stroke-miterlimit="22.9256" d="
	M15.297,5.136c-41.793,35.619,24.457,67.933,40.778,23.605C64.848,4.911,24.623-3.716,15.297,5.136z"/>
<g>
	<path fill="#231F20" d="M28.87,36.957c-1.62-0.09-1.89-2.789-1.77-4.68c0.18-2.97,1.2-7.62,1.29-11.459
		c0.03-1.2-0.18-3.12-0.18-4.77c0.03-1.65,0.3-3.15,1.56-3.3c1.8-0.21,2.16,1.35,2.22,3.42c0.119,5.4-0.63,11.82-0.75,17.189
		C31.21,35.307,30.82,37.077,28.87,36.957z"/>
</g>
</svg>
