<?xml version="1.0" encoding="utf-8"?>
<!-- Generator: Adobe Illustrator 16.0.0, SVG Export Plug-In . SVG Version: 6.00 Build 0)  -->
<!DOCTYPE svg PUBLIC "-//W3C//DTD SVG 1.1//EN" "http://www.w3.org/Graphics/SVG/1.1/DTD/svg11.dtd">
<svg version="1.1" id="Layer_1" xmlns="http://www.w3.org/2000/svg" xmlns:xlink="http://www.w3.org/1999/xlink" x="0px" y="0px"
	 width="59px" height="52px" viewBox="0 0 59 52" enable-background="new 0 0 59 52" xml:space="preserve">
<path fill="#231F20" stroke="#231F20" stroke-width="3" stroke-miterlimit="10" d="M15.297,5.136
	c-41.793,35.619,24.457,67.933,40.778,23.605C64.848,4.911,24.623-3.716,15.297,5.136z"/>
<g>
	<path fill="#FFFFFF" d="M7.91,28.816c0-0.42,0.504-0.52,0.813-0.52c0.378,0,0.672,0.268,0.896,0.546
		c0.084,0.101,0.168,0.196,0.252,0.31c0.336,0.421,0.672,0.826,1.191,0.826c1.316,0,2.535-0.994,2.535-2.381
		c0-0.604-0.546-0.91-1.232-1.064c-0.687-0.168-1.471-0.182-1.933-0.238C9.24,26.155,8.4,24.965,8.4,23.816
		c0-1.569,0.967-3.558,2.746-3.558c1.106,0,3.544,0.686,3.544,2.129c0,0.28-0.477,0.743-0.756,0.743
		c-0.182,0-0.364-0.098-0.546-0.224c-0.182-0.126-0.378-0.308-0.574-0.477c-0.406-0.35-0.841-0.672-1.331-0.672
		c-0.896,0-1.527,1.289-1.527,2.087c0,0.308,0.084,0.63,0.309,0.84c0.126,0.112,0.434,0.196,0.882,0.28
		c0.434,0.07,0.966,0.154,1.499,0.266c1.051,0.224,2.115,0.616,2.284,1.513c0.07,0.336,0.098,0.687,0.098,1.022
		c0,2.34-1.681,3.697-3.922,3.697C10.053,31.465,7.91,29.979,7.91,28.816z"/>
	<path fill="#FFFFFF" d="M22.082,21.827c-0.308,0.014-0.574,0-0.784,0c-0.07,0-0.252-0.014-0.42,0
		c-0.182,0.028-0.322,0.056-0.35,0.126c-0.084,0.154-0.112,0.729-0.126,1.331c-0.014,0.588-0.014,1.205-0.014,1.443
		c0,0.392-0.056,0.771-0.056,1.163v0.196c0,1.26,0.196,2.507,0.196,3.754v0.447c-0.014,0.406-0.07,1.205-0.645,1.205
		c-0.546,0-0.784-0.504-0.882-1.078c-0.056-0.281-0.084-0.589-0.098-0.869v-0.686c0-1.387,0.098-2.76,0.098-4.133
		c0-0.35-0.042-2.746-0.154-2.844c-0.014-0.014-0.084-0.014-0.112-0.014c-0.672,0-1.345,0.126-2.031,0.126
		c-0.322,0-1.303-0.014-1.303-0.518c0-0.28,0.266-0.575,0.435-0.743c0.308-0.322,1.723-0.434,3.193-0.49
		c0.729-0.028,1.485-0.042,2.143-0.07c0.645-0.028,1.191-0.056,1.499-0.112c0.084-0.014,0.168-0.028,0.266-0.028
		c0.35,0,1.177,0.182,1.177,0.686c0,0.646-0.519,0.896-1.106,1.023C22.698,21.799,22.376,21.827,22.082,21.827z"/>
	<path fill="#FFFFFF" d="M31.32,30.525c-0.055-0.252-0.068-0.52-0.098-0.756c-0.027-0.238-0.057-0.463-0.1-0.631
		c-0.084-0.279-0.126-0.533-0.184-0.758c-0.041-0.225-0.11-0.404-0.194-0.563c-0.168-0.309-0.478-0.488-1.135-0.488
		c-0.49,0-2.675-0.016-2.983,0.168c-0.196,0.111-0.308,0.379-0.364,0.742c-0.07,0.379-0.084,0.813-0.126,1.23
		c-0.07,0.842-0.196,1.682-0.854,1.682c-0.658,0-0.938-0.182-0.938-0.729c0-0.057,0.014-0.799,0.056-0.967s0.098-0.35,0.112-0.434
		c0.154-0.813,0.238-1.653,0.448-2.467c0.238-0.938,0.546-1.85,0.827-2.772c0.168-0.532,0.308-1.415,0.588-2.171
		c0.28-0.756,0.714-1.387,1.484-1.387c3.012,0,3.768,3.208,4.133,5.547c0.084,0.588,0.35,1.625,0.588,2.62
		c0.237,0.996,0.463,1.961,0.463,2.396c0,0.52-0.489,0.645-0.883,0.645C31.645,31.436,31.42,31.002,31.32,30.525z M27.483,23.116
		c-0.182,0.518-0.28,1.106-0.336,1.345c-0.07,0.336-0.238,0.658-0.238,1.022c0,0.238,0.056,0.336,0.126,0.364
		c0.042,0.028,0.098,0.042,0.182,0.042h0.252c0.378,0,2.689-0.098,2.857-0.238c0.127-0.126,0.169-0.294,0.169-0.49
		c0-1.092-1.079-3.025-2.325-3.025C27.89,22.135,27.666,22.569,27.483,23.116z"/>
	<path fill="#FFFFFF" d="M39.875,30.861c-0.448-0.478-0.953-1.092-1.457-1.709c-1.021-1.26-2.045-2.479-2.717-2.479
		c-0.406,0-0.604,0.267-0.604,0.658c0,0.826,0.236,1.64,0.236,2.479c0,0.588-0.084,1.597-0.924,1.597
		c-0.42,0-0.633-0.532-0.646-0.869c-0.111-2.437-0.041-4.874-0.041-7.312c0-0.672-0.141-1.331-0.141-2.003
		c0-0.953,1.709-0.953,2.367-0.953c0.518,0,1.035,0.028,1.541,0.028c1.666,0,3.249,1.681,3.249,3.32c0,0.84-0.435,1.625-1.064,2.143
		c-0.112,0.084-0.294,0.154-0.489,0.21c-0.184,0.056-0.393,0.098-0.604,0.154c-0.378,0.084-0.7,0.14-0.7,0.294
		c0,0.267,0.938,1.274,1.905,2.297c0.477,0.519,0.952,1.022,1.303,1.429c0.364,0.406,0.616,0.729,0.616,0.869
		c0,0.279-0.364,0.631-0.646,0.631C40.743,31.646,40.323,31.324,39.875,30.861z M35.869,21.589c-0.42,0-0.617,0.084-0.701,0.252
		c-0.057,0.084-0.07,0.182-0.084,0.322c-0.014,0.126-0.014,0.28-0.014,0.462c0,0.869,0.098,1.737,0.209,2.591
		c0.17,0.154,0.646,0.154,0.884,0.154c1.063,0,3.165-0.504,3.165-1.793c0-1.079-0.826-1.485-1.75-1.709
		C37.018,21.729,36.443,21.589,35.869,21.589z"/>
	<path fill="#FFFFFF" d="M48.4,21.827c-0.31,0.014-0.574,0-0.783,0c-0.07,0-0.253-0.014-0.422,0
		c-0.182,0.028-0.321,0.056-0.35,0.126c-0.086,0.154-0.111,0.729-0.125,1.331c-0.017,0.588-0.017,1.205-0.017,1.443
		c0,0.392-0.058,0.771-0.058,1.163v0.196c0,1.26,0.195,2.507,0.195,3.754v0.447c-0.014,0.406-0.07,1.205-0.645,1.205
		c-0.547,0-0.783-0.504-0.883-1.078c-0.057-0.281-0.084-0.589-0.1-0.869v-0.686c0-1.387,0.1-2.76,0.1-4.133
		c0-0.35-0.041-2.746-0.153-2.844c-0.015-0.014-0.084-0.014-0.112-0.014c-0.672,0-1.344,0.126-2.031,0.126
		c-0.32,0-1.303-0.014-1.303-0.518c0-0.28,0.268-0.575,0.436-0.743c0.31-0.322,1.725-0.434,3.193-0.49
		c0.729-0.028,1.484-0.042,2.145-0.07c0.645-0.028,1.189-0.056,1.498-0.112c0.084-0.014,0.168-0.028,0.268-0.028
		c0.352,0,1.178,0.182,1.178,0.686c0,0.646-0.52,0.896-1.105,1.023C49.018,21.799,48.695,21.827,48.4,21.827z"/>
</g>
</svg>
