<?xml version="1.0" encoding="utf-8"?>
<!-- Generator: Adobe Illustrator 19.1.1, SVG Export Plug-In . SVG Version: 6.00 Build 0)  -->
<svg version="1.1" id="Capa_1" xmlns="http://www.w3.org/2000/svg" xmlns:xlink="http://www.w3.org/1999/xlink" x="0px" y="0px"
	 viewBox="-465.3 1.3 512 512" style="enable-background:new -465.3 1.3 512 512;" xml:space="preserve">
<style type="text/css">
	.st0{fill:none;stroke:#FFFFFF;stroke-width:25;stroke-miterlimit:10;}
</style>
<g>
	<path class="st0" d="M-383.8,203.5c3.3,3.1,7.6,4.9,12.2,4.8l229.3-1.5l0.2,31.2c0.1,6.8,4.7,12.9,11.2,15.5
		c6.4,2.5,13.8,1,18.7-3.8l75.4-75.2c8.8-8.8,8.7-22.9-0.2-31.5l-76.6-74c-4.9-4.8-12.4-6.2-18.8-3.5c-6.4,2.6-10.6,8.8-10.5,15.6
		l0.2,31.2l-229.6,1.5c-9.5,0.1-17.1,7.6-17.1,16.9l0.5,61C-388.9,196.1-387,200.4-383.8,203.5z"/>
	<path class="st0" d="M-46.7,307l-229.6,0.9l-0.2-31.2c0-6.8-4.2-12.9-10.7-15.5c-6.4-2.6-13.9-1.1-18.7,3.7l-75.8,74.9
		c-8.9,8.7-8.8,22.8,0.1,31.5l76.2,74.4c4.9,4.8,12.3,6.2,18.8,3.6c6.4-2.6,11-8.7,11-15.6l-0.2-31.2l229.3-0.9
		c4.6,0,8.9-1.8,12.1-5s5-7.4,5-11.9l-0.2-61C-29.5,314.5-37.2,307-46.7,307z"/>
</g>
</svg>
