<?xml version="1.0" encoding="utf-8"?>
<!-- Generator: Adobe Illustrator 19.1.1, SVG Export Plug-In . SVG Version: 6.00 Build 0)  -->
<svg version="1.1" id="Capa_1" xmlns="http://www.w3.org/2000/svg" xmlns:xlink="http://www.w3.org/1999/xlink" x="0px" y="0px"
	 viewBox="-145.8 3.4 442.2 554.6" style="enable-background:new -145.8 3.4 442.2 554.6;" xml:space="preserve">
<style type="text/css">
	.st0{fill:#187FCF;}
</style>
<g>
	<g>
		<path class="st0" d="M-47.9,89.4c0-36.3,30.6-66.9,66.9-66.9S86,53.1,86,89.4V143c11.5-15.3,19.1-34.4,19.1-53.6
			c0-47.8-38.3-86.1-86.1-86.1S-67,41.6-67,89.4c0,21,7.6,40.2,19.1,53.6V89.4z"/>
		<path class="st0" d="M248.6,232.9c-11.5,0-21,3.8-28.7,9.6l0,0c0-26.8-21-47.8-47.8-47.8c-11.5,0-22.9,3.8-32.5,11.5
			c-7.6-19.1-24.9-30.6-44-30.6c-11.5,0-21,3.8-28.7,9.6V89.4c0-26.8-21-47.8-47.8-47.8s-47.8,21-47.8,47.8v170.2
			c-38.3-34.4-80.3-61.2-107.1-34.4c-38.3,38.3,42.1,112.8,103.3,225.7C11.4,529.3,72.6,558,133.8,558
			c89.9,0,162.6-72.7,162.6-162.6V280.7C296.4,253.9,275.4,232.9,248.6,232.9z M277.3,322.8v72.7c0,74.6-65,143.4-143.4,143.4
			c-72.7,0-114.8-40.2-149.2-95.6C-88,317-141.6,259.7-122.4,238.6c21-21,72.7,24.9,112.8,66.9V89.4c0-15.3,13.4-28.7,28.7-28.7
			c15.3,0,28.7,13.4,28.7,28.7v200.8h19.1v-66.9c0-15.3,13.4-28.7,28.7-28.7c15.3,0,28.7,13.4,28.7,28.7v47.8h19.1v-28.7
			c0-15.3,13.4-28.7,28.7-28.7c15.3,0,28.7,13.4,28.7,28.7v47.8h19.1v-9.6c0-15.3,13.4-28.7,28.7-28.7c15.3,0,28.7,13.4,28.7,28.7
			L277.3,322.8L277.3,322.8z"/>
	</g>
</g>
</svg>
