<?xml version="1.0" encoding="utf-8"?>
<!-- Generator: Adobe Illustrator 16.0.0, SVG Export Plug-In . SVG Version: 6.00 Build 0)  -->
<!DOCTYPE svg PUBLIC "-//W3C//DTD SVG 1.1//EN" "http://www.w3.org/Graphics/SVG/1.1/DTD/svg11.dtd">
<svg version="1.1" id="Layer_2_1_" xmlns="http://www.w3.org/2000/svg" xmlns:xlink="http://www.w3.org/1999/xlink" x="0px" y="0px"
	 width="1920px" height="1080px" viewBox="0 0 1920 1080" enable-background="new 0 0 1920 1080" xml:space="preserve">
<g id="Layer_1_1_">
	
		<polyline fill="#C8C8C8" stroke="#231F20" stroke-width="4" stroke-linecap="round" stroke-linejoin="round" stroke-miterlimit="10" points="
		839,796 839,806.834 1081,806.834 1081,796 	"/>
	
		<polygon fill="#C8C8C8" stroke="#231F20" stroke-width="4" stroke-linecap="round" stroke-linejoin="round" stroke-miterlimit="10" points="
		839,796 1081,796 1047.5,739 870,739 	"/>
	
		<polyline fill="#C8C8C8" stroke="#231F20" stroke-width="4" stroke-linecap="round" stroke-linejoin="round" stroke-miterlimit="10" points="
		945.926,766.517 945.926,683.5 974.074,683.5 974.074,766.517 	"/>
	<g>
		<path fill="#C8C8C8" d="M1285.339,702.193H634.661l-0.247-425.29l650.216-0.233L1285.339,702.193z"/>
	</g>
	<rect x="665.387" y="305.311" fill="#187FD0" width="589.229" height="367.71"/>
	<g>
		
			<line fill="none" stroke="#231F20" stroke-width="4" stroke-linecap="round" stroke-linejoin="round" stroke-miterlimit="10" x1="660.431" y1="305.311" x2="1259.569" y2="305.311"/>
		
			<line fill="none" stroke="#231F20" stroke-width="4" stroke-linecap="round" stroke-linejoin="round" stroke-miterlimit="10" x1="660.431" y1="673.021" x2="1259.569" y2="673.021"/>
		
			<line fill="none" stroke="#231F20" stroke-width="4" stroke-linecap="round" stroke-linejoin="round" stroke-miterlimit="10" x1="665.387" y1="300.852" x2="665.387" y2="678.471"/>
		
			<line fill="none" stroke="#231F20" stroke-width="4" stroke-linecap="round" stroke-linejoin="round" stroke-miterlimit="10" x1="1254.613" y1="300.852" x2="1254.613" y2="678.471"/>
	</g>
	<g>
		<path fill="#FFFFFF" d="M1132.789,917.442l31.294-12.973l53.377-13.024l32.094-9.252l24.969-4.732l13.313,2.036l15.125,4.942
			l5.229,5.769c1.39,2.292,2.788,8.515,2.788,14.265l6.321,27.127l1.035,21.555l-5.33,20.128l-3.822,5.929l-4.918,19l-8.547,14.071
			l-18.191,13.776l-13.938,2.349l-9.414-4.982l-12.97-4.659l-13.809-8.563l-5.813,2.083l-5.196,1.46l-8.549-2.864l-2.893-1.787
			l-7.617,2.335l-9.587,4.153l-17.401,4.639l-15.797-2.938l-9.349-7.134l-4.703-11.938l-3.271-21.165l-1.881-20.549l-2.549-20.799
			V917.442L1132.789,917.442z"/>
		
			<path fill="none" stroke="#231F20" stroke-width="4" stroke-linecap="round" stroke-linejoin="round" stroke-miterlimit="22.9256" d="
			M1290.719,953.387c-51.529-5.179-56.163,76.749-23.863,74.989C1306.617,1026.209,1326.021,955.709,1290.719,953.387z"/>
		
			<path fill="#C8C8C8" stroke="#231F20" stroke-width="4" stroke-linecap="round" stroke-linejoin="round" stroke-miterlimit="22.9256" d="
			M1282.683,960.678c-28.556,1.827-38.631,52.791-16.415,51.58C1293.619,1010.768,1306.966,962.274,1282.683,960.678z"/>
		
			<path fill="none" stroke="#231F20" stroke-width="4" stroke-linecap="round" stroke-linejoin="round" stroke-miterlimit="22.9256" d="
			M1300.496,956.494c-11.221-10.33-23.529-20.61-35.38-24.421"/>
		
			<path fill="none" stroke="#231F20" stroke-width="4" stroke-linecap="round" stroke-linejoin="round" stroke-miterlimit="22.9256" d="
			M1264.938,931.625c-40.236-1.354-54.729,51.181-44.117,72.75c8.593,9.007,22.028,15.882,36.218,21.48"/>
		
			<path fill="none" stroke="#231F20" stroke-width="4" stroke-linecap="round" stroke-linejoin="round" stroke-miterlimit="22.9256" d="
			M1224.689,1010.875c-2.608,1.438-10.326,4.441-13.002,2.25c-9.738-7.979-3.39-75.884,3.27-78.727
			c7.196-3.075,60.256-20.939,63.177-18.815c2.616,1.899,6.496,19.458,6.496,26.4"/>
		
			<path fill="none" stroke="#231F20" stroke-width="4" stroke-linecap="round" stroke-linejoin="round" stroke-miterlimit="22.9256" d="
			M1214.521,933.875c-2.123,0.146-9.772-5.764-15.328-8.271c-8.672,40.497-1.844,87.356,12.494,87.521"/>
		
			<path fill="none" stroke="#231F20" stroke-width="4" stroke-linecap="round" stroke-linejoin="round" stroke-miterlimit="22.9256" d="
			M1203.146,1008.977c-15.935,6.138-38.677,21.499-57.957,1.167c-7.354-7.753-9.426-50.76-11.023-68.157
			c8.018,20.831,47.107,7.069,60.357,1.892"/>
		
			<path fill="none" stroke="#231F20" stroke-width="4" stroke-linecap="round" stroke-linejoin="round" stroke-miterlimit="22.9256" d="
			M1309.583,977.043c15.106-10.834,3.787-61.146,1.394-72.57c-5.736,6.951-22.086,11.73-30.535,13.914"/>
		
			<path fill="none" stroke="#231F20" stroke-width="4" stroke-linecap="round" stroke-linejoin="round" stroke-miterlimit="22.9256" d="
			M1197.855,925.208c-14.972,4.4-30.274,10.059-47,8.685c-8.334-0.685-23.84-13-15.846-17.342
			c23.51-12.849,120.118-37.5,142.512-39.426c9.614,1.547,22.975,2,31,12.75C1292.793,901.052,1231.189,915.408,1197.855,925.208z"
			/>
		
			<path fill="none" stroke="#231F20" stroke-width="4" stroke-linecap="round" stroke-linejoin="round" stroke-miterlimit="22.9256" d="
			M1277.521,914.875c-2.271-2.581-10.325-6.396-15.061-7.593"/>
		
			<path fill="none" stroke="#231F20" stroke-width="4" stroke-linecap="round" stroke-linejoin="round" stroke-miterlimit="22.9256" d="
			M1133.086,919.375c-1.646,4.875-0.771,14.875,1.079,22.608"/>
		
			<path fill="#C8C8C8" stroke="#231F20" stroke-width="4" stroke-linecap="round" stroke-linejoin="round" stroke-miterlimit="22.9256" d="
			M1161.788,913.667c-18.89,6.311-0.3,14.813,11.092,8.146C1184.86,915.948,1171.031,910.58,1161.788,913.667z"/>
		
			<path fill="none" stroke="#231F20" stroke-width="4" stroke-linecap="round" stroke-linejoin="round" stroke-miterlimit="22.9256" d="
			M1264.855,971.208c-0.041,0.486,18.184,26.171,21,27"/>
		
			<path fill="none" stroke="#231F20" stroke-width="4" stroke-linecap="round" stroke-linejoin="round" stroke-miterlimit="22.9256" d="
			M1289.855,964.542c-10.317,2.264-23.543,44.987-30.668,46.333"/>
		
			<path fill="none" stroke="#231F20" stroke-width="4" stroke-linecap="round" stroke-linejoin="round" stroke-miterlimit="22.9256" d="
			M1255.521,991.875c2.511,0.49,39.253-12.028,39.334-12.667"/>
		<path fill="none" stroke="#231F20" stroke-width="4" stroke-linecap="round" stroke-linejoin="round" stroke-miterlimit="10" d="
			M1307.708,890.07c4.25,2.875,4.25,10.375,3.26,13.754"/>
	</g>
	<g>
		<path fill="#FFFFFF" stroke="#231F20" stroke-width="4" stroke-linecap="round" stroke-linejoin="round" d="M867.976,900.203
			c-12.933,20.813,63.375,83.892,79.596,99.765c22.941,22.457,32.109,24.083,59.875,19.854c21.27-3.241,60.104-23.456,44.698-40.035
			"/>
		<path fill="#FFFFFF" stroke="#231F20" stroke-width="4" stroke-linecap="round" stroke-linejoin="round" d="M943.851,885.144
			c10.604,5.039,94.009,82.177,105.753,90.584c17.944,17.307-64.761,40.656-73.757,33.94
			c-17.813-13.304-113.152-100.406-107.872-109.465C876.617,894.132,934.053,880.49,943.851,885.144z"/>
		<path fill="#C8C8C8" stroke="#231F20" stroke-width="4" stroke-linecap="round" stroke-linejoin="round" d="M947.707,896.248
			c8.403,3.994,78.133,68.617,87.443,75.282c-7.527,6.945-53.316,22.315-67.045,22.994c-21.271-19.22-79.801-74.337-84.045-82.833
			C890.91,906.879,928.783,898.261,947.707,896.248z"/>
		<path fill="none" stroke="#231F20" stroke-width="4" stroke-linecap="round" stroke-linejoin="round" d="M1005.611,992.637
			c-0.52,2.048,2.399,3.577,4.726,4.851c3.595-0.302,12.638-3.187,15.259-5.509c-1.071-2.62-2.08-3.857-5.533-4.896
			C1016.507,988.227,1009.807,989.881,1005.611,992.637z"/>
		<path fill="none" stroke="#231F20" stroke-width="4" stroke-linecap="round" stroke-linejoin="round" d="M901.406,898.443
			c6.144-2.17,14.01-4.898,22.021-5.533"/>
	</g>
	<g>
		<polygon fill="#FFFFFF" points="646.395,892.566 643,896.668 643,907 641.112,909.527 626.66,908.586 623.197,940.602 
			623.877,952.501 625.112,955.424 640.833,958.343 645.587,959.668 645.128,975.006 645.076,977.014 646.425,980.483 
			656.723,987.888 663.512,990.805 672.847,993.612 678.783,994.901 683.775,993.639 688.58,988.984 689.553,987.888 
			692.695,987.379 699.729,988.582 706.667,988.965 710.425,990.805 714.293,994.901 717.963,997.723 721.815,999.166 
			730.351,998.779 739.388,997.73 748.506,994.901 752.767,992.284 755,988.965 755,979 755.691,971 759,971 767.146,971.791 
			769.763,969.712 771.175,964.973 773,951.015 773,939 770.992,927.001 768.349,922.546 762.404,919.643 753.683,919.119 
			744.813,915.843 739.729,911.332 737.404,907.388 		"/>
		
			<path fill="#FFFFFF" stroke="#231F20" stroke-width="4" stroke-linecap="round" stroke-linejoin="round" stroke-miterlimit="10" d="
			M668.764,885.19c1.833-0.109,3.663-0.221,5.496-0.329c0.79,0.334,1.396,0.747,1.938,1.206c1.547,1.311,2.635,2.716,3.805,4.107
			c0.998,1.191,1.859,2.406,3.151,3.558c0.462,0.409,0.933,0.577,1.692,0.516c1.07-0.084,2.214-0.002,3.349,0.063
			c3.865,0.226,7.754,0.456,11.679,1.157c1.27,0.229,1.908,0.115,2.401-0.411c1.33-1.422,2.225-2.979,3.448-4.423
			c0.694-0.813,1.354-1.646,2.518-2.263c0.688-0.371,1.509-0.516,2.674-0.218c1.079,0.271,2.193,0.474,3.265,0.764
			c10.333,2.8,19.736,6.661,28.336,11.498c1.76,0.987,1.785,1.094,0.979,2.069c-1.264,1.529-3.255,2.737-5.002,4.063
			c-0.738,0.562-1.521,1.104-2.028,1.771c-0.199,0.259-0.285,0.488,0.22,0.819c3.727,2.438,6.555,5.153,9.365,7.905
			c0.553,0.54,0.422,1.286,1.769,1.602c1.044,0.246,2.095,0.295,3.132,0.354c0.289,0.014,0.573,0.021,0.864,0.034
			c3.515,0.176,6.993,0.224,10.592,0.604c1.729,0.188,3.481,0.394,4.917,1.371c0.779,1.167,1.566,2.336,2.354,3.515
			c-0.175,0.074-0.084,0.201-0.018,0.323c0.919,1.657,1.556,3.313,2.059,4.967c1.396,4.591,1.83,9.076,0.619,13.351
			c-0.288,1.01-0.624,1.104-2.556,1.007c-3.954-0.201-7.962-1.05-11.938-1.688c-1.658-0.269-3.314-0.581-4.956-0.681
			c-0.6-0.034-1.084-0.015-1.192,0.36c-0.428,1.433-1.499,2.642-2.503,3.873c-1.177,1.438-2.331,2.905-4.159,4.058
			c-0.649,0.41-0.669,0.786-0.021,1.411c2.16,2.08,4.867,3.993,7.229,6.038c1.175,1.017,2.371,2.035,3.244,3.128
			c0.573,0.722,1.116,1.488,0.279,2.025c-0.823,0.531-1.653,1.068-2.601,1.523c-7.971,3.836-17.612,6.028-28.744,6.701
			c-1.626,0.1-2.688-0.279-3.766-1.152c-1.777-1.438-2.983-2.994-4.25-4.529c-1.395-1.688-2.563-3.402-4.078-5.058
			c-0.634-0.688-1.309-1.024-2.486-0.913c-1.283,0.125-2.701-0.04-4.079-0.143c-3.998-0.29-8.004-0.602-12.02-1.425
			c-1.375-0.284-2.072-0.17-2.621,0.456c-1.409,1.594-2.354,3.377-3.644,5.036c-0.821,1.06-1.595,2.146-2.932,2.97
			c-0.813,0.502-1.768,0.617-3.168,0.271c-4.045-1-7.928-2.272-11.686-3.735c-8.058-3.143-16.343-6.742-22.723-11.1
			c-1.327-0.902-1.344-1.071-0.562-1.955c1.106-1.253,3.524-2.271,5.003-3.32c1.422-1.018,4.393-2.171,5.541-3.326
			c0.432-0.438-5.879-7.189-7.965-10.321c-6.326-2.222-16.695-2.591-24.438-3.096c-0.554-1.213-0.324-15.582,2.104-20.997
			c0.389-0.872,0.611-0.943,2.289-0.851c2.225,0.132,4.434,0.498,6.648,0.856c2.729,0.438,5.44,1.015,8.202,1.276
			c0.887,0.081,1.328-0.065,1.645-0.563c1.59-2.497,3.794-4.741,6.646-6.682c0.743-0.507,0.866-0.897,0.163-1.563
			c-1.723-1.612-3.74-3.124-5.506-4.698c-1.104-0.984-2.259-1.962-2.844-3.054c-0.315-0.592-0.257-1.063,0.542-1.421
			c0.945-0.424,1.774-0.922,2.759-1.33c5.884-2.431,12.551-4.075,19.923-5.055C667.69,885.438,668.388,885.477,668.764,885.19z"/>
		<path fill="#1D93B9" d="M715.608,924.252c-3.486-5.867-13.891-10.076-23.349-9.525c-9.345,0.549-14.468,5.66-11.367,11.478
			c3.158,5.927,13.823,10.465,23.501,9.927C714.137,935.586,719.15,930.212,715.608,924.252z"/>
		<path fill="#C8C8C8" stroke="#231F20" stroke-width="4" stroke-miterlimit="10" d="M719.205,924.923
			c4.281,7.203-1.778,13.698-13.551,14.354c-11.697,0.647-24.587-4.835-28.404-11.998c-3.748-7.027,2.444-13.208,13.738-13.868
			C702.42,912.745,714.991,917.832,719.205,924.923z"/>
		<path fill="none" stroke="#231F20" stroke-width="4" stroke-linecap="round" stroke-linejoin="round" stroke-miterlimit="10" d="
			M624.558,920.914c-1.14,14.139-2.044,25.201-0.654,33.887"/>
		<path fill="none" stroke="#231F20" stroke-width="4" stroke-linecap="round" stroke-linejoin="round" stroke-miterlimit="10" d="
			M643.834,893.822c0,6.221-0.173,10.369-0.426,14.315"/>
		<path fill="none" stroke="#231F20" stroke-width="4" stroke-linecap="round" stroke-linejoin="round" stroke-miterlimit="10" d="
			M648.325,932.789c0,6.221-0.116,11.676-0.371,15.625"/>
		<path fill="none" stroke="#231F20" stroke-width="4" stroke-linecap="round" stroke-linejoin="round" stroke-miterlimit="10" d="
			M645.586,951.015c0,13.688,0.042,14.346-0.657,27.917"/>
		<path fill="none" stroke="#231F20" stroke-width="4" stroke-linecap="round" stroke-linejoin="round" stroke-miterlimit="10" d="
			M683.263,967.069c0,13.688-0.834,14.341-1.534,27.916"/>
		<path fill="none" stroke="#231F20" stroke-width="4" stroke-linecap="round" stroke-linejoin="round" stroke-miterlimit="10" d="
			M692.024,959.041c0,13.689-0.834,14.343-1.533,27.919"/>
		<path fill="none" stroke="#231F20" stroke-width="4" stroke-linecap="round" stroke-linejoin="round" stroke-miterlimit="10" d="
			M710.425,961.048c0,13.688-0.834,14.343-1.534,27.917"/>
		<path fill="none" stroke="#231F20" stroke-width="4" stroke-linecap="round" stroke-linejoin="round" stroke-miterlimit="10" d="
			M721.815,971.083c-0.141,8.59-0.834,14.341-1.533,27.916"/>
		<path fill="none" stroke="#231F20" stroke-width="4" stroke-linecap="round" stroke-linejoin="round" stroke-miterlimit="10" d="
			M755.987,963.057c-0.141,8.593-0.834,14.345-1.534,27.915"/>
		<path fill="none" stroke="#231F20" stroke-width="4" stroke-linecap="round" stroke-linejoin="round" stroke-miterlimit="10" d="
			M772.635,943.991c-0.138,8.591-1.643,19.471-3.285,27.917"/>
		<path fill="none" stroke="#231F20" stroke-width="4" stroke-linecap="round" stroke-linejoin="round" stroke-miterlimit="10" d="
			M645.076,978.932c8.543,10.786,27.089,14.886,36.508,16.476"/>
		<path fill="none" stroke="#231F20" stroke-width="4" stroke-linecap="round" stroke-linejoin="round" stroke-miterlimit="10" d="
			M681.584,994.901c1.609,0,7.674-6.416,8.908-8.193"/>
		<path fill="none" stroke="#231F20" stroke-width="4" stroke-linecap="round" stroke-linejoin="round" stroke-miterlimit="10" d="
			M708.965,988.965c2.118,3.406,6.718,7.608,11.317,10.201"/>
		<path fill="none" stroke="#231F20" stroke-width="4" stroke-linecap="round" stroke-linejoin="round" stroke-miterlimit="10" d="
			M690.564,986.791c5.4,1.672,12.357,2.318,18.324,2.174"/>
		<path fill="none" stroke="#231F20" stroke-width="4" stroke-linecap="round" stroke-linejoin="round" stroke-miterlimit="10" d="
			M720.428,999.166c10.197-0.403,24.899,0,33.953-8.11"/>
		<path fill="none" stroke="#231F20" stroke-width="4" stroke-linecap="round" stroke-linejoin="round" stroke-miterlimit="10" d="
			M769.404,971.908c-1.188-0.018-13.313-0.698-13.526-2.196"/>
		<path fill="none" stroke="#231F20" stroke-width="4" stroke-linecap="round" stroke-linejoin="round" stroke-miterlimit="10" d="
			M623.9,954.801c5.526,3.106,13.592,3.892,21.026,3.414"/>
	</g>
	<g>
		
			<path fill="#FFFFFF" stroke="#231F20" stroke-width="4" stroke-linecap="round" stroke-linejoin="round" stroke-miterlimit="10" d="
			M197.193,449.292c-5.756-5.091-8.462-7.712-11.59-13.461c-2.88-41.359-0.768-81.849,3.303-124.033
			c59.704-8.597,152.316-8.906,199.943,1.104c2.501,1.873,8.197,4.905,10.441,8.706"/>
		
			<path fill="#FFFFFF" stroke="#231F20" stroke-width="4" stroke-linecap="round" stroke-linejoin="round" stroke-miterlimit="10" d="
			M399.29,449.292c-62.859,7.675-150.363,10.464-202.097,0c-5.064-47.872-5.337-83.634,0-127.684
			c51.732-5.682,156.992-6.933,202.097,0C404.343,369.208,402.883,403.703,399.29,449.292z"/>
		<path fill="none" stroke="#231F20" stroke-width="4" stroke-linecap="round" stroke-linejoin="round" stroke-miterlimit="10" d="
			M189.188,312.361c2.607,1.302,6.082,6.346,7.583,9.104"/>
		
			<path fill="#C8C8C8" stroke="#231F20" stroke-width="4" stroke-linecap="round" stroke-linejoin="round" stroke-miterlimit="10" d="
			M264.259,308.215c2.514,3.442,8.874,4.146,12.255,2.108c6.971-15.24,25.902-23.362,40.218-0.295
			c2.84,2.333,9.761,1.723,11.566,0.289C315.136,278.962,276.386,278.814,264.259,308.215z"/>
		
			<polygon fill="#C8C8C8" stroke="#231F20" stroke-width="4" stroke-linecap="round" stroke-linejoin="round" stroke-miterlimit="10" points="
			335.041,403.986 348.46,377.424 377.787,408.765 431.413,334 451.421,356.95 380.436,432.458 		"/>
	</g>
	<g>
		
			<path fill="#C8C8C8" stroke="#231F20" stroke-width="4" stroke-linecap="round" stroke-linejoin="round" stroke-miterlimit="10" d="
			M366.712,664.823c2.109,2.89,3.923,5.443,5.376,7.593c-29.73,6.567-86.97,9.355-124.896,5.198
			c-20.543-29.189-73.029-106.479-81.101-125.779c2.909,0.033,6.123,0.049,9.576,0.055"/>
		
			<path fill="#FFFFFF" stroke="#231F20" stroke-width="4" stroke-linecap="round" stroke-linejoin="round" stroke-miterlimit="10" d="
			M377.088,662.416c-29.73,6.567-86.97,9.355-124.896,5.198c-20.543-29.189-73.029-106.479-81.101-125.779
			c29.182,0.333,89.008-1.084,112.868,3.542C300.507,564.3,360.968,638.611,377.088,662.416z"/>
		
			<path fill="#C8C8C8" stroke="#231F20" stroke-width="4" stroke-linecap="round" stroke-linejoin="round" stroke-miterlimit="10" d="
			M258,585.167c-13.536,0.689-31,2.302-46.625,1.708c-7.875-9.125-13.008-18.386-21.774-33.607
			c11.895,0.175,36.109-2.002,46.676-0.268C245.376,566.222,249.653,572.598,258,585.167z"/>
		
			<polyline fill="none" stroke="#231F20" stroke-width="4" stroke-linecap="round" stroke-linejoin="round" stroke-miterlimit="10" points="
			262.6,575.889 270.863,582.148 275.5,574.5 287.258,580.485 290.25,571.625 298.101,578.544 		"/>
		
			<polyline fill="none" stroke="#231F20" stroke-width="4" stroke-linecap="round" stroke-linejoin="round" stroke-miterlimit="10" points="
			283.899,557.625 281.667,563.916 272.09,556.125 266.625,565 255.143,559.01 252.704,563.188 		"/>
		
			<polyline fill="none" stroke="#231F20" stroke-width="4" stroke-linecap="round" stroke-linejoin="round" stroke-miterlimit="10" points="
			250.806,648.237 257.533,639.281 269.75,648.25 276,639.75 287.5,648 290.686,637.02 303.875,646.5 309.75,637.02 321.7,646.964 
			322.5,637.02 334.875,646.25 339.462,638.146 350.899,645.077 		"/>
		
			<polyline fill="none" stroke="#231F20" stroke-width="4" stroke-linecap="round" stroke-linejoin="round" stroke-miterlimit="10" points="
			308.625,593 306.957,601.677 299.863,591.875 294.531,601.862 283.375,594 278.75,602 269.625,593 262.6,602.207 250.806,595.625 
			245.25,604 230.822,596.438 225.356,604.375 		"/>
		
			<polyline fill="none" stroke="#231F20" stroke-width="4" stroke-linecap="round" stroke-linejoin="round" stroke-miterlimit="10" points="
			236.485,624.327 241,615.375 250.806,624.375 256.75,613.813 269.125,623.25 273.375,612.875 284.528,622.599 288.167,612.875 
			301.75,624.75 305.5,614.125 314.125,622.75 317.5,612.875 330.625,620.5 		"/>
		<g>
			
				<path fill="#FFFFFF" stroke="#231F20" stroke-width="4" stroke-linecap="round" stroke-linejoin="round" stroke-miterlimit="10" d="
				M374.431,634.358c-10.196,41.754-74.391,17.139-82.598-16.604c0.373-8.291,1.703-14.784,4.398-19.965"/>
			
				<path fill="#FFFFFF" stroke="#231F20" stroke-width="4" stroke-linecap="round" stroke-linejoin="round" stroke-miterlimit="10" d="
				M375.951,613.178c6.502,18.366-5.855,33.254-27.598,33.254c-21.744,0-44.641-14.888-51.144-33.254
				c-6.501-18.367,5.855-33.255,27.598-33.255C346.55,579.923,369.449,594.811,375.951,613.178z"/>
			
				<path fill="#C8C8C8" stroke="#231F20" stroke-width="4" stroke-linecap="round" stroke-linejoin="round" stroke-miterlimit="10" d="
				M364.14,613.178c4.552,12.856-4.098,23.276-19.319,23.276c-15.22,0-31.248-10.42-35.8-23.276
				c-4.551-12.854,4.098-23.275,19.319-23.275C343.56,589.899,359.589,600.32,364.14,613.178z"/>
			
				<path fill="#FFFFFF" stroke="#231F20" stroke-width="4" stroke-linecap="round" stroke-linejoin="round" stroke-miterlimit="10" d="
				M362.469,652.203c22.738,22.091,57.783,58.323,68.786,57.993c9.927-0.3,6.137-10.612-0.581-17.499
				c-11.224-11.506-48.424-38.528-61.15-49.228C366.204,642.723,360.267,644.705,362.469,652.203z"/>
		</g>
	</g>
	<g>
		<g>
			<path fill="#FFFFFF" d="M1065.646,433.118c-0.838-1.148-2.172-1.827-3.592-1.827H900.981l-7.829-28.546
				c-0.529-1.928-2.281-3.265-4.28-3.265h-30.931c-2.451,0-4.438,1.984-4.438,4.438s1.987,4.439,4.438,4.439h27.545l15.438,56.296
				c0.044,0.236,0.109,0.471,0.19,0.691l16.749,61.068c0.525,1.928,2.279,3.264,4.279,3.264H1033.1c1.927,0,3.633-1.237,4.225-3.069
				l28.954-89.515C1066.719,435.744,1066.482,434.266,1065.646,433.118z M972.607,468.279V520.8h-33.29v-52.521H972.607
				L972.607,468.279z M939.317,459.402v-19.234h33.29v19.234H939.317z M982.964,468.279h34.03V520.8h-34.03V468.279z
				 M982.964,459.402v-19.234h34.03v19.234H982.964z M928.96,440.167v19.234h-20.269l-5.275-19.234H928.96z M911.126,468.279h17.834
				V520.8h-3.429L911.126,468.279z M1029.875,520.803h-2.524V468.28h19.517L1029.875,520.803z M1049.735,459.402h-22.388v-19.234
				h28.606L1049.735,459.402z"/>
		</g>
		<g>
			<path fill="#FFFFFF" d="M938.352,538.199c-10.563,0-19.158,8.596-19.158,19.16c0,10.563,8.596,19.157,19.158,19.157
				c10.564,0,19.159-8.594,19.159-19.157C957.511,546.795,948.916,538.199,938.352,538.199z M938.352,567.643
				c-5.67,0-10.28-4.61-10.28-10.28c0-5.671,4.61-10.283,10.28-10.283s10.282,4.612,10.282,10.283
				C948.634,563.03,944.021,567.643,938.352,567.643z"/>
		</g>
		<g>
			<path fill="#FFFFFF" d="M1017,538.199c-10.565,0-19.161,8.596-19.161,19.16c0,10.563,8.596,19.157,19.161,19.157
				c10.563,0,19.159-8.594,19.159-19.157C1036.159,546.795,1027.563,538.199,1017,538.199z M1017,567.643
				c-5.671,0-10.283-4.61-10.283-10.28c0-5.671,4.612-10.283,10.283-10.283c5.669,0,10.281,4.612,10.281,10.283
				C1027.281,563.03,1022.669,567.643,1017,567.643z"/>
		</g>
	</g>
	<g>
		<path fill="#231F20" d="M77.94,107.904c-0.13,2.211-0.13,4.355-0.13,6.565c0,3.056-0.455,7.671-4.03,7.671
			c-3.705,0-3.835-8.19-3.835-10.921c0-1.495,0.065-2.925,0.195-4.42c0.65-8.516,1.3-17.421,1.3-25.937
			c0-1.949-0.13-3.965-0.13-5.979c0-3.381,0.845-5.136,3.965-5.136c2.99,0,4.095,2.016,4.095,5.266c0,2.08-0.39,4.16-0.52,6.175
			C78.135,90.094,78.46,99.064,77.94,107.904z"/>
		<path fill="#231F20" d="M104.85,108.62c-1.3-2.99-10.4-22.427-12.09-22.427c-0.26,0-0.13,1.235-0.13,1.301
			c0,4.485,0.975,8.84,0.975,13.26c0,4.681,0.715,9.296,0.715,13.976c0,2.146-0.26,7.605-3.315,7.605
			c-2.73,0-4.875-3.835-4.875-6.175c0-10.141-0.52-20.281-0.52-30.421c0-2.535,0-11.766,4.29-11.766
			c6.825,0,18.851,23.336,20.996,29.315c0.13,0.391,0.715,2.146,1.365,3.836c0.65,1.625,1.3,3.25,1.755,3.25
			c0.195,0,0.195-0.455,0.195-0.91c0.065-0.455,0.065-0.976,0.065-1.04c0-4.55-1.04-9.165-1.105-13.65l-0.065-8.905
			c0-3.966-0.13-8.32,0.39-12.286c0.39-2.795,2.86-3.64,5.2-3.64c1.17,0,1.625,2.275,1.82,4.29c0.195,2.146,0.195,4.42,0.195,5.005
			c0,5.396-0.585,10.726-0.585,16.056c0,4.681,0.78,9.23,0.78,13.846c0,3.315,0,13.131-5.396,13.131
			C110.831,122.271,106.345,112.195,104.85,108.62z"/>
		<path fill="#231F20" d="M154.575,109.14c-0.195,0.976-0.455,2.34-0.91,3.835c-0.39,1.431-0.975,3.056-1.625,4.551
			c-1.3,2.925-3.12,5.524-5.85,5.524s-4.81-3.12-5.525-5.395c-1.365-4.29-13.196-41.797-13.196-42.707c0-2.274,1.3-4.68,3.9-4.68
			c0.845,0,1.82,0.194,2.6,0.649c1.3,0.65,2.73,5.006,3.9,9.49c1.17,4.485,2.21,9.23,2.6,10.791c1.3,5.46,4.42,10.335,5.655,15.795
			c0.065,0.131,0.13,0.521,0.26,0.91c0.065,0.261,0.195,0.521,0.39,0.521c1.105,0,2.405-5.721,2.6-6.63
			c1.3-5.721,3.12-11.246,4.55-16.901c0.455-1.885,0.91-5.46,1.885-8.58c0.975-3.055,2.535-5.851,5.265-5.851
			c1.885,0,3.315,2.08,3.315,3.771c0,2.08-2.015,9.165-4.29,16.575C157.89,98.154,155.355,105.89,154.575,109.14z"/>
		<path fill="#231F20" d="M188.244,121.295c-3.965,0-7.865,0.976-11.83,0.976c-0.715,0-1.365,0-2.08-0.13
			c-1.69-0.261-2.405-3.381-2.73-6.501c-0.325-3.185-0.195-6.63-0.195-7.995c0-6.825,0.975-13.716,0.975-20.605
			c0-3.9-0.13-7.995-0.78-11.896c-0.065-0.585-0.195-1.17-0.195-1.69c0-2.6,1.625-3.25,3.9-3.25c8.58,0,17.291,0.13,25.936,0.13
			c1.3,0,3.705,2.146,3.705,3.511c0,4.354-6.175,5.2-9.101,5.2c-4.16,0-8.255-0.78-12.351-0.78c-1.04,0-2.275,0-3.25,0.325
			c-1.43,0.52-1.755,7.41-1.755,8.775c0,2.729,0.13,3.64,3.185,3.64c2.275,0,4.55-0.52,6.89-0.52c2.535,0,4.225,0.52,4.225,3.444
			c0,2.601-1.82,3.575-3.965,3.836c-1.105,0.13-2.275,0.13-3.38,0.064c-1.04,0-2.08-0.13-2.86-0.13c-2.73,0-3.9,0.78-4.42,1.95
			c-0.26,0.65-0.325,1.43-0.39,2.34v3.12c0,1.105,0.13,7.41,0.91,8.061c0.715,0.585,1.82,0.585,2.795,0.585
			c4.745,0,9.49-0.975,14.3-0.975c2.6,0,11.766,0.194,11.766,4.55c0,2.275-4.225,3.25-8.581,3.64
			C194.614,121.36,189.804,121.295,188.244,121.295z"/>
		<path fill="#231F20" d="M232.249,108.62c-1.3-2.99-10.4-22.427-12.09-22.427c-0.26,0-0.13,1.235-0.13,1.301
			c0,4.485,0.975,8.84,0.975,13.26c0,4.681,0.715,9.296,0.715,13.976c0,2.146-0.26,7.605-3.315,7.605
			c-2.73,0-4.875-3.835-4.875-6.175c0-10.141-0.52-20.281-0.52-30.421c0-2.535,0-11.766,4.29-11.766
			c6.825,0,18.851,23.336,20.996,29.315c0.13,0.391,0.715,2.146,1.365,3.836c0.65,1.625,1.3,3.25,1.755,3.25
			c0.195,0,0.195-0.455,0.195-0.91c0.065-0.455,0.065-0.976,0.065-1.04c0-4.55-1.04-9.165-1.105-13.65l-0.065-8.905
			c0-3.966-0.13-8.32,0.39-12.286c0.39-2.795,2.86-3.64,5.2-3.64c1.17,0,1.625,2.275,1.82,4.29c0.195,2.146,0.195,4.42,0.195,5.005
			c0,5.396-0.585,10.726-0.585,16.056c0,4.681,0.78,9.23,0.78,13.846c0,3.315,0,13.131-5.395,13.131
			C238.229,122.271,233.744,112.195,232.249,108.62z"/>
		<path fill="#231F20" d="M284.444,77.613c-1.43,0.065-2.665,0-3.64,0c-0.325,0-1.17-0.064-1.95,0
			c-0.845,0.13-1.495,0.26-1.625,0.585c-0.39,0.716-0.52,3.381-0.585,6.176c-0.065,2.729-0.065,5.59-0.065,6.695
			c0,1.819-0.26,3.575-0.26,5.395v0.91c0,5.851,0.91,11.636,0.91,17.421v2.08c-0.065,1.885-0.325,5.59-2.99,5.59
			c-2.535,0-3.641-2.34-4.095-5.005c-0.26-1.3-0.39-2.73-0.455-4.03v-3.185c0-6.436,0.455-12.806,0.455-19.176
			c0-1.625-0.195-12.741-0.715-13.196c-0.065-0.064-0.39-0.064-0.52-0.064c-3.12,0-6.24,0.585-9.425,0.585
			c-1.495,0-6.045-0.065-6.045-2.405c0-1.3,1.235-2.665,2.015-3.445c1.43-1.495,7.996-2.015,14.821-2.274
			c3.38-0.13,6.89-0.195,9.945-0.325c2.99-0.13,5.525-0.26,6.955-0.521c0.39-0.064,0.78-0.13,1.235-0.13
			c1.625,0,5.46,0.846,5.46,3.186c0,2.99-2.405,4.16-5.135,4.745C287.304,77.483,285.809,77.613,284.444,77.613z"/>
		<path fill="#231F20" d="M317.918,122.53c-10.985,0-20.151-12.091-20.151-22.426c0-11.57,7.15-27.626,19.696-30.031
			c0.455-0.065,0.845-0.13,1.235-0.13c10.465,0,17.291,19.956,17.291,28.341c0,5.98-3.445,12.676-6.761,17.551
			C326.499,119.8,322.923,122.53,317.918,122.53z M317.723,77.743c-0.715,0-2.47,0.846-3.12,1.235
			c-6.5,3.9-9.101,15.211-9.621,22.361l-0.065,0.909c-0.39,5.916,5.396,12.806,11.57,12.806c7.216,0,13.131-10.66,13.131-17.226
			c0-4.095-4.29-16.12-7.41-18.591C321.298,78.459,318.893,77.743,317.723,77.743z"/>
		<path fill="#231F20" d="M370.568,119.54c-2.08-2.21-4.42-5.07-6.761-7.931c-4.745-5.85-9.49-11.505-12.61-11.505
			c-1.885,0-2.795,1.235-2.795,3.055c0,3.835,1.105,7.605,1.105,11.506c0,2.729-0.391,7.41-4.29,7.41c-1.95,0-2.926-2.47-2.99-4.03
			c-0.521-11.311-0.195-22.621-0.195-33.932c0-3.119-0.65-6.175-0.65-9.295c0-4.42,7.931-4.42,10.985-4.42
			c2.405,0,4.811,0.13,7.15,0.13c7.735,0,15.081,7.8,15.081,15.405c0,3.9-2.016,7.541-4.94,9.945
			c-0.52,0.391-1.365,0.715-2.275,0.976c-0.845,0.26-1.819,0.455-2.795,0.715c-1.755,0.39-3.25,0.65-3.25,1.365
			c0,1.234,4.355,5.915,8.841,10.66c2.21,2.405,4.42,4.745,6.045,6.63c1.69,1.886,2.86,3.381,2.86,4.03c0,1.3-1.69,2.926-2.99,2.926
			C374.598,123.181,372.648,121.686,370.568,119.54z M351.977,76.509c-1.95,0-2.86,0.39-3.25,1.17
			c-0.26,0.39-0.325,0.845-0.39,1.495c-0.065,0.585-0.065,1.3-0.065,2.145c0,4.03,0.455,8.061,0.975,12.025
			c0.78,0.716,2.99,0.716,4.096,0.716c4.94,0,14.69-2.341,14.69-8.32c0-5.006-3.835-6.891-8.125-7.931
			C357.307,77.158,354.642,76.509,351.977,76.509z"/>
		<path fill="#231F20" d="M411.517,88.534c-0.454,0.715-2.146,2.99-3.641,5.135c-1.56,2.275-2.99,4.355-3.055,4.875
			c-0.715,4.096-0.91,8.516-0.91,12.676c0,2.925,0.52,5.915,0.52,8.841c0,1.819-1.43,2.729-3.055,2.729
			c-1.82,0-3.835-1.104-3.835-3.185l0.064-19.891c0-1.561-0.848-3.511-2.21-5.786c-1.3-2.274-3.12-4.81-4.875-7.345
			c-3.51-5.07-7.15-10.271-7.15-14.041c0-1.56,2.016-2.274,3.12-2.274c2.99,0,6.176,5.59,8.905,10.92
			c1.365,2.73,2.665,5.46,3.771,7.476c1.104,2.08,1.95,3.315,2.47,3.315c0.455,0,1.434-1.235,2.665-3.315
			c1.17-2.016,2.665-4.745,4.16-7.476c2.99-5.33,6.37-10.92,8.971-10.92c1.625,0,3.25,0.845,3.25,2.729
			c0,1.495-1.817,4.615-3.835,7.671C414.767,83.789,412.492,86.909,411.517,88.534z"/>
		<path fill="#231F20" d="M477.688,117.98c-0.261-1.171-0.323-2.405-0.453-3.511c-0.133-1.104-0.263-2.145-0.455-2.925
			c-0.394-1.3-0.585-2.471-0.848-3.51c-0.192-1.041-0.521-1.886-0.907-2.601c-0.78-1.43-2.21-2.275-5.269-2.275
			c-2.272,0-12.415-0.064-13.846,0.78c-0.91,0.521-1.43,1.755-1.689,3.445c-0.322,1.755-0.391,3.77-0.585,5.72
			c-0.325,3.9-0.91,7.801-3.966,7.801c-3.055,0-4.354-0.845-4.354-3.38c0-0.261,0.063-3.705,0.26-4.485
			c0.196-0.78,0.455-1.625,0.52-2.016c0.719-3.77,1.105-7.67,2.08-11.44c1.105-4.354,2.535-8.58,3.836-12.87
			c0.779-2.47,1.433-6.565,2.729-10.075c1.3-3.511,3.313-6.436,6.891-6.436c13.979,0,17.485,14.886,19.176,25.741
			c0.393,2.729,1.625,7.54,2.729,12.155c1.104,4.615,2.146,9.101,2.146,11.115c0,2.405-2.272,2.99-4.095,2.99
			C479.182,122.205,478.142,120.19,477.688,117.98z M459.876,83.594c-0.846,2.405-1.301,5.135-1.561,6.24
			c-0.325,1.561-1.104,3.055-1.104,4.745c0,1.105,0.26,1.561,0.585,1.69c0.194,0.13,0.455,0.194,0.845,0.194h1.17
			c1.758,0,12.48-0.455,13.264-1.104c0.585-0.585,0.777-1.365,0.777-2.275c0-5.07-5.006-14.04-10.791-14.04
			C461.761,79.044,460.721,81.059,459.876,83.594z"/>
		<path fill="#231F20" d="M510.316,108.62c-1.303-2.99-10.4-22.427-12.093-22.427c-0.26,0-0.13,1.235-0.13,1.301
			c0,4.485,0.978,8.84,0.978,13.26c0,4.681,0.715,9.296,0.715,13.976c0,2.146-0.26,7.605-3.314,7.605
			c-2.729,0-4.876-3.835-4.876-6.175c0-10.141-0.52-20.281-0.52-30.421c0-2.535,0-11.766,4.29-11.766
			c6.825,0,18.851,23.336,20.996,29.315c0.13,0.391,0.715,2.146,1.362,3.836c0.649,1.625,1.303,3.25,1.758,3.25
			c0.192,0,0.192-0.455,0.192-0.91c0.064-0.455,0.064-0.976,0.064-1.04c0-4.55-1.04-9.165-1.105-13.65l-0.063-8.905
			c0-3.966-0.13-8.32,0.39-12.286c0.394-2.795,2.86-3.64,5.2-3.64c1.17,0,1.625,2.275,1.82,4.29c0.192,2.146,0.192,4.42,0.192,5.005
			c0,5.396-0.585,10.726-0.585,16.056c0,4.681,0.779,9.23,0.779,13.846c0,3.315,0,13.131-5.396,13.131
			C516.296,122.271,511.811,112.195,510.316,108.62z"/>
		<path fill="#231F20" d="M541.646,122.01c-5.07,0-9.946-0.13-9.946-6.63c0-2.73,0.716-5.33,0.91-7.995
			c0.647-7.605,0.322-15.405,0.322-23.076c0-1.365-0.13-4.485,0.132-7.41c0.262-2.86,0.908-5.655,2.602-6.045
			c2.08-0.521,4.55-0.585,6.63-0.585c11.767,0,28.472,6.76,28.472,20.801c0,2.925-0.846,5.72-2.08,8.255
			C562.901,111.09,556.466,122.01,541.646,122.01z M546.26,77.354c-0.585,0-1.104,0-1.625,0.13c-1.885,0.455-2.665,0.65-3.055,1.17
			c-0.195,0.195-0.26,0.521-0.325,0.976c-0.063,0.52-0.063,1.104-0.063,1.885c0,8.45,0,17.291-1.04,25.611
			c-0.195,1.625-0.521,3.185-0.521,4.81c0,2.016,0.78,2.99,2.86,2.99c10.01,0,20.147-16.381,20.147-25.48
			c0-4.421-1.947-7.541-5.979-9.426C553.801,78.719,549.316,77.354,546.26,77.354z"/>
		<path fill="#231F20" d="M151.813,195.98c-0.26-1.171-0.325-2.405-0.455-3.511c-0.13-1.104-0.26-2.145-0.455-2.925
			c-0.39-1.3-0.585-2.471-0.845-3.51c-0.195-1.041-0.52-1.886-0.91-2.601c-0.78-1.43-2.21-2.275-5.265-2.275
			c-2.275,0-12.416-0.064-13.845,0.78c-0.91,0.521-1.43,1.755-1.69,3.445c-0.325,1.755-0.39,3.77-0.585,5.72
			c-0.325,3.9-0.91,7.801-3.965,7.801c-3.055,0-4.355-0.845-4.355-3.38c0-0.261,0.065-3.705,0.26-4.485
			c0.195-0.78,0.455-1.625,0.52-2.016c0.715-3.77,1.105-7.67,2.08-11.44c1.105-4.354,2.535-8.58,3.835-12.87
			c0.78-2.47,1.43-6.565,2.73-10.075c1.3-3.511,3.315-6.436,6.891-6.436c13.976,0,17.485,14.886,19.176,25.741
			c0.39,2.729,1.625,7.54,2.73,12.155c1.105,4.615,2.145,9.101,2.145,11.115c0,2.405-2.275,2.99-4.095,2.99
			C153.308,200.205,152.268,198.19,151.813,195.98z M134.002,161.594c-0.845,2.405-1.3,5.135-1.56,6.24
			c-0.325,1.561-1.105,3.055-1.105,4.745c0,1.105,0.26,1.561,0.585,1.69c0.195,0.13,0.455,0.194,0.845,0.194h1.17
			c1.755,0,12.48-0.455,13.261-1.104c0.585-0.585,0.78-1.365,0.78-2.275c0-5.07-5.005-14.04-10.791-14.04
			C135.887,157.044,134.847,159.059,134.002,161.594z"/>
		<path fill="#231F20" d="M183.207,200.465c-12.026-1.104-18.006-15.08-18.006-25.676c0-13.195,8.775-26.976,23.206-26.976
			c3.705,0,10.79,2.34,10.79,7.085c0,1.235-0.585,4.16-2.34,4.16c-0.455,0-1.04-0.13-1.69-0.39c-0.65-0.261-1.365-0.521-2.146-0.846
			c-1.625-0.649-3.51-1.3-5.59-1.3c-1.43,0-2.86,0.26-4.225,0.65c-5.916,1.689-11.246,12.155-11.246,18.006
			c0,8.84,6.37,18.005,15.795,18.005c3.25,0,4.746-1.3,6.045-2.535c0.65-0.649,1.235-1.3,1.95-1.755
			c0.78-0.52,1.625-0.845,2.795-0.845c2.34,0,2.405,1.885,2.405,3.575c0,7.54-8.385,8.971-14.105,8.971
			C185.612,200.596,184.377,200.596,183.207,200.465z"/>
		<path fill="#231F20" d="M224.741,200.465c-12.026-1.104-18.006-15.08-18.006-25.676c0-13.195,8.775-26.976,23.206-26.976
			c3.705,0,10.79,2.34,10.79,7.085c0,1.235-0.585,4.16-2.34,4.16c-0.455,0-1.04-0.13-1.69-0.39c-0.65-0.261-1.365-0.521-2.146-0.846
			c-1.625-0.649-3.51-1.3-5.59-1.3c-1.43,0-2.86,0.26-4.225,0.65c-5.916,1.689-11.246,12.155-11.246,18.006
			c0,8.84,6.37,18.005,15.795,18.005c3.25,0,4.746-1.3,6.045-2.535c0.65-0.649,1.235-1.3,1.95-1.755
			c0.78-0.52,1.625-0.845,2.795-0.845c2.34,0,2.405,1.885,2.405,3.575c0,7.54-8.385,8.971-14.105,8.971
			C227.146,200.596,225.911,200.596,224.741,200.465z"/>
		<path fill="#231F20" d="M267.575,200.53c-10.985,0-20.151-12.091-20.151-22.426c0-11.57,7.15-27.626,19.696-30.031
			c0.455-0.065,0.845-0.13,1.235-0.13c10.465,0,17.291,19.956,17.291,28.341c0,5.98-3.445,12.676-6.76,17.551
			C276.156,197.8,272.581,200.53,267.575,200.53z M267.38,155.743c-0.715,0-2.47,0.846-3.12,1.235
			c-6.5,3.9-9.101,15.211-9.621,22.361l-0.065,0.909c-0.39,5.916,5.396,12.806,11.57,12.806c7.215,0,13.131-10.66,13.131-17.226
			c0-4.095-4.291-16.12-7.411-18.591C270.956,156.459,268.55,155.743,267.38,155.743z"/>
		<path fill="#231F20" d="M308.915,200.985c-12.09,0-17.94-10.921-17.94-21.776c0-1.625,0.13-3.185,0.325-4.81
			c0.325-2.275,0.65-8.45,1.625-14.041c0.975-5.524,2.6-10.79,5.786-10.79c2.47,0,2.925,3.055,2.925,4.811
			c0,2.6-0.585,5.069-1.235,7.475c-0.715,2.405-1.43,4.811-1.755,7.28c-0.455,3.056-0.715,6.176-0.715,9.296
			c0,8.125,2.405,14.3,11.57,14.3c5.33,0,8.061-3.575,9.556-8.255c0.715-2.34,1.17-4.94,1.495-7.41
			c0.26-2.471,0.455-4.875,0.585-6.825c0.064-0.521,0.13-1.04,0.13-1.625c0-5.721-3.25-10.855-3.25-16.641
			c0-2.146,0.13-3.771,2.795-3.771c7.15,0,8.386,17.096,8.386,22.101c0,6.761-3.12,25.091-10.076,28.342
			C316,200.075,312.425,200.985,308.915,200.985z"/>
		<path fill="#231F20" d="M353.439,186.62c-1.3-2.99-10.4-22.427-12.09-22.427c-0.26,0-0.13,1.235-0.13,1.301
			c0,4.485,0.975,8.84,0.975,13.26c0,4.681,0.715,9.296,0.715,13.976c0,2.146-0.26,7.605-3.314,7.605
			c-2.73,0-4.876-3.835-4.876-6.175c0-10.141-0.52-20.281-0.52-30.421c0-2.535,0-11.766,4.29-11.766
			c6.825,0,18.851,23.336,20.996,29.315c0.13,0.391,0.715,2.146,1.365,3.836c0.649,1.625,1.3,3.25,1.755,3.25
			c0.195,0,0.195-0.455,0.195-0.91c0.064-0.455,0.064-0.976,0.064-1.04c0-4.55-1.04-9.165-1.105-13.65l-0.064-8.905
			c0-3.966-0.13-8.32,0.39-12.286c0.391-2.795,2.86-3.64,5.2-3.64c1.17,0,1.625,2.275,1.82,4.29c0.195,2.146,0.195,4.42,0.195,5.005
			c0,5.396-0.585,10.726-0.585,16.056c0,4.681,0.779,9.23,0.779,13.846c0,3.315,0,13.131-5.395,13.131
			C359.419,200.271,354.934,190.195,353.439,186.62z"/>
		<path fill="#231F20" d="M405.634,155.613c-1.43,0.065-2.665,0-3.64,0c-0.325,0-1.171-0.064-1.95,0
			c-0.846,0.13-1.495,0.26-1.625,0.585c-0.391,0.716-0.521,3.381-0.585,6.176c-0.065,2.729-0.065,5.59-0.065,6.695
			c0,1.819-0.26,3.575-0.26,5.395v0.91c0,5.851,0.91,11.636,0.91,17.421v2.08c-0.065,1.885-0.325,5.59-2.99,5.59
			c-2.535,0-3.641-2.34-4.096-5.005c-0.26-1.3-0.39-2.73-0.455-4.03v-3.185c0-6.436,0.455-12.806,0.455-19.176
			c0-1.625-0.194-12.741-0.715-13.196c-0.064-0.064-0.39-0.064-0.52-0.064c-3.12,0-6.24,0.585-9.426,0.585
			c-1.495,0-6.045-0.065-6.045-2.405c0-1.3,1.234-2.665,2.015-3.445c1.431-1.495,7.995-2.015,14.82-2.274
			c3.381-0.13,6.891-0.195,9.946-0.325c2.989-0.13,5.521-0.26,6.955-0.521c0.39-0.064,0.776-0.13,1.231-0.13
			c1.625,0,5.461,0.846,5.461,3.186c0,2.99-2.402,4.16-5.136,4.745C408.495,155.483,407,155.613,405.634,155.613z"/>
		<path fill="#231F20" d="M428.512,185.904c-0.13,2.211-0.13,4.355-0.13,6.565c0,3.056-0.455,7.671-4.03,7.671
			c-3.702,0-3.835-8.19-3.835-10.921c0-1.495,0.065-2.925,0.195-4.42c0.65-8.516,1.3-17.421,1.3-25.937
			c0-1.949-0.13-3.965-0.13-5.979c0-3.381,0.845-5.136,3.965-5.136c2.99,0,4.099,2.016,4.099,5.266c0,2.08-0.394,4.16-0.521,6.175
			C428.708,168.094,429.033,177.064,428.512,185.904z"/>
		<path fill="#231F20" d="M455.423,186.62c-1.301-2.99-10.397-22.427-12.091-22.427c-0.26,0-0.13,1.235-0.13,1.301
			c0,4.485,0.975,8.84,0.975,13.26c0,4.681,0.715,9.296,0.715,13.976c0,2.146-0.26,7.605-3.313,7.605
			c-2.73,0-4.875-3.835-4.875-6.175c0-10.141-0.521-20.281-0.521-30.421c0-2.535,0-11.766,4.29-11.766
			c6.825,0,18.854,23.336,20.996,29.315c0.13,0.391,0.715,2.146,1.365,3.836c0.649,1.625,1.3,3.25,1.755,3.25
			c0.194,0,0.194-0.455,0.194-0.91c0.063-0.455,0.063-0.976,0.063-1.04c0-4.55-1.04-9.165-1.104-13.65l-0.065-8.905
			c0-3.966-0.13-8.32,0.393-12.286c0.391-2.795,2.857-3.64,5.197-3.64c1.173,0,1.625,2.275,1.82,4.29
			c0.195,2.146,0.195,4.42,0.195,5.005c0,5.396-0.585,10.726-0.585,16.056c0,4.681,0.776,9.23,0.776,13.846
			c0,3.315,0,13.131-5.395,13.131C461.403,200.271,456.917,190.195,455.423,186.62z"/>
		<path fill="#231F20" d="M495.658,199.425c-7.865-1.495-16.644-9.75-18.526-17.55c-0.585-2.471-0.91-4.94-0.91-7.476
			c0-14.041,10.599-26.326,25.091-26.326c3.644,0,11.639,2.146,11.639,6.955c0,1.3-0.649,4.096-2.473,4.096
			c-0.647,0-1.362-0.195-2.077-0.391c-0.78-0.26-1.563-0.585-2.405-0.845c-1.755-0.65-3.643-1.235-5.72-1.235
			c-1.563,0-3.121,0.195-4.615,0.585c-6.046,1.561-12.156,11.44-12.156,17.551c0,9.36,7.605,17.551,17.096,17.551
			c2.929,0,5.462-0.91,7.349-3.186c1.495-1.819,3.835-6.76,3.835-9.035c0-1.755-1.82-2.015-3.38-2.015c-1.95,0-3.9,0.39-5.854,0.39
			c-3.51,0-4.745-1.56-4.745-5.005c0-2.21,10.599-2.665,12.093-2.665c1.363,0,4.613-0.065,5.914,0.65
			c0.649,0.324,2.602,1.819,2.859,2.6c0.194,0.845,0.325,1.885,0.391,2.99v2.99c0,12.155-5.914,19.825-18.33,19.825
			C499.038,199.88,497.347,199.75,495.658,199.425z"/>
	</g>
	<g>
		<path fill="#231F20" d="M1422.373,110.05c0-1.95,2.34-2.405,3.77-2.405c1.759,0,3.121,1.235,4.16,2.535
			c0.394,0.455,0.78,0.91,1.17,1.43c1.563,1.95,3.121,3.836,5.525,3.836c6.11,0,11.766-4.615,11.766-11.051
			c0-2.795-2.532-4.226-5.721-4.94c-3.185-0.78-6.824-0.845-8.97-1.104c-5.525-0.65-9.425-6.176-9.425-11.506
			c0-7.28,4.481-16.511,12.74-16.511c5.135,0,16.442,3.186,16.442,9.881c0,1.3-2.21,3.445-3.51,3.445
			c-0.846,0-1.69-0.455-2.535-1.04c-0.846-0.586-1.756-1.431-2.666-2.211c-1.885-1.625-3.899-3.12-6.175-3.12
			c-4.16,0-7.085,5.98-7.085,9.686c0,1.431,0.39,2.926,1.43,3.9c0.585,0.521,2.019,0.91,4.096,1.3
			c2.018,0.325,4.484,0.715,6.955,1.235c4.875,1.04,9.815,2.86,10.599,7.021c0.321,1.56,0.453,3.185,0.453,4.745
			c0,10.855-7.802,17.16-18.199,17.16C1432.318,122.335,1422.373,115.445,1422.373,110.05z"/>
		<path fill="#231F20" d="M1492.639,117.98c-0.26-1.171-0.322-2.405-0.455-3.511c-0.131-1.104-0.26-2.145-0.452-2.925
			c-0.394-1.3-0.585-2.471-0.849-3.51c-0.191-1.041-0.52-1.886-0.91-2.601c-0.776-1.43-2.209-2.275-5.265-2.275
			c-2.274,0-12.415-0.064-13.845,0.78c-0.91,0.521-1.434,1.755-1.691,3.445c-0.324,1.755-0.389,3.77-0.584,5.72
			c-0.324,3.9-0.91,7.801-3.965,7.801c-3.056,0-4.354-0.845-4.354-3.38c0-0.261,0.063-3.705,0.26-4.485
			c0.194-0.78,0.455-1.625,0.52-2.016c0.716-3.77,1.105-7.67,2.08-11.44c1.105-4.354,2.535-8.58,3.836-12.87
			c0.779-2.47,1.433-6.565,2.729-10.075c1.3-3.511,3.313-6.436,6.891-6.436c13.979,0,17.485,14.886,19.176,25.741
			c0.393,2.729,1.625,7.54,2.729,12.155c1.104,4.615,2.146,9.101,2.146,11.115c0,2.405-2.272,2.99-4.095,2.99
			C1494.133,122.205,1493.094,120.19,1492.639,117.98z M1474.828,83.594c-0.846,2.405-1.301,5.135-1.563,6.24
			c-0.321,1.561-1.104,3.055-1.104,4.745c0,1.105,0.261,1.561,0.586,1.69c0.195,0.13,0.455,0.194,0.845,0.194h1.17
			c1.756,0,12.48-0.455,13.264-1.104c0.585-0.585,0.776-1.365,0.776-2.275c0-5.07-5.005-14.04-10.79-14.04
			C1476.713,79.044,1475.673,81.059,1474.828,83.594z"/>
		<path fill="#231F20" d="M1527.738,122.335c-2.019,0-3.966-0.194-5.98-0.26c-2.08-0.065-4.16,0.195-6.176,0.195
			c-3.77,0-8.71-0.521-8.71-5.525c0-9.815,0.325-19.631,0.78-29.446c0.26-4.68,0.39-9.556,1.039-14.235
			c0.391-2.86,2.535-2.99,4.811-2.99c1.563,0,2.146,0.455,2.34,1.365c0.065,0.39,0.065,0.91,0,1.495
			c-0.063,0.52-0.129,1.17-0.129,1.885c0,2.795-0.716,12.936-0.716,15.73c0,7.735-0.325,8.061-0.91,15.796
			c-0.13,1.95-0.585,4.875-0.585,6.825c0,1.17,0.521,1.56,1.235,1.625c0.455,0.065,0.91,0,1.43,0c0.521,0,1.105-0.065,1.626-0.065
			c4.289,0,8.063,0.195,12.285,0.195c2.404,0,5.785-0.26,5.785,3.186c0,2.34-1.235,3.38-2.86,3.835
			C1531.378,122.401,1529.428,122.335,1527.738,122.335z"/>
		<path fill="#231F20" d="M1560.887,121.295c-3.965,0-7.865,0.976-11.83,0.976c-0.716,0-1.362,0-2.08-0.13
			c-1.688-0.261-2.403-3.381-2.729-6.501c-0.325-3.185-0.195-6.63-0.195-7.995c0-6.825,0.978-13.716,0.978-20.605
			c0-3.9-0.129-7.995-0.779-11.896c-0.063-0.585-0.194-1.17-0.194-1.69c0-2.6,1.625-3.25,3.899-3.25c8.58,0,17.291,0.13,25.937,0.13
			c1.303,0,3.705,2.146,3.705,3.511c0,4.354-6.176,5.2-9.101,5.2c-4.16,0-8.256-0.78-12.352-0.78c-1.039,0-2.274,0-3.25,0.325
			c-1.433,0.52-1.757,7.41-1.757,8.775c0,2.729,0.132,3.64,3.188,3.64c2.274,0,4.55-0.52,6.89-0.52c2.535,0,4.229,0.52,4.229,3.444
			c0,2.601-1.819,3.575-3.965,3.836c-1.105,0.13-2.275,0.13-3.382,0.064c-1.041,0-2.079-0.13-2.858-0.13
			c-2.729,0-3.9,0.78-4.421,1.95c-0.262,0.65-0.324,1.43-0.393,2.34v3.12c0,1.105,0.131,7.41,0.91,8.061
			c0.715,0.585,1.82,0.585,2.795,0.585c4.745,0,9.491-0.975,14.304-0.975c2.601,0,11.766,0.194,11.766,4.55
			c0,2.275-4.228,3.25-8.581,3.64C1567.257,121.36,1562.446,121.295,1560.887,121.295z"/>
		<path fill="#231F20" d="M1583.766,110.05c0-1.95,2.34-2.405,3.771-2.405c1.755,0,3.12,1.235,4.16,2.535
			c0.39,0.455,0.779,0.91,1.17,1.43c1.56,1.95,3.12,3.836,5.525,3.836c6.107,0,11.766-4.615,11.766-11.051
			c0-2.795-2.535-4.226-5.721-4.94c-3.188-0.78-6.825-0.845-8.973-1.104c-5.522-0.65-9.426-6.176-9.426-11.506
			c0-7.28,4.484-16.511,12.74-16.511c5.136,0,16.443,3.186,16.443,9.881c0,1.3-2.211,3.445-3.511,3.445
			c-0.845,0-1.688-0.455-2.535-1.04c-0.845-0.586-1.755-1.431-2.665-2.211c-1.885-1.625-3.897-3.12-6.175-3.12
			c-4.16,0-7.086,5.98-7.086,9.686c0,1.431,0.391,2.926,1.43,3.9c0.587,0.521,2.019,0.91,4.099,1.3
			c2.016,0.325,4.482,0.715,6.955,1.235c4.875,1.04,9.813,2.86,10.596,7.021c0.324,1.56,0.455,3.185,0.455,4.745
			c0,10.855-7.803,17.16-18.201,17.16C1593.711,122.335,1583.766,115.445,1583.766,110.05z"/>
		<path fill="#231F20" d="M1673.532,117.98c-0.261-1.171-0.325-2.405-0.455-3.511c-0.13-1.104-0.26-2.145-0.455-2.925
			c-0.391-1.3-0.585-2.471-0.845-3.51c-0.195-1.041-0.521-1.886-0.91-2.601c-0.78-1.43-2.21-2.275-5.266-2.275
			c-2.275,0-12.416-0.064-13.849,0.78c-0.91,0.521-1.43,1.755-1.688,3.445c-0.325,1.755-0.394,3.77-0.585,5.72
			c-0.325,3.9-0.91,7.801-3.967,7.801s-4.354-0.845-4.354-3.38c0-0.261,0.063-3.705,0.26-4.485c0.196-0.78,0.455-1.625,0.521-2.016
			c0.716-3.77,1.104-7.67,2.08-11.44c1.104-4.354,2.533-8.58,3.836-12.87c0.777-2.47,1.43-6.565,2.729-10.075
			c1.303-3.511,3.315-6.436,6.894-6.436c13.976,0,17.482,14.886,19.176,25.741c0.39,2.729,1.625,7.54,2.729,12.155
			c1.104,4.615,2.146,9.101,2.146,11.115c0,2.405-2.275,2.99-4.095,2.99C1675.027,122.205,1673.987,120.19,1673.532,117.98z
			 M1655.722,83.594c-0.846,2.405-1.301,5.135-1.561,6.24c-0.325,1.561-1.104,3.055-1.104,4.745c0,1.105,0.263,1.561,0.585,1.69
			c0.194,0.13,0.455,0.194,0.848,0.194h1.17c1.755,0,12.479-0.455,13.261-1.104c0.585-0.585,0.78-1.365,0.78-2.275
			c0-5.07-5.006-14.04-10.791-14.04C1657.605,79.044,1656.566,81.059,1655.722,83.594z"/>
		<path fill="#231F20" d="M1706.161,108.62c-1.3-2.99-10.4-22.427-12.09-22.427c-0.261,0-0.13,1.235-0.13,1.301
			c0,4.485,0.975,8.84,0.975,13.26c0,4.681,0.715,9.296,0.715,13.976c0,2.146-0.26,7.605-3.313,7.605
			c-2.73,0-4.876-3.835-4.876-6.175c0-10.141-0.521-20.281-0.521-30.421c0-2.535,0-11.766,4.29-11.766
			c6.825,0,18.854,23.336,20.996,29.315c0.13,0.391,0.715,2.146,1.365,3.836c0.646,1.625,1.3,3.25,1.755,3.25
			c0.194,0,0.194-0.455,0.194-0.91c0.063-0.455,0.063-0.976,0.063-1.04c0-4.55-1.04-9.165-1.104-13.65l-0.063-8.905
			c0-3.966-0.13-8.32,0.39-12.286c0.394-2.795,2.86-3.64,5.2-3.64c1.17,0,1.625,2.275,1.82,4.29c0.192,2.146,0.192,4.42,0.192,5.005
			c0,5.396-0.585,10.726-0.585,16.056c0,4.681,0.779,9.23,0.779,13.846c0,3.315,0,13.131-5.395,13.131
			C1712.142,122.271,1707.656,112.195,1706.161,108.62z"/>
		<path fill="#231F20" d="M1737.491,122.01c-5.07,0-9.946-0.13-9.946-6.63c0-2.73,0.716-5.33,0.91-7.995
			c0.65-7.605,0.325-15.405,0.325-23.076c0-1.365-0.13-4.485,0.13-7.41c0.261-2.86,0.91-5.655,2.601-6.045
			c2.08-0.521,4.55-0.585,6.63-0.585c11.769,0,28.475,6.76,28.475,20.801c0,2.925-0.849,5.72-2.08,8.255
			C1758.746,111.09,1752.313,122.01,1737.491,122.01z M1742.105,77.354c-0.588,0-1.104,0-1.625,0.13
			c-1.888,0.455-2.666,0.65-3.058,1.17c-0.192,0.195-0.26,0.521-0.325,0.976c-0.063,0.52-0.063,1.104-0.063,1.885
			c0,8.45,0,17.291-1.04,25.611c-0.195,1.625-0.521,3.185-0.521,4.81c0,2.016,0.78,2.99,2.86,2.99c10.01,0,20.15-16.381,20.15-25.48
			c0-4.421-1.95-7.541-5.98-9.426C1749.646,78.719,1745.161,77.354,1742.105,77.354z"/>
		<path fill="#231F20" d="M1453.412,177.975c0,5.2-0.26,10.4-0.26,15.535c0,1.561-0.263,6.24-2.34,6.24
			c-4.813,0-5.139-4.29-5.139-7.865c0-7.67,1.303-15.275,1.303-23.011c0-2.146,0.452-4.355,0.452-6.565c0-0.195,0-0.649-0.063-1.104
			c-0.065-0.325-0.131-0.65-0.392-0.65c-0.521,0-1.233,0.455-2.212,1.17c-0.976,0.715-2.079,1.69-3.313,2.665
			c-2.404,1.95-5.267,3.9-7.931,3.9c-2.079,0-3.966-1.625-5.591-3.186c-0.847-0.779-1.625-1.625-2.342-2.21
			c-0.715-0.585-1.363-0.91-1.949-0.91c-0.521,0-0.777,0.455-0.909,1.171c-0.063,0.324-0.063,0.715-0.063,1.039v0.91
			c0,6.631,0.976,13.131,0.976,19.761c0,1.105,0,4.811-0.391,8.19c-0.325,3.381-1.104,6.761-2.925,6.761
			c-4.42,0-4.746-5.136-4.746-8.32c0-2.99,0.521-5.98,0.521-9.035c0-6.046-0.846-12.091-0.846-18.201
			c0-2.86,0.393-14.886,5.199-14.886c2.016,0,4.484,2.795,6.826,5.461c1.17,1.364,2.273,2.729,3.313,3.77
			c1.041,1.04,1.95,1.69,2.603,1.69c0.91,0,2.08-0.715,3.511-1.82c1.43-1.04,2.989-2.47,4.549-3.9
			c3.121-2.86,6.438-5.785,8.711-5.785c4.29,0,4.813,4.226,4.813,7.476c0,5.655-1.495,11.311-1.495,16.966
			C1453.282,174.854,1453.412,176.414,1453.412,177.975z"/>
		<path fill="#231F20" d="M1492.801,195.98c-0.26-1.171-0.324-2.405-0.455-3.511c-0.13-1.104-0.26-2.145-0.455-2.925
			c-0.39-1.3-0.584-2.471-0.845-3.51c-0.191-1.041-0.521-1.886-0.91-2.601c-0.777-1.43-2.21-2.275-5.265-2.275
			c-2.275,0-12.416-0.064-13.846,0.78c-0.91,0.521-1.433,1.755-1.69,3.445c-0.325,1.755-0.39,3.77-0.585,5.72
			c-0.324,3.9-0.91,7.801-3.965,7.801s-4.354-0.845-4.354-3.38c0-0.261,0.063-3.705,0.26-4.485c0.196-0.78,0.455-1.625,0.521-2.016
			c0.716-3.77,1.104-7.67,2.08-11.44c1.104-4.354,2.535-8.58,3.835-12.87c0.78-2.47,1.433-6.565,2.73-10.075
			c1.3-3.511,3.313-6.436,6.891-6.436c13.978,0,17.484,14.886,19.175,25.741c0.393,2.729,1.626,7.54,2.73,12.155
			c1.104,4.615,2.146,9.101,2.146,11.115c0,2.405-2.272,2.99-4.096,2.99C1494.296,200.205,1493.256,198.19,1492.801,195.98z
			 M1474.99,161.594c-0.846,2.405-1.301,5.135-1.563,6.24c-0.321,1.561-1.104,3.055-1.104,4.745c0,1.105,0.261,1.561,0.585,1.69
			c0.192,0.13,0.455,0.194,0.846,0.194h1.17c1.755,0,12.48-0.455,13.26-1.104c0.588-0.585,0.78-1.365,0.78-2.275
			c0-5.07-5.005-14.04-10.79-14.04C1476.875,157.044,1475.836,159.059,1474.99,161.594z"/>
		<path fill="#231F20" d="M1535.766,197.54c-2.08-2.21-4.42-5.07-6.76-7.931c-4.746-5.85-9.49-11.505-12.611-11.505
			c-1.885,0-2.795,1.235-2.795,3.055c0,3.835,1.105,7.605,1.105,11.506c0,2.729-0.391,7.41-4.291,7.41
			c-1.949,0-2.925-2.47-2.99-4.03c-0.52-11.311-0.193-22.621-0.193-33.932c0-3.119-0.647-6.175-0.647-9.295
			c0-4.42,7.93-4.42,10.982-4.42c2.404,0,4.813,0.13,7.149,0.13c7.735,0,15.081,7.8,15.081,15.405c0,3.9-2.015,7.541-4.938,9.945
			c-0.521,0.391-1.365,0.715-2.275,0.976c-0.845,0.26-1.819,0.455-2.795,0.715c-1.755,0.39-3.25,0.65-3.25,1.365
			c0,1.234,4.354,5.915,8.84,10.66c2.211,2.405,4.421,4.745,6.046,6.63c1.69,1.886,2.86,3.381,2.86,4.03
			c0,1.3-1.69,2.926-2.99,2.926C1539.796,201.181,1537.846,199.686,1535.766,197.54z M1517.175,154.509
			c-1.95,0-2.857,0.39-3.25,1.17c-0.261,0.39-0.325,0.845-0.39,1.495c-0.065,0.585-0.065,1.3-0.065,2.145
			c0,4.03,0.455,8.061,0.979,12.025c0.776,0.716,2.989,0.716,4.095,0.716c4.939,0,14.689-2.341,14.689-8.32
			c0-5.006-3.834-6.891-8.125-7.931C1522.505,155.158,1519.84,154.509,1517.175,154.509z"/>
		<path fill="#231F20" d="M1577.3,197.28c-0.585-0.78-1.171-1.625-1.688-2.34c-0.521-0.78-0.978-1.431-1.365-1.82
			c-1.17-1.235-4.68-5.266-8.255-9.035c-3.643-3.836-7.15-7.15-8.386-7.15c-0.584,0-0.848,0.845-0.978,1.819
			c-0.13,1.041-0.13,2.211-0.13,2.601c0,5.07,1.04,10.075,1.04,15.081c0,2.145-1.756,3.705-3.836,3.705
			c-2.274,0-3.25-1.69-3.444-3.641c-1.56-14.105-1.232-29.316-1.755-43.356c-0.063-2.016,1.17-4.681,3.574-4.681
			c3.121,0,3.511,4.615,3.576,8.971c0.063,2.21,0,4.485,0.063,6.24c0.064,1.885,0.325,2.99,0.849,3.25h0.129
			c0.261,0,1.625-1.04,3.056-2.34c1.432-1.235,2.86-2.535,3.315-2.925c4.42-3.641,8.255-8.451,11.766-13.065
			c1.625,0,3.965,0.324,3.965,2.47c0,3.38-4.226,7.995-8.319,12.025c-2.078,2.015-4.158,3.9-5.722,5.396
			c-1.625,1.56-2.535,2.6-2.535,2.99c0,1.494,5.201,4.81,6.438,5.85c3.898,3.315,15.471,14.756,15.471,19.826
			c0,1.56-1.301,2.99-2.926,2.99C1579.77,200.141,1578.404,198.775,1577.3,197.28z"/>
		<path fill="#231F20" d="M1605.77,199.295c-3.966,0-7.862,0.976-11.827,0.976c-0.718,0-1.365,0-2.08-0.13
			c-1.69-0.261-2.406-3.381-2.73-6.501c-0.323-3.185-0.192-6.63-0.192-7.995c0-6.825,0.975-13.716,0.975-20.605
			c0-3.9-0.129-7.995-0.779-11.896c-0.063-0.585-0.192-1.17-0.192-1.69c0-2.6,1.625-3.25,3.897-3.25c8.58,0,17.29,0.13,25.938,0.13
			c1.3,0,3.704,2.146,3.704,3.511c0,4.354-6.177,5.2-9.102,5.2c-4.16,0-8.256-0.78-12.351-0.78c-1.04,0-2.275,0-3.25,0.325
			c-1.432,0.52-1.755,7.41-1.755,8.775c0,2.729,0.129,3.64,3.185,3.64c2.275,0,4.55-0.52,6.893-0.52c2.534,0,4.226,0.52,4.226,3.444
			c0,2.601-1.82,3.575-3.965,3.836c-1.105,0.13-2.275,0.13-3.381,0.064c-1.039,0-2.079-0.13-2.859-0.13
			c-2.729,0-3.899,0.78-4.421,1.95c-0.261,0.65-0.324,1.43-0.391,2.34v3.12c0,1.105,0.13,7.41,0.909,8.061
			c0.716,0.585,1.819,0.585,2.796,0.585c4.743,0,9.488-0.975,14.302-0.975c2.6,0,11.766,0.194,11.766,4.55
			c0,2.275-4.226,3.25-8.58,3.64C1612.14,199.36,1607.329,199.295,1605.77,199.295z"/>
		<path fill="#231F20" d="M1661.279,155.613c-1.433,0.065-2.665,0-3.643,0c-0.322,0-1.171-0.064-1.947,0
			c-0.849,0.13-1.495,0.26-1.625,0.585c-0.394,0.716-0.521,3.381-0.585,6.176c-0.065,2.729-0.065,5.59-0.065,6.695
			c0,1.819-0.26,3.575-0.26,5.395v0.91c0,5.851,0.91,11.636,0.91,17.421v2.08c-0.065,1.885-0.325,5.59-2.99,5.59
			c-2.535,0-3.641-2.34-4.096-5.005c-0.26-1.3-0.393-2.73-0.455-4.03v-3.185c0-6.436,0.455-12.806,0.455-19.176
			c0-1.625-0.194-12.741-0.715-13.196c-0.064-0.064-0.393-0.064-0.521-0.064c-3.12,0-6.24,0.585-9.426,0.585
			c-1.495,0-6.045-0.065-6.045-2.405c0-1.3,1.231-2.665,2.015-3.445c1.433-1.495,7.995-2.015,14.82-2.274
			c3.381-0.13,6.891-0.195,9.942-0.325c2.99-0.13,5.525-0.26,6.956-0.521c0.393-0.064,0.779-0.13,1.234-0.13
			c1.625,0,5.461,0.846,5.461,3.186c0,2.99-2.405,4.16-5.136,4.745C1664.14,155.483,1662.645,155.613,1661.279,155.613z"/>
		<path fill="#231F20" d="M1684.157,185.904c-0.13,2.211-0.13,4.355-0.13,6.565c0,3.056-0.455,7.671-4.03,7.671
			c-3.705,0-3.835-8.19-3.835-10.921c0-1.495,0.063-2.925,0.195-4.42c0.646-8.516,1.3-17.421,1.3-25.937
			c0-1.949-0.13-3.965-0.13-5.979c0-3.381,0.845-5.136,3.965-5.136c2.99,0,4.096,2.016,4.096,5.266c0,2.08-0.391,4.16-0.521,6.175
			C1684.354,168.094,1684.678,177.064,1684.157,185.904z"/>
		<path fill="#231F20" d="M1711.067,186.62c-1.303-2.99-10.4-22.427-12.091-22.427c-0.262,0-0.132,1.235-0.132,1.301
			c0,4.485,0.978,8.84,0.978,13.26c0,4.681,0.715,9.296,0.715,13.976c0,2.146-0.26,7.605-3.314,7.605
			c-2.729,0-4.875-3.835-4.875-6.175c0-10.141-0.521-20.281-0.521-30.421c0-2.535,0-11.766,4.29-11.766
			c6.825,0,18.851,23.336,20.996,29.315c0.13,0.391,0.715,2.146,1.365,3.836c0.646,1.625,1.3,3.25,1.755,3.25
			c0.192,0,0.192-0.455,0.192-0.91c0.064-0.455,0.064-0.976,0.064-1.04c0-4.55-1.04-9.165-1.105-13.65l-0.063-8.905
			c0-3.966-0.13-8.32,0.39-12.286c0.392-2.795,2.86-3.64,5.2-3.64c1.17,0,1.625,2.275,1.819,4.29
			c0.193,2.146,0.193,4.42,0.193,5.005c0,5.396-0.585,10.726-0.585,16.056c0,4.681,0.779,9.23,0.779,13.846
			c0,3.315,0,13.131-5.396,13.131C1717.048,200.271,1712.563,190.195,1711.067,186.62z"/>
		<path fill="#231F20" d="M1751.303,199.425c-7.865-1.495-16.641-9.75-18.523-17.55c-0.585-2.471-0.91-4.94-0.91-7.476
			c0-14.041,10.596-26.326,25.092-26.326c3.64,0,11.635,2.146,11.635,6.955c0,1.3-0.646,4.096-2.47,4.096
			c-0.65,0-1.365-0.195-2.08-0.391c-0.78-0.26-1.561-0.585-2.405-0.845c-1.755-0.65-3.641-1.235-5.721-1.235
			c-1.56,0-3.119,0.195-4.614,0.585c-6.046,1.561-12.153,11.44-12.153,17.551c0,9.36,7.604,17.551,17.096,17.551
			c2.926,0,5.461-0.91,7.346-3.186c1.495-1.819,3.835-6.76,3.835-9.035c0-1.755-1.819-2.015-3.38-2.015c-1.95,0-3.9,0.39-5.851,0.39
			c-3.513,0-4.745-1.56-4.745-5.005c0-2.21,10.596-2.665,12.091-2.665c1.365,0,4.615-0.065,5.915,0.65
			c0.65,0.324,2.6,1.819,2.859,2.6c0.192,0.845,0.322,1.885,0.391,2.99v2.99c0,12.155-5.915,19.825-18.331,19.825
			C1754.683,199.88,1752.992,199.75,1751.303,199.425z"/>
	</g>
	<g>
		<path fill="#231F20" d="M878.771,116.276c-2.797,9.815-5.914,19.501-8.125,29.446c-0.324,1.625-0.587,3.51-1.039,5.396
			c-0.393,1.82-0.978,3.705-1.758,5.2c-0.453,0.975-1.17,2.08-2.532,2.08c-2.665,0-4.485-3.12-5.98-6.11
			c-0.78-1.495-1.43-2.99-2.08-4.095c-0.647-1.171-1.3-1.82-1.817-1.82c-0.393,0-0.78,0.779-1.303,1.885
			c-0.52,1.106-1.17,2.665-1.947,4.226c-1.433,2.989-3.25,6.24-5.463,6.24c-2.21,0-3.51-3.315-4.095-5.136
			c-0.192-0.715-0.39-1.365-0.52-1.82c-2.341-7.734-9.688-33.216-9.688-40.431c0-1.756,0.195-5.07,2.86-5.07
			c0.845,0,1.688,0.325,2.47,0.715c1.95,0.975,3.9,9.23,5.59,17.811c1.69,8.646,2.928,17.876,3.9,20.735l0.063,0.195
			c0.065,0.13,0.133,0.391,0.325,0.391c0.263,0,0.65-0.521,1.3-1.561c0.587-0.975,1.235-2.275,1.95-3.575
			c1.433-2.47,3.12-5.2,4.746-5.2c1.365,0,3.057,2.405,4.485,4.681c0.779,1.17,1.495,2.34,2.08,3.185
			c0.647,0.91,1.104,1.365,1.3,1.365c0.064,0,0.13-0.065,0.194-0.195l0.131-0.26c0.585-1.17,0.777-2.665,1.04-4.16
			c0.192-1.43,0.324-2.925,0.585-4.29c0.715-4.42,5.652-29.901,10.335-29.901c2.925,0,4.029,1.625,4.029,4.29
			c0,0.976-0.132,1.95-0.324,2.926C879.292,114.392,879.032,115.366,878.771,116.276z"/>
		<path fill="#231F20" d="M903.146,157.293c-3.968,0-7.865,0.976-11.83,0.976c-0.718,0-1.365,0-2.08-0.13
			c-1.69-0.261-2.405-3.381-2.73-6.501c-0.325-3.185-0.195-6.63-0.195-7.995c0-6.825,0.978-13.716,0.978-20.605
			c0-3.9-0.13-7.995-0.78-11.896c-0.063-0.585-0.195-1.17-0.195-1.69c0-2.6,1.625-3.25,3.9-3.25c8.58,0,17.291,0.13,25.938,0.13
			c1.301,0,3.703,2.146,3.703,3.511c0,4.354-6.175,5.2-9.101,5.2c-4.16,0-8.255-0.78-12.351-0.78c-1.04,0-2.275,0-3.25,0.325
			c-1.433,0.52-1.758,7.41-1.758,8.775c0,2.729,0.133,3.64,3.188,3.64c2.272,0,4.55-0.52,6.89-0.52c2.535,0,4.228,0.52,4.228,3.444
			c0,2.601-1.82,3.575-3.967,3.836c-1.104,0.13-2.273,0.13-3.381,0.064c-1.04,0-2.08-0.13-2.857-0.13c-2.73,0-3.9,0.78-4.42,1.95
			c-0.263,0.65-0.325,1.43-0.393,2.34v3.12c0,1.105,0.13,7.41,0.91,8.061c0.715,0.585,1.82,0.585,2.795,0.585
			c4.745,0,9.49-0.975,14.3-0.975c2.603,0,11.769,0.194,11.769,4.55c0,2.275-4.228,3.25-8.581,3.64
			C909.516,157.358,904.706,157.293,903.146,157.293z"/>
		<path fill="#231F20" d="M932.005,156.773c-1.625-0.391-2.34-3.315-2.665-6.24c-0.39-2.926-0.325-6.11-0.325-7.28
			c0-4.29,0.393-8.516,0.393-12.741c0-3.185-0.195-6.305-0.195-9.425c0-2.275-0.063-8.971,2.08-10.205
			c3.51-2.08,8.581-4.811,12.741-4.811c6.5,0,15.859,6.695,15.859,13.78c0,2.926-1.625,4.485-3.313,5.655
			c-0.78,0.521-1.625,0.976-2.21,1.431s-0.91,0.845-0.91,1.3c0,0.455,0.39,0.845,1.17,1.235c0.715,0.454,1.755,0.845,2.86,1.3
			c2.145,0.845,4.612,1.95,5.522,3.835c1.234,2.535,2.795,5.005,2.795,7.931c0,8.189-11.766,15.73-19.176,15.73
			C941.951,158.269,936.621,158.008,932.005,156.773z M943.576,133.438c-2.146,0-4.745-1.235-4.745-3.835
			c0-2.471,2.6-3.641,4.68-3.771c3.835-0.195,8.646-4.16,8.646-8.255c0-3.186-3.511-3.9-6.175-3.9
			c-7.479,0-10.271,3.51-10.271,10.66c0,4.16,0.715,8.255,0.715,12.351c0,2.275-0.455,4.42-0.455,6.695c0,6.37,1.82,6.825,7.67,8.19
			c0.91,0.194,1.888,0.325,2.795,0.325c5.593,0,10.468-4.485,10.468-10.141c0-4.226-2.99-7.216-6.956-8.32
			C947.996,132.853,945.591,133.438,943.576,133.438z"/>
		<path fill="#231F20" d="M969.77,146.048c0-1.95,2.343-2.405,3.771-2.405c1.756,0,3.12,1.235,4.16,2.535
			c0.391,0.455,0.78,0.91,1.17,1.43c1.561,1.95,3.12,3.836,5.522,3.836c6.11,0,11.769-4.615,11.769-11.051
			c0-2.795-2.535-4.226-5.72-4.94c-3.188-0.78-6.825-0.845-8.974-1.104c-5.522-0.65-9.426-6.176-9.426-11.506
			c0-7.28,4.485-16.511,12.741-16.511c5.135,0,16.444,3.186,16.444,9.881c0,1.3-2.211,3.445-3.512,3.445
			c-0.846,0-1.688-0.455-2.533-1.04c-0.848-0.586-1.758-1.431-2.665-2.211c-1.888-1.625-3.899-3.12-6.178-3.12
			c-4.159,0-7.085,5.98-7.085,9.686c0,1.431,0.393,2.926,1.432,3.9c0.586,0.521,2.017,0.91,4.097,1.3
			c2.015,0.325,4.483,0.715,6.955,1.235c4.875,1.04,9.813,2.86,10.596,7.021c0.324,1.56,0.454,3.185,0.454,4.745
			c0,10.855-7.8,17.16-18.2,17.16C979.715,158.333,969.77,151.443,969.77,146.048z"/>
		<path fill="#231F20" d="M1016.764,143.902c-0.13,2.211-0.13,4.355-0.13,6.565c0,3.056-0.455,7.671-4.03,7.671
			c-3.705,0-3.835-8.19-3.835-10.921c0-1.495,0.065-2.925,0.195-4.42c0.649-8.516,1.3-17.421,1.3-25.937
			c0-1.949-0.13-3.965-0.13-5.979c0-3.381,0.845-5.136,3.965-5.136c2.99,0,4.099,2.016,4.099,5.266c0,2.08-0.394,4.16-0.521,6.175
			C1016.959,126.092,1017.284,135.063,1016.764,143.902z"/>
		<path fill="#231F20" d="M1055.18,113.611c-1.43,0.065-2.665,0-3.64,0c-0.325,0-1.171-0.064-1.95,0
			c-0.846,0.13-1.495,0.26-1.625,0.585c-0.391,0.716-0.521,3.381-0.585,6.176c-0.063,2.729-0.063,5.59-0.063,6.695
			c0,1.819-0.263,3.575-0.263,5.395v0.91c0,5.851,0.91,11.636,0.91,17.421v2.08c-0.063,1.885-0.322,5.59-2.987,5.59
			c-2.535,0-3.644-2.34-4.099-5.005c-0.26-1.3-0.39-2.73-0.455-4.03v-3.185c0-6.436,0.455-12.806,0.455-19.176
			c0-1.625-0.191-12.741-0.715-13.196c-0.063-0.064-0.39-0.064-0.52-0.064c-3.12,0-6.24,0.585-9.428,0.585
			c-1.494,0-6.046-0.065-6.046-2.405c0-1.3,1.234-2.665,2.018-3.445c1.431-1.495,7.995-2.015,14.817-2.274
			c3.381-0.13,6.894-0.195,9.946-0.325c2.989-0.13,5.524-0.26,6.955-0.521c0.39-0.064,0.779-0.13,1.233-0.13
			c1.625,0,5.462,0.846,5.462,3.186c0,2.99-2.405,4.16-5.138,4.745C1058.04,113.481,1056.545,113.611,1055.18,113.611z"/>
		<path fill="#231F20" d="M1086.77,157.293c-3.967,0-7.863,0.976-11.832,0.976c-0.715,0-1.361,0-2.077-0.13
			c-1.689-0.261-2.404-3.381-2.729-6.501c-0.325-3.185-0.193-6.63-0.193-7.995c0-6.825,0.977-13.716,0.977-20.605
			c0-3.9-0.131-7.995-0.78-11.896c-0.063-0.585-0.192-1.17-0.192-1.69c0-2.6,1.625-3.25,3.897-3.25c8.58,0,17.29,0.13,25.938,0.13
			c1.3,0,3.705,2.146,3.705,3.511c0,4.354-6.178,5.2-9.103,5.2c-4.16,0-8.256-0.78-12.351-0.78c-1.04,0-2.275,0-3.25,0.325
			c-1.433,0.52-1.756,7.41-1.756,8.775c0,2.729,0.131,3.64,3.186,3.64c2.275,0,4.551-0.52,6.892-0.52
			c2.534,0,4.227,0.52,4.227,3.444c0,2.601-1.82,3.575-3.965,3.836c-1.105,0.13-2.275,0.13-3.38,0.064c-1.041,0-2.08-0.13-2.86-0.13
			c-2.729,0-3.9,0.78-4.42,1.95c-0.261,0.65-0.325,1.43-0.393,2.34v3.12c0,1.105,0.132,7.41,0.909,8.061
			c0.716,0.585,1.82,0.585,2.796,0.585c4.745,0,9.489-0.975,14.303-0.975c2.6,0,11.766,0.194,11.766,4.55
			c0,2.275-4.226,3.25-8.58,3.64C1093.139,157.358,1088.328,157.293,1086.77,157.293z"/>
	</g>
	<g>
		
			<path fill="#C8C8C8" stroke="#231F20" stroke-width="4" stroke-linecap="round" stroke-linejoin="round" stroke-miterlimit="10" d="
			M338.079,850.313c-3.427-2.578-7.837-6.638-11.41-8.83c-4.454,0.448-20.468,1.461-25.143,2.022
			c-0.755,0.092-0.673,85.129,0.284,92.646c2.04,2.342,7.384,8.729,9.13,10.837"/>
		
			<path fill="#FFFFFF" stroke="#231F20" stroke-width="4" stroke-linecap="round" stroke-linejoin="round" stroke-miterlimit="10" d="
			M338.279,946.987c-10.577,0.854-19.975,2.661-27.339,0c-0.685-35.979-0.722-62.854,0-95.957c9.664-0.96,18.133-1.104,27.339,0
			C338.963,886.804,338.766,912.726,338.279,946.987z"/>
		<path fill="none" stroke="#231F20" stroke-width="4" stroke-linecap="round" stroke-linejoin="round" stroke-miterlimit="10" d="
			M301.712,843.984c1.656,1.443,6.548,5.369,9.228,7.046"/>
		
			<path fill="#C8C8C8" stroke="#231F20" stroke-width="4" stroke-linecap="round" stroke-linejoin="round" stroke-miterlimit="10" d="
			M293.52,873.418c-3.426-2.581-7.837-6.637-11.41-8.833c-4.454,0.452-20.468,1.461-25.143,2.025
			c-0.755,0.092-0.673,62.021,0.284,69.54c2.04,2.342,7.384,8.729,9.129,10.837"/>
		
			<path fill="#FFFFFF" stroke="#231F20" stroke-width="4" stroke-linecap="round" stroke-linejoin="round" stroke-miterlimit="10" d="
			M293.721,946.987c-10.577,0.854-19.975,2.661-27.34,0c-0.685-35.979-0.722-39.748,0-72.854c9.665-0.96,18.134-1.102,27.34,0
			C294.404,909.908,294.207,912.726,293.721,946.987z"/>
		<path fill="none" stroke="#231F20" stroke-width="4" stroke-linecap="round" stroke-linejoin="round" stroke-miterlimit="10" d="
			M257.153,867.09c1.656,1.445,6.548,5.369,9.227,7.045"/>
		
			<path fill="#C8C8C8" stroke="#231F20" stroke-width="4" stroke-linecap="round" stroke-linejoin="round" stroke-miterlimit="10" d="
			M248.136,891.572c-3.426-2.582-7.836-6.641-11.41-8.833c-4.454,0.452-20.468,1.46-25.143,2.021
			c-0.754,0.095-0.673,44.697,0.284,52.212c2.04,2.345,7.384,8.73,9.13,10.837"/>
		
			<path fill="#FFFFFF" stroke="#231F20" stroke-width="4" stroke-linecap="round" stroke-linejoin="round" stroke-miterlimit="10" d="
			M248.336,947.813c-10.577,0.854-19.974,2.661-27.339,0c0-27.512-0.424-32.051,0-53.871c9.665-0.963,18.133-2.754,27.339-1.649
			C248.778,914.523,248.684,923.601,248.336,947.813z"/>
		<path fill="none" stroke="#231F20" stroke-width="4" stroke-linecap="round" stroke-linejoin="round" stroke-miterlimit="10" d="
			M211.769,885.243c1.656,1.446,6.548,7.021,9.228,8.694"/>
		
			<path fill="#C8C8C8" stroke="#231F20" stroke-width="4" stroke-linecap="round" stroke-linejoin="round" stroke-miterlimit="10" d="
			M384.288,828.034c-3.426-2.581-7.836-6.638-11.41-8.833c-4.454,0.451-20.468,1.46-25.143,2.021
			c-0.754,0.096-0.673,109.063,0.284,116.575c2.04,2.342,7.384,8.729,9.129,10.837"/>
		
			<path fill="#FFFFFF" stroke="#231F20" stroke-width="4" stroke-linecap="round" stroke-linejoin="round" stroke-miterlimit="10" d="
			M384.489,948.638c-10.577,0.854-19.974,2.661-27.34,0c-0.685-35.977-0.722-86.779,0-119.887c9.665-0.96,18.134-1.103,27.34,0
			C385.172,864.523,384.975,914.377,384.489,948.638z"/>
		<path fill="none" stroke="#231F20" stroke-width="4" stroke-linecap="round" stroke-linejoin="round" stroke-miterlimit="10" d="
			M347.921,821.705c1.656,1.445,6.548,5.37,9.228,7.046"/>
		
			<path fill="#C8C8C8" stroke="#231F20" stroke-width="4" stroke-linecap="round" stroke-linejoin="round" stroke-miterlimit="10" d="
			M187.23,895.846l14.292-4.125l-0.107-15.665l44.872-4.354l0.275-14.952l43.046-3.97l0.551-19.243l47.515-2.574l0.722-20.42
			l33.729-1.854c0,0,12.628-10.34,17.436-16.54c1.593,1.581,4.375,5.215,5.872,6.682c1.35-7.51-3.687-26.606-4.88-31.295
			c-11.926,0.953-26.844,3.631-33.303,5.983c2.526,1.258,4.727,1.563,7.338,2.774c-62.5,56.11-132.616,76.902-177.313,85.138
			C186.709,870.98,187.23,895.846,187.23,895.846z"/>
	</g>
	<g>
		
			<path fill="none" stroke="#231F20" stroke-width="4" stroke-linecap="round" stroke-linejoin="round" stroke-miterlimit="22.9256" d="
			M1591.896,431.008c-13.828,11.785,8.093,22.479,13.49,7.813C1608.291,430.933,1594.98,428.079,1591.896,431.008z"/>
		
			<path fill="none" stroke="#231F20" stroke-width="4" stroke-linecap="round" stroke-linejoin="round" stroke-miterlimit="22.9256" d="
			M1620.977,441.674c3.523-20.25-11.477-29.174-28.97-26.138"/>
		
			<path fill="none" stroke="#231F20" stroke-width="4" stroke-linecap="round" stroke-linejoin="round" stroke-miterlimit="22.9256" d="
			M1637.953,443.425c10.575-28.728-21.453-47.675-47-43.399"/>
	</g>
	<g>
		
			<path fill="none" stroke="#231F20" stroke-width="4.3122" stroke-linecap="round" stroke-linejoin="round" stroke-miterlimit="22.9256" d="
			M1538.677,540.146c-29.853,25.439,17.47,48.521,29.128,16.858C1574.069,539.985,1545.338,533.823,1538.677,540.146z"/>
		
			<path fill="none" stroke="#231F20" stroke-width="4" stroke-linecap="round" stroke-linejoin="round" stroke-miterlimit="22.9256" d="
			M1559.146,569.037c2.846,5.863,8.071,15.061,15.325,24.097"/>
	</g>
	<g>
		
			<path fill="none" stroke="#231F20" stroke-width="4" stroke-linecap="round" stroke-linejoin="round" stroke-miterlimit="22.9256" d="
			M1634.688,475.829c-9.047,24.954,26.514,22.697,22.775,0.173C1655.453,463.893,1636.49,469.882,1634.688,475.829z"/>
		
			<path fill="none" stroke="#231F20" stroke-width="4" stroke-linecap="round" stroke-linejoin="round" stroke-miterlimit="22.9256" d="
			M1706.742,445.625c-26.542-0.197-12.543,32.567,7.438,21.526C1724.927,461.214,1712.951,445.338,1706.742,445.625z"/>
		
			<path fill="none" stroke="#231F20" stroke-width="4" stroke-linecap="round" stroke-linejoin="round" stroke-miterlimit="22.9256" d="
			M1689.215,495.131c-20.202,17.217,11.822,32.836,19.712,11.411C1713.166,495.022,1693.723,490.853,1689.215,495.131z"/>
		
			<path fill="none" stroke="#231F20" stroke-width="4" stroke-linecap="round" stroke-linejoin="round" stroke-miterlimit="22.9256" d="
			M1654.907,488.512c8.054,5.789,16.983,8.605,27.727,14.612"/>
		
			<path fill="none" stroke="#231F20" stroke-width="4" stroke-linecap="round" stroke-linejoin="round" stroke-miterlimit="22.9256" d="
			M1658.349,474.67c9.224-2.484,24.285-7.295,34.271-12.511"/>
	</g>
	<g>
		
			<path fill="none" stroke="#231F20" stroke-width="4" stroke-linecap="round" stroke-linejoin="round" stroke-miterlimit="22.9256" d="
			M1492.334,409.333c0,10.091-1.923,17.167-7.584,17.167s-10.25-8.181-10.25-18.272c0-10.091,4.589-13.271,10.25-13.271
			S1492.334,399.243,1492.334,409.333z"/>
		
			<path fill="none" stroke="#231F20" stroke-width="4" stroke-linecap="round" stroke-linejoin="round" stroke-miterlimit="22.9256" d="
			M1565.001,408c0,9.711-2.59,17.125-8.251,17.125s-10.25-7.873-10.25-17.584S1551.089,396,1556.75,396
			S1565.001,398.289,1565.001,408z"/>
		
			<path fill="none" stroke="#231F20" stroke-width="4" stroke-linecap="round" stroke-linejoin="round" stroke-miterlimit="22.9256" d="
			M1486.333,394.957C1490,358.333,1549.5,354,1552.5,396"/>
		
			<path fill="none" stroke="#231F20" stroke-width="4" stroke-linecap="round" stroke-linejoin="round" stroke-miterlimit="22.9256" d="
			M1555.5,426c0,14.206-13.895,17.462-26.373,18.107"/>
		
			<path fill="none" stroke="#231F20" stroke-width="4" stroke-linecap="round" stroke-linejoin="round" stroke-miterlimit="22.9256" d="
			M1519.452,439.281c-18.796,1.064-10.872,10.253-0.438,8.971C1530.486,446.843,1535.287,438.381,1519.452,439.281z"/>
	</g>
	<g>
		
			<path fill="none" stroke="#231F20" stroke-width="4" stroke-linecap="round" stroke-linejoin="round" stroke-miterlimit="22.9256" d="
			M1568.183,468.502c9.16-1.542,19.101-1.082,26.104,0.673c31.448,7.88,26.39,38.333-1.737,41.572
			c-2.688,2.351-8.625,12.461-16.031,13.927c3.97-5.71,7.148-10.272,6.068-14.063c-7.382-0.319-22.297-2.915-31.063-9.246"/>
		
			<path fill="none" stroke="#231F20" stroke-width="4" stroke-linecap="round" stroke-linejoin="round" stroke-miterlimit="22.9256" d="
			M1574.916,486.558c4.876-23.632-31.663-27.489-49.396-23.048c-31.446,7.88-34.481,37.524-6.354,40.765
			c2.691,2.352,8.625,12.462,16.031,13.928c-3.97-5.711-7.148-10.276-6.068-14.066
			C1539.37,503.689,1572.22,499.672,1574.916,486.558z"/>
	</g>
	<g>
		
			<path fill="none" stroke="#231F20" stroke-width="4" stroke-linecap="round" stroke-linejoin="round" stroke-miterlimit="22.9256" d="
			M1589.989,580.981c8.446,9.021,26.107,14.976,35.519,14.976c16.896-13.056,28.767-45.65,27.5-53.688
			c-1.061-6.746-5.634-18.345-10.781-24.179c-9.229-0.765-22.438,6.315-29.095,10.27
			C1607.654,533.471,1589.029,570.422,1589.989,580.981z"/>
		
			<path fill="none" stroke="#231F20" stroke-width="4" stroke-linecap="round" stroke-linejoin="round" stroke-miterlimit="22.9256" d="
			M1632.12,528.171c-8.447,7.199,4.942,13.73,8.243,4.771C1642.136,528.126,1634.006,526.382,1632.12,528.171z"/>
	</g>
	<g>
		
			<polyline fill="none" stroke="#231F20" stroke-width="4" stroke-linecap="round" stroke-linejoin="round" stroke-miterlimit="22.9256" points="
			1630.334,353.333 1644.055,352.657 1661.334,405.674 1697.604,407.599 1710.667,366.333 		"/>
		
			<path fill="none" stroke="#231F20" stroke-width="4" stroke-linecap="round" stroke-linejoin="round" stroke-miterlimit="22.9256" d="
			M1651.484,375.423c17.135,3.577,38.515,0.565,55.806,1.579"/>
		
			<path fill="none" stroke="#231F20" stroke-width="4" stroke-linecap="round" stroke-linejoin="round" stroke-miterlimit="22.9256" d="
			M1657.5,390.5c14.27-0.162,30.056,1.139,44.75,1.438"/>
		
			<path fill="none" stroke="#231F20" stroke-width="4" stroke-linecap="round" stroke-linejoin="round" stroke-miterlimit="22.9256" d="
			M1670.387,378.333c0,9.489-0.52,17.73-0.52,27.167"/>
		
			<path fill="none" stroke="#231F20" stroke-width="4" stroke-linecap="round" stroke-linejoin="round" stroke-miterlimit="22.9256" d="
			M1686.387,378.333c0,9.489-0.52,17.73-0.52,27.167"/>
		
			<path fill="none" stroke="#231F20" stroke-width="4" stroke-linecap="round" stroke-linejoin="round" stroke-miterlimit="22.9256" d="
			M1661.242,413.936c-8.006,6.824,4.686,13.017,7.813,4.522C1670.735,413.892,1663.029,412.24,1661.242,413.936z"/>
		
			<path fill="none" stroke="#231F20" stroke-width="4" stroke-linecap="round" stroke-linejoin="round" stroke-miterlimit="22.9256" d="
			M1690.173,414.936c-8.006,6.824,4.688,13.017,7.813,4.522C1699.666,414.892,1691.96,413.24,1690.173,414.936z"/>
	</g>
	<g>
		<path fill="none" stroke="#231F20" stroke-width="4" stroke-linecap="round" stroke-linejoin="round" stroke-miterlimit="10" d="
			M1732.896,575.775c-18.228,1.94-43.598,2.646-58.597,0c-1.468-12.121-1.548-21.18,0-32.33c14.999-1.438,45.52-1.754,58.597,0
			C1734.361,555.498,1733.938,564.232,1732.896,575.775z"/>
		
			<path fill="none" stroke="#231F20" stroke-width="4" stroke-linecap="round" stroke-linejoin="round" stroke-miterlimit="22.9256" d="
			M1700.998,530.871c-7.452,3.92,4.361,7.476,7.271,2.598C1709.834,530.846,1702.661,529.896,1700.998,530.871z"/>
		
			<line fill="none" stroke="#231F20" stroke-width="4" stroke-linecap="round" stroke-linejoin="round" stroke-miterlimit="22.9256" x1="1698" y1="534" x2="1698" y2="541"/>
		
			<line fill="none" stroke="#231F20" stroke-width="4" stroke-linecap="round" stroke-linejoin="round" stroke-miterlimit="22.9256" x1="1708" y1="534" x2="1708" y2="541"/>
		<path fill="none" stroke="#231F20" stroke-width="4" stroke-linecap="round" stroke-linejoin="round" stroke-miterlimit="10" d="
			M1698.561,578.158c1.276,15.81-0.061,22.344-0.061,38.215"/>
		<path fill="none" stroke="#231F20" stroke-width="4" stroke-linecap="round" stroke-linejoin="round" stroke-miterlimit="10" d="
			M1707.442,577.532c0,16.313-1.544,22.594-1.377,38.899"/>
		<path fill="none" stroke="#231F20" stroke-width="4" stroke-linecap="round" stroke-linejoin="round" stroke-miterlimit="10" d="
			M1692.744,623.44c0-5.249-3.514-9.822-4.816-14.198c3.686,2.511,7.693,4.003,10.572,9.882c0.613-2.502,2.388-5.185,4.188-6.192
			c0.299,0.864,1.688,4.066,2.252,6.817c1.375-2.688,5.131-7.755,9.259-7.817c-2.939,3.439-4.44,7.568-4.315,11.512"/>
	</g>
	<g>
		<path fill="none" stroke="#231F20" stroke-width="4" stroke-linecap="round" stroke-linejoin="round" stroke-miterlimit="10" d="
			M1797.528,432.775c-22.079,2.23-52.815,3.044-70.987,0c-1.778-13.931-1.875-24.334,0-37.151c18.172-1.652,55.145-2.015,70.987,0
			C1799.304,409.474,1798.791,419.511,1797.528,432.775z"/>
		<path fill="none" stroke="#231F20" stroke-width="4" stroke-linecap="round" stroke-linejoin="round" stroke-miterlimit="10" d="
			M1726.834,396.167c3.611-0.014,26.749,17.454,31.384,20.12c11.929,6.911,27.21-18.516,38.116-20.454"/>
		<path fill="none" stroke="#231F20" stroke-width="4" stroke-linecap="round" stroke-linejoin="round" stroke-miterlimit="10" d="
			M1772.834,414c0.057-0.015,23.158,15.164,23.5,17"/>
		<path fill="none" stroke="#231F20" stroke-width="4" stroke-linecap="round" stroke-linejoin="round" stroke-miterlimit="10" d="
			M1727.334,432.167c-0.203-0.846,21.188-17.941,23.5-20.5"/>
	</g>
	<g>
		<path fill="none" stroke="#231F20" stroke-width="4" stroke-linecap="round" stroke-linejoin="round" stroke-miterlimit="10" d="
			M1403.969,549.394c17.48-11.814,58.604-33.193,68.758-40.231c5.816-4.032,48.975,21.593,53.607,26.201
			c-0.499-0.497-68.326,48.813-72.632,50.978c-3.582-1.735-48.484-32.267-48.257-35.468"/>
		<path fill="none" stroke="#231F20" stroke-width="4" stroke-linecap="round" stroke-linejoin="round" stroke-miterlimit="10" d="
			M1404.461,547.917c-2.502-5.324-0.741-15.182-0.75-20.713c-0.01-7.873-0.609-15.588-0.961-23.42
			c-0.265-5.881-1.488-11.711-1.488-17.673c0-3.948,52.454-25.281,71.719-34.702c0.963,2.93-0.316,9.173-0.316,12.409
			c0,7.784-0.364,15.674,0.201,23.44c0.5,6.836,0.691,14.578,0.536,21.018"/>
		<path fill="none" stroke="#231F20" stroke-width="4" stroke-linecap="round" stroke-linejoin="round" stroke-miterlimit="10" d="
			M1408.893,491.289c0.078,9.692-0.369,46.422,1.213,46.058c4.865-1.123,14.938-7.097,17.639-8.954
			c6.229-4.289,30.887-17.65,38.529-22.81c1.688-1.138,0.548-29.575-0.773-43.716c-5.83,2.474-12.258,5.248-17.899,8.296
			c-3.293,1.521-32.535,16.049-39.441,20.141"/>
		<path fill="none" stroke="#231F20" stroke-width="4" stroke-linecap="round" stroke-linejoin="round" stroke-miterlimit="10" d="
			M1424.896,549.517c8.891-5.171,44.857-28.13,49.479-31.076c2.962,1.9,20.936,9.533,25.82,11.604
			c-6.529,5.187-47.575,35.159-50.807,37.077c-6.798-3.93-20.188-14.526-24.865-17.729"/>
		<path fill="none" stroke="#231F20" stroke-width="4" stroke-linecap="round" stroke-linejoin="round" stroke-miterlimit="10" d="
			M1433.859,555.033c11.363-8.496,34.101-23.021,46.9-32.007"/>
		<path fill="none" stroke="#231F20" stroke-width="4" stroke-linecap="round" stroke-linejoin="round" stroke-miterlimit="10" d="
			M1442.724,559.465c11.366-8.496,34.104-23.02,46.903-32.007"/>
		<path fill="none" stroke="#231F20" stroke-width="4" stroke-linecap="round" stroke-linejoin="round" stroke-miterlimit="10" d="
			M1437.754,542.545c4.738,2.819,16.68,10.342,23.268,14.773"/>
		<path fill="none" stroke="#231F20" stroke-width="4" stroke-linecap="round" stroke-linejoin="round" stroke-miterlimit="10" d="
			M1451.049,533.682c4.738,2.818,16.68,10.344,23.266,14.773"/>
		<path fill="none" stroke="#231F20" stroke-width="4" stroke-linecap="round" stroke-linejoin="round" stroke-miterlimit="10" d="
			M1463.26,525.904c4.738,2.816,16.684,10.34,23.268,14.771"/>
	</g>
	<g>
		<path fill="none" stroke="#231F20" stroke-width="4" stroke-linecap="round" stroke-linejoin="round" stroke-miterlimit="10" d="
			M1759.957,482.016c-5.82,2.858-11.632,6.373-14.949,10.22c-1.204,11.752-0.459,26.761,1.774,33.96
			c5.788,4.438,50.062,21.043,70.526,21.956c2.761-1.074,16.554-10.485,22.51-16.528c1.031-8.061,2.144-24.745,0.854-34.161
			c-4.903-1.97-31.724-13.133-53.123-18.385"/>
		<path fill="none" stroke="#231F20" stroke-width="4" stroke-linecap="round" stroke-linejoin="round" stroke-miterlimit="10" d="
			M1749.569,493.917c17.361,8.64,45.745,17.506,66.669,21.837c2.963,0.203,18.542-11.398,23.473-16.198"/>
		<path fill="none" stroke="#231F20" stroke-width="4" stroke-linecap="round" stroke-linejoin="round" stroke-miterlimit="10" d="
			M1816.881,515.754c0,9.479,0.214,18.969,0.214,28.438"/>
		<path fill="none" stroke="#231F20" stroke-width="4" stroke-linecap="round" stroke-linejoin="round" stroke-miterlimit="10" d="
			M1765.646,494.878c0,9.854,21.514-8.354,25.082-10.079"/>
		<path fill="none" stroke="#231F20" stroke-width="4" stroke-linecap="round" stroke-linejoin="round" stroke-miterlimit="10" d="
			M1768.22,495.357c0.871-5.307-8.417-14.682-12.203-17.475c-5.603-4.122-18.392-5.604-24.304-1.644
			c-2.061,1.382-4.544,3.847-4.871,6.632c-0.284,2.41-1.065,5.597,1.187,5.597c1.342,0,2.559-4.303,2.559-4.303l3.176,1.126
			l1.607-2.609l2.531,1.483l1.85-2.924l3.819,1.215l1.861-2.959l4.141,0.619c0,0,1.892-3.026,1.93-3.239"/>
		<path fill="none" stroke="#231F20" stroke-width="4" stroke-linecap="round" stroke-linejoin="round" stroke-miterlimit="10" d="
			M1788.424,483.6c-2.895-10.139-9.813-23.484-24.037-24.534c-7.002-0.52-31.211,14.463-34.372,18.512"/>
		<path fill="none" stroke="#231F20" stroke-width="4" stroke-linecap="round" stroke-linejoin="round" stroke-miterlimit="10" d="
			M1794.586,519.833c2.803-0.487,12.263,1.116,15.438,3.239"/>
		<path fill="none" stroke="#231F20" stroke-width="4" stroke-linecap="round" stroke-linejoin="round" stroke-miterlimit="10" d="
			M1793.729,526.072c4.865,1.284,10.627,2.99,15.648,2.999"/>
		<path fill="none" stroke="#231F20" stroke-width="4" stroke-linecap="round" stroke-linejoin="round" stroke-miterlimit="10" d="
			M1793.407,533.271c-0.11-0.362,13.146,3.19,14.896,2.639"/>
	</g>
	<g>
		<path fill="none" stroke="#231F20" stroke-width="4" stroke-linecap="round" stroke-linejoin="round" stroke-miterlimit="10" d="
			M1751.579,572.697c2.182-2.309,27.326-14.309,37.061-10.122c3.21,1.378,25.313,51.661,27.854,64.694
			c-5.831,6.033-30.373,13.882-36.442,10.724c-7.573-8.479-30.635-59.336-28.771-64.169"/>
		<path fill="none" stroke="#231F20" stroke-width="4" stroke-linecap="round" stroke-linejoin="round" stroke-miterlimit="10" d="
			M1760.469,577.531c1.725-1.649,17.382-10.549,24.573-7.878c2.37,0.883,16.894,34.8,18.351,43.767
			c-4.604,4.32-19.662,10.328-24.126,8.278c-5.413-5.698-20.638-39.988-19.063-43.381"/>
		<path fill="none" stroke="#231F20" stroke-width="4" stroke-linecap="round" stroke-linejoin="round" stroke-miterlimit="10" d="
			M1792.063,629.07c1.2,0.32,8.241-2.137,8.453-3.262"/>
	</g>
	<g>
		<path fill="none" stroke="#231F20" stroke-width="4" stroke-linecap="round" stroke-linejoin="round" stroke-miterlimit="10" d="
			M1482.053,627.539c2.643-4.9,1.492-24.96,1.859-28.636c1.825-17.872,15.818-21.172,28.331-15.229
			c13.631,6.479,17.294,13.925,11.28,25.09c-7.002,13.003-21.813,11.731-29.174,25.398"/>
		
			<polyline fill="none" stroke="#231F20" stroke-width="4" stroke-linecap="round" stroke-linejoin="round" stroke-miterlimit="10" points="
			1494.028,592.574 1497.414,598.828 1503.599,596.678 1508.452,603.771 1514.707,602.859 		"/>
		<path fill="none" stroke="#231F20" stroke-width="4" stroke-linecap="round" stroke-linejoin="round" stroke-miterlimit="10" d="
			M1480.543,622.889c-25.104-3.952,31.727,28.934,17.997,8.938"/>
		<path fill="none" stroke="#231F20" stroke-width="4" stroke-linecap="round" stroke-linejoin="round" stroke-miterlimit="10" d="
			M1474.146,624.4c-1.168,14.306-10.725,19.182,1.964,26.015c14.413,7.763,12.786-4.005,22.38-12.091"/>
		<path fill="none" stroke="#231F20" stroke-width="4" stroke-linecap="round" stroke-linejoin="round" stroke-miterlimit="10" d="
			M1472.589,635.546c5.277,0.569,14.442,5.697,20.888,4.625"/>
		<path fill="none" stroke="#231F20" stroke-width="4" stroke-linecap="round" stroke-linejoin="round" stroke-miterlimit="10" d="
			M1470.15,642.184c5.274,0.57,14.439,5.696,20.888,4.624"/>
		<path fill="none" stroke="#231F20" stroke-width="4" stroke-linecap="round" stroke-linejoin="round" stroke-miterlimit="10" d="
			M1493.509,592.483c-0.185,13.693-5.161,33.658-8.046,39.018"/>
		<path fill="none" stroke="#231F20" stroke-width="4" stroke-linecap="round" stroke-linejoin="round" stroke-miterlimit="10" d="
			M1514.592,602.986c-10.467,10.072-19.279,17.081-26.545,30.566"/>
	</g>
	<g>
		<path fill="none" stroke="#231F20" stroke-width="4" stroke-linecap="round" stroke-linejoin="round" stroke-miterlimit="10" d="
			M1611.333,606.833c13.658,9.099,13.658,49.834-7.874,55.258c-16.959-12.091-42.126-17.424-64.126-15.409
			c-11.833-5.515-9.834-19.183-1.833-25.682C1571.5,620.184,1593.5,613.546,1611.333,606.833z"/>
		<path fill="none" stroke="#231F20" stroke-width="4" stroke-linecap="round" stroke-linejoin="round" stroke-miterlimit="10" d="
			M1610.529,607.131c-21.229,6.415-28.529,39.369-7.07,54.96"/>
		<path fill="none" stroke="#231F20" stroke-width="4" stroke-linecap="round" stroke-linejoin="round" stroke-miterlimit="10" d="
			M1543.75,646.833c2.021,8.792,0.438,18.042-1.418,21.229c3.355,3.666,11.043,3,12.909,1.416c0.77-0.651-2.866-17.104-2.575-21.813
			"/>
		<path fill="none" stroke="#231F20" stroke-width="4" stroke-linecap="round" stroke-linejoin="round" stroke-miterlimit="10" d="
			M1593.584,624.751c11.75,4.917,7.417,19.167-0.417,21.417"/>
	</g>
	<g>
		<path fill="none" stroke="#231F20" stroke-width="4" stroke-linecap="round" stroke-linejoin="round" stroke-miterlimit="10" d="
			M1651.729,629.063c0,13.977,0.45,34.97,0.231,49.938"/>
		<path fill="none" stroke="#231F20" stroke-width="4" stroke-linecap="round" stroke-linejoin="round" stroke-miterlimit="10" d="
			M1648.891,636.298c-0.048-0.012,3.162-7.354,3.09-8.401c-0.127,2.016,1.263,7.396,2.898,8.966"/>
		<path fill="none" stroke="#231F20" stroke-width="4" stroke-linecap="round" stroke-linejoin="round" stroke-miterlimit="10" d="
			M1714.286,676.026c-13.976,0-53.454-0.315-68.425-0.1"/>
		<path fill="none" stroke="#231F20" stroke-width="4" stroke-linecap="round" stroke-linejoin="round" stroke-miterlimit="10" d="
			M1707.05,678.864c0.013,0.048,7.354-3.162,8.402-3.09c-2.015,0.126-7.396-1.263-8.964-2.898"/>
		
			<polyline fill="none" stroke="#231F20" stroke-width="4" stroke-linecap="round" stroke-linejoin="round" stroke-miterlimit="10" points="
			1658.689,667.771 1668.02,653.294 1677.46,660.72 1685.537,645.817 1696.683,658.785 1710.222,638.195 		"/>
	</g>
	<path fill="none" stroke="#187FD0" stroke-width="16" stroke-linecap="round" stroke-linejoin="round" stroke-miterlimit="10" d="
		M633.396,600.631c13.509-13.333,23.459-23.338,32.354-37.771c-12.35-13.537-28.618-25.285-40.799-33.488"/>
	<g>
		
			<line fill="none" stroke="#231F20" stroke-width="4" stroke-linecap="round" stroke-linejoin="round" stroke-miterlimit="10" x1="629.188" y1="276.905" x2="1290.813" y2="276.905"/>
		
			<line fill="none" stroke="#231F20" stroke-width="4" stroke-linecap="round" stroke-linejoin="round" stroke-miterlimit="10" x1="629.188" y1="702.193" x2="1290.813" y2="702.193"/>
		
			<line fill="none" stroke="#231F20" stroke-width="4" stroke-linecap="round" stroke-linejoin="round" stroke-miterlimit="10" x1="634.661" y1="271.748" x2="634.661" y2="708.496"/>
		
			<line fill="none" stroke="#231F20" stroke-width="4" stroke-linecap="round" stroke-linejoin="round" stroke-miterlimit="10" x1="1285.339" y1="271.748" x2="1285.339" y2="708.496"/>
	</g>
	<path fill="none" stroke="#187FD0" stroke-width="16" stroke-linecap="round" stroke-linejoin="round" stroke-miterlimit="10" d="
		M723.418,724.827c-2.924-18.754-5.227-32.676-11.742-48.33c-18.202,2.109-37.243,8.443-51.019,13.533"/>
	<path fill="none" stroke="#187FD0" stroke-width="16" stroke-linecap="round" stroke-linejoin="round" stroke-miterlimit="10" d="
		M849.876,710.741c-9.947-16.165-17.453-28.114-29.514-40.033c-15.974,8.982-31.083,22.186-41.82,32.205"/>
	<path fill="none" stroke="#187FD0" stroke-width="16" stroke-linecap="round" stroke-linejoin="round" stroke-miterlimit="10" d="
		M1036.142,704.524c-13.059-13.773-22.859-23.926-37.115-33.105c-13.781,12.076-25.854,28.106-34.302,40.12"/>
	<path fill="none" stroke="#187FD0" stroke-width="16" stroke-linecap="round" stroke-linejoin="round" stroke-miterlimit="10" d="
		M1160.372,703.77c-13.062-13.771-22.862-23.923-37.118-33.104c-13.781,12.076-25.854,28.106-34.299,40.12"/>
	<path fill="none" stroke="#187FD0" stroke-width="16" stroke-linecap="round" stroke-linejoin="round" stroke-miterlimit="10" d="
		M633.123,440.465c16.689-9.038,29.036-15.872,41.603-27.256c-8.086-16.443-20.434-32.261-29.845-43.535"/>
	<path fill="none" stroke="#187FD0" stroke-width="16" stroke-linecap="round" stroke-linejoin="round" stroke-miterlimit="10" d="
		M399.29,583.132c94.319,1.752,182.794-7.528,263.225-20.633"/>
	<path fill="none" stroke="#187FD0" stroke-width="16" stroke-linecap="round" stroke-linejoin="round" stroke-miterlimit="10" d="
		M1342.252,538.031c14.83-11.849,25.771-20.754,36.129-34.184c-10.864-14.755-25.813-28.142-37.068-37.572"/>
	<path fill="none" stroke="#187FD0" stroke-width="16" stroke-linecap="round" stroke-linejoin="round" stroke-miterlimit="10" d="
		M1111.262,496.124c93.619,11.615,182.579,11.646,263.939,7.033"/>
	<path fill="none" stroke="#187FD0" stroke-width="16" stroke-linecap="round" stroke-linejoin="round" stroke-miterlimit="10" d="
		M440,859c80-17.52,250.492-87.088,265-188"/>
	<path fill="none" stroke="#187FD0" stroke-width="16" stroke-linecap="round" stroke-linejoin="round" stroke-miterlimit="10" d="
		M460,382c30.832,0,209.091,7.045,217,40"/>
	<path fill="none" stroke="#187FD0" stroke-width="16" stroke-linecap="round" stroke-linejoin="round" stroke-miterlimit="10" d="
		M751.637,865.262C778,836,818,740,818,667.771"/>
	<path fill="none" stroke="#187FD0" stroke-width="16" stroke-linecap="round" stroke-linejoin="round" stroke-miterlimit="10" d="
		M993,667c22.573,61,22.573,148-19,208"/>
	<path fill="none" stroke="#187FD0" stroke-width="16" stroke-linecap="round" stroke-linejoin="round" stroke-miterlimit="10" d="
		M1201,868c-47.305-39.249-85-119.005-76-201"/>
</g>
</svg>
