<?xml version="1.0" encoding="utf-8"?>
<!-- Generator: Adobe Illustrator 16.0.0, SVG Export Plug-In . SVG Version: 6.00 Build 0)  -->
<!DOCTYPE svg PUBLIC "-//W3C//DTD SVG 1.1//EN" "http://www.w3.org/Graphics/SVG/1.1/DTD/svg11.dtd">
<svg version="1.1" id="Layer_1" xmlns="http://www.w3.org/2000/svg" xmlns:xlink="http://www.w3.org/1999/xlink" x="0px" y="0px"
	 width="705.333px" height="438px" viewBox="-88.5 20.5 705.333 438" enable-background="new -88.5 20.5 705.333 438"
	 xml:space="preserve">
<g>
	
		<path fill="#C8C8C8" stroke="#231F20" stroke-width="4" stroke-linecap="round" stroke-linejoin="round" stroke-miterlimit="10" d="
		M558.654,132.649c-3.132-2.357-7.156-6.063-10.422-8.066c-4.067,0.41-18.694,1.334-22.963,1.85
		c-0.689,0.083-0.611,77.748,0.26,84.612c1.865,2.14,6.744,7.971,8.337,9.897"/>
	
		<path fill="#FFFFFF" stroke="#231F20" stroke-width="4" stroke-linecap="round" stroke-linejoin="round" stroke-miterlimit="10" d="
		M558.838,220.942c-9.661,0.778-18.246,2.43-24.974,0c-0.622-32.855-0.657-57.404,0-87.638c8.826-0.878,16.563-1.007,24.974,0
		C559.46,165.976,559.281,189.652,558.838,220.942z"/>
	<path fill="none" stroke="#231F20" stroke-width="4" stroke-linecap="round" stroke-linejoin="round" stroke-miterlimit="10" d="
		M525.438,126.87c1.514,1.319,5.979,4.904,8.428,6.434"/>
	
		<path fill="#C8C8C8" stroke="#231F20" stroke-width="4" stroke-linecap="round" stroke-linejoin="round" stroke-miterlimit="10" d="
		M517.956,153.75c-3.128-2.356-7.153-6.062-10.419-8.067c-4.066,0.412-18.69,1.335-22.961,1.851
		c-0.689,0.083-0.614,56.646,0.257,63.511c1.861,2.14,6.743,7.971,8.342,9.897"/>
	
		<path fill="#FFFFFF" stroke="#231F20" stroke-width="4" stroke-linecap="round" stroke-linejoin="round" stroke-miterlimit="10" d="
		M518.142,220.942c-9.661,0.778-18.243,2.43-24.969,0c-0.626-32.855-0.66-36.302,0-66.536c8.824-0.878,16.562-1.007,24.969,0
		C518.765,187.078,518.582,189.652,518.142,220.942z"/>
	<path fill="none" stroke="#231F20" stroke-width="4" stroke-linecap="round" stroke-linejoin="round" stroke-miterlimit="10" d="
		M484.745,147.972c1.512,1.319,5.98,4.903,8.43,6.435"/>
	
		<path fill="#C8C8C8" stroke="#231F20" stroke-width="4" stroke-linecap="round" stroke-linejoin="round" stroke-miterlimit="10" d="
		M476.509,170.331c-3.13-2.36-7.157-6.063-10.424-8.069c-4.065,0.416-18.688,1.333-22.963,1.85
		c-0.688,0.084-0.615,40.823,0.262,47.687c1.858,2.137,6.74,7.971,8.339,9.896"/>
	
		<path fill="#FFFFFF" stroke="#231F20" stroke-width="4" stroke-linecap="round" stroke-linejoin="round" stroke-miterlimit="10" d="
		M476.691,221.696c-9.661,0.78-18.242,2.431-24.969,0c0-25.126-0.391-29.271,0-49.204c8.826-0.876,16.561-2.513,24.969-1.507
		C477.094,191.292,477.011,199.583,476.691,221.696z"/>
	<path fill="none" stroke="#231F20" stroke-width="4" stroke-linecap="round" stroke-linejoin="round" stroke-miterlimit="10" d="
		M443.294,164.551c1.514,1.32,5.981,6.412,8.431,7.941"/>
	
		<path fill="#C8C8C8" stroke="#231F20" stroke-width="4" stroke-linecap="round" stroke-linejoin="round" stroke-miterlimit="10" d="
		M600.856,112.301c-3.129-2.356-7.156-6.061-10.42-8.068c-4.067,0.415-18.692,1.334-22.964,1.851
		c-0.689,0.085-0.614,99.604,0.261,106.468c1.865,2.14,6.742,7.975,8.336,9.897"/>
	
		<path fill="#FFFFFF" stroke="#231F20" stroke-width="4" stroke-linecap="round" stroke-linejoin="round" stroke-miterlimit="10" d="
		M601.041,222.45c-9.659,0.781-18.239,2.432-24.972,0c-0.625-32.857-0.66-79.257,0-109.494c8.827-0.877,16.563-1.007,24.972,0
		C601.666,145.627,601.483,191.158,601.041,222.45z"/>
	<path fill="none" stroke="#231F20" stroke-width="4" stroke-linecap="round" stroke-linejoin="round" stroke-miterlimit="10" d="
		M567.643,106.52c1.512,1.321,5.979,4.904,8.427,6.436"/>
	
		<path fill="#C8C8C8" stroke="#231F20" stroke-width="4" stroke-linecap="round" stroke-linejoin="round" stroke-miterlimit="10" d="
		M420.882,174.234l13.054-3.769l-0.099-14.306l40.981-3.978l0.25-13.656l39.315-3.625l0.505-17.575l43.394-2.353l0.66-18.65
		l30.809-1.695c0,0,11.53-9.441,15.924-15.105c1.452,1.443,3.995,4.763,5.361,6.103c1.233-6.859-3.367-24.303-4.459-28.583
		c-10.889,0.871-24.515,3.316-30.414,5.465c2.311,1.149,4.315,1.431,6.702,2.537c-57.08,51.246-121.119,70.235-161.938,77.756
		C420.407,151.525,420.882,174.234,420.882,174.234z"/>
</g>
<path fill="none" stroke="#187FD0" stroke-width="12.1043" stroke-linecap="round" stroke-linejoin="round" stroke-miterlimit="10" d="
	M227.508,376.394c1.885-12.053,3.201-21.022,2.278-31.88c-11.553-2.273-24.449-2.123-33.873-1.707"/>
<path fill="none" stroke="#187FD0" stroke-width="12.1043" stroke-linecap="round" stroke-linejoin="round" stroke-miterlimit="10" d="
	M161.401,136.285c12.142-1.146,21.161-2.081,31.458-5.65c-0.645-11.759-3.966-24.214-6.694-33.25"/>
<path fill="none" stroke="#187FD0" stroke-width="12.1043" stroke-linecap="round" stroke-linejoin="round" stroke-miterlimit="10" d="
	M85.745,90.587c52.169-6.072,85.884,17.49,107.114,40.047"/>
<path fill="none" stroke="#187FD0" stroke-width="12.1043" stroke-linecap="round" stroke-linejoin="round" stroke-miterlimit="10" d="
	M364.979,158.614c-12.194,0.249-21.261,0.351-31.897-2.021c-0.702-11.754,1.172-24.509,2.854-33.795"/>
<path fill="none" stroke="#187FD0" stroke-width="12.1043" stroke-linecap="round" stroke-linejoin="round" stroke-miterlimit="10" d="
	M464.256,107.5c-56.089-3.267-102.756,17.083-131.325,48.376"/>
<path fill="none" stroke="#187FD0" stroke-width="12.1043" stroke-linecap="round" stroke-linejoin="round" stroke-miterlimit="10" d="
	M133.086,397.206c25.09-3.304,66.57-17.391,96.7-52.691"/>
<path fill="none" stroke="#187FD0" stroke-width="12.1043" stroke-linecap="round" stroke-linejoin="round" stroke-miterlimit="10" d="
	M333.783,363.599c-1.399-12.121-2.355-21.136-0.999-31.947c11.634-1.81,24.515-1.142,33.913-0.348"/>
<path fill="none" stroke="#187FD0" stroke-width="12.1043" stroke-linecap="round" stroke-linejoin="round" stroke-miterlimit="10" d="
	M430.5,402.498c-48.857-11.313-77.804-45.529-97.716-70.846"/>
<g>
	
		<path fill="#C8C8C8" stroke="#231F20" stroke-width="4" stroke-linecap="round" stroke-linejoin="round" stroke-miterlimit="10" d="
		M-44.966,64.191c-4.878,35.956-6.917,94.788,0,132.389c34.692,27.866,90.397,21.896,109.759,0c3.056-37.159,6.453-95.3,0-132.389
		C35.243,58.125-18.765,53.505-44.966,64.191z"/>
	
		<path fill="#FFFFFF" stroke="#231F20" stroke-width="4" stroke-linecap="round" stroke-linejoin="round" stroke-miterlimit="10" d="
		M64.792,64.191c0,5.711-24.571,10.343-54.879,10.343c-30.311,0-58.099-6.461-54.879-10.343
		C-26.749,42.2,53.073,55.25,64.792,64.191z"/>
	<g>
		<path fill="#232323" d="M-19.881,130.924c0-0.557,0.669-0.688,1.078-0.688c0.502,0,0.892,0.353,1.188,0.725
			c0.111,0.13,0.224,0.26,0.334,0.409c0.446,0.558,0.893,1.097,1.58,1.097c1.747,0,3.364-1.32,3.364-3.16
			c0-0.799-0.725-1.208-1.636-1.413c-0.911-0.223-1.951-0.242-2.565-0.316c-1.58-0.186-2.695-1.766-2.695-3.29
			c0-2.082,1.283-4.721,3.644-4.721c1.468,0,4.702,0.911,4.702,2.825c0,0.372-0.632,0.985-1.003,0.985
			c-0.242,0-0.483-0.13-0.726-0.297c-0.241-0.167-0.502-0.409-0.762-0.632c-0.539-0.465-1.115-0.892-1.766-0.892
			c-1.189,0-2.026,1.71-2.026,2.769c0,0.409,0.112,0.836,0.409,1.115c0.167,0.149,0.576,0.26,1.171,0.372
			c0.576,0.093,1.282,0.205,1.988,0.353c1.394,0.297,2.807,0.818,3.029,2.007c0.094,0.446,0.131,0.911,0.131,1.357
			c0,3.104-2.23,4.906-5.204,4.906C-17.038,134.438-19.881,132.467-19.881,130.924z"/>
		<path fill="#232323" d="M0.502,121.65c-0.409,0.019-0.762,0-1.041,0c-0.093,0-0.334-0.019-0.558,0
			c-0.242,0.037-0.428,0.074-0.464,0.167c-0.112,0.205-0.149,0.966-0.167,1.766c-0.02,0.78-0.02,1.598-0.02,1.914
			c0,0.521-0.074,1.022-0.074,1.542v0.26c0,1.673,0.261,3.327,0.261,4.981v0.595c-0.02,0.539-0.094,1.598-0.855,1.598
			c-0.725,0-1.041-0.669-1.171-1.431c-0.074-0.372-0.112-0.781-0.13-1.152v-0.911c0-1.84,0.13-3.662,0.13-5.483
			c0-0.464-0.056-3.643-0.205-3.773c-0.019-0.019-0.111-0.019-0.147-0.019c-0.893,0-1.784,0.167-2.695,0.167
			c-0.428,0-1.729-0.019-1.729-0.688c0-0.372,0.354-0.762,0.576-0.985c0.409-0.427,2.286-0.576,4.237-0.65
			c0.966-0.037,1.97-0.056,2.844-0.093c0.854-0.037,1.58-0.074,1.988-0.149c0.111-0.019,0.223-0.037,0.353-0.037
			c0.465,0,1.563,0.242,1.563,0.911c0,0.855-0.688,1.189-1.468,1.357C1.32,121.613,0.892,121.65,0.502,121.65z"/>
		<path fill="#232323" d="M10.886,134.492c-3.141,0-5.762-3.457-5.762-6.412c0-3.308,2.044-7.899,5.631-8.586
			c0.13-0.019,0.242-0.037,0.354-0.037c2.991,0,4.943,5.706,4.943,8.103c0,1.71-0.984,3.624-1.933,5.018
			C13.339,133.712,12.318,134.492,10.886,134.492z M10.831,121.688c-0.204,0-0.706,0.242-0.893,0.354
			c-1.857,1.115-2.602,4.349-2.75,6.393l-0.019,0.26c-0.111,1.691,1.542,3.661,3.308,3.661c2.063,0,3.755-3.048,3.755-4.925
			c0-1.171-1.228-4.609-2.119-5.315C11.854,121.893,11.166,121.688,10.831,121.688z"/>
		<path fill="#232323" d="M22.627,134.474c-3.438-0.316-5.148-4.312-5.148-7.341c0-3.773,2.51-7.713,6.636-7.713
			c1.06,0,3.085,0.669,3.085,2.026c0,0.353-0.167,1.189-0.669,1.189c-0.13,0-0.297-0.038-0.483-0.112
			c-0.186-0.074-0.391-0.148-0.613-0.242c-0.465-0.186-1.004-0.372-1.599-0.372c-0.409,0-0.817,0.074-1.208,0.186
			c-1.69,0.483-3.215,3.475-3.215,5.148c0,2.528,1.821,5.148,4.516,5.148c0.93,0,1.356-0.372,1.729-0.725
			c0.186-0.186,0.354-0.372,0.558-0.502c0.224-0.148,0.465-0.242,0.799-0.242c0.669,0,0.688,0.539,0.688,1.022
			c0,2.156-2.397,2.565-4.033,2.565C23.316,134.511,22.961,134.511,22.627,134.474z"/>
		<path fill="#232323" d="M37.77,133.563c-0.166-0.223-0.334-0.464-0.482-0.669c-0.149-0.223-0.279-0.409-0.391-0.521
			c-0.334-0.353-1.339-1.505-2.36-2.583c-1.041-1.097-2.044-2.044-2.397-2.044c-0.167,0-0.24,0.242-0.278,0.52
			c-0.037,0.298-0.037,0.632-0.037,0.744c0,1.45,0.297,2.881,0.297,4.312c0,0.613-0.501,1.059-1.096,1.059
			c-0.651,0-0.931-0.483-0.985-1.041c-0.446-4.033-0.353-8.382-0.501-12.396c-0.019-0.576,0.334-1.338,1.022-1.338
			c0.892,0,1.003,1.32,1.021,2.565c0.02,0.632,0,1.282,0.02,1.784c0.019,0.539,0.093,0.855,0.24,0.929h0.037
			c0.075,0,0.465-0.297,0.874-0.669c0.409-0.353,0.818-0.725,0.948-0.836c1.264-1.041,2.36-2.416,3.364-3.735
			c0.465,0,1.134,0.093,1.134,0.706c0,0.966-1.208,2.286-2.379,3.438c-0.596,0.576-1.189,1.115-1.637,1.543
			c-0.464,0.446-0.725,0.743-0.725,0.855c0,0.427,1.487,1.375,1.84,1.672c1.115,0.948,4.423,4.219,4.423,5.668
			c0,0.446-0.372,0.855-0.836,0.855C38.476,134.381,38.085,133.991,37.77,133.563z"/>
	</g>
	<g>
		<path fill="#232323" d="M-36.043,155.161c-1.449,0-2.843-0.037-2.843-1.896c0-0.781,0.205-1.524,0.26-2.286
			c0.186-2.174,0.093-4.405,0.093-6.598c0-0.391-0.037-1.283,0.037-2.119c0.074-0.818,0.26-1.617,0.744-1.729
			c0.595-0.149,1.301-0.167,1.896-0.167c3.364,0,8.141,1.933,8.141,5.947c0,0.836-0.241,1.636-0.595,2.36
			C-29.965,152.039-31.805,155.161-36.043,155.161z M-34.723,142.394c-0.167,0-0.316,0-0.466,0.037
			c-0.539,0.13-0.762,0.186-0.874,0.334c-0.056,0.056-0.073,0.149-0.093,0.279c-0.019,0.149-0.019,0.316-0.019,0.539
			c0,2.416,0,4.944-0.297,7.323c-0.057,0.464-0.148,0.911-0.148,1.375c0,0.576,0.223,0.855,0.817,0.855
			c2.861,0,5.762-4.684,5.762-7.285c0-1.264-0.558-2.156-1.71-2.695C-32.568,142.783-33.85,142.394-34.723,142.394z"/>
		<path fill="#232323" d="M-17.11,154.008c-0.074-0.334-0.093-0.688-0.13-1.003c-0.037-0.315-0.074-0.613-0.13-0.836
			c-0.111-0.372-0.167-0.706-0.242-1.004c-0.056-0.297-0.147-0.539-0.26-0.743c-0.223-0.409-0.632-0.65-1.505-0.65
			c-0.65,0-3.55-0.019-3.958,0.223c-0.26,0.148-0.409,0.501-0.483,0.985c-0.093,0.502-0.11,1.078-0.167,1.635
			c-0.093,1.115-0.26,2.23-1.134,2.23s-1.245-0.242-1.245-0.966c0-0.075,0.021-1.06,0.074-1.283c0.056-0.223,0.13-0.464,0.148-0.576
			c0.205-1.078,0.315-2.193,0.595-3.271c0.315-1.245,0.725-2.453,1.097-3.68c0.224-0.706,0.409-1.877,0.781-2.881
			c0.372-1.003,0.948-1.84,1.97-1.84c3.996,0,5,4.256,5.483,7.36c0.11,0.781,0.464,2.156,0.78,3.476
			c0.315,1.319,0.612,2.602,0.612,3.178c0,0.688-0.649,0.855-1.171,0.855C-16.682,155.216-16.98,154.64-17.11,154.008z
			 M-22.202,144.177c-0.242,0.688-0.372,1.468-0.446,1.784c-0.093,0.446-0.315,0.874-0.315,1.357c0,0.316,0.074,0.446,0.167,0.483
			c0.056,0.037,0.13,0.056,0.241,0.056h0.335c0.501,0,3.567-0.13,3.791-0.316c0.167-0.167,0.223-0.39,0.223-0.65
			c0-1.45-1.431-4.014-3.085-4.014C-21.664,142.876-21.96,143.452-22.202,144.177z"/>
		<path fill="#232323" d="M-4.495,142.467c-0.409,0.019-0.762,0-1.041,0c-0.093,0-0.334-0.019-0.558,0
			c-0.242,0.037-0.428,0.075-0.464,0.167c-0.112,0.204-0.149,0.966-0.167,1.766c-0.02,0.78-0.02,1.598-0.02,1.914
			c0,0.521-0.074,1.022-0.074,1.542v0.26c0,1.673,0.261,3.327,0.261,4.981v0.595c-0.02,0.539-0.094,1.598-0.855,1.598
			c-0.725,0-1.041-0.669-1.171-1.431c-0.074-0.372-0.112-0.781-0.13-1.152v-0.911c0-1.84,0.13-3.662,0.13-5.483
			c0-0.464-0.056-3.643-0.205-3.772c-0.019-0.019-0.111-0.019-0.147-0.019c-0.893,0-1.784,0.167-2.695,0.167
			c-0.428,0-1.729-0.019-1.729-0.688c0-0.372,0.354-0.762,0.576-0.985c0.409-0.427,2.286-0.576,4.237-0.65
			c0.966-0.037,1.97-0.056,2.844-0.093c0.854-0.037,1.58-0.074,1.988-0.149c0.112-0.019,0.223-0.037,0.353-0.037
			c0.465,0,1.563,0.242,1.563,0.911c0,0.855-0.688,1.189-1.468,1.357C-3.677,142.43-4.105,142.467-4.495,142.467z"/>
		<path fill="#232323" d="M8.696,154.008c-0.074-0.334-0.094-0.688-0.13-1.003c-0.037-0.315-0.074-0.613-0.131-0.836
			c-0.111-0.372-0.167-0.706-0.241-1.004c-0.057-0.297-0.148-0.539-0.261-0.743c-0.223-0.409-0.632-0.65-1.505-0.65
			c-0.649,0-3.55-0.019-3.958,0.223c-0.26,0.148-0.409,0.501-0.482,0.985c-0.094,0.502-0.111,1.078-0.167,1.635
			c-0.094,1.115-0.261,2.23-1.135,2.23c-0.873,0-1.244-0.242-1.244-0.966c0-0.075,0.019-1.06,0.073-1.283
			c0.057-0.223,0.13-0.464,0.148-0.576c0.205-1.078,0.315-2.193,0.595-3.271c0.316-1.245,0.726-2.453,1.098-3.68
			c0.223-0.706,0.408-1.877,0.78-2.881c0.372-1.003,0.948-1.84,1.97-1.84c3.996,0,5,4.256,5.483,7.36
			c0.111,0.781,0.464,2.156,0.78,3.476c0.315,1.319,0.613,2.602,0.613,3.178c0,0.688-0.65,0.855-1.171,0.855
			C9.124,155.216,8.826,154.64,8.696,154.008z M3.604,144.177c-0.242,0.688-0.372,1.468-0.446,1.784
			c-0.093,0.446-0.316,0.874-0.316,1.357c0,0.316,0.074,0.446,0.167,0.483c0.057,0.037,0.13,0.056,0.241,0.056h0.335
			c0.501,0,3.568-0.13,3.791-0.316c0.167-0.167,0.223-0.39,0.223-0.65c0-1.45-1.431-4.014-3.085-4.014
			C4.142,142.876,3.844,143.452,3.604,144.177z"/>
		<path fill="#232323" d="M13.691,154.809c-0.466-0.112-0.669-0.948-0.763-1.784c-0.11-0.836-0.093-1.747-0.093-2.082
			c0-1.227,0.111-2.435,0.111-3.643c0-0.911-0.057-1.803-0.057-2.695c0-0.65-0.019-2.564,0.596-2.917
			c1.004-0.595,2.452-1.375,3.643-1.375c1.859,0,4.535,1.914,4.535,3.94c0,0.836-0.465,1.283-0.948,1.617
			c-0.223,0.148-0.465,0.279-0.632,0.409s-0.26,0.242-0.26,0.372s0.11,0.242,0.334,0.353c0.204,0.13,0.501,0.242,0.816,0.372
			c0.614,0.242,1.32,0.558,1.58,1.096c0.354,0.725,0.799,1.431,0.799,2.268c0,2.342-3.363,4.498-5.481,4.498
			C16.534,155.235,15.009,155.161,13.691,154.809z M16.999,148.135c-0.613,0-1.356-0.353-1.356-1.096
			c0-0.707,0.743-1.041,1.339-1.078c1.097-0.056,2.472-1.189,2.472-2.36c0-0.911-1.003-1.115-1.767-1.115
			c-2.137,0-2.937,1.004-2.937,3.048c0,1.189,0.205,2.36,0.205,3.531c0,0.651-0.13,1.264-0.13,1.915c0,1.821,0.52,1.951,2.192,2.342
			c0.261,0.056,0.539,0.093,0.8,0.093c1.598,0,2.991-1.282,2.991-2.899c0-1.208-0.854-2.063-1.988-2.379
			C18.262,147.968,17.575,148.135,16.999,148.135z"/>
		<path fill="#232323" d="M34.167,154.008c-0.075-0.334-0.093-0.688-0.13-1.003s-0.074-0.613-0.13-0.836
			c-0.111-0.372-0.167-0.706-0.242-1.004c-0.056-0.297-0.148-0.539-0.26-0.743c-0.224-0.409-0.632-0.65-1.505-0.65
			c-0.65,0-3.551-0.019-3.958,0.223c-0.261,0.148-0.409,0.501-0.483,0.985c-0.093,0.502-0.111,1.078-0.167,1.635
			c-0.093,1.115-0.26,2.23-1.134,2.23s-1.245-0.242-1.245-0.966c0-0.075,0.019-1.06,0.074-1.283c0.056-0.223,0.13-0.464,0.147-0.576
			c0.205-1.078,0.316-2.193,0.596-3.271c0.315-1.245,0.725-2.453,1.097-3.68c0.223-0.706,0.409-1.877,0.781-2.881
			c0.372-1.003,0.947-1.84,1.97-1.84c3.996,0,5,4.256,5.482,7.36c0.111,0.781,0.465,2.156,0.78,3.476
			c0.316,1.319,0.613,2.602,0.613,3.178c0,0.688-0.65,0.855-1.171,0.855C34.594,155.216,34.296,154.64,34.167,154.008z
			 M29.075,144.177c-0.242,0.688-0.372,1.468-0.446,1.784c-0.093,0.446-0.315,0.874-0.315,1.357c0,0.316,0.073,0.446,0.166,0.483
			c0.057,0.037,0.131,0.056,0.241,0.056h0.335c0.501,0,3.568-0.13,3.791-0.316c0.167-0.167,0.224-0.39,0.224-0.65
			c0-1.45-1.432-4.014-3.085-4.014C29.614,142.876,29.316,143.452,29.075,144.177z"/>
		<path fill="#232323" d="M37.452,151.741c0-0.557,0.669-0.688,1.078-0.688c0.502,0,0.892,0.353,1.188,0.725
			c0.111,0.13,0.224,0.26,0.334,0.409c0.446,0.558,0.893,1.097,1.58,1.097c1.747,0,3.364-1.32,3.364-3.16
			c0-0.799-0.725-1.208-1.636-1.413c-0.911-0.223-1.951-0.242-2.565-0.316c-1.58-0.186-2.695-1.766-2.695-3.29
			c0-2.082,1.283-4.721,3.644-4.721c1.468,0,4.702,0.911,4.702,2.825c0,0.372-0.632,0.985-1.003,0.985
			c-0.242,0-0.483-0.13-0.726-0.297c-0.243-0.167-0.502-0.409-0.762-0.632c-0.539-0.465-1.115-0.892-1.766-0.892
			c-1.189,0-2.026,1.71-2.026,2.769c0,0.409,0.112,0.836,0.409,1.115c0.167,0.148,0.576,0.26,1.171,0.372
			c0.576,0.093,1.282,0.205,1.988,0.353c1.394,0.297,2.807,0.818,3.029,2.007c0.094,0.446,0.13,0.911,0.13,1.357
			c0,3.104-2.229,4.906-5.203,4.906C40.295,155.254,37.452,153.284,37.452,151.741z"/>
		<path fill="#232323" d="M53.375,154.957c-1.134,0-2.249,0.279-3.383,0.279c-0.204,0-0.391,0-0.595-0.037
			c-0.483-0.074-0.688-0.966-0.78-1.858c-0.093-0.911-0.057-1.896-0.057-2.286c0-1.951,0.278-3.921,0.278-5.892
			c0-1.115-0.037-2.286-0.223-3.401c-0.02-0.167-0.057-0.334-0.057-0.483c0-0.743,0.464-0.929,1.115-0.929
			c2.454,0,4.944,0.037,7.416,0.037c0.372,0,1.061,0.613,1.061,1.004c0,1.245-1.767,1.487-2.603,1.487
			c-1.188,0-2.359-0.223-3.531-0.223c-0.297,0-0.649,0-0.929,0.093c-0.409,0.149-0.502,2.119-0.502,2.509
			c0,0.78,0.037,1.041,0.911,1.041c0.65,0,1.301-0.148,1.97-0.148c0.726,0,1.208,0.148,1.208,0.985c0,0.743-0.521,1.022-1.134,1.097
			c-0.316,0.037-0.65,0.037-0.966,0.019c-0.297,0-0.596-0.037-0.818-0.037c-0.78,0-1.115,0.223-1.264,0.557
			c-0.074,0.186-0.093,0.409-0.111,0.669v0.892c0,0.316,0.037,2.119,0.26,2.304c0.204,0.167,0.521,0.167,0.8,0.167
			c1.356,0,2.713-0.279,4.089-0.279c0.744,0,3.363,0.056,3.363,1.301c0,0.651-1.208,0.93-2.452,1.041
			C55.198,154.977,53.822,154.957,53.375,154.957z"/>
	</g>
</g>
<g>
	<polygon fill="#FFFFFF" points="476.316,314.037 472.92,318.139 472.92,328.471 471.034,330.998 456.584,330.057 453.122,362.072 
		453.803,373.972 455.038,376.895 470.76,379.813 475.513,381.139 475.054,396.477 475.002,398.484 476.352,401.954 
		486.647,409.358 493.438,412.275 502.772,415.083 508.709,416.372 513.701,415.109 518.506,410.455 519.479,409.358 
		522.621,408.85 529.654,410.051 536.592,410.436 540.352,412.275 544.219,416.372 547.889,419.193 551.741,420.637 560.275,420.25 
		569.315,419.201 578.432,416.372 582.69,413.755 584.92,410.436 584.92,400.471 585.617,392.655 588.926,392.655 597.072,393.354 
		599.69,391.229 601.098,386.467 602.92,372.485 602.92,360.471 600.915,348.472 598.272,344.017 592.329,341.113 583.606,340.59 
		574.739,337.313 569.654,332.801 567.328,328.858 	"/>
	
		<path fill="#FFFFFF" stroke="#231F20" stroke-width="4" stroke-linecap="round" stroke-linejoin="round" stroke-miterlimit="10" d="
		M498.69,306.661c1.834-0.108,3.663-0.218,5.495-0.329c0.79,0.334,1.396,0.747,1.938,1.206c1.547,1.313,2.636,2.716,3.806,4.11
		c0.997,1.189,1.859,2.406,3.15,3.555c0.463,0.412,0.933,0.579,1.695,0.518c1.068-0.084,2.214-0.003,3.346,0.063
		c3.868,0.223,7.755,0.456,11.68,1.157c1.271,0.229,1.907,0.114,2.402-0.411c1.33-1.422,2.224-2.981,3.449-4.423
		c0.691-0.815,1.354-1.646,2.516-2.264c0.688-0.37,1.509-0.516,2.674-0.219c1.078,0.274,2.193,0.476,3.266,0.765
		c10.333,2.801,19.735,6.66,28.337,11.498c1.758,0.986,1.783,1.095,0.979,2.068c-1.264,1.532-3.256,2.74-5.003,4.066
		c-0.738,0.56-1.519,1.104-2.028,1.769c-0.198,0.258-0.284,0.49,0.222,0.821c3.725,2.435,6.554,5.152,9.364,7.905
		c0.554,0.539,0.423,1.284,1.77,1.602c1.044,0.246,2.094,0.293,3.131,0.354c0.289,0.015,0.573,0.021,0.864,0.033
		c3.515,0.178,6.994,0.226,10.591,0.607c1.729,0.185,3.483,0.391,4.916,1.371c0.781,1.167,1.568,2.336,2.356,3.514
		c-0.176,0.075-0.084,0.202-0.019,0.324c0.919,1.657,1.557,3.311,2.06,4.967c1.396,4.589,1.829,9.076,0.618,13.348
		c-0.287,1.012-0.625,1.104-2.557,1.008c-3.953-0.2-7.962-1.051-11.938-1.688c-1.657-0.268-3.317-0.582-4.957-0.68
		c-0.601-0.034-1.084-0.017-1.193,0.358c-0.426,1.435-1.499,2.644-2.503,3.873c-1.175,1.438-2.332,2.907-4.159,4.06
		c-0.648,0.409-0.669,0.785-0.02,1.41c2.159,2.08,4.866,3.992,7.229,6.038c1.176,1.018,2.371,2.034,3.244,3.128
		c0.575,0.723,1.117,1.487,0.281,2.024c-0.826,0.534-1.654,1.071-2.602,1.526c-7.972,3.836-17.611,6.026-28.744,6.701
		c-1.627,0.1-2.688-0.279-3.766-1.152c-1.777-1.438-2.984-2.995-4.251-4.532c-1.393-1.688-2.563-3.4-4.078-5.055
		c-0.635-0.69-1.307-1.027-2.485-0.913c-1.283,0.125-2.7-0.04-4.079-0.144c-3.998-0.289-8.005-0.602-12.021-1.426
		c-1.375-0.283-2.072-0.17-2.621,0.456c-1.408,1.595-2.354,3.377-3.642,5.037c-0.823,1.061-1.595,2.146-2.933,2.97
		c-0.813,0.502-1.768,0.616-3.168,0.271c-4.045-1-7.928-2.275-11.684-3.738c-8.058-3.14-16.342-6.741-22.721-11.097
		c-1.327-0.904-1.346-1.073-0.563-1.955c1.109-1.253,3.527-2.271,5.003-3.323c1.423-1.015,4.394-2.17,5.54-3.325
		c0.434-0.438-5.879-7.188-7.965-10.32c-6.326-2.224-16.694-2.592-24.435-3.098c-0.555-1.213-0.323-15.581,2.103-20.996
		c0.39-0.871,0.613-0.942,2.288-0.85c2.225,0.13,4.436,0.499,6.65,0.857c2.728,0.438,5.438,1.015,8.201,1.274
		c0.889,0.082,1.328-0.063,1.646-0.56c1.588-2.497,3.793-4.741,6.646-6.683c0.743-0.508,0.866-0.896,0.163-1.561
		c-1.723-1.614-3.738-3.124-5.507-4.7c-1.104-0.983-2.259-1.962-2.844-3.052c-0.315-0.592-0.255-1.065,0.542-1.421
		c0.947-0.424,1.776-0.922,2.759-1.33c5.884-2.431,12.552-4.076,19.923-5.055C497.615,306.909,498.315,306.947,498.69,306.661z"/>
	<path fill="#1D93B9" d="M545.533,345.723c-3.485-5.867-13.888-10.076-23.347-9.525c-9.347,0.546-14.469,5.66-11.366,11.475
		c3.157,5.929,13.821,10.467,23.502,9.929C544.063,357.057,549.076,351.683,545.533,345.723z"/>
	<path fill="#C8C8C8" stroke="#231F20" stroke-width="4" stroke-miterlimit="10" d="M549.131,346.394
		c4.28,7.203-1.779,13.696-13.551,14.354c-11.697,0.65-24.588-4.835-28.404-11.998c-3.748-7.025,2.443-13.208,13.738-13.868
		C532.346,334.217,544.917,339.301,549.131,346.394z"/>
	<path fill="none" stroke="#231F20" stroke-width="4" stroke-linecap="round" stroke-linejoin="round" stroke-miterlimit="10" d="
		M454.481,342.383c-1.14,14.141-2.043,25.201-0.655,33.889"/>
	<path fill="none" stroke="#231F20" stroke-width="4" stroke-linecap="round" stroke-linejoin="round" stroke-miterlimit="10" d="
		M473.76,315.293c0,6.223-0.172,10.369-0.426,14.318"/>
	<path fill="none" stroke="#231F20" stroke-width="4" stroke-linecap="round" stroke-linejoin="round" stroke-miterlimit="10" d="
		M478.25,354.258c0,6.223-0.115,11.678-0.37,15.625"/>
	<path fill="none" stroke="#231F20" stroke-width="4" stroke-linecap="round" stroke-linejoin="round" stroke-miterlimit="10" d="
		M475.512,372.485c0,13.688,0.043,14.343-0.656,27.917"/>
	<path fill="none" stroke="#231F20" stroke-width="4" stroke-linecap="round" stroke-linejoin="round" stroke-miterlimit="10" d="
		M513.19,388.54c0,13.688-0.835,14.341-1.533,27.916"/>
	<path fill="none" stroke="#231F20" stroke-width="4" stroke-linecap="round" stroke-linejoin="round" stroke-miterlimit="10" d="
		M521.95,380.512c0,13.688-0.834,14.343-1.532,27.919"/>
	<path fill="none" stroke="#231F20" stroke-width="4" stroke-linecap="round" stroke-linejoin="round" stroke-miterlimit="10" d="
		M540.352,382.519c0,13.688-0.835,14.343-1.532,27.917"/>
	<path fill="none" stroke="#231F20" stroke-width="4" stroke-linecap="round" stroke-linejoin="round" stroke-miterlimit="10" d="
		M551.741,392.554c-0.139,8.59-0.835,14.341-1.533,27.916"/>
	<path fill="none" stroke="#231F20" stroke-width="4" stroke-linecap="round" stroke-linejoin="round" stroke-miterlimit="10" d="
		M585.913,384.527c-0.138,8.59-0.834,14.342-1.534,27.915"/>
	<path fill="none" stroke="#231F20" stroke-width="4" stroke-linecap="round" stroke-linejoin="round" stroke-miterlimit="10" d="
		M602.561,365.462c-0.138,8.593-1.643,19.473-3.284,27.917"/>
	<path fill="none" stroke="#231F20" stroke-width="4" stroke-linecap="round" stroke-linejoin="round" stroke-miterlimit="10" d="
		M475.002,400.402c8.543,10.786,27.088,14.883,36.508,16.473"/>
	<path fill="none" stroke="#231F20" stroke-width="4" stroke-linecap="round" stroke-linejoin="round" stroke-miterlimit="10" d="
		M511.51,416.372c1.609,0,7.674-6.416,8.908-8.191"/>
	<path fill="none" stroke="#231F20" stroke-width="4" stroke-linecap="round" stroke-linejoin="round" stroke-miterlimit="10" d="
		M538.891,410.436c2.118,3.404,6.72,7.606,11.317,10.201"/>
	<path fill="none" stroke="#231F20" stroke-width="4" stroke-linecap="round" stroke-linejoin="round" stroke-miterlimit="10" d="
		M520.49,408.262c5.401,1.672,12.358,2.316,18.326,2.174"/>
	<path fill="none" stroke="#231F20" stroke-width="4" stroke-linecap="round" stroke-linejoin="round" stroke-miterlimit="10" d="
		M550.354,420.637c10.197-0.403,24.899,0,33.953-8.11"/>
	<path fill="none" stroke="#231F20" stroke-width="4" stroke-linecap="round" stroke-linejoin="round" stroke-miterlimit="10" d="
		M599.33,393.379c-1.188-0.015-13.313-0.696-13.526-2.194"/>
	<path fill="none" stroke="#231F20" stroke-width="4" stroke-linecap="round" stroke-linejoin="round" stroke-miterlimit="10" d="
		M453.826,376.271c5.528,3.104,13.592,3.889,21.028,3.414"/>
</g>
<g>
	
		<path fill="#FFFFFF" stroke="#231F20" stroke-width="4" stroke-linecap="round" stroke-linejoin="round" stroke-miterlimit="10" d="
		M-70.47,421.029c-5.014-4.434-7.371-6.715-10.096-11.725c-2.51-36.028-0.67-71.297,2.877-108.044
		c52.008-7.489,132.682-7.758,174.169,0.962c2.179,1.63,7.141,4.273,9.095,7.584"/>
	
		<path fill="#FFFFFF" stroke="#231F20" stroke-width="4" stroke-linecap="round" stroke-linejoin="round" stroke-miterlimit="10" d="
		M105.575,421.029c-54.756,6.689-130.98,9.117-176.045,0c-4.411-41.7-4.649-72.851,0-111.223c45.063-4.948,136.754-6.037,176.045,0
		C109.978,351.271,108.704,381.319,105.575,421.029z"/>
	<path fill="none" stroke="#231F20" stroke-width="4" stroke-linecap="round" stroke-linejoin="round" stroke-miterlimit="10" d="
		M-77.444,301.751c2.271,1.133,5.299,5.526,6.605,7.932"/>
	
		<path fill="#C8C8C8" stroke="#231F20" stroke-width="4" stroke-linecap="round" stroke-linejoin="round" stroke-miterlimit="10" d="
		M-12.049,298.14c2.189,2.997,7.729,3.611,10.676,1.835c6.072-13.275,22.563-20.35,35.033-0.257c2.474,2.033,8.502,1.5,10.076,0.252
		C32.268,272.658-1.486,272.53-12.049,298.14z"/>
	
		<polygon fill="#C8C8C8" stroke="#231F20" stroke-width="4" stroke-linecap="round" stroke-linejoin="round" stroke-miterlimit="10" points="
		49.609,381.566 61.297,358.427 86.843,385.728 133.557,320.601 150.987,340.592 89.152,406.367 	"/>
</g>
<g>
	<g>
		<g>
			<path fill="#187FD0" d="M345.686,191.15c-0.731-1.01-1.91-1.609-3.162-1.609H200.614l-6.896-25.147
				c-0.469-1.702-2.011-2.877-3.771-2.877h-27.256c-2.156,0-3.907,1.752-3.907,3.912c0,2.163,1.75,3.912,3.907,3.912h24.268
				l13.604,49.597c0.038,0.214,0.094,0.414,0.168,0.612l14.756,53.799c0.467,1.699,2.009,2.878,3.77,2.878h97.751
				c1.7,0,3.198-1.098,3.725-2.706l25.501-78.864C346.627,193.465,346.418,192.159,345.686,191.15z M263.71,222.129V268.4H234.38
				v-46.271H263.71z M234.38,214.307v-16.948h29.331v16.948H234.38z M272.841,222.129h29.98V268.4h-29.98V222.129z M272.841,214.307
				v-16.948h29.98v16.948H272.841z M225.259,197.361v16.946h-17.856l-4.649-16.946H225.259z M209.549,222.129h15.709V268.4h-3.018
				L209.549,222.129z M314.163,268.4h-2.221v-46.271h17.19L314.163,268.4z M331.666,214.307h-19.72v-16.948h25.201L331.666,214.307z
				"/>
		</g>
		<g>
			<path fill="#187FD0" d="M233.537,283.723c-9.306,0-16.884,7.578-16.884,16.883c0,9.304,7.58,16.877,16.884,16.877
				c9.3,0,16.876-7.573,16.876-16.877C250.413,291.301,242.837,283.723,233.537,283.723z M233.537,309.667
				c-5,0-9.063-4.07-9.063-9.061c0-4.993,4.064-9.058,9.063-9.058c4.991,0,9.055,4.065,9.055,9.058
				C242.591,305.6,238.531,309.667,233.537,309.667z"/>
		</g>
		<g>
			<path fill="#187FD0" d="M302.823,283.723c-9.309,0-16.879,7.578-16.879,16.883c0,9.304,7.574,16.877,16.879,16.877
				s16.879-7.573,16.879-16.877C319.702,291.301,312.132,283.723,302.823,283.723z M302.823,309.667
				c-4.996,0-9.062-4.07-9.062-9.061c0-4.993,4.065-9.058,9.062-9.058c4.991,0,9.059,4.065,9.059,9.058
				C311.882,305.6,307.817,309.667,302.823,309.667z"/>
		</g>
	</g>
</g>
</svg>
