<?xml version="1.0" encoding="utf-8"?>
<!-- Generator: Adobe Illustrator 16.0.0, SVG Export Plug-In . SVG Version: 6.00 Build 0)  -->
<!DOCTYPE svg PUBLIC "-//W3C//DTD SVG 1.1//EN" "http://www.w3.org/Graphics/SVG/1.1/DTD/svg11.dtd">
<svg version="1.1" xmlns="http://www.w3.org/2000/svg" xmlns:xlink="http://www.w3.org/1999/xlink" x="0px" y="0px"
	 width="678.311px" height="356px" viewBox="685.5 121.5 678.311 356" enable-background="new 685.5 121.5 678.311 356"
	 xml:space="preserve">
<g id="Layer_3">
</g>
<g id="Layer_2_1_">
	<g>
		<path fill="#FFFFFF" d="M1219.318,192.065l22.857-9.47l38.98-9.516l23.438-6.755l18.232-3.456l9.722,1.486l11.048,3.608
			l3.82,4.211c1.012,1.676,2.034,6.219,2.034,10.421l4.617,19.811l0.755,15.739l-3.893,14.698l-2.789,4.33l-3.594,13.875
			l-6.241,10.275l-13.288,10.063l-10.178,1.715l-6.877-3.639l-9.471-3.401l-10.086-6.255l-4.244,1.518l-3.794,1.068l-6.243-2.091
			l-2.111-1.306l-5.566,1.706l-7,3.03l-12.707,3.391l-11.537-2.146l-6.829-5.211l-3.433-8.717l-2.387-15.455l-1.373-15.008
			l-1.863-15.189V192.065z"/>
		
			<path fill="none" stroke="#231F20" stroke-width="3.4665" stroke-linecap="round" stroke-linejoin="round" stroke-miterlimit="22.9256" d="
			M1334.656,218.316c-37.631-3.78-41.016,56.051-17.428,54.763C1346.267,271.498,1360.438,220.012,1334.656,218.316z"/>
		
			<path fill="#C8C8C8" stroke="#231F20" stroke-width="3.4665" stroke-linecap="round" stroke-linejoin="round" stroke-miterlimit="22.9256" d="
			M1328.786,223.641c-20.854,1.336-28.213,38.554-11.987,37.669C1336.775,260.223,1346.52,224.809,1328.786,223.641z"/>
		
			<path fill="none" stroke="#231F20" stroke-width="3.4665" stroke-linecap="round" stroke-linejoin="round" stroke-miterlimit="22.9256" d="
			M1341.794,220.586c-8.192-7.545-17.181-15.051-25.837-17.835"/>
		
			<path fill="none" stroke="#231F20" stroke-width="3.4665" stroke-linecap="round" stroke-linejoin="round" stroke-miterlimit="22.9256" d="
			M1315.829,202.423c-29.388-0.988-39.972,37.38-32.224,53.128c6.277,6.58,16.092,11.602,26.453,15.69"/>
		
			<path fill="none" stroke="#231F20" stroke-width="3.4665" stroke-linecap="round" stroke-linejoin="round" stroke-miterlimit="22.9256" d="
			M1286.435,260.302c-1.905,1.048-7.54,3.245-9.495,1.642c-7.111-5.826-2.473-55.417,2.388-57.496
			c5.256-2.242,44.005-15.289,46.136-13.739c1.912,1.39,4.747,14.209,4.747,19.281"/>
		
			<path fill="none" stroke="#231F20" stroke-width="3.4665" stroke-linecap="round" stroke-linejoin="round" stroke-miterlimit="22.9256" d="
			M1279.008,204.066c-1.549,0.107-7.133-4.21-11.19-6.041c-6.336,29.576-1.35,63.795,9.122,63.918"/>
		
			<path fill="none" stroke="#231F20" stroke-width="3.4665" stroke-linecap="round" stroke-linejoin="round" stroke-miterlimit="22.9256" d="
			M1270.699,258.914c-11.633,4.48-28.242,15.703-42.325,0.852c-5.37-5.659-6.882-37.069-8.05-49.776
			c5.855,15.212,34.402,5.165,44.08,1.381"/>
		
			<path fill="none" stroke="#231F20" stroke-width="3.4665" stroke-linecap="round" stroke-linejoin="round" stroke-miterlimit="22.9256" d="
			M1348.432,235.594c11.033-7.913,2.768-44.656,1.019-52.998c-4.194,5.077-16.128,8.566-22.302,10.158"/>
		
			<path fill="none" stroke="#231F20" stroke-width="3.4665" stroke-linecap="round" stroke-linejoin="round" stroke-miterlimit="22.9256" d="
			M1266.836,197.737c-10.932,3.214-22.107,7.347-34.32,6.343c-6.09-0.499-17.41-9.494-11.571-12.665
			c17.167-9.385,87.722-27.387,104.073-28.792c7.023,1.128,16.776,1.458,22.641,9.309
			C1336.17,180.096,1291.182,190.578,1266.836,197.737z"/>
		
			<path fill="none" stroke="#231F20" stroke-width="3.4665" stroke-linecap="round" stroke-linejoin="round" stroke-miterlimit="22.9256" d="
			M1325.018,190.188c-1.659-1.879-7.542-4.668-10.996-5.543"/>
		
			<path fill="none" stroke="#231F20" stroke-width="3.4665" stroke-linecap="round" stroke-linejoin="round" stroke-miterlimit="22.9256" d="
			M1219.538,193.476c-1.205,3.562-0.567,10.864,0.786,16.514"/>
		
			<path fill="#C8C8C8" stroke="#231F20" stroke-width="3.4665" stroke-linecap="round" stroke-linejoin="round" stroke-miterlimit="22.9256" d="
			M1240.496,189.307c-13.793,4.612-0.219,10.819,8.103,5.951C1257.347,190.977,1247.248,187.056,1240.496,189.307z"/>
		
			<path fill="none" stroke="#231F20" stroke-width="3.4665" stroke-linecap="round" stroke-linejoin="round" stroke-miterlimit="22.9256" d="
			M1315.768,231.332c-0.028,0.354,13.281,19.112,15.338,19.717"/>
		
			<path fill="none" stroke="#231F20" stroke-width="3.4665" stroke-linecap="round" stroke-linejoin="round" stroke-miterlimit="22.9256" d="
			M1334.025,226.465c-7.534,1.652-17.193,32.853-22.396,33.837"/>
		
			<path fill="none" stroke="#231F20" stroke-width="3.4665" stroke-linecap="round" stroke-linejoin="round" stroke-miterlimit="22.9256" d="
			M1308.95,246.425c1.833,0.359,28.667-8.784,28.728-9.251"/>
		
			<path fill="none" stroke="#231F20" stroke-width="3.4665" stroke-linecap="round" stroke-linejoin="round" stroke-miterlimit="10" d="
			M1347.065,172.075c3.101,2.101,3.101,7.577,2.378,10.044"/>
	</g>
	<g>
		<path fill="#FFFFFF" stroke="#231F20" stroke-width="3.4665" stroke-linecap="round" stroke-linejoin="round" d="
			M1177.207,339.228c-12.195,19.626,59.766,79.11,75.061,94.079c21.635,21.179,30.279,22.71,56.461,18.723
			c20.059-3.058,56.684-22.121,42.154-37.756"/>
		<path fill="#FFFFFF" stroke="#231F20" stroke-width="3.4665" stroke-linecap="round" stroke-linejoin="round" d="M1248.76,325.025
			c9.999,4.75,88.649,77.493,99.729,85.423c16.923,16.317-61.073,38.341-69.556,32.007
			c-16.802-12.547-106.707-94.688-101.727-103.228C1185.354,333.498,1239.52,320.637,1248.76,325.025z"/>
		<path fill="#C8C8C8" stroke="#231F20" stroke-width="3.4665" stroke-linecap="round" stroke-linejoin="round" d="
			M1252.394,335.496c7.93,3.766,73.685,64.709,82.468,70.994c-7.104,6.552-50.279,21.046-63.229,21.684
			c-20.06-18.121-75.254-70.102-79.258-78.115C1198.836,345.521,1234.55,337.396,1252.394,335.496z"/>
		<path fill="none" stroke="#231F20" stroke-width="3.4665" stroke-linecap="round" stroke-linejoin="round" d="M1307.002,426.394
			c-0.485,1.931,2.264,3.374,4.455,4.573c3.393-0.287,11.917-3.004,14.391-5.199c-1.016-2.469-1.963-3.635-5.22-4.609
			C1317.276,422.236,1310.96,423.794,1307.002,426.394z"/>
		<path fill="none" stroke="#231F20" stroke-width="3.4665" stroke-linecap="round" stroke-linejoin="round" d="M1208.734,337.564
			c5.791-2.045,13.209-4.617,20.768-5.22"/>
	</g>
	<g>
		
			<path fill="none" stroke="#187FD0" stroke-width="10.3996" stroke-linecap="round" stroke-linejoin="round" stroke-miterlimit="10" d="
			M1172.52,220.862c7.159-1.883,15.679-5.942,24.136-9.037c-3.955-9.309-10.279-18.407-15.124-24.911"/>
		
			<path fill="none" stroke="#187FD0" stroke-width="10.3996" stroke-linecap="round" stroke-linejoin="round" stroke-miterlimit="10" d="
			M1057.167,211.499c35.667-21.233,111.178-17.426,137.564-0.054"/>
	</g>
	<g>
		
			<path fill="none" stroke="#187FD0" stroke-width="10.3996" stroke-linecap="round" stroke-linejoin="round" stroke-miterlimit="10" d="
			M1152.318,364.05c9.701,3.954,16.891,6.966,24.472,12.454c-3.446,9.508-9.271,18.933-13.756,25.689"/>
		
			<path fill="none" stroke="#187FD0" stroke-width="10.3996" stroke-linecap="round" stroke-linejoin="round" stroke-miterlimit="10" d="
			M1057.525,373.071c34.704,27.116,67.797,29.631,117.365,3.917"/>
	</g>
	<g>
		<g>
			
				<path fill="none" stroke="#231F20" stroke-width="3.4665" stroke-linecap="round" stroke-linejoin="round" stroke-miterlimit="22.9256" d="
				M938.772,294.826c-4.368,0.341-35.979-10.963-28.485-17.42C916.883,271.725,952.294,293.765,938.772,294.826z"/>
			
				<path fill="none" stroke="#231F20" stroke-width="3.4665" stroke-linecap="round" stroke-linejoin="round" stroke-miterlimit="22.9256" d="
				M909.258,278.938c-4.337,4.28-4.485,7.085-3.421,9.793c5.381,5.35,24.731,15.642,31.608,13.481
				c0.154-0.218,3.858-2.709,4.586-8.374"/>
			
				<path fill="none" stroke="#231F20" stroke-width="3.4665" stroke-linecap="round" stroke-linejoin="round" stroke-miterlimit="22.9256" d="
				M931.595,302.338c-1.603,9.123-13.286,27.397-13.328,27.029"/>
			
				<path fill="none" stroke="#231F20" stroke-width="3.4665" stroke-linecap="round" stroke-linejoin="round" stroke-miterlimit="22.9256" d="
				M909.548,291.898c-2.938,3.75-10.959,23.657-12.721,28.9"/>
			
				<path fill="none" stroke="#231F20" stroke-width="3.4665" stroke-linecap="round" stroke-linejoin="round" stroke-miterlimit="22.9256" d="
				M929.314,309.367c-0.788-2.178-7.644-10.642-7.355-10.653"/>
			
				<path fill="none" stroke="#231F20" stroke-width="3.4665" stroke-linecap="round" stroke-linejoin="round" stroke-miterlimit="22.9256" d="
				M927.45,313.46c-3.247-4.35-12.388-17.669-15.631-20.004"/>
			
				<path fill="none" stroke="#231F20" stroke-width="3.4665" stroke-linecap="round" stroke-linejoin="round" stroke-miterlimit="22.9256" d="
				M925.403,317.467c-6.178-7.337-10.284-13.069-17.838-22.049"/>
			
				<path fill="none" stroke="#231F20" stroke-width="3.4665" stroke-linecap="round" stroke-linejoin="round" stroke-miterlimit="22.9256" d="
				M922.625,321.75c-3.315-3.976-15.708-20.31-17.427-21.559"/>
			
				<path fill="none" stroke="#231F20" stroke-width="3.4665" stroke-linecap="round" stroke-linejoin="round" stroke-miterlimit="22.9256" d="
				M920.483,326.026c-7.587-6.797-9.768-13.098-17.076-21.776"/>
			
				<path fill="none" stroke="#231F20" stroke-width="3.4665" stroke-linecap="round" stroke-linejoin="round" stroke-miterlimit="22.9256" d="
				M914.386,328.297c-4.416-7.261-12.067-16.197-13.311-18.501"/>
			
				<path fill="none" stroke="#231F20" stroke-width="3.4665" stroke-linecap="round" stroke-linejoin="round" stroke-miterlimit="22.9256" d="
				M920.321,334.525c-4.364,0.342-35.979-10.964-28.483-17.42c1.699-1.467,4.645-0.951,6.535-0.522
				c-0.869,0.661-1.15,2.709-1.344,3.629c0.031,1.958,18.372,10.033,21.238,9.155c0.449-0.328,0.963-0.76,1.282-1.848
				C921.699,329.299,926.77,334.021,920.321,334.525z"/>
			
				<path fill="none" stroke="#231F20" stroke-width="3.4665" stroke-linecap="round" stroke-linejoin="round" stroke-miterlimit="22.9256" d="
				M890.807,318.635c-4.334,4.281-4.485,7.085-3.425,9.795c5.382,5.347,24.734,15.639,31.612,13.482
				c0.154-0.22,3.857-2.71,4.587-8.376"/>
			
				<path fill="none" stroke="#231F20" stroke-width="3.4665" stroke-linecap="round" stroke-linejoin="round" stroke-miterlimit="22.9256" d="
				M906.293,324.969c-2.405-3.948-6.564-8.809-7.241-10.063"/>
			
				<path fill="none" stroke="#231F20" stroke-width="3.4665" stroke-linecap="round" stroke-linejoin="round" stroke-miterlimit="22.9256" d="
				M925.14,284.631c1.181,0.826,4.841,3.282,1.539,2.481c-2.058-0.498-8.606-4.67-5.351-4.123
				C922.717,283.222,924.198,283.973,925.14,284.631z"/>
			
				<path fill="none" stroke="#231F20" stroke-width="3.4665" stroke-linecap="round" stroke-linejoin="round" stroke-miterlimit="22.9256" d="
				M900.921,309.614c-2.959-0.139-6.096,0.492-9.118-1.919c-3.745-2.986-4.234-7.341-4.783-8.615"/>
		</g>
		<g>
			
				<path fill="none" stroke="#231F20" stroke-width="3.4665" stroke-linecap="round" stroke-linejoin="round" stroke-miterlimit="22.9256" d="
				M951.222,222.19c12.034,6.665-32.497,13.012-33.679,12.345c-4.508-2.532-13.504-4.46-15.522-9.607
				c7.168-3.646,19.167-7.735,27.223-6.973C929.321,218.024,947.085,219.896,951.222,222.19z"/>
			
				<path fill="none" stroke="#231F20" stroke-width="3.4665" stroke-linecap="round" stroke-linejoin="round" stroke-miterlimit="22.9256" d="
				M951.801,226.771c2.019,5.554,1.786,17.082,3.396,23.893"/>
			
				<path fill="none" stroke="#231F20" stroke-width="3.4665" stroke-linecap="round" stroke-linejoin="round" stroke-miterlimit="22.9256" d="
				M934.26,232.224c1.625,3.298,3.064,10.875,3.548,14.647"/>
			
				<path fill="none" stroke="#231F20" stroke-width="3.4665" stroke-linecap="round" stroke-linejoin="round" stroke-miterlimit="22.9256" d="
				M918.102,234.585c0.549,2.704,4.846,20.536,5.831,24.871"/>
			
				<path fill="none" stroke="#231F20" stroke-width="3.4665" stroke-linecap="round" stroke-linejoin="round" stroke-miterlimit="22.9256" d="
				M902.021,224.928c1.43,8.491,3.629,17.393,5.313,23.953"/>
			
				<path fill="none" stroke="#231F20" stroke-width="3.4665" stroke-linecap="round" stroke-linejoin="round" stroke-miterlimit="22.9256" d="
				M929.792,216.313c4.8-25.648-17.729-51.138-33.534-35.032c-11.204,11.416,3.451,30.239,7.523,40.648
				c0.642,0.042,0.325,0.615,0.631,1.057c0.278-0.319,1.465-0.205,1.625-0.202"/>
			
				<path fill="none" stroke="#231F20" stroke-width="3.4665" stroke-linecap="round" stroke-linejoin="round" stroke-miterlimit="22.9256" d="
				M925.546,190.798c-9.892-2.516-26.424-3.947-32.033,6.822"/>
		</g>
		<g>
			
				<path fill="none" stroke="#231F20" stroke-width="3.4665" stroke-linecap="round" stroke-linejoin="round" stroke-miterlimit="22.9256" d="
				M755.804,424.876c3.422,1.368,13.131,0.709,16.047,0.891c0.277-0.94,1.18-3.183,1.543-2.985
				c16.139,8.783,37.6,3.463,43.555-2.017c1.516-2.38,1.282-5.109,1.516-6.081c-15.294,10.925-28.003,9.487-40.147,6.007
				c-0.021-0.003-3.827-1.791-4.365-1.743c-3.19,0.261-15.607,0.395-18.255,1.028C755.56,421.309,754.519,422.51,755.804,424.876z"
				/>
			
				<path fill="none" stroke="#231F20" stroke-width="3.4665" stroke-linecap="round" stroke-linejoin="round" stroke-miterlimit="22.9256" d="
				M756.79,359.575c-4.034,4.162,6.252,7.122,11.011,7.922c3.201,0.532,23.78,2.327,21.039-6.542
				C786.492,353.344,760.824,355.413,756.79,359.575z"/>
			
				<path fill="none" stroke="#231F20" stroke-width="3.4665" stroke-linecap="round" stroke-linejoin="round" stroke-miterlimit="22.9256" d="
				M755.939,361.928c4.98,10.562,6.537,46.408-0.242,58.048"/>
			
				<path fill="none" stroke="#231F20" stroke-width="3.4665" stroke-linecap="round" stroke-linejoin="round" stroke-miterlimit="22.9256" d="
				M788.404,364.629c-3.426,3.209-4.147,32.459-1.973,36.675"/>
			
				<path fill="none" stroke="#231F20" stroke-width="3.4665" stroke-linecap="round" stroke-linejoin="round" stroke-miterlimit="22.9256" d="
				M781.872,403.997c2.385-2.424,12.132-3.637,16.508-1.718"/>
			
				<path fill="none" stroke="#231F20" stroke-width="3.4665" stroke-linecap="round" stroke-linejoin="round" stroke-miterlimit="22.9256" d="
				M795.408,408.016c2.922-7.027,6.781-12.581,16.238-11.609c10.121,1.041,10.098,15.411,6.42,18.403"/>
		</g>
		<g>
			
				<path fill="none" stroke="#231F20" stroke-width="3.4665" stroke-linecap="round" stroke-linejoin="round" stroke-miterlimit="22.9256" d="
				M864.058,388.89c0.195,5.217,3.592,9.84,9.109,9.923c7.609,0.12,17.227-5.066,15.068-14.032c-0.9-3.729-7.619-7.676-11.696-7.942
				c-1.161-0.08-3.085,0.598-4.521,0.726C870.463,377.693,863.834,382.915,864.058,388.89z"/>
			
				<path fill="none" stroke="#231F20" stroke-width="3.4665" stroke-linecap="round" stroke-linejoin="round" stroke-miterlimit="22.9256" d="
				M869.423,379.057c0.68-9.259-2.515-24.43-3.53-35.191c0.097,0.03,10.005-0.154,10.032-0.161
				c-1.28,2.771,3.414,29.257,2.676,33.511"/>
			
				<path fill="none" stroke="#231F20" stroke-width="3.4665" stroke-linecap="round" stroke-linejoin="round" stroke-miterlimit="22.9256" d="
				M872.701,398.795c0.327,6.372,3.589,32.297,4.878,37.92c2.288,3.47,5.397,5.941,6.837,5.807c2.232-0.209,3.223-4.761,3.659-7.829
				c0.494-0.611-6.489-35.677-7.696-36.838"/>
			
				<path fill="none" stroke="#231F20" stroke-width="3.4665" stroke-linecap="round" stroke-linejoin="round" stroke-miterlimit="22.9256" d="
				M863.318,348.657c4.619,1.28,10.689,1.541,15.825-0.894c0.956-1.682,1.983-5.168-0.894-10.186
				c-6.175-1.661-9.754-1.814-16.043,1.771C861.828,341.346,861.27,347.129,863.318,348.657z"/>
			
				<path fill="none" stroke="#231F20" stroke-width="3.4665" stroke-linecap="round" stroke-linejoin="round" stroke-miterlimit="22.9256" d="
				M870.853,340.38c-0.029,1.735-0.033,2.889-0.121,4.605"/>
			
				<line fill="none" stroke="#231F20" stroke-width="3.4665" stroke-linecap="round" stroke-linejoin="round" stroke-miterlimit="22.9256" x1="875.73" y1="388.382" x2="880.179" y2="382.177"/>
			
				<line fill="none" stroke="#231F20" stroke-width="3.4665" stroke-linecap="round" stroke-linejoin="round" stroke-miterlimit="22.9256" x1="870.847" y1="386.9" x2="875.486" y2="388.26"/>
			
				<path fill="none" stroke="#231F20" stroke-width="3.4665" stroke-linecap="round" stroke-linejoin="round" stroke-miterlimit="22.9256" d="
				M877.767,406.315c0.896,0.455,0.73-0.659,0.483-1.065C877.815,405.627,877.55,406.203,877.767,406.315z"/>
			
				<path fill="none" stroke="#231F20" stroke-width="3.4665" stroke-linecap="round" stroke-linejoin="round" stroke-miterlimit="22.9256" d="
				M878.915,414.149c0.897,0.455,0.729-0.659,0.485-1.063C878.962,413.46,878.697,414.039,878.915,414.149z"/>
			
				<path fill="none" stroke="#231F20" stroke-width="3.4665" stroke-linecap="round" stroke-linejoin="round" stroke-miterlimit="22.9256" d="
				M880.414,421.532c0.896,0.453,0.727-0.659,0.482-1.063C880.459,420.84,880.195,421.423,880.414,421.532z"/>
			
				<path fill="none" stroke="#231F20" stroke-width="3.4665" stroke-linecap="round" stroke-linejoin="round" stroke-miterlimit="22.9256" d="
				M881.753,429.819c0.898,0.458,0.73-0.656,0.482-1.062C881.802,429.132,881.536,429.71,881.753,429.819z"/>
		</g>
		<g>
			
				<path fill="none" stroke="#231F20" stroke-width="3.4665" stroke-linecap="round" stroke-linejoin="round" stroke-miterlimit="22.9256" d="
				M793.961,307.524c-6.577,4.881-1.439,16.455,2.198,18.711"/>
			<g>
				
					<path fill="none" stroke="#231F20" stroke-width="3.4665" stroke-linecap="round" stroke-linejoin="round" stroke-miterlimit="22.9256" d="
					M755.48,313.715c-4.492,5.528-5.034,12.521,1.412,17.097c2.31,1.64-4.733,3.141-9.637-2.826
					c-5.477-6.661-24.309-25.715-34.039-31.359c-2.348-5.175-3.209-13.863,5.576-19.343
					C726.421,284.03,749.792,304.779,755.48,313.715z"/>
				
					<path fill="none" stroke="#231F20" stroke-width="3.4665" stroke-linecap="round" stroke-linejoin="round" stroke-miterlimit="22.9256" d="
					M718.792,277.283c2.779,0.5,30.577-1.664,37.762-1.8c12.827,8.701,27.686,19.377,40.91,32.074
					c-4.855,0.168-38.032,2.826-41.984,6.157"/>
				
					<path fill="none" stroke="#231F20" stroke-width="3.4665" stroke-linecap="round" stroke-linejoin="round" stroke-miterlimit="22.9256" d="
					M757.463,330.88c7.999,1.089,30.688-3.824,40.39-3.76"/>
				
					<path fill="none" stroke="#231F20" stroke-width="3.4665" stroke-linecap="round" stroke-linejoin="round" stroke-miterlimit="22.9256" d="
					M753.984,325.583c2.102-0.548,36.396-4.845,38.538-3.859"/>
				
					<path fill="none" stroke="#231F20" stroke-width="3.4665" stroke-linecap="round" stroke-linejoin="round" stroke-miterlimit="22.9256" d="
					M752.973,319.652c2.104-0.554,34.769-4.988,36.907-4.01"/>
			</g>
		</g>
		<g>
			
				<path fill="none" stroke="#231F20" stroke-width="3.4665" stroke-linecap="round" stroke-linejoin="round" stroke-miterlimit="22.9256" d="
				M820.064,224.243c36.408,25.853-10.697,72.733-37.033,37.82C762.324,234.604,796.544,205.782,820.064,224.243z"/>
			
				<path fill="none" stroke="#231F20" stroke-width="3.4665" stroke-linecap="round" stroke-linejoin="round" stroke-miterlimit="22.9256" d="
				M803.292,242.865c10.749-3.896,11.337,7.534,7.02,10.261C806.541,255.499,793.794,250.428,803.292,242.865z"/>
			
				<path fill="none" stroke="#231F20" stroke-width="3.4665" stroke-linecap="round" stroke-linejoin="round" stroke-miterlimit="22.9256" d="
				M820.512,213.39c-23.392-21.468-82.997,14.284-101.356,9.734"/>
			
				<path fill="none" stroke="#231F20" stroke-width="3.4665" stroke-linecap="round" stroke-linejoin="round" stroke-miterlimit="22.9256" d="
				M767.474,193.823c-2.555,14.763-5.046,24.806-8.736,45.24"/>
			
				<path fill="none" stroke="#231F20" stroke-width="3.4665" stroke-linecap="round" stroke-linejoin="round" stroke-miterlimit="22.9256" d="
				M816.994,179.927c9.885,4.886,18.289,24.713-21.064,0.527l-4.139-2.542c-3.645-2.241-4.525-3.351-8.266-5.884"/>
			
				<path fill="none" stroke="#231F20" stroke-width="3.4665" stroke-linecap="round" stroke-linejoin="round" stroke-miterlimit="22.9256" d="
				M816.717,191.102c-8.804,14.675-5.015,44.594-10.437,57.163"/>
			
				<path fill="none" stroke="#231F20" stroke-width="3.4665" stroke-linecap="round" stroke-linejoin="round" stroke-miterlimit="22.9256" d="
				M735.024,207.548c32.028,24.448-6.907,67.416-34.752,38.346C677.935,222.575,709.871,187.807,735.024,207.548z"/>
			
				<path fill="none" stroke="#231F20" stroke-width="3.4665" stroke-linecap="round" stroke-linejoin="round" stroke-miterlimit="22.9256" d="
				M718.468,225.196c11.471-3.096,5.581,6.899,0.545,7.767c-5.665,0.975-14.549-10.112-1.387-10.121"/>
			
				<path fill="none" stroke="#231F20" stroke-width="3.4665" stroke-linecap="round" stroke-linejoin="round" stroke-miterlimit="22.9256" d="
				M777.869,193.672c-4.795,3.306-6.078-1.413-9.211-3.724c-1.246-0.921-2.997-0.862-5.816-1.959
				c-1.528-0.592-5.672-4.717-1.989-6.115c2.667-1.01,6.638,0.537,8.831,4.363c0.229,0.396,1.484,2.794,6.021,4.725"/>
			
				<path fill="none" stroke="#231F20" stroke-width="3.4665" stroke-linecap="round" stroke-linejoin="round" stroke-miterlimit="22.9256" d="
				M757.487,231.652c11.519-1.138,11.59,12.322,3.732,14.419C749.227,249.262,747.119,233.443,757.487,231.652z"/>
			
				<path fill="none" stroke="#231F20" stroke-width="3.4665" stroke-linecap="round" stroke-linejoin="round" stroke-miterlimit="22.9256" d="
				M755.092,245.911c-8.247-1.644-24.079-4.143-40.765-14.266"/>
			
				<path fill="none" stroke="#231F20" stroke-width="3.4665" stroke-linecap="round" stroke-linejoin="round" stroke-miterlimit="22.9256" d="
				M757.487,231.652c-10.739-2.103-32.772-7.587-39.86-8.811"/>
			
				<path fill="none" stroke="#231F20" stroke-width="3.4665" stroke-linecap="round" stroke-linejoin="round" stroke-miterlimit="22.9256" d="
				M767.474,193.823c-15.863,11.132-27.667,18.69-49.838,34.1"/>
		</g>
		<g>
			
				<path fill="none" stroke="#231F20" stroke-width="3.4665" stroke-linecap="round" stroke-linejoin="round" stroke-miterlimit="22.9256" d="
				M838.091,271.105l8.232,7.465l1.509,0.201l16.145-0.731c4.454-2.297,6.911-3.564,11.368-5.865
				c-0.109,0.247,1.79-0.536,1.687-0.29c2.171,2.047-1.063,19.403-2.796,19.949l-11.375,4.698l-16.75,0.298
				c-2.637-3.257-5.27-6.513-7.904-9.771C836.22,281.654,836.271,276.342,838.091,271.105z"/>
			
				<path fill="none" stroke="#231F20" stroke-width="3.4665" stroke-linecap="round" stroke-linejoin="round" stroke-miterlimit="22.9256" d="
				M847.041,278.851c-0.217,2.818-0.867,17.916-0.93,17.979"/>
			
				<path fill="none" stroke="#231F20" stroke-width="3.4665" stroke-linecap="round" stroke-linejoin="round" stroke-miterlimit="22.9256" d="
				M863.5,278.353c1.775,2.634,0.596,15.805-1.217,17.952"/>
			
				<polyline fill="none" stroke="#231F20" stroke-width="3.4665" stroke-linecap="round" stroke-linejoin="round" stroke-miterlimit="22.9256" points="
				838.091,271.105 849.137,263.02 849.493,262.994 865.126,262.907 876.607,271.227 			"/>
			
				<path fill="none" stroke="#231F20" stroke-width="3.4665" stroke-linecap="round" stroke-linejoin="round" stroke-miterlimit="22.9256" d="
				M854.574,268.378c-10.611,0.846-2.605,10.875,9.144,3.119c0.538-0.353,0.55-0.315,0.792-0.752
				c-2.484-3.619-10.931-3.008-12.834-1.131"/>
		</g>
		<g>
			
				<path fill="none" stroke="#231F20" stroke-width="3.4665" stroke-linecap="round" stroke-linejoin="round" stroke-miterlimit="22.9256" d="
				M953.458,340.852c1.643,0.791,3.274,1.634,4.85,2.543c5.571,3.208,9.602,10.495,9.434,15.875
				c-0.168,5.381-7.441,11.636-9.899,15.548c-3.14,5.004,0.188,13.125,0.332,21.925c0.133,8.438-10.201,17.74-21.209,17.359
				c-14.936-0.512-33.084-10.478-35.973-24.122c-3.301-15.602,11.268-21.839,18.984-25.386c3.453-1.584,9.206-1.993,7.754-15.644
				c-1.012-9.518,10.07-14.739,19.08-11.023c0.571,0.235,1.148,0.476,1.731,0.723"/>
			
				<path fill="none" stroke="#231F20" stroke-width="3.4665" stroke-linecap="round" stroke-linejoin="round" stroke-miterlimit="22.9256" d="
				M970.457,299.006c-0.764,0.856-29.019,69.723-29.649,76.202"/>
			
				<path fill="none" stroke="#231F20" stroke-width="3.4665" stroke-linecap="round" stroke-linejoin="round" stroke-miterlimit="22.9256" d="
				M963.781,296.813c0.152,7.001-24.619,64.161-27.928,77.685"/>
			
				<path fill="none" stroke="#231F20" stroke-width="3.4665" stroke-linecap="round" stroke-linejoin="round" stroke-miterlimit="22.9256" d="
				M977.537,291.145c-1.705,3.803-12.08,16.063-14.539,2.84c-1.238-6.627,0.82-11.049,5.064-13.993
				C980.559,271.327,978.393,290.969,977.537,291.145z"/>
			
				<path fill="none" stroke="#231F20" stroke-width="3.4665" stroke-linecap="round" stroke-linejoin="round" stroke-miterlimit="22.9256" d="
				M943.721,369.592c11.274,8.142-1.882,21.081-13.833,12.792c-5.498-3.814-1.891-18.598,7.022-15.304"/>
			
				<line fill="none" stroke="#231F20" stroke-width="3.4665" stroke-linecap="round" stroke-linejoin="round" stroke-miterlimit="22.9256" x1="967.49" y1="279.869" x2="964.662" y2="276.273"/>
			
				<line fill="none" stroke="#231F20" stroke-width="3.4665" stroke-linecap="round" stroke-linejoin="round" stroke-miterlimit="22.9256" x1="978.643" y1="284.309" x2="983.205" y2="284.044"/>
			
				<line fill="none" stroke="#231F20" stroke-width="3.4665" stroke-linecap="round" stroke-linejoin="round" stroke-miterlimit="22.9256" x1="974.061" y1="296.705" x2="976.889" y2="300.294"/>
			
				<line fill="none" stroke="#231F20" stroke-width="3.4665" stroke-linecap="round" stroke-linejoin="round" stroke-miterlimit="22.9256" x1="960.939" y1="291.884" x2="956.382" y2="292.156"/>
			
				<line fill="none" stroke="#231F20" stroke-width="3.4665" stroke-linecap="round" stroke-linejoin="round" stroke-miterlimit="22.9256" x1="963.064" y1="286.239" x2="958.931" y2="284.295"/>
			
				<line fill="none" stroke="#231F20" stroke-width="3.4665" stroke-linecap="round" stroke-linejoin="round" stroke-miterlimit="22.9256" x1="981.959" y1="293.731" x2="977.826" y2="291.785"/>
		</g>
		<g>
			
				<path fill="none" stroke="#231F20" stroke-width="3.4665" stroke-linecap="round" stroke-linejoin="round" stroke-miterlimit="22.9256" d="
				M1009.861,333.602c-4.807,11.183-9.389,29.637-12.205,40.798c-2.434,0.415-11.561-9.542-14.414-13.818
				c2.016-8.239,9.74-39.472,12.586-42.401C995.689,318.806,1008.057,330.543,1009.861,333.602z"/>
			
				<path fill="none" stroke="#231F20" stroke-width="3.4665" stroke-linecap="round" stroke-linejoin="round" stroke-miterlimit="22.9256" d="
				M1020.281,337.473c-2.705,8.105-8.799,32.283-11.41,39.537c5.523-1.241,17.531-5.973,18.949-7.088
				c0.057-0.043,14.486-39.965,13.764-41.933C1039.16,327.961,1023.703,335.539,1020.281,337.473z"/>
			
				<path fill="none" stroke="#231F20" stroke-width="3.4665" stroke-linecap="round" stroke-linejoin="round" stroke-miterlimit="22.9256" d="
				M995.828,318.18c10.914,3.563,36.506,8.987,45.898,9.901"/>
			
				<path fill="none" stroke="#231F20" stroke-width="3.4665" stroke-linecap="round" stroke-linejoin="round" stroke-miterlimit="22.9256" d="
				M1000.99,364.338c3.496,1.39,7.682,2.163,10.645,3.031"/>
			
				<path fill="none" stroke="#231F20" stroke-width="3.4665" stroke-linecap="round" stroke-linejoin="round" stroke-miterlimit="22.9256" d="
				M1002.123,326.329c-0.514,2.026-11.553,35.853-12.598,40.966"/>
			
				<path fill="none" stroke="#231F20" stroke-width="3.4665" stroke-linecap="round" stroke-linejoin="round" stroke-miterlimit="22.9256" d="
				M990.479,335.533c2.004,1.39,13.576,11.442,13.852,11.983"/>
			
				<path fill="none" stroke="#231F20" stroke-width="3.4665" stroke-linecap="round" stroke-linejoin="round" stroke-miterlimit="22.9256" d="
				M986.393,348.114c4.967,3.479,9.387,9.076,14.273,11.771"/>
			
				<path fill="none" stroke="#231F20" stroke-width="3.4665" stroke-linecap="round" stroke-linejoin="round" stroke-miterlimit="22.9256" d="
				M1017.164,348.374c5.559-0.432,15.006-4.521,19.76-6.701"/>
			
				<path fill="none" stroke="#231F20" stroke-width="3.4665" stroke-linecap="round" stroke-linejoin="round" stroke-miterlimit="22.9256" d="
				M1014.334,361.248c1.227-0.415,15.197-4.487,17.473-4.067"/>
			
				<path fill="none" stroke="#231F20" stroke-width="3.4665" stroke-linecap="round" stroke-linejoin="round" stroke-miterlimit="22.9256" d="
				M1031.08,332.484c-2.041,12.855-8.922,29.896-11.275,40.712"/>
			
				<path fill="none" stroke="#231F20" stroke-width="3.4665" stroke-linecap="round" stroke-linejoin="round" stroke-miterlimit="22.9256" d="
				M982.459,359.512c-0.754-0.332-2.197-0.517-3.529-2.129c1.594-9.09,12.699-42.658,14.254-45.02
				c4.885,1.139,54.408,12.938,54.563,12.909c-2.924,6.527-11.381,36.313-12.158,46.263c-3.594-0.676-5.93-0.922-7.387-1.337"/>
		</g>
		<g>
			
				<path fill="none" stroke="#231F20" stroke-width="3.4665" stroke-linecap="round" stroke-linejoin="round" stroke-miterlimit="22.9256" d="
				M860.563,227.611c-1.959,3.5-9.706,16.616-8.663,20.02c0.777,2.527,3.203,3.213,4.975,1.518
				c4.171-3.989,8.423-19.443,8.424-19.443"/>
			
				<path fill="none" stroke="#231F20" stroke-width="3.4665" stroke-linecap="round" stroke-linejoin="round" stroke-miterlimit="22.9256" d="
				M858.847,226.008c-0.297-1.518,16.221-32.941,18.268-38.407c8.283,9.27-3.438,30.662-9.039,43.129
				C868.068,230.646,860.056,227.003,858.847,226.008z"/>
			
				<line fill="none" stroke="#231F20" stroke-width="3.4665" stroke-linecap="round" stroke-linejoin="round" stroke-miterlimit="22.9256" x1="856.203" y1="243.51" x2="856.564" y2="243.082"/>
			
				<line fill="none" stroke="#231F20" stroke-width="3.4665" stroke-linecap="round" stroke-linejoin="round" stroke-miterlimit="22.9256" x1="859.228" y1="236.891" x2="859.587" y2="236.464"/>
		</g>
		<g>
			
				<path fill="none" stroke="#231F20" stroke-width="3.4665" stroke-linecap="round" stroke-linejoin="round" stroke-miterlimit="22.9256" d="
				M951.519,196.832c1.124-2.263,11.538-13.13,14.702-16.449c1.738-0.955,15.068-2.027,15.549-1.878
				c4.012,15.495,18.482,8.225,19.414,0.35c2.93-0.25,6.137-0.037,11.518-0.589c0.121,0,9.607,5.817,16.047,13.013
				c-5.436,2.511-7.863,9.372-7.357,16.008c-4.893-2.518-6.146-4.252-8.912-6.512c-0.154,1.052,1.771,47.575,2.781,48.866
				c-8.436,4.876-35.447,3.4-45.816,0.362c2.006-8.887-1.654-34.253-0.521-47.79c-2.477,0.736-6.566,8.922-6.641,6.591
				C962.102,203.126,956.092,198.684,951.519,196.832z"/>
			
				<path fill="none" stroke="#231F20" stroke-width="3.4665" stroke-linecap="round" stroke-linejoin="round" stroke-miterlimit="22.9256" d="
				M1028.539,191.739c0,7.068-3.18,12.424-6.902,15.52"/>
			
				<path fill="none" stroke="#231F20" stroke-width="3.4665" stroke-linecap="round" stroke-linejoin="round" stroke-miterlimit="22.9256" d="
				M962.102,209.255c-6.896-1.561-8.651-7.938-10.847-12.252"/>
			
				<path fill="none" stroke="#231F20" stroke-width="3.4665" stroke-linecap="round" stroke-linejoin="round" stroke-miterlimit="22.9256" d="
				M982.297,179.38c5.457,2.572,13.049,3.135,18.26,0"/>
		</g>
		<g>
			
				<path fill="none" stroke="#231F20" stroke-width="3.4665" stroke-linecap="round" stroke-linejoin="round" stroke-miterlimit="22.9256" d="
				M824.15,355.538c3.746,8.246,14.621-1.929,14.652-1.94l5.502,7.783c-0.55,0.429-29.555,20.51-32.156,22.238
				c-3.839-4.014-7.518-9.406-7.807-14.354C812.123,363.474,815.156,361.348,824.15,355.538z"/>
			
				<path fill="none" stroke="#231F20" stroke-width="3.4665" stroke-linecap="round" stroke-linejoin="round" stroke-miterlimit="22.9256" d="
				M811.019,363.229c-0.628-0.625-1.445-1.518-2.301-1.938c2.151-2.755,5.473-5.017,9.074-6.725
				c0.865,0.979,1.105,2.092,1.428,3.212"/>
			
				<path fill="none" stroke="#231F20" stroke-width="3.4665" stroke-linecap="round" stroke-linejoin="round" stroke-miterlimit="22.9256" d="
				M822.049,376.812c9.075,13.728,21.087,27.366,29.202,40.685l5.893-7.046l-27.12-39.154"/>
		</g>
		<g>
			
				<path fill="none" stroke="#231F20" stroke-width="3.4665" stroke-linecap="round" stroke-linejoin="round" stroke-miterlimit="22.9256" d="
				M1009.121,268.758c-4.01,0.039-8.039-0.064-11.939-0.368c-0.086,10.826-0.639,21.919,0.09,32.331l32.609-1.115
				c0,0,3.252-26.168,0.59-32.19c-5.049,0.561-8.947,0.867-13.85,1.112"/>
			
				<path fill="none" stroke="#231F20" stroke-width="3.4665" stroke-linecap="round" stroke-linejoin="round" stroke-miterlimit="22.9256" d="
				M997.182,268.39c3.82-2.842,10.09-6.263,14.299-8.795c9.379-1.154,29.828-0.23,29.828-0.23l-10.838,8.051"/>
			
				<path fill="none" stroke="#231F20" stroke-width="3.4665" stroke-linecap="round" stroke-linejoin="round" stroke-miterlimit="22.9256" d="
				M1041.309,259.364c1.035,10.139-0.449,20.202-0.244,29.899c-1.029,1.008-8.281,8.544-11.184,10.342"/>
			
				<polyline fill="none" stroke="#231F20" stroke-width="3.4665" stroke-linecap="round" stroke-linejoin="round" stroke-miterlimit="22.9256" points="
				1019.658,259.534 1009.121,268.756 1009.854,286.829 1016.336,283.303 1016.395,268.535 1028.313,259.468 			"/>
		</g>
		<g>
			
				<path fill="none" stroke="#231F20" stroke-width="3.4665" stroke-linecap="round" stroke-linejoin="round" stroke-miterlimit="22.9256" d="
				M818.521,315.391c4.045-0.209,20.49-0.179,22.482-0.99c6.189,4.322,13.398,20.072,11.6,22.44
				c-3.66,1.559-32.011,3.939-43.523,0.583C809.224,332.704,812.441,319.791,818.521,315.391z"/>
			
				<path fill="none" stroke="#231F20" stroke-width="3.4665" stroke-linecap="round" stroke-linejoin="round" stroke-miterlimit="22.9256" d="
				M825.742,323.873c-8.52-25.944,17.588-26.171,11.54,0.325c-0.076,0.323-0.036,0.349-0.036,0.65"/>
			
				<path fill="none" stroke="#231F20" stroke-width="3.4665" stroke-linecap="round" stroke-linejoin="round" stroke-miterlimit="22.9256" d="
				M828.305,315.883c0.244,1.217,0.664,13.31,0.471,14.64c1.456,0.037,3.042-0.194,4.813-0.276
				c0.692-1.867-1.422-12.19-1.402-14.866"/>
		</g>
	</g>
</g>
</svg>
