<?xml version="1.0" encoding="utf-8"?>
<!-- Generator: Adobe Illustrator 16.0.0, SVG Export Plug-In . SVG Version: 6.00 Build 0)  -->
<!DOCTYPE svg PUBLIC "-//W3C//DTD SVG 1.1//EN" "http://www.w3.org/Graphics/SVG/1.1/DTD/svg11.dtd">
<svg version="1.1" id="Layer_2_1_" xmlns="http://www.w3.org/2000/svg" xmlns:xlink="http://www.w3.org/1999/xlink" x="0px" y="0px"
	 width="1411.429px" height="694.463px" viewBox="-288.877 -147.881 1411.429 694.463"
	 enable-background="new -288.877 -147.881 1411.429 694.463" xml:space="preserve">
<g>
	<g>
		<path fill-rule="evenodd" clip-rule="evenodd" fill="#231F20" d="M639.591,437.963c5.139-22.775,37.612-35.779,61.845-24.701
			c8.414,3.848,13.777,10.604,16.211,20.783c-2.977-2.297-5.092-4.035-7.316-5.623c-7.793-5.563-16.342-9.311-26.068-8.215
			c-18.753,2.117-28.687,17.545-23.59,36.125c1.658,6.045,4.512,11.459,9.326,15.637c5.756,4.996,12.441,5.279,19.27,3.139
			c6.586-2.064,10.527-6.764,11.637-13.662c1.766-10.975-5.285-18.795-14.988-16.65c-4.641,1.025-6.855,3.992-6.029,8.055
			c0.48,2.367,1.066,4.871,4.115,4.699c2.227-0.125,4.402-1.381,4.834-3.697c0.531-2.846-2.113-3.32-4.072-4.141
			c-0.264-0.109-0.467-0.357-0.74-0.576c4.195-1.893,8.17-0.859,9.822,2.455c2.535,5.09,0.803,11.551-3.766,14.045
			c-7.719,4.213-16.863,0.375-19.74-8.285c-3.254-9.787,0.428-22.01,8.086-26.842c7.881-4.971,21.217-3.289,28.711,4.148
			c10.361,10.287,12.906,22.986,9.707,36.842c-3.033,13.145-12.482,20.021-24.854,23.281c-21.518,5.67-45.414-8.301-51.817-30.006
			C639.679,463.098,637.136,448.848,639.591,437.963z"/>
	</g>
	<g>
		<path fill="#231F20" d="M742.67,427.223h12.199v4.3h0.2c1.866-1.733,3.983-3.083,6.351-4.05c2.365-0.966,5.049-1.45,8.049-1.45
			c3.201,0,6.133,0.7,8.801,2.1c2.666,1.4,4.965,3.3,6.9,5.7c1.932,2.4,3.432,5.2,4.5,8.4c1.064,3.199,1.6,6.634,1.6,10.3
			c0,3.667-0.535,7.1-1.6,10.3c-1.068,3.2-2.568,6-4.5,8.4c-1.936,2.399-4.25,4.3-6.951,5.699c-2.699,1.4-5.684,2.101-8.949,2.101
			c-3.668,0-6.584-0.567-8.75-1.7c-2.168-1.133-4.051-2.6-5.65-4.4v21.101H742.67V427.223z M766.469,467.822
			c2.266,0,4.166-0.45,5.701-1.35c1.532-0.9,2.766-2.083,3.699-3.551c0.934-1.465,1.6-3.115,2-4.949c0.4-1.833,0.6-3.65,0.6-5.45
			s-0.199-3.616-0.6-5.45c-0.4-1.833-1.066-3.482-2-4.95c-0.934-1.466-2.167-2.649-3.699-3.55c-1.535-0.9-3.436-1.35-5.701-1.35
			c-2.334,0-4.25,0.449-5.75,1.35s-2.717,2.084-3.649,3.55c-0.935,1.468-1.601,3.117-2,4.95c-0.399,1.834-0.601,3.65-0.601,5.45
			s0.201,3.617,0.601,5.45c0.399,1.834,1.065,3.484,2,4.949c0.933,1.468,2.149,2.65,3.649,3.551
			C762.219,467.372,764.135,467.822,766.469,467.822z"/>
		<path fill="#231F20" d="M800.068,427.223h12.2v7h0.2c1.465-2.934,3.532-5.033,6.199-6.301c2.666-1.266,5.801-1.899,9.4-1.899
			v12.399c-2.067,0-4.05,0.268-5.95,0.801c-1.899,0.534-3.584,1.384-5.05,2.55c-1.467,1.167-2.635,2.7-3.5,4.6
			c-0.867,1.9-1.3,4.218-1.3,6.95v24.5h-12.2V427.223z"/>
		<path fill="#231F20" d="M835.268,406.622h12.2v12.4h-12.2V406.622z M835.268,427.223h12.2v50.6h-12.2V427.223z"/>
		<path fill="#231F20" d="M892.866,445.322c-0.8-2.533-2.185-4.516-4.149-5.95c-1.968-1.433-4.15-2.149-6.551-2.149
			c-2.199,0-4.117,0.434-5.75,1.3c-1.635,0.867-3,2-4.1,3.399c-1.1,1.4-1.918,3.018-2.45,4.851c-0.534,1.834-0.8,3.75-0.8,5.75
			s0.25,3.917,0.75,5.75c0.5,1.834,1.25,3.45,2.25,4.85c1,1.4,2.283,2.534,3.85,3.4c1.566,0.867,3.416,1.3,5.551,1.3
			c1.799,0,3.365-0.3,4.699-0.9c1.333-0.6,2.482-1.365,3.45-2.3c0.966-0.933,1.782-1.982,2.45-3.149
			c0.666-1.166,1.232-2.316,1.699-3.45l10.4,5.5c-0.867,1.867-1.9,3.717-3.1,5.55c-1.2,1.834-2.7,3.484-4.5,4.95
			c-1.801,1.467-3.95,2.667-6.45,3.6s-5.45,1.4-8.851,1.4c-3.867,0-7.35-0.667-10.449-2s-5.717-3.183-7.85-5.55
			c-2.135-2.366-3.785-5.166-4.951-8.4c-1.166-3.232-1.75-6.75-1.75-10.55s0.584-7.315,1.75-10.55
			c1.166-3.233,2.851-6.033,5.051-8.4c2.199-2.365,4.9-4.216,8.1-5.55c3.2-1.333,6.865-2,11-2c3.066,0,5.766,0.399,8.1,1.2
			c2.334,0.8,4.351,1.85,6.051,3.149c1.699,1.3,3.133,2.835,4.3,4.601c1.165,1.767,2.149,3.584,2.95,5.449L892.866,445.322z"/>
		<path fill="#231F20" d="M920.967,455.422c0.064,1.867,0.465,3.567,1.199,5.101c0.732,1.534,1.716,2.834,2.95,3.899
			c1.233,1.067,2.616,1.9,4.149,2.5c1.533,0.601,3.133,0.9,4.801,0.9c2.4,0,4.449-0.3,6.15-0.9c1.699-0.6,3.133-1.3,4.299-2.1
			s2.066-1.6,2.701-2.4c0.633-0.8,1.115-1.399,1.449-1.8l10.301,6c-0.936,1.468-2.117,2.935-3.551,4.4c-1.434,1.467-3.15,2.8-5.15,4
			s-4.334,2.167-7,2.899c-2.666,0.733-5.734,1.101-9.199,1.101c-4.135,0-7.801-0.667-11-2c-3.2-1.333-5.9-3.183-8.1-5.55
			c-2.201-2.366-3.885-5.166-5.051-8.4c-1.167-3.232-1.75-6.75-1.75-10.55s0.583-7.315,1.75-10.55c1.166-3.233,2.85-6.033,5.051-8.4
			c2.199-2.365,4.899-4.216,8.1-5.55c3.199-1.333,6.865-2,11-2c4.199,0,7.832,0.685,10.9,2.05c3.064,1.367,5.6,3.317,7.6,5.85
			c2,2.535,3.465,5.617,4.4,9.25c0.932,3.635,1.399,7.718,1.399,12.25H920.967z M945.566,446.022c0-0.666-0.217-1.565-0.65-2.7
			c-0.434-1.133-1.117-2.232-2.05-3.3c-0.935-1.065-2.117-2-3.55-2.8c-1.435-0.801-3.185-1.2-5.25-1.2c-3.6,0-6.518,0.984-8.75,2.95
			c-2.234,1.967-3.685,4.316-4.35,7.05H945.566z"/>
		<path fill="#231F20" d="M966.966,427.223h12.2v5c1.865-1.934,3.949-3.45,6.25-4.551c2.3-1.1,5.082-1.649,8.35-1.649
			c1.466,0,2.966,0.134,4.5,0.399c1.533,0.268,2.966,0.7,4.301,1.301c1.332,0.6,2.532,1.384,3.6,2.35c1.065,0.967,1.9,2.15,2.5,3.55
			c1.865-2.466,4.082-4.35,6.65-5.649c2.564-1.301,5.549-1.95,8.949-1.95c5.533,0,9.865,1.334,13,4
			c3.133,2.667,4.699,6.734,4.699,12.2v35.6h-12.199v-30.7c0-2.933-0.668-5.315-2-7.149c-1.334-1.833-3.434-2.75-6.3-2.75
			c-1.734,0-3.267,0.384-4.601,1.149c-1.334,0.768-2.467,1.8-3.399,3.101c-0.935,1.3-1.649,2.784-2.149,4.449
			c-0.5,1.668-0.75,3.4-0.75,5.2v26.7h-12.201v-30.7c0-2.933-0.666-5.315-2-7.149c-1.334-1.833-3.5-2.75-6.5-2.75
			c-1.666,0-3.149,0.384-4.449,1.149c-1.301,0.768-2.418,1.8-3.35,3.101c-0.936,1.3-1.65,2.784-2.15,4.449
			c-0.5,1.668-0.75,3.4-0.75,5.2v26.7h-12.2V427.223z"/>
		<path fill="#231F20" d="M1063.564,455.422c0.066,1.867,0.467,3.567,1.201,5.101c0.732,1.534,1.715,2.834,2.949,3.899
			c1.232,1.067,2.615,1.9,4.15,2.5c1.533,0.601,3.133,0.9,4.801,0.9c2.398,0,4.449-0.3,6.148-0.9c1.701-0.6,3.133-1.3,4.301-2.1
			c1.166-0.8,2.066-1.6,2.699-2.4c0.633-0.8,1.117-1.399,1.451-1.8l10.299,6c-0.934,1.468-2.117,2.935-3.549,4.4
			c-1.436,1.467-3.15,2.8-5.15,4s-4.334,2.167-7,2.899c-2.668,0.733-5.734,1.101-9.199,1.101c-4.135,0-7.801-0.667-11-2
			c-3.201-1.333-5.9-3.183-8.102-5.55c-2.199-2.366-3.883-5.166-5.049-8.4c-1.168-3.232-1.75-6.75-1.75-10.55
			s0.582-7.315,1.75-10.55c1.166-3.233,2.85-6.033,5.049-8.4c2.201-2.365,4.9-4.216,8.102-5.55c3.199-1.333,6.865-2,11-2
			c4.199,0,7.832,0.685,10.898,2.05c3.066,1.367,5.602,3.317,7.602,5.85c2,2.535,3.465,5.617,4.398,9.25
			c0.934,3.635,1.4,7.718,1.4,12.25H1063.564z M1088.166,446.022c0-0.666-0.219-1.565-0.65-2.7c-0.436-1.133-1.117-2.232-2.051-3.3
			c-0.934-1.065-2.117-2-3.549-2.8c-1.436-0.801-3.186-1.2-5.25-1.2c-3.602,0-6.518,0.984-8.75,2.95
			c-2.234,1.967-3.686,4.316-4.352,7.05H1088.166z"/>
	</g>
</g>
<g>
	<g>
		<circle fill="#969696" cx="-250.784" cy="-86.699" r="6.03"/>
		<circle fill="#969696" cx="-210.301" cy="-86.699" r="6.03"/>
		<path fill="#969696" d="M-208.276-108.233c-0.894-3.842-2.775-9.705-4.966-14.745c-4.94-11.363-10.617-17.125-16.87-17.125
			c-6.211,0-12.017,5.729-17.258,17.031c-2.373,5.116-4.41,11.002-5.384,14.839h-26.455v99.058h99.057v-99.058H-208.276z
			 M-239.287-120.022c4.296-9.052,7.789-11.468,9.175-11.468c4.49,0,10.818,15.178,13.023,23.257h-26.729
			C-242.902-111.255-241.355-115.665-239.287-120.022z M-187.043-16.067h-85.275v-85.274h85.275V-16.067z"/>
		<path fill="#C8C8C8" d="M-151.728-105.648c0,1.148-0.446,2.227-1.254,3.039l-72.762,72.822c-1.625,1.627-3.79,2.522-6.091,2.522
			c-2.524,0-4.915-1.106-6.541-3.018l-14.772-18.425c0.264,1.094,0.758,2.098,1.43,2.957l16.978,21.175
			c1.738,2.042,4.322,3.34,7.213,3.34c2.617,0,4.986-1.06,6.7-2.774l72.762-72.822c0.931-0.936,1.506-2.225,1.506-3.648
			C-146.56-103.335-148.873-105.648-151.728-105.648z"/>
		<path fill="#231F20" d="M-243.56-60.12c-1.402-2.008-3.729-3.322-6.363-3.322c-4.281,0-7.752,3.472-7.752,7.753
			c0,1.801,0.62,3.454,1.65,4.771l16.978,21.177c1.738,2.041,4.322,3.338,7.213,3.338c2.617,0,4.985-1.059,6.7-2.773L-152.373-102
			c0.931-0.936,1.506-2.225,1.506-3.648c0-2.855-2.314-5.168-5.168-5.168c-1.328,0-2.539,0.5-3.455,1.322l-67.632,59.934
			c-1.14,1.01-2.64,1.623-4.283,1.623c-2.22,0-4.178-1.119-5.341-2.824L-243.56-60.12z"/>
	</g>
	<g>
		<g>
			<path fill="#231F20" d="M-90.874-85.438c-2.657-11.104-8.352-15.375-14.426-15.375c-5.694,0-9.871,3.796-9.871,9.681
				c0,7.213,7.877,10.63,14.142,13.192c8.637,3.607,17.938,8.447,17.938,20.975c0,9.871-5.695,20.121-24.677,20.311
				c-6.264,0-15.66-1.424-20.5-5.885l-1.423-16.989h3.512c3.606,11.864,10.819,18.507,18.033,18.507
				c6.169,0,10.725-3.322,10.82-10.345c0-6.074-3.986-10.345-12.623-13.952c-8.352-3.512-18.887-8.637-18.887-20.405
				c0-11.199,7.688-19.457,23.632-19.457c5.79,0,12.813,1.139,17.749,4.176v15.565H-90.874z"/>
			<path fill="#231F20" d="M-28.706-46.335c0,3.986,0.759,4.366,6.169,4.651v3.606h-25.531v-3.606l1.993-0.19
				c1.993-0.19,3.037-0.665,3.037-3.796v-24.107c-0.189-5.695-2.657-8.637-7.498-8.637c-3.986,0-6.549,2.183-7.783,4.65
				c-0.665,1.329-0.949,3.512-0.949,5.6v22.494c0,3.132,1.044,3.606,3.037,3.796l1.993,0.19v3.606h-25.531v-3.606
				c5.41-0.285,6.169-0.665,6.169-4.651v-50.682c0-3.796-0.76-4.65-2.278-4.935l-3.322-0.57v-3.417l19.267-2.563l0.664,0.569v28.758
				c5.884-3.702,10.345-6.549,16.04-6.549c9.965,0,14.426,5.694,14.521,14.616V-46.335z"/>
			<path fill="#231F20" d="M30.615-61.331c0,15.186-7.308,24.392-24.487,24.392c-17.273,0-24.582-9.206-24.582-24.392
				s7.308-24.392,24.582-24.392C23.307-85.723,30.615-76.517,30.615-61.331z M6.128-41.305c6.644,0,9.396-7.308,9.396-20.026
				s-2.752-20.026-9.396-20.026c-6.739,0-9.491,7.308-9.491,20.026S-0.61-41.305,6.128-41.305z"/>
			<path fill="#231F20" d="M56.147-24.506c0,3.986,0.949,4.366,7.877,4.65v3.606H35.647v-3.606c5.41-0.285,6.169-0.665,6.169-4.65
				v-49.733c0-3.796-0.759-4.65-2.277-4.84l-3.322-0.475v-3.417l18.223-2.752l1.708,6.549c4.651-3.512,9.017-6.549,15.66-6.549
				c8.921,0,17.179,7.308,17.179,23.063c0,20.785-11.294,25.72-25.341,25.72c-2.563,0-5.884-0.474-7.498-1.139V-24.506z
				 M56.147-52.504c0,1.803,0.095,3.417,0.38,4.84c0.854,4.176,3.322,6.359,7.498,6.359c7.308,0,9.871-7.498,9.871-19.267
				c0-15.375-5.03-17.843-9.491-17.843c-3.986,0-6.359,2.183-7.593,5.694c-0.475,1.329-0.665,3.227-0.665,5.22V-52.504z"/>
			<path fill="#231F20" d="M114.519-24.506c0,3.986,0.949,4.366,7.877,4.65v3.606H94.019v-3.606c5.41-0.285,6.169-0.665,6.169-4.65
				v-49.733c0-3.796-0.76-4.65-2.278-4.84l-3.322-0.475v-3.417l18.223-2.752l1.708,6.549c4.65-3.512,9.017-6.549,15.66-6.549
				c8.921,0,17.179,7.308,17.179,23.063c0,20.785-11.294,25.72-25.341,25.72c-2.563,0-5.885-0.474-7.498-1.139V-24.506z
				 M114.519-52.504c0,1.803,0.095,3.417,0.38,4.84c0.854,4.176,3.322,6.359,7.498,6.359c7.308,0,9.871-7.498,9.871-19.267
				c0-15.375-5.03-17.843-9.491-17.843c-3.986,0-6.359,2.183-7.593,5.694c-0.475,1.329-0.665,3.227-0.665,5.22V-52.504z"/>
			<path fill="#231F20" d="M159.223-74.239c0-3.796-0.759-4.65-2.278-4.84l-3.322-0.475v-3.417l19.267-2.752l0.665,0.569v38.818
				c0,3.986,0.759,4.366,6.169,4.651v3.606h-26.669v-3.606c5.41-0.285,6.169-0.665,6.169-4.651V-74.239z M157.23-98.156
				c0-4.461,3.322-8.257,8.637-8.257c5.41,0,8.732,3.796,8.732,8.257c0,4.556-3.512,8.352-8.732,8.352
				C160.552-89.804,157.23-93.6,157.23-98.156z"/>
			<path fill="#231F20" d="M234.108-46.335c0,3.986,0.759,4.366,6.169,4.651v3.606h-25.53v-3.606l1.992-0.19
				c1.993-0.19,3.037-0.665,3.037-3.796v-24.107c-0.189-5.695-2.657-8.637-7.497-8.637c-3.986,0-6.549,2.183-7.783,4.65
				c-0.664,1.329-0.949,3.512-0.949,5.6v22.494c0,3.132,1.044,3.606,3.037,3.796l1.993,0.19v3.606h-25.53v-3.606
				c5.41-0.285,6.169-0.665,6.169-4.651v-27.903c0-3.796-0.759-4.65-2.277-4.84l-3.322-0.475v-3.417l18.697-2.752l1.233,6.549
				c6.265-3.702,10.726-6.549,16.229-6.549c9.776,0,14.237,5.694,14.332,14.616V-46.335z"/>
			<path fill="#231F20" d="M272.833-48.043c9.965,0,18.792,3.511,18.792,14.901c0,6.833-3.606,11.769-8.827,14.521
				c-4.745,2.563-11.674,3.512-15.85,3.512c-13.572,0-23.442-4.556-23.442-13.857c0-6.359,7.023-8.162,11.009-9.017v-0.189
				c-4.176-0.949-8.731-4.746-8.731-8.922c0-3.796,3.986-7.213,10.155-8.731v-0.19c-5.789-0.949-11.579-5.694-11.579-13.572
				c0-7.403,5.03-16.135,22.114-16.135c5.125,0,10.44,1.329,13.572,3.132l11.863-4.081l1.044,1.044l-1.897,7.118l-6.265,1.139
				c1.234,1.613,2.184,4.556,2.184,7.403c0,11.294-9.966,15.375-21.165,15.375c-1.139,0-2.563,0-4.366-0.19
				c-1.329,0.285-3.796,1.424-3.796,3.512c0,1.708,1.708,3.227,6.358,3.227H272.833z M258.691-35.136
				c-1.329,0.949-2.373,2.563-2.373,5.22c0,6.739,5.694,10.44,12.054,10.44c6.358,0,11.769-2.752,11.769-9.491
				c0-5.79-5.03-7.593-13.098-7.593C262.867-36.56,260.019-35.99,258.691-35.136z M266.284-58.958c4.365,0,7.118-4.271,7.118-11.01
				c0-7.973-3.322-11.389-7.023-11.389c-3.797,0-7.213,3.417-7.213,11.484C259.166-63.324,262.203-58.958,266.284-58.958z"/>
			<path fill="#231F20" d="M296.277-45.766c0-5.125,3.512-8.827,8.73-8.827c5.316,0,8.732,3.701,8.732,8.827
				c-0.189,5.22-3.416,8.826-8.732,8.826C299.789-36.939,296.277-40.546,296.277-45.766z"/>
			<path fill="#231F20" d="M364.232-51.365c-3.701,11.769-12.527,14.426-20.406,14.426c-13.381,0-22.303-8.067-22.303-24.012
				c0-8.257,2.467-14.426,6.453-18.413c4.271-4.271,10.156-6.359,17.559-6.359c8.637,0,18.129,3.701,18.129,10.44
				c0,4.176-4.557,5.884-7.879,5.884c-2.467,0-3.891-1.139-4.555-3.322c-1.613-5.694-3.227-8.637-6.549-8.637
				c-3.986,0-8.068,5.41-8.068,18.128c0,14.806,5.98,18.982,12.148,18.982c5.221,0,8.922-2.183,12.148-8.637L364.232-51.365z"/>
			<path fill="#231F20" d="M417.479-61.331c0,15.186-7.309,24.392-24.486,24.392c-17.273,0-24.582-9.206-24.582-24.392
				s7.309-24.392,24.582-24.392C410.17-85.723,417.479-76.517,417.479-61.331z M392.992-41.305c6.643,0,9.395-7.308,9.395-20.026
				s-2.752-20.026-9.395-20.026c-6.738,0-9.492,7.308-9.492,20.026S386.254-41.305,392.992-41.305z"/>
			<path fill="#231F20" d="M443.676-45.671c0,3.132,1.043,3.606,3.037,3.796l1.992,0.19v3.606h-25.529v-3.606
				c5.41-0.285,6.168-0.665,6.168-4.651v-27.903c0-3.796-0.758-4.65-2.277-4.84l-3.322-0.475v-3.417l18.697-2.752l1.234,6.549
				c5.221-3.322,9.586-6.549,15.754-6.549c7.119,0,11.01,3.701,12.908,7.118c4.082-2.563,9.967-7.118,16.516-7.118
				c10.059,0,14.711,5.694,14.805,14.711v24.676c0,3.986,0.76,4.366,6.17,4.651v3.606h-25.531v-3.606l1.994-0.19
				c1.992-0.19,3.037-0.665,3.037-3.796v-23.632c-0.191-5.979-2.943-9.207-7.404-9.111c-3.416,0-6.643,2.088-7.877,6.738
				c-0.285,1.139-0.379,3.037-0.379,4.556v21.45c0,3.132,1.043,3.606,3.037,3.796l1.992,0.19v3.606h-24.393v-3.606l1.994-0.19
				c1.992-0.19,3.037-0.665,3.037-3.796v-23.632c-0.096-5.41-2.184-9.111-6.834-9.111c-3.891,0-7.309,2.183-8.447,6.833
				c-0.283,1.233-0.379,2.942-0.379,4.46V-45.671z"/>
		</g>
	</g>
</g>
<g>
	<g>
		<g>
			<path fill="#969696" d="M749.475,174.428c-49.295-0.009-51.21,38.365-50.957,48.327c0,0-2.414,44.863,49.751,44.863
				c44.822,0,47.031-28.15,47.031-28.15l-20.621,0.041c0,0-4.017,15.508-26.325,15.093c-28.678-0.534-29.79-28.315-29.79-28.315
				h79.444C798.008,226.286,804.038,174.439,749.475,174.428z M719.223,212.68c0,0,1.41-25.124,29.767-25.133
				c28.249-0.007,28.249,25.133,28.249,25.133H719.223z"/>
		</g>
	</g>
	<g>
		<g>
			<path fill="#231F20" d="M853.188,174.428c-24.783-0.138-35.447,14.679-35.447,14.679v-49.572h-19.871l0.336,104.769
				c0,0-0.119,12.202-0.871,20.27h19.302l0.825-11.77c0,0,9.003,14.815,35.311,14.815c26.312,0,47.084-16.201,47.639-46.25
				C900.962,191.321,877.976,174.565,853.188,174.428z M848.637,254.224c-31.301,0.393-30.793-33.199-30.793-33.199
				s-1.139-32.334,30.74-33.165c31.882-0.831,30.845,33.854,30.845,33.854S879.938,253.825,848.637,254.224z"/>
		</g>
	</g>
	<g>
		<g>
			<path fill="#969696" d="M992.214,243.89c0.05-13.553,0.447-25.654,0-34.188c-0.523-9.897,0.418-33.786-42.373-35.55
				c0,0-41.021-3.74-45.281,26.794h20.981c0,0,1.631-13.988,22.917-13.587c20.147,0.381,23.817,10.262,23.713,22.414
				c0,0-17.268,0.049-23.03,0.078c-10.386,0.053-46.726,1.201-50.119,23.34c-4.034,26.319,19.458,34.531,37.839,34.428
				c18.383-0.105,28.868-5.609,36.659-15.475l0.834,12.254l18.278-0.104C992.632,264.294,992.158,257.44,992.214,243.89z
				 M940.286,254.948c0,0-19.915,0.022-21.083-15.889c-1.244-16.982,30.638-15.961,30.638-15.961l22.525-0.021
				C972.366,223.077,976.016,255.415,940.286,254.948z"/>
		</g>
	</g>
	<polygon fill="#C8C8C8" points="981.346,177.751 1004.396,177.751 1038.114,244.979 1071.902,177.751 1092.744,177.751 
		1031.744,297.597 1009.452,297.597 1027.109,264.294 	"/>
</g>
<g>
	<g>
		<path fill-rule="evenodd" clip-rule="evenodd" fill="#969696" d="M895.043,4.121c-26.786,19.767-65.621,30.281-99.064,30.281
			c-46.868,0-89.074-17.327-121.011-46.164c-2.51-2.264-0.271-5.354,2.74-3.604c34.46,20.053,77.073,32.126,121.085,32.126
			c29.688,0,62.325-6.161,92.356-18.898C895.678-4.057,899.473,0.849,895.043,4.121z"/>
		<path fill-rule="evenodd" clip-rule="evenodd" fill="#969696" d="M906.189-8.603c-3.427-4.387-22.646-2.081-31.284-1.046
			c-2.615,0.315-3.021-1.973-0.665-3.628c15.337-10.768,40.464-7.662,43.381-4.056c2.941,3.637-0.771,28.83-15.142,40.85
			c-2.21,1.845-4.313,0.863-3.331-1.581C902.381,13.864,909.622-4.214,906.189-8.603z"/>
	</g>
	<g>
		<path fill-rule="evenodd" clip-rule="evenodd" fill="#231F20" d="M875.517-89.361v-10.463c0.009-1.594,1.207-2.654,2.653-2.651
			l46.902-0.003c1.5,0,2.705,1.089,2.705,2.638v8.975c-0.015,1.509-1.283,3.468-3.531,6.59L899.95-49.585
			c9.016-0.211,18.556,1.141,26.751,5.745c1.85,1.038,2.344,2.576,2.491,4.083v11.169c0,1.536-1.686,3.318-3.458,2.391
			c-14.435-7.561-33.592-8.388-49.559,0.093c-1.629,0.865-3.336-0.888-3.336-2.428v-10.614c0-1.701,0.032-4.602,1.746-7.191
			l28.149-40.383l-24.51-0.003C876.727-86.724,875.525-87.791,875.517-89.361z"/>
		<path fill-rule="evenodd" clip-rule="evenodd" fill="#231F20" d="M704.427-23.997h-14.272c-1.356-0.087-2.439-1.107-2.551-2.414
			l0.012-73.234c0-1.469,1.229-2.634,2.753-2.634l13.288-0.005c1.39,0.069,2.507,1.123,2.594,2.46v9.56h0.27
			c3.46-9.245,9.988-13.563,18.776-13.563c8.926,0,14.52,4.318,18.514,13.563c3.467-9.245,11.328-13.563,19.715-13.563
			c5.996,0,12.523,2.464,16.519,8.014c4.527,6.166,3.599,15.102,3.599,22.959l-0.014,46.222c0,1.461-1.231,2.635-2.754,2.635h-14.25
			c-1.434-0.091-2.561-1.226-2.561-2.629l-0.003-38.828c0-3.081,0.267-10.786-0.401-13.714c-1.064-4.933-4.264-6.32-8.391-6.32
			c-3.464,0-7.06,2.309-8.527,6.007c-1.465,3.704-1.332,9.863-1.332,14.027v38.822c0,1.461-1.23,2.635-2.749,2.635h-14.254
			c-1.436-0.091-2.563-1.226-2.563-2.629l-0.015-38.828c0-8.167,1.332-20.185-8.789-20.185c-10.257,0-9.858,11.708-9.858,20.185
			l-0.002,38.822C707.18-25.17,705.946-23.997,704.427-23.997z"/>
		<path fill-rule="evenodd" clip-rule="evenodd" fill="#231F20" d="M968.155-103.827c21.179,0,32.633,18.189,32.633,41.302
			c0,22.343-12.651,40.073-32.633,40.073c-20.779,0-32.102-18.192-32.102-40.842C936.054-86.104,947.508-103.827,968.155-103.827z
			 M968.284-88.874c-10.52,0-11.187,14.329-11.187,23.265c0,8.941-0.13,28.051,11.058,28.051c11.058,0,11.588-15.411,11.588-24.811
			c0-6.166-0.268-13.561-2.132-19.42C976.013-86.875,972.813-88.874,968.284-88.874z"/>
		<path fill-rule="evenodd" clip-rule="evenodd" fill="#231F20" d="M1028.255-23.997h-14.221c-1.425-0.091-2.558-1.226-2.558-2.629
			l-0.024-73.265c0.122-1.342,1.306-2.389,2.741-2.389l13.235-0.005c1.248,0.064,2.275,0.914,2.537,2.049v11.202h0.269
			c3.996-10.019,9.588-14.795,19.444-14.795c6.394,0,12.656,2.311,16.651,8.631c3.729,5.856,3.729,15.716,3.729,22.807v46.086
			c-0.16,1.3-1.323,2.306-2.733,2.306h-14.305c-1.323-0.087-2.389-1.054-2.542-2.306v-39.764c0-8.015,0.937-19.728-8.923-19.728
			c-3.463,0-6.66,2.312-8.259,5.854c-1.999,4.475-2.267,8.939-2.267,13.875v39.435C1031.007-25.17,1029.775-23.997,1028.255-23.997z
			"/>
		<path fill-rule="evenodd" clip-rule="evenodd" fill="#231F20" d="M838.126-58.972c0,5.563,0.135,10.19-2.671,15.139
			c-2.269,4.014-5.874,6.484-9.876,6.484c-5.474,0-8.676-4.17-8.676-10.349c0-12.153,10.9-14.361,21.223-14.361V-58.972z
			 M852.51-24.179c-0.941,0.845-2.304,0.903-3.37,0.331c-4.737-3.937-5.588-5.759-8.179-9.508
			c-7.834,7.977-13.379,10.374-23.526,10.374c-12.011,0-21.358-7.419-21.358-22.242c0-11.584,6.274-19.457,15.218-23.321
			c7.742-3.399,18.556-4.016,26.832-4.945v-1.851c0-3.402,0.268-7.414-1.735-10.349c-1.738-2.624-5.072-3.709-8.01-3.709
			c-5.441,0-10.279,2.791-11.469,8.57c-0.246,1.284-1.188,2.558-2.477,2.624l-13.833-1.499c-1.167-0.262-2.466-1.202-2.13-2.984
			c3.182-16.778,18.333-21.845,31.909-21.845c6.943,0,16.019,1.851,21.491,7.104c6.944,6.487,6.274,15.139,6.274,24.562v22.229
			c0,6.688,2.779,9.621,5.387,13.22c0.913,1.302,1.117,2.843-0.047,3.794c-2.914,2.443-8.093,6.942-10.94,9.478L852.51-24.179z"/>
		<path fill-rule="evenodd" clip-rule="evenodd" fill="#231F20" d="M651.065-58.972c0,5.563,0.135,10.19-2.667,15.139
			c-2.271,4.014-5.874,6.484-9.88,6.484c-5.47,0-8.675-4.17-8.675-10.349c0-12.153,10.903-14.361,21.222-14.361V-58.972z
			 M665.453-24.179c-0.941,0.845-2.308,0.903-3.371,0.331c-4.743-3.937-5.591-5.759-8.178-9.508
			c-7.834,7.977-13.382,10.374-23.526,10.374c-12.014,0-21.356-7.419-21.356-22.242c0-11.584,6.269-19.457,15.216-23.321
			c7.74-3.399,18.556-4.016,26.828-4.945v-1.851c0-3.402,0.269-7.414-1.733-10.349c-1.736-2.624-5.074-3.709-8.009-3.709
			c-5.443,0-10.284,2.791-11.469,8.57c-0.247,1.284-1.187,2.558-2.479,2.624l-13.829-1.499c-1.17-0.262-2.468-1.202-2.132-2.984
			c3.179-16.778,18.331-21.845,31.911-21.845c6.941,0,16.019,1.851,21.493,7.104c6.938,6.487,6.275,15.139,6.275,24.562v22.229
			c0,6.688,2.773,9.621,5.382,13.22c0.909,1.302,1.115,2.843-0.046,3.794c-2.915,2.443-8.097,6.942-10.943,9.478L665.453-24.179z"/>
	</g>
</g>
<g>
	<path fill="#969696" d="M-171.596,195.282h-49.967l0.059,14.313h33.689c-3.983,17.425-16.282,28.11-32.787,28.11
		c-21.648,0-39.2-17.55-39.2-39.199c0-21.65,17.551-39.199,39.2-39.199c10.294,0,19.656,3.973,26.65,10.463l11.056-9.531
		c-9.7-9.559-23.011-15.463-37.706-15.463c-29.674,0-53.73,24.056-53.73,53.73s24.056,53.729,53.73,53.729
		c28.497,0,49.089-21.733,49.089-51.408L-171.596,195.282z"/>
	<rect x="58.997" y="144.774" fill="#C8C8C8" width="14.235" height="104.221"/>
	<path fill="#231F20" d="M-130.469,182.275c-19.076,0-34.541,15.464-34.541,34.54s15.465,34.542,34.541,34.542
		c19.077,0,34.541-15.466,34.541-34.542S-111.392,182.275-130.469,182.275 M-130.469,236.553c-10.9,0-19.737-8.837-19.737-19.738
		c0-10.9,8.837-19.737,19.737-19.737c10.902,0,19.739,8.837,19.739,19.737C-110.729,227.716-119.566,236.553-130.469,236.553"/>
	<path fill="#C8C8C8" d="M-56.325,182.275c-19.076,0-34.541,15.464-34.541,34.54s15.465,34.542,34.541,34.542
		c19.077,0,34.542-15.466,34.542-34.542S-37.248,182.275-56.325,182.275 M-56.325,236.553c-10.901,0-19.737-8.837-19.737-19.738
		c0-10.9,8.836-19.737,19.737-19.737s19.737,8.837,19.737,19.737C-36.588,227.716-45.424,236.553-56.325,236.553"/>
	<path fill="#231F20" d="M131.381,213.546l11.416-4.674l0.001-0.001l1.225-0.502c-4.289-14.503-16.832-26.095-31.646-26.095
		c-18.353,0-33.228,15.464-33.228,34.541c0,19.077,14.875,34.541,33.228,34.541c12.371,0,23.157-5.979,28.876-15.719l-11.773-6.969
		c-3.492,5.749-10.019,9.432-17.103,9.432c-6.766,0-12.701-4.324-16.063-10.32l35.06-14.261
		C131.376,213.529,131.379,213.538,131.381,213.546 M93.436,215.486c0.654-10.401,8.883-19.956,18.94-19.956
		c4.926,0,9.581,2.805,13.136,6.909L93.436,215.486z"/>
	<path fill="#969696" d="M35.227,183.805v3.909c-5.21-3.438-11.398-5.439-18.044-5.439c-18.513,0-33.519,15.465-33.519,34.541
		c0,19.077,15.006,34.542,33.519,34.542c6.646,0,12.834-2.002,18.044-5.439c0,0,0.558,2.593,0.558,4.515
		c0,3.258-0.558,4.728-0.558,4.728c-2.642,7.643-9.723,13.113-18.044,13.113c-7.783,0-14.475-4.787-17.47-11.657l-13.254,5.727
		c5.168,12.203,16.976,20.735,30.724,20.735c18.171,0,32.953-14.905,33.491-33.498l0.026-0.013v-65.762H35.227z M37.419,216.815
		c0,10.855-8.882,19.738-19.739,19.738h-0.558c-10.855,0-19.737-8.883-19.737-19.738s8.882-19.737,19.737-19.737h0.558
		C28.537,197.078,37.419,205.959,37.419,216.815z"/>
	<g>
		<path fill="#969696" d="M-246.838,270.674l-2.432,2.512c-2.023-1.963-4-2.944-5.932-2.944c-1.229,0-2.28,0.405-3.156,1.216
			c-0.876,0.811-1.313,1.756-1.313,2.837c0,0.954,0.361,1.863,1.083,2.729c0.722,0.882,2.238,1.918,4.548,3.106
			c2.815,1.459,4.729,2.863,5.74,4.215c0.992,1.368,1.489,2.908,1.489,4.619c0,2.414-0.848,4.458-2.544,6.133
			c-1.695,1.675-3.815,2.513-6.358,2.513c-1.696,0-3.315-0.37-4.857-1.108s-2.818-1.756-3.829-3.053l2.377-2.701
			c1.932,2.18,3.98,3.269,6.147,3.269c1.516,0,2.807-0.486,3.872-1.459c1.065-0.972,1.598-2.115,1.598-3.431
			c0-1.08-0.352-2.044-1.056-2.891c-0.704-0.828-2.292-1.873-4.765-3.134c-2.654-1.368-4.458-2.72-5.415-4.053
			c-0.957-1.332-1.435-2.854-1.435-4.565c0-2.232,0.762-4.088,2.287-5.565c1.524-1.477,3.45-2.215,5.778-2.215
			C-252.305,266.703-249.58,268.027-246.838,270.674z"/>
		<path fill="#969696" d="M-240.138,256.113h3.782v16.614c1.531-2.017,3.215-3.525,5.052-4.525c1.837-0.999,3.827-1.499,5.971-1.499
			c2.197,0,4.147,0.559,5.849,1.675c1.702,1.117,2.958,2.616,3.769,4.498c0.81,1.883,1.215,4.832,1.215,8.848v15.129h-3.782v-14.021
			c0-3.386-0.135-5.646-0.405-6.78c-0.469-1.945-1.32-3.408-2.553-4.391c-1.234-0.981-2.85-1.472-4.849-1.472
			c-2.288,0-4.336,0.756-6.146,2.269c-1.81,1.514-3.003,3.387-3.58,5.62c-0.361,1.44-0.541,4.105-0.541,7.996v10.779h-3.782V256.113
			z"/>
		<path fill="#969696" d="M-192.482,266.703c4.528,0,8.28,1.639,11.258,4.917c2.706,2.989,4.06,6.528,4.06,10.617
			c0,4.106-1.43,7.695-4.29,10.766c-2.859,3.07-6.535,4.606-11.027,4.606c-4.511,0-8.196-1.536-11.056-4.606
			c-2.86-3.07-4.29-6.659-4.29-10.766c0-4.07,1.354-7.601,4.06-10.59C-200.791,268.351-197.029,266.703-192.482,266.703z
			 M-192.496,270.404c-3.146,0-5.848,1.162-8.106,3.485c-2.26,2.323-3.389,5.133-3.389,8.429c0,2.125,0.515,4.106,1.545,5.943
			s2.422,3.255,4.176,4.255c1.753,1,3.678,1.499,5.774,1.499c2.096,0,4.021-0.499,5.774-1.499c1.753-1,3.145-2.418,4.175-4.255
			s1.546-3.818,1.546-5.943c0-3.296-1.135-6.105-3.403-8.429S-189.37,270.404-192.496,270.404z"/>
		<path fill="#969696" d="M-170.114,267.459h3.782v5.402c1.493-2.053,3.211-3.593,5.154-4.619s4.111-1.54,6.505-1.54
			c4.174,0,7.745,1.504,10.714,4.512s4.453,6.628,4.453,10.86c0,4.322-1.471,7.992-4.413,11.009
			c-2.941,3.017-6.49,4.525-10.646,4.525c-2.339,0-4.489-0.486-6.45-1.459s-3.733-2.423-5.316-4.35v15.804h-3.782V267.459z
			 M-154.985,270.35c-3.271,0-6.024,1.143-8.262,3.427c-2.237,2.285-3.355,5.128-3.355,8.527c0,2.23,0.499,4.236,1.496,6.018
			s2.426,3.193,4.285,4.236c1.86,1.044,3.823,1.565,5.89,1.565c2.03,0,3.939-0.526,5.728-1.579c1.788-1.052,3.212-2.522,4.272-4.412
			c1.06-1.888,1.59-3.867,1.59-5.937c0-2.086-0.526-4.065-1.577-5.936c-1.051-1.871-2.466-3.324-4.245-4.358
			C-150.942,270.868-152.884,270.35-154.985,270.35z"/>
		<path fill="#969696" d="M-132.373,267.459h3.782v5.402c1.493-2.053,3.211-3.593,5.154-4.619s4.111-1.54,6.505-1.54
			c4.174,0,7.745,1.504,10.714,4.512s4.453,6.628,4.453,10.86c0,4.322-1.471,7.992-4.413,11.009
			c-2.941,3.017-6.49,4.525-10.646,4.525c-2.339,0-4.489-0.486-6.45-1.459s-3.733-2.423-5.316-4.35v15.804h-3.782V267.459z
			 M-117.244,270.35c-3.271,0-6.024,1.143-8.262,3.427c-2.237,2.285-3.355,5.128-3.355,8.527c0,2.23,0.499,4.236,1.496,6.018
			s2.426,3.193,4.285,4.236c1.86,1.044,3.823,1.565,5.89,1.565c2.03,0,3.939-0.526,5.728-1.579c1.788-1.052,3.212-2.522,4.272-4.412
			c1.06-1.888,1.59-3.867,1.59-5.937c0-2.086-0.526-4.065-1.577-5.936c-1.051-1.871-2.466-3.324-4.245-4.358
			C-113.201,270.868-115.143,270.35-117.244,270.35z"/>
		<path fill="#969696" d="M-93.376,255.356c0.861,0,1.597,0.307,2.206,0.919s0.914,1.351,0.914,2.215
			c0,0.847-0.305,1.576-0.914,2.188s-1.345,0.919-2.206,0.919c-0.843,0-1.569-0.307-2.179-0.919s-0.914-1.342-0.914-2.188
			c0-0.864,0.305-1.603,0.914-2.215S-94.219,255.356-93.376,255.356z M-95.253,267.459h3.782v29.393h-3.782V267.459z"/>
		<path fill="#969696" d="M-83.609,267.459h3.782v5.268c1.513-2.017,3.188-3.525,5.024-4.525c1.837-0.999,3.836-1.499,5.997-1.499
			c2.197,0,4.147,0.559,5.85,1.675c1.702,1.117,2.958,2.621,3.769,4.512c0.811,1.892,1.216,4.836,1.216,8.834v15.129h-3.782v-14.021
			c0-3.386-0.141-5.646-0.421-6.78c-0.438-1.945-1.279-3.408-2.521-4.391c-1.243-0.981-2.864-1.472-4.863-1.472
			c-2.288,0-4.338,0.756-6.147,2.269c-1.811,1.514-3.004,3.387-3.58,5.62c-0.36,1.458-0.54,4.124-0.54,7.996v10.779h-3.782V267.459z
			"/>
		<path fill="#969696" d="M-24.527,267.459h3.782v23.422c0,4.125-0.36,7.142-1.08,9.051c-0.991,2.701-2.711,4.781-5.16,6.24
			s-5.395,2.188-8.834,2.188c-2.521,0-4.786-0.357-6.795-1.07c-2.008-0.714-3.643-1.671-4.903-2.872
			c-1.261-1.202-2.422-2.958-3.484-5.271h4.106c1.117,1.945,2.561,3.387,4.327,4.323c1.767,0.936,3.958,1.404,6.573,1.404
			c2.578,0,4.756-0.48,6.532-1.44s3.043-2.168,3.8-3.621c0.758-1.454,1.136-3.801,1.136-7.041v-1.513
			c-1.424,1.801-3.164,3.184-5.219,4.146c-2.056,0.964-4.237,1.445-6.545,1.445c-2.704,0-5.246-0.671-7.626-2.013
			s-4.219-3.147-5.517-5.417c-1.298-2.269-1.947-4.764-1.947-7.483c0-2.719,0.676-5.254,2.028-7.604s3.223-4.21,5.611-5.579
			c2.389-1.368,4.908-2.053,7.559-2.053c2.199,0,4.25,0.455,6.152,1.364c1.902,0.91,3.736,2.409,5.503,4.498V267.459z
			 M-35.685,270.35c-2.144,0-4.133,0.518-5.971,1.553c-1.837,1.036-3.277,2.468-4.322,4.296s-1.566,3.805-1.566,5.93
			c0,3.225,1.08,5.89,3.241,7.997c2.161,2.106,4.962,3.16,8.402,3.16c3.476,0,6.271-1.044,8.389-3.134
			c2.115-2.089,3.174-4.836,3.174-8.239c0-2.216-0.486-4.191-1.459-5.93s-2.351-3.111-4.133-4.12
			C-31.713,270.854-33.631,270.35-35.685,270.35z"/>
	</g>
</g>
<g>
	<g>
		<g>
			<path fill-rule="evenodd" clip-rule="evenodd" fill="#C8C8C8" d="M181.592,503.505c1.409-0.526,2.839-3.121,4.062-4.113
				c1.86-1.511,3.057-3.545,4.854-5.063c1.979-1.674,4.498-2.634,6.511-4.351c2.676-2.279,5.913-2.946,8.444-5.224
				c2.969-2.666,5.96-3.896,10.025-3.896c2.25,0,2.719,3.437,3.227,4.995c1.213,3.711,6.768,7.773,10.622,7.842
				c2.159,0.041,3.736-4.798,4.743-6.099c1.481-1.918,2.856,0.318,4.414,1.484c0.78,0.585,7.201,3.489,7.213,3.749
				c0.078,2.189-1.406,5.184-2.74,6.997c-3.201,4.301-8.424,9.776-13.486,5.914c-1.728-1.316-6.481-2.474-8.169-3.887
				c-2.383-1.992-4.332-0.869-6.619,0.279c-1.962,0.974-2.032,3.975-3.376,5.477c-2.048,1.402-4.309,5.479-5.359,7.609
				c-1.226,1.99-2.492,3.006-4.528,4.078c-3.68,1.92-4.229,1.658-5.556-2.745c-0.631-2.087-5.263,0.52-6.329,1.177
				c-2.978,1.813-3.612-4.524-1.677-6.942c2.743-3.418-0.07-3.39-4.184-2.379c-1.718,0.421-3.678,0.352-3.678-1.795
				C180.006,505.294,180.205,504.009,181.592,503.505z"/>
			<path fill-rule="evenodd" clip-rule="evenodd" fill="#C8C8C8" d="M301.814,477.11c0.162,1.108,4.412,2.236,5.273,3.305
				c1.096,1.351,2.516,2.618,3.303,4.253c0.506,1.052,6.121,3.623,6.909,2.059c0.72-1.43,2.234-2.55,2.749-4.209
				c1.283-4.17,6.82-7.901,10.519-9.306c3.329-1.268,2.934-1.438,5.722,0.35c2.687,1.726,4.592-1.545,7.504-1.939
				c2.115-0.29,7.559-3.534,7.533-0.292c-0.027,3.528-4.006,6.104-5.982,8.908c-0.376,0.53-3.033,3.326-2.06,3.65
				c1.743,0.581,5.05-0.497,6.792-1.008c2.75-0.803,3.447-0.3,3.447,2.305c0.229,0.092-3.398,4.314-4.059,4.729
				c-2.127,1.339-4.084,3.603-6.252,5.022c-1.146,0.749-1.678,2.096-3.027,2.727c-2.332,1.09-4.449,0.969-6.625,2.798
				c-4.361,3.669-7.969,7.057-13.838,7.718c-1.954,0.222-7.912,0.513-8.392-2.683c0.315-2.727-3.056-4.746-3.185-7.244
				c-0.868,0.039-4.729-4.733-5.897-5.326c-3.009-1.538-5.74-5.158-8.385-7.376c-1.806-1.51,2.514-3.245,2.97-3.843
				C297.85,480.386,299.835,475.896,301.814,477.11z"/>
			<path fill-rule="evenodd" clip-rule="evenodd" fill="#C8C8C8" d="M358.068,408.054c2.053,1.467,4.977,1.796,7.359,2.377
				c1.896,0.464,3.779,0.329,5.711,0.329c2.717,0,5.299,0.838,8.021,0.861c4.934,0.042,9.697,0.86,14.688,0.842
				c5.135-0.021,10.1,0.536,15.162,1.191c4.041,0.527,8.145,1.037,12.235,0.998c3.312-0.029,7.245,2.766,10.641,3.331
				c1.266,0.21,4.617,1.88,5.348,2.365c1.061,0.701,2.281,1.368,3.458,1.767c0.386,0.131,2.391,1.211,1.526,1.869
				c-1.332,1.018-4.314,0.209-5.729-0.056c-4.347-0.81-8.442-1.054-12.871-1.054c-4.138,0-7.962-1.299-12.136-1.299
				c-5.217,0-10.064-0.345-15.227,0.434c-3.575,0.537-7.521-0.264-10.927,1.188c-4.55,1.95-10.106-0.131-14.519,1.702
				c-3.305,1.375-6.695,2.566-10,3.898c-2.397,0.968-1.229-10.973-1.217-11.908c0.025-1.875,0.403-3.873-1.097-5.236
				C357.414,410.674,357.387,409.278,358.068,408.054z"/>
			<path fill-rule="evenodd" clip-rule="evenodd" fill="#969696" d="M236.691,487.926c0.002-1.481-4.554-3.016-4.619-4.176
				c-0.125-2.28-0.025-4.533-0.537-6.783c-1.027-4.521-1.136-9.211-1.63-13.819c-0.209-1.968-0.989-4.385-2.881-5.409
				c-1.778-0.966-1.407-5.896-1.698-7.618c-0.852-5.046-0.359-12.157,1.559-16.861c3.242-7.933,2.602-13.786,10.96-18.029
				c2.733-1.388,6.228-6.364,8.892-8.048c1.417-0.893,4.744-2.043,6.385-2.407c2.564-0.569,4.758-1.484,7.4-1.894
				c4.926-0.766,8.99-3.779,14.229-2.684c5.311,1.109,10.969,0.324,16.326,0.32c2.922-0.002,8.385,0.639,10.934,1.907
				c4.155,2.067,8.391,2.414,12.83,3.461c3.877,0.91,7.482,2.163,11.135,4.007c4.221,2.125,9.398-1.691,13.199-3.406
				c3.646-1.646,7.57-2.351,11.608-2.078c3.221,0.221,3.96,3.098,7.286,3.537c7.682,3.463,7.896,18.498,2.92,22.176
				c-3.532,2.613-3.926,4.212-7.93,5.844c-1.966,0.801-4.721,1.045-6.877,1.045c-2.697,0.001-4.209,0.402-6.936-0.146
				c-1.846-0.366-3.271-1.414-5.193-1.874c-1.793-0.431-5.25,0.002-7.117-0.007c-2.472-0.01-3.682,1.528-5.545,2.892
				c-1.563,1.143-3.354,1.639-5.219,2.049c-2.801,0.613-6.549,3.936-8.357,6.028c-2.678,3.088-3.254,7.351-6.145,10.364
				c-5.242,5.461,0.592,14.51-1.207,20.792c-0.557,1.951-2.545,2.158-3.727,3.501c-0.925,1.052-1.085,2.649-2.447,2.989
				c-2.652,0.659-5.313-0.027-8.021,0.795c-3.039,0.927-6.886-0.5-10.054-0.505c-3.444-0.011-6.978-0.073-10.512,0.882
				c-3.442,0.928-6.79,2.316-9.971,3.877c-2.183,1.068-5.284,1.621-7.54,2.524c-2.133,0.855-4.516,0.803-6.452-0.218
				C239,489.513,238.096,490.602,236.691,487.926z"/>
			<circle fill-rule="evenodd" clip-rule="evenodd" fill="#FFFFFF" cx="349.089" cy="417.791" r="8.546"/>
			<path fill-rule="evenodd" clip-rule="evenodd" fill="#231F20" d="M403.721,422.963c5.001,0,10.368,0.178,17.401,0.578
				c6.236,0.359,12.554,0.996,18.668,1.611c2.685,0.27,5.369,0.542,8.056,0.79l0.191-0.317c-0.929-0.654-1.848-1.33-2.764-2.009
				c-2.26-1.669-4.596-3.394-7.078-4.688c-10.775-5.624-22.951-6.646-33.516-7.163c-5.903-0.291-11.912-0.514-17.723-0.727
				c-4.99-0.184-9.979-0.369-14.968-0.596c-4.932-0.225-8.938-1.361-12.606-3.581c-9.424-5.701-18.6-5.444-26.734,0.803
				c-1.299,0.997-2.43,1.442-3.662,1.442c-0.86,0-1.787-0.222-2.998-0.719c-20.115-8.232-37.812-11.316-54.809-9.598
				c-15.131,1.529-26.67,6.528-35.276,15.281c-12.096,12.298-15.186,27.386-9.447,46.127c1.297,4.235,2.765,9.031,2.571,14.225
				c-0.102,2.756,0.447,5.73,1.505,8.163c1.567,3.615,0.226,6.396-1.195,9.343l-0.414,0.855l-0.511-0.301
				c-0.636-0.376-1.264-0.737-1.88-1.091c-1.565-0.902-3.044-1.754-4.478-2.724c-0.736-0.494-1.4-1.483-1.658-2.463
				c-0.789-3.012-2.531-6.601-6.357-6.601c-1.301,0-2.762,0.411-4.344,1.224c-11.091,5.691-20.637,12.655-28.377,20.699
				c-2.575,2.677-2.597,5.396-2.5,8.7l6.918-0.761l-1.924,11.604l0.439,0.323l11.012-4.405l0.509,7.444
				c9.709-5.364,16.599-12.532,21.044-21.891l0.234-0.492l0.494,0.233c1.127,0.531,2.215,1.063,3.278,1.582
				c2.286,1.116,4.448,2.174,6.672,3.071c6.183,2.507,10.844,1.099,14.603-4.435c0.695-1.021,1.365-2.061,2.037-3.1
				c0.998-1.541,2.023-3.138,3.121-4.657c0.764-1.057,1.836-1.977,2.943-2.519c0.641-0.314,1.281-0.638,1.923-0.962
				c2.628-1.328,5.346-2.701,8.203-3.505c4.485-1.26,9.789-2.588,15.128-2.899c3.617-0.216,7.323,0.284,10.896,0.766
				c1.168,0.159,2.338,0.314,3.5,0.448c1.178,0.137,2.822,0.486,3.992,1.373c4.228,3.205,8.459,6.59,12.934,10.345
				c0.845,0.707,1.816,2.072,1.947,3.392c0.583,6.005,3.546,9.449,8.127,9.447c1.576,0,3.311-0.41,5.151-1.219
				c13.184-5.806,23.349-13.144,31.079-22.433c1.033-1.241,1.912-2.671,2.763-4.051c0.345-0.564,0.69-1.125,1.048-1.68l-0.193-0.271
				l-11.597,1.954l0.8-1.085c0.539-0.734,1.093-1.456,1.65-2.177c2.688-3.497,5.236-6.806,5.764-11.303
				c-0.765-0.111-1.527-0.168-2.277-0.168c-4.807,0-8.914,2.277-12.637,4.739l-0.709,0.469l-0.583-3.624
				c-9.214,1.041-15.865,6.143-20.9,16.01l-0.294,0.584l-0.521-0.395c-1.021-0.774-2.013-1.541-2.99-2.296
				c-2.221-1.716-4.32-3.338-6.514-4.858c-2.455-1.704-3.844-3.42-3.179-6.724c0.401-1.983,0.267-4.372-0.364-6.554
				c-0.954-3.297-0.26-5.949,2.315-8.863c1.315-1.492,2.425-3.224,3.497-4.901c1.979-3.096,4.03-6.3,7.536-8.321
				c1.874-1.078,3.714-2.201,5.558-3.327c2.424-1.479,4.934-3.012,7.467-4.405c1.055-0.581,2.996-0.588,4.221-0.051
				c4.735,2.086,8.965,3.1,12.918,3.1c6.42,0,12.385-2.685,18.77-8.444c1.826-1.646,4.141-2.938,6.355-3.542
				C380.602,424.182,391.004,422.963,403.721,422.963z M244.584,493.512c-1.451,4.114-3.195,8.352-7.073,10.922
				c-1.761,1.173-4.966,1.616-6.817,0.897c-2.955-1.146-5.747-2.801-8.446-4.401c-0.932-0.552-1.86-1.103-2.799-1.637
				c-1.265-0.718-2.278-1.267-2.866-1.267c-0.604,0-1.032,0.635-2.175,2.467l-0.188,0.304c-2.828,4.521-8.79,15.22-14.982,17.5
				c-0.025-5.722,6.75-15.286,8.031-17.101c0.41-0.743-0.561-1.463-1.218-0.893c-1.542,2.219-9.912,14.49-17.136,16.283
				c0.108-6.448,9.718-15.645,10.24-15.986c0.896-0.587,2.191-2.314,1.855-2.727c-0.387-0.469-0.75-0.698-1.119-0.698
				c-0.68,0-1.463,0.746-2.215,1.465c-0.52,0.495-1.057,1.006-1.613,1.324c-3.146,1.799-8.43,6.64-14.255,7.219
				c3.446-8.042,18.876-18.751,26.22-22.978c1.085-0.622,2.437-1.117,4.027-1.465c2.215-0.493,3.757-0.242,4.69,0.738
				c0.757,0.792,1.083,2.021,0.997,3.758c-0.112,2.28,0.654,3.489,2.826,4.463c2.568,1.146,5.081,2.507,7.514,3.822l0.188,0.102
				c1.814,0.984,3.012,0.574,3.942-1.438c0.531-1.146,1.045-2.303,1.582-3.508l0.913-2.047l10.047,4.399L244.584,493.512z
				 M288.557,482.688L288.557,482.688c-1.546,0-3.077,1.162-4.703,0.93c-1.637-0.23-3.33,0.883-5.069,0.883h-1.738l22.213-16.361
				l0.124,0.398c0.564,4.086,1.204,8.063-3.328,12.034C293.904,482.463,291.52,482.688,288.557,482.688z M305.107,481.439
				c2.903,2.083,5.649,4.05,8.367,6.132c2.154,1.649,3.518,1.44,5.215-0.965l0.623-0.884c2.082-2.962,4.232-6.021,6.754-8.68
				c1.228-1.3,5.813-4.394,9.067-4.298c0.129,3.803-9.536,14.002-9.536,14.002l0.194,0.222c0.196-0.142,0.392-0.277,0.591-0.415
				c0.691-0.486,1.346-0.947,1.863-1.519c4.48-4.968,10.104-10.393,17.852-12.934c0.473-0.157,3.804-0.926,3.804-0.926l-0.864,1.552
				c-4.323,8.492-11.933,13.685-19.291,18.706l-1.246,0.852l0.422,0.706c0.343-0.119,0.689-0.227,1.044-0.335
				c1.046-0.319,2.034-0.624,2.827-1.173c5.73-3.984,12.029-6.402,18.393-7.542c0.5-0.088,0.904-0.271,2.015-0.163
				c-6.11,8.899-21.022,18.066-31.022,22.697c-0.939,0.436-2.141,0.801-3.504,0.801c-0.395,0-0.783-0.023-1.152-0.069
				c-2.055-0.247-3.502-1.021-4.296-2.305c-0.878-1.412-0.908-3.377-0.104-5.848l-18.64-14.221l6.39-6.449l0.382,0.275
				C302.558,479.606,303.84,480.528,305.107,481.439z M361.845,427.803c-4.823,4.991-10.387,7.521-16.534,7.521
				c-2.502,0-5.087-0.437-7.688-1.296c-2.307-0.764-4.433-1.135-6.489-1.135c-3.357,0-6.607,1.033-9.934,3.157
				c-1.516,0.968-3.098,1.88-4.628,2.761c-0.833,0.482-1.671,0.963-2.501,1.456c-4.824,2.869-8.521,6.697-11.299,11.708
				c-7.479,13.479-19.942,22.103-32.301,29.414l-1.406,0.835l0.623-1.511c0.332-0.807,0.668-1.599,0.999-2.374
				c1.979-4.659,3.702-8.71,3.407-13.516c-2.594,0.642-3.513,2.655-4.479,4.773l-0.202,0.442
				c-3.989,8.646-9.778,14.896-17.692,19.098c-1.797,0.955-3.443,1.42-5.031,1.42c-1.624,0-3.213-0.479-4.861-1.465
				c-0.715-0.43-1.477-0.818-2.237-1.207c-3.317-1.699-6.749-3.458-6.653-8.356c0.11-5.778,0.448-11.64,0.773-17.31l0.264-4.629
				c0.047-0.865,0.241-1.712,0.426-2.533c0.059-0.262,0.119-0.525,0.174-0.788l-0.451-0.336l-4.068,5.69l-0.336-1.032
				c-2.405-7.395-2.895-14.627-1.494-22.108c3.141-16.799,13.945-27.71,32.115-32.428c13.473-3.498,27.738-3.209,45.971,1.076
				c4.039,0.948,8.07,2.194,11.969,3.398c3.109,0.959,6.328,1.953,9.521,2.787c1.426,0.371,3.625,0.014,4.826-0.782
				c9.158-6.091,18.531-5.979,27.566,0.327c1.651,1.151,4.091,1.936,6.37,2.048c5.2,0.253,10.497,0.405,15.618,0.555
				c8.32,0.241,16.924,0.491,25.355,1.175c6.554,0.533,16.736,1.314,26.031,4.615c1.592,0.566,3.073,1.504,4.384,2.684l1.244,1.118
				l-1.668-0.168c-1.825-0.185-3.651-0.373-5.48-0.563c-3.972-0.412-7.944-0.824-11.925-1.188
				c-18.764-1.718-37.293-0.116-55.08,4.764C363.9,426.214,362.676,426.943,361.845,427.803z"/>
			<path fill-rule="evenodd" clip-rule="evenodd" fill="#231F20" d="M349.152,408.322c-4.74,0-9.232,4.376-9.423,9.178
				c-0.095,2.439,0.799,4.778,2.518,6.588c1.72,1.815,4.054,2.867,6.566,2.966c4.999,0.192,9.3-3.773,9.553-8.675
				c0.131-2.523-0.823-5.084-2.618-7.027c-1.709-1.855-4.039-2.957-6.383-3.024L349.152,408.322z M354.571,412.324l-1.346,0.339
				c-3.793,0.958-5.433,2.695-4.874,5.166c0.591,2.609,2.553,3.45,6.483,2.886l1.061-0.152l-0.497,0.947
				c-1.336,2.546-3.626,4.006-6.279,4.006c-1.195,0-2.393-0.299-3.559-0.887c-1.807-0.914-3.146-2.496-3.77-4.45
				c-0.641-2.009-0.449-4.144,0.535-6.012c1.323-2.499,3.531-3.874,6.221-3.874c1.555,0,3.169,0.457,4.81,1.361L354.571,412.324z"/>
		</g>
		<g>
			
				<radialGradient id="SVGID_1_" cx="259.5073" cy="530.042" r="28.7498" gradientTransform="matrix(1 0 0 0.8616 0 59.0298)" gradientUnits="userSpaceOnUse">
				<stop  offset="0" style="stop-color:#4D4D4D"/>
				<stop  offset="0.4753" style="stop-color:#878787"/>
				<stop  offset="1" style="stop-color:#CCCCCC"/>
			</radialGradient>
			<path fill="url(#SVGID_1_)" d="M219.699,513.782c0,0,0.288,0.15,0.829,0.434c0.54,0.282,1.328,0.711,2.367,1.168
				c1.02,0.496,2.305,1.002,3.782,1.559c1.49,0.527,3.187,1.066,5.062,1.575c1.879,0.489,3.928,0.974,6.125,1.332
				c2.189,0.398,4.522,0.657,6.934,0.917c2.417,0.207,4.921,0.378,7.47,0.398c2.548,0.039,5.138-0.012,7.721-0.177
				c5.172-0.251,10.321-0.919,15.081-1.872c2.373-0.504,4.667-1.008,6.807-1.618c2.15-0.576,4.142-1.258,5.97-1.915
				c1.809-0.704,3.46-1.376,4.882-2.063c1.43-0.673,2.635-1.343,3.61-1.923c0.482-0.299,0.914-0.565,1.289-0.798
				c0.363-0.251,0.672-0.465,0.922-0.639c0.5-0.35,0.767-0.536,0.767-0.536s-0.255,0.202-0.732,0.582
				c-0.469,0.393-1.185,0.931-2.137,1.563c-0.952,0.627-2.134,1.357-3.542,2.1c-1.399,0.76-3.032,1.515-4.844,2.264
				c-3.639,1.452-8.009,2.863-12.807,3.875c-4.796,1.005-9.986,1.73-15.207,2.027c-2.61,0.143-5.227,0.17-7.799,0.106
				c-2.573-0.045-5.101-0.24-7.541-0.471c-2.437-0.266-4.784-0.611-6.984-1.072c-2.207-0.424-4.263-0.969-6.145-1.515
				c-0.942-0.27-1.828-0.587-2.676-0.866c-0.841-0.302-1.624-0.629-2.366-0.913c-1.463-0.628-2.728-1.193-3.734-1.739
				c-1.028-0.501-1.777-0.989-2.302-1.301C219.978,513.95,219.699,513.782,219.699,513.782z"/>
		</g>
		<g>
			
				<radialGradient id="SVGID_2_" cx="259.9863" cy="545.6113" r="33.2007" gradientTransform="matrix(1 0 0 0.8616 0 59.0176)" gradientUnits="userSpaceOnUse">
				<stop  offset="0" style="stop-color:#4D4D4D"/>
				<stop  offset="0.4753" style="stop-color:#878787"/>
				<stop  offset="1" style="stop-color:#CCCCCC"/>
			</radialGradient>
			<path fill="url(#SVGID_2_)" d="M213.784,527.214c0,0,0.34,0.153,0.979,0.442c0.636,0.291,1.57,0.724,2.789,1.187
				c1.202,0.502,2.704,1.011,4.431,1.564c1.736,0.529,3.712,1.066,5.886,1.569c2.178,0.487,4.55,0.966,7.083,1.318
				c2.527,0.392,5.213,0.648,7.99,0.903c2.782,0.204,5.661,0.374,8.591,0.395c2.929,0.042,5.906-0.01,8.877-0.169
				c5.947-0.245,11.876-0.889,17.375-1.832c2.747-0.485,5.397-0.993,7.884-1.59c2.496-0.565,4.817-1.246,6.951-1.9
				c2.121-0.693,4.052-1.375,5.732-2.061c1.682-0.682,3.113-1.359,4.275-1.949c1.152-0.611,2.056-1.097,2.643-1.479
				c0.599-0.363,0.918-0.557,0.918-0.557s-0.309,0.21-0.888,0.604c-0.569,0.41-1.439,0.957-2.575,1.61
				c-1.144,0.639-2.555,1.377-4.219,2.13c-0.824,0.394-1.733,0.738-2.675,1.144c-0.953,0.375-1.967,0.739-3.026,1.117
				c-2.131,0.712-4.454,1.453-6.952,2.083c-2.49,0.661-5.144,1.251-7.911,1.744c-5.531,0.993-11.496,1.691-17.484,1.982
				c-2.994,0.136-5.993,0.165-8.943,0.099c-2.951-0.044-5.85-0.238-8.651-0.466c-2.799-0.26-5.496-0.604-8.033-1.057
				c-2.542-0.417-4.921-0.955-7.102-1.499c-2.181-0.547-4.147-1.169-5.87-1.771c-1.715-0.626-3.201-1.194-4.391-1.748
				c-1.209-0.507-2.109-1.001-2.732-1.321C214.116,527.386,213.784,527.214,213.784,527.214z"/>
		</g>
	</g>
	<g>
		<path fill="#231F20" d="M-272.915,435.796l0.595-10.858l8.627,0.198l7.19-16.561l9.768-0.496l-0.595,14.825l15.42,0.596
			l-0.893,13.635l-15.371,0.198l-0.793,26.181l9.42,0.099l-0.396-6.892h10.165c0.132,0.859,0.231,1.777,0.297,2.752
			c0.066,0.975,0.099,2.024,0.099,3.148c0,4.562-1.562,8.057-4.686,10.486c-3.124,2.43-7.644,3.645-13.561,3.645
			c-3.801,0-7.09-0.504-9.867-1.513c-2.777-1.008-5.141-2.536-7.091-4.586c-0.926-0.958-1.586-1.983-1.983-3.074
			c-0.397-1.091-0.595-2.678-0.595-4.76v-2.132c0-3.472,0.165-7.049,0.496-10.735c0.33-3.686,0.909-8.123,1.735-13.313
			L-272.915,435.796z"/>
		<path fill="#231F20" d="M-222.439,472.042l0.892-32.775l-0.396-15.122h14.329l0.893,7.685c1.024-3.503,2.95-6.223,5.776-8.156
			c2.827-1.934,6.289-2.9,10.388-2.9c4.661,0,8.206,1.431,10.636,4.289c2.43,2.859,3.645,7.049,3.645,12.569
			c0,1.487-0.066,3.05-0.198,4.686c-0.133,1.637-0.331,3.396-0.595,5.28h-16.76l0.298-11.205h-9.52l1.834,38.327
			c-5.354-1.487-11.917-2.362-19.684-2.628C-221.564,472.091-222.076,472.075-222.439,472.042z"/>
		<path fill="#231F20" d="M-135.123,470.455c-2.909,2.017-6.157,3.57-9.743,4.661c-3.587,1.091-7.281,1.636-11.082,1.636
			c-5.289,0-9.438-1.19-12.445-3.57c-3.009-2.38-4.512-5.668-4.512-9.867c0-3.305,0.734-6.495,2.206-9.569
			c1.471-3.074,3.23-5.123,5.28-6.148c2.017-0.991,5.95-1.966,11.801-2.925c5.852-0.959,12.66-1.719,20.429-2.281v-1.735
			c0-1.024-0.033-2.008-0.1-2.95s-0.182-1.81-0.347-2.603c-2.513-0.826-5.074-1.471-7.686-1.935
			c-2.611-0.462-4.908-0.693-6.892-0.693c-0.431,0-0.836,0.008-1.215,0.024c-0.381,0.017-0.769,0.042-1.165,0.074l-0.199,6.893
			c-2.115-0.231-4.058-0.405-5.825-0.521c-1.77-0.115-3.446-0.173-5.033-0.173c-1.289,0-2.645,0.024-4.065,0.074
			c-1.422,0.05-2.876,0.107-4.363,0.174v-1.091c0-4.959,2.652-9.057,7.958-12.297c5.306-3.239,11.99-4.859,20.057-4.859
			c8.594,0,15.098,1.678,19.511,5.033c4.413,3.354,6.619,8.305,6.619,14.85c0,2.348-0.083,5.174-0.248,8.479
			c-0.166,3.306-0.248,5.438-0.248,6.396c0,2.348,0.165,4.901,0.496,7.661c0.33,2.76,0.992,6.669,1.983,11.726
			c-0.926-0.066-2.132-0.157-3.619-0.272c-1.488-0.116-2.397-0.174-2.728-0.174c-1.091,0-2.578,0.132-4.463,0.397
			c-1.884,0.264-4.462,0.677-7.734,1.239L-135.123,470.455z M-152.478,464.555l14.181-1.041c0.265-1.852,0.454-3.487,0.57-4.909
			c0.115-1.421,0.174-2.858,0.174-4.313l-0.05-1.637c-2.513,0.166-5.017,0.472-7.512,0.918c-2.496,0.446-5,1.05-7.512,1.81
			L-152.478,464.555z"/>
		<path fill="#231F20" d="M-65.211,473.479l-1.487-3.967c-1.719,1.72-4.05,3.083-6.991,4.091c-2.942,1.008-6.066,1.513-9.371,1.513
			c-8,0-13.958-2.265-17.875-6.793s-5.875-11.404-5.875-20.627c0-8.362,2.247-14.94,6.743-19.734
			c4.495-4.792,10.644-7.189,18.444-7.189c3.206,0,6.124,0.521,8.752,1.562c2.628,1.042,4.95,2.587,6.967,4.637
			c0-5.124-0.149-10.106-0.446-14.949c-0.298-4.843-0.761-9.512-1.389-14.008c0.363,0.033,0.875,0.066,1.537,0.1
			c4.76,0.231,8.114,0.347,10.065,0.347c1.091,0,3.074-0.065,5.95-0.198c0.595,0,1.073-0.017,1.438-0.05
			c-0.198,2.116-0.347,4.307-0.446,6.57c-0.099,2.265-0.148,4.852-0.148,7.76v3.768l-0.1,21.222v4.563
			c0,5.784,0.074,11.321,0.224,16.61c0.148,5.289,0.372,10.214,0.669,14.775c-0.991-0.032-2.348-0.065-4.065-0.1
			c-2.909-0.065-4.76-0.099-5.554-0.099c-1.091,0-2.215,0.017-3.371,0.05C-62.699,473.364-63.921,473.414-65.211,473.479z
			 M-70.962,438.027l-17.801,0.496l-0.198,20.924h18.693L-70.962,438.027z"/>
		<path fill="#231F20" d="M-3.331,458.555l19.783-0.595c-0.926,5.917-3.686,10.545-8.28,13.883
			c-4.595,3.339-10.528,5.009-17.8,5.009c-9.223,0-16.521-2.455-21.892-7.363c-5.372-4.909-8.057-11.528-8.057-19.858
			c0-8.727,2.595-15.718,7.784-20.974s12.099-7.884,20.726-7.884c8.76,0,15.71,2.702,20.85,8.106
			c5.14,5.405,7.711,12.752,7.711,22.04v1.835h-20.23c-2.05,0-4.504,0.083-7.363,0.248s-6.504,0.43-10.933,0.793
			c0,1.719,0.082,3.413,0.248,5.082c0.165,1.67,0.396,3.314,0.694,4.934l16.164,0.248L-3.331,458.555z M-17.661,443.432h15.966
			l-0.941-10.362l-15.024,0.297V443.432z"/>
		<path fill="#969696" d="M26.519,473.976c0.297-2.942,0.521-6.14,0.669-9.595c0.149-3.454,0.224-7.908,0.224-13.362
			c0-5.95-0.05-11.032-0.149-15.247c-0.099-4.215-0.247-8.09-0.446-11.627h16.462l0.396,6.197c2.148-3.041,4.9-5.396,8.256-7.065
			c3.354-1.669,6.999-2.504,10.934-2.504c3.701,0,6.966,0.868,9.792,2.604s4.802,4.09,5.926,7.065
			c1.785-3.106,4.33-5.445,7.636-7.017c3.305-1.569,7.371-2.354,12.197-2.354c6.115,0,10.858,1.586,14.23,4.76
			c3.372,3.173,5.09,7.686,5.156,13.536l0.397,35.006l-20.131-0.595c0.099-1.256,0.165-2.653,0.198-4.19
			c0.032-1.537,0.049-3.892,0.049-7.065c0-0.627-0.024-1.884-0.074-3.769c-0.049-1.884-0.141-4.594-0.272-8.131l-0.893-13.091
			l-13.933-0.297l-0.1,36.047c-3.537-0.298-6.661-0.528-9.371-0.694c-2.711-0.165-4.991-0.248-6.843-0.248
			c-0.595,0-1.446,0.025-2.553,0.074c-1.108,0.05-1.959,0.075-2.554,0.075l-0.1-33.816l-14.577,0.496
			c-0.198,2.05-0.34,4.231-0.422,6.545c-0.083,2.314-0.124,4.909-0.124,7.784v4.165c0.066,1.025,0.116,2.141,0.149,3.348
			c0.032,1.207,0.05,3.032,0.05,5.479c0,1.884-0.009,3.297-0.025,4.239s-0.042,1.794-0.074,2.554
			c-4.991,0.133-8.991,0.256-11.999,0.372C31.592,473.769,28.898,473.876,26.519,473.976z"/>
		<path fill="#969696" d="M163.814,458.555l19.783-0.595c-0.926,5.917-3.686,10.545-8.28,13.883
			c-4.595,3.339-10.528,5.009-17.8,5.009c-9.223,0-16.521-2.455-21.892-7.363c-5.372-4.909-8.057-11.528-8.057-19.858
			c0-8.727,2.595-15.718,7.784-20.974s12.099-7.884,20.726-7.884c8.76,0,15.71,2.702,20.85,8.106
			c5.14,5.405,7.711,12.752,7.711,22.04v1.835h-20.23c-2.05,0-4.504,0.083-7.363,0.248s-6.504,0.43-10.933,0.793
			c0,1.719,0.082,3.413,0.248,5.082c0.165,1.67,0.396,3.314,0.694,4.934l16.164,0.248L163.814,458.555z M149.484,443.432h15.966
			l-0.941-10.362l-15.024,0.297V443.432z"/>
	</g>
</g>
<g>
	<g>
		<g>
			<path fill="#187FD0" d="M546.581,141.214c-1.182-1.632-3.088-2.601-5.111-2.601H312.08l-11.146-40.65
				c-0.758-2.751-3.251-4.65-6.096-4.65H250.78c-3.485,0-6.315,2.832-6.315,6.324c0,3.496,2.83,6.324,6.315,6.324h39.229
				l21.991,80.172c0.062,0.347,0.151,0.669,0.271,0.989l23.853,86.963c0.756,2.747,3.247,4.652,6.094,4.652h158.011
				c2.75,0,5.172-1.774,6.021-4.373l41.223-127.481C548.103,144.956,547.765,142.845,546.581,141.214z M414.072,191.291v74.796
				h-47.411v-74.796H414.072z M366.661,178.646V151.25h47.411v27.395H366.661z M428.831,191.291h48.463v74.796h-48.463V191.291z
				 M428.831,178.646V151.25h48.463v27.395H428.831z M351.918,151.253v27.392h-28.865l-7.516-27.392H351.918z M326.523,191.291
				h25.395v74.796h-4.879L326.523,191.291z M495.628,266.087h-3.59v-74.796h27.785L495.628,266.087z M523.919,178.646h-31.875
				V151.25h40.736L523.919,178.646z"/>
		</g>
		<g>
			<path fill="#187FD0" d="M365.297,290.854c-15.043,0-27.291,12.25-27.291,27.291c0,15.039,12.251,27.281,27.291,27.281
				c15.035,0,27.281-12.242,27.281-27.281C392.578,303.104,380.332,290.854,365.297,290.854z M365.297,332.791
				c-8.082,0-14.65-6.58-14.65-14.646c0-8.072,6.568-14.642,14.65-14.642c8.068,0,14.637,6.57,14.637,14.642
				S373.37,332.791,365.297,332.791z"/>
		</g>
		<g>
			<path fill="#187FD0" d="M477.297,290.854c-15.047,0-27.284,12.25-27.284,27.291c0,15.039,12.244,27.281,27.284,27.281
				c15.041,0,27.284-12.242,27.284-27.281C504.581,303.104,492.345,290.854,477.297,290.854z M477.297,332.791
				c-8.075,0-14.649-6.58-14.649-14.646c0-8.072,6.574-14.642,14.649-14.642c8.067,0,14.644,6.57,14.644,14.642
				S485.37,332.791,477.297,332.791z"/>
		</g>
	</g>
</g>
<path fill="none" stroke="#187FD0" stroke-width="12.1043" stroke-linecap="round" stroke-linejoin="round" stroke-miterlimit="10" d="
	M173.375,93.313c11.799-3.098,20.545-5.482,30.125-10.674c-2.542-11.497-7.842-23.254-11.996-31.723"/>
<path fill="none" stroke="#187FD0" stroke-width="12.1043" stroke-linecap="round" stroke-linejoin="round" stroke-miterlimit="10" d="
	M247.988,327.192c4.13-11.476,7.123-20.036,8.275-30.873c-10.915-4.42-23.6-6.716-32.938-8.093"/>
<path fill="none" stroke="#187FD0" stroke-width="12.1043" stroke-linecap="round" stroke-linejoin="round" stroke-miterlimit="10" d="
	M138.167,399.96c16.708-49.792,88.648-94.027,118.096-103.64"/>
<path fill="none" stroke="#187FD0" stroke-width="12.1043" stroke-linecap="round" stroke-linejoin="round" stroke-miterlimit="10" d="
	M592.94,326.887c-6.811-10.117-11.806-17.685-15.57-27.913c9.502-6.953,21.241-12.284,29.959-15.896"/>
<path fill="none" stroke="#187FD0" stroke-width="12.1043" stroke-linecap="round" stroke-linejoin="round" stroke-miterlimit="10" d="
	M729.5,387.833c-27.621-48.927-109.831-82.297-151.608-89.375"/>
<path fill="none" stroke="#187FD0" stroke-width="12.1043" stroke-linecap="round" stroke-linejoin="round" stroke-miterlimit="10" d="
	M111.585,9.783c13.073,21.668,47.504,59.378,91.915,72.856"/>
<path fill="none" stroke="#187FD0" stroke-width="12.1043" stroke-linecap="round" stroke-linejoin="round" stroke-miterlimit="10" d="
	M612.747,125.766c-12.035-1.999-20.965-3.569-30.981-7.855c1.472-11.683,5.669-23.879,9.026-32.693"/>
<path fill="none" stroke="#187FD0" stroke-width="12.1043" stroke-linecap="round" stroke-linejoin="round" stroke-miterlimit="10" d="
	M685.5,27.5c-24.36,43.837-73.905,78.259-103.734,90.411"/>
<path fill="none" stroke="#187FD0" stroke-width="12.1043" stroke-linecap="round" stroke-linejoin="round" stroke-miterlimit="10" d="
	M584.404,224.685c-8.271-8.968-14.354-15.691-19.627-25.226c8.336-8.316,19.139-15.364,27.201-20.258"/>
<path fill="none" stroke="#187FD0" stroke-width="12.1043" stroke-linecap="round" stroke-linejoin="round" stroke-miterlimit="10" d="
	M669.167,206.624c-27.334,7.447-77.188,0.876-104.39-7.165"/>
<path fill="none" stroke="#187FD0" stroke-width="12.1043" stroke-linecap="round" stroke-linejoin="round" stroke-miterlimit="10" d="
	M238.056,171.551c9.001,2.815,21.181,7.063,31.27,13.134c-2.829,10.521-7.12,18.509-12.995,29.201"/>
<path fill="none" stroke="#187FD0" stroke-width="12.1043" stroke-linecap="round" stroke-linejoin="round" stroke-miterlimit="10" d="
	M269.325,184.686c-24.475,14.337-56.325,33.218-100.739,32.13"/>
</svg>
