<?xml version="1.0" encoding="utf-8"?>
<!-- Generator: Adobe Illustrator 16.0.0, SVG Export Plug-In . SVG Version: 6.00 Build 0)  -->
<!DOCTYPE svg PUBLIC "-//W3C//DTD SVG 1.1//EN" "http://www.w3.org/Graphics/SVG/1.1/DTD/svg11.dtd">
<svg version="1.1" id="Layer_1" xmlns="http://www.w3.org/2000/svg" xmlns:xlink="http://www.w3.org/1999/xlink" x="0px" y="0px"
	 width="1338.867px" height="687.193px" viewBox="-338.867 0 1338.867 687.193"
	 enable-background="new -338.867 0 1338.867 687.193" xml:space="preserve">
<g>
	
		<path fill="#C8C8C8" stroke="#231F20" stroke-width="4" stroke-linecap="round" stroke-linejoin="round" stroke-miterlimit="10" d="
		M607.354,668.953l-0.048-0.107l-62.56-187.731l-31.473,93.781c4.252,4.395,23.451,88.894,34.922,94.058
		C561.682,675.025,607.354,668.953,607.354,668.953z"/>
	<path fill="#969696" d="M515.493,574.933c0,0,20.019,68.904,28.375,85.158l0.854-177.129l-0.065-0.184L515.493,574.933z"/>
	
		<path fill="#C8C8C8" stroke="#231F20" stroke-width="4" stroke-linecap="round" stroke-linejoin="round" stroke-miterlimit="10" d="
		M481.909,480.939l-0.008,0.068l-0.023-0.068l-62.63,187.914l-0.047,0.1h45.813c6.606,0,12.545-2.762,16.795-7.174
		c2.303-2.377,4.144-5.195,5.286-8.371c0.008-0.021,0.008-0.039,0.016-0.045l57.56-172.447h-62.769v0.023H481.909L481.909,480.939z"
		/>
	<g>
		<path fill="#6D7176" d="M639.491,641.513h23.151l-8.803-23.33c-0.744-1.832-1.64-4.363-2.662-7.611
			c-0.801,2.834-1.66,5.402-2.619,7.697L639.491,641.513z M664.13,645.578h-26.282l-9.021,22.842h-5.006l26.02-64.971h2.883
			l25.496,64.971h-5.086L664.13,645.578z"/>
		<path fill="#6D7176" d="M702.964,623.361c-5.25,0-9.191,1.855-11.828,5.529c-2.656,3.688-3.955,9.055-3.955,16.061
			c0,13.623,5.289,20.455,15.887,20.455c5.428,0,9.42-1.588,11.945-4.732c2.533-3.16,3.803-8.355,3.803-15.627v-0.75
			c0-7.445-1.238-12.785-3.729-16.039C712.565,625.003,708.548,623.361,702.964,623.361 M702.964,619.38
			c3.486,0,6.496,0.635,9.027,1.904c2.539,1.27,4.815,3.438,6.807,6.5h0.262c-0.158-3.711-0.262-7.348-0.262-10.926v-17.297h4.338
			v68.857h-2.879l-1.105-7.355h-0.362c-3.664,5.482-8.916,8.234-15.753,8.234c-6.641,0-11.713-2.063-15.229-6.195
			c-3.496-4.133-5.248-10.15-5.248-18.057c0-8.318,1.732-14.674,5.211-19.074C691.262,621.578,696.329,619.38,702.964,619.38z"/>
		<path fill="#6D7176" d="M791.049,668.408h-3.711l-14.205-49.918c-1.172-4.102-2.056-7.473-2.66-10.086
			c-0.465,2.566-1.147,5.508-2.006,8.84c-0.881,3.338-5.631,20.393-14.28,51.164h-3.802l-17.787-64.703h4.729l11.328,41.686
			c0.435,1.684,0.855,3.24,1.229,4.668c0.377,1.436,0.729,2.771,1.049,4.021c0.312,1.258,0.599,2.467,0.843,3.641
			c0.252,1.164,0.471,2.342,0.684,3.514c0.697-4.01,2.197-10.104,4.5-18.275l11.066-39.254h4.985l12.97,45.055
			c1.51,5.199,2.59,9.381,3.235,12.566c0.381-2.129,0.871-4.381,1.472-6.764c0.6-2.379,5.157-19.33,13.647-50.844h4.562
			L791.049,668.408z"/>
		<path fill="#6D7176" d="M820.147,644.296c0,6.611,1.438,11.764,4.356,15.455c2.905,3.699,7.014,5.549,12.33,5.549
			c5.315,0,9.426-1.85,12.321-5.549c2.914-3.691,4.365-8.844,4.365-15.455c0.002-6.641-1.465-11.793-4.406-15.441
			c-2.936-3.662-7.055-5.488-12.366-5.488c-5.306,0-9.398,1.826-12.275,5.469C821.583,632.466,820.146,637.625,820.147,644.296
			 M858.106,644.296c0,7.85-1.898,13.979-5.716,18.391c-3.795,4.414-9.045,6.611-15.745,6.611c-4.22,0-7.939-1.02-11.152-3.059
			c-3.209-2.037-5.688-4.949-7.387-8.766c-1.701-3.791-2.568-8.203-2.568-13.18c0-7.842,1.904-13.957,5.713-18.34
			c3.811-4.383,9.027-6.576,15.658-6.576c6.615,0,11.791,2.217,15.563,6.66C856.233,630.478,858.106,636.564,858.106,644.296z"/>
		<path fill="#6D7176" d="M889.464,619.38c2.037,0,4.217,0.207,6.548,0.623l-0.842,4.205c-2.001-0.5-4.089-0.756-6.24-0.756
			c-4.1,0-7.465,1.74-10.082,5.219c-2.631,3.484-3.942,7.879-3.942,13.184v26.57h-4.377V620.31h3.713l0.434,8.672h0.314
			c1.979-3.533,4.09-6.025,6.319-7.459C883.559,620.101,886.276,619.38,889.464,619.38"/>
		<path fill="#6D7176" d="M922.496,623.361c-5.244,0-9.205,1.855-11.828,5.529c-2.65,3.688-3.949,9.055-3.949,16.061
			c0,13.623,5.291,20.455,15.887,20.455c5.424,0,9.414-1.588,11.951-4.732c2.535-3.16,3.799-8.355,3.799-15.627v-0.75
			c0-7.445-1.246-12.785-3.729-16.039C932.105,625.003,928.068,623.361,922.496,623.361 M922.496,619.38
			c3.473,0,6.482,0.635,9.027,1.904c2.532,1.27,4.805,3.438,6.813,6.5h0.268c-0.17-3.711-0.268-7.348-0.268-10.926v-17.297h4.34
			v68.857h-2.887l-1.105-7.355h-0.367c-3.662,5.482-8.906,8.234-15.742,8.234c-6.635,0-11.711-2.063-15.223-6.195
			c-3.508-4.133-5.262-10.15-5.262-18.057c0-8.318,1.74-14.674,5.215-19.074C910.795,621.578,915.855,619.38,922.496,619.38z"/>
		<path fill="#6D7176" d="M987.74,655.888c0,4.305-1.642,7.605-4.912,9.938c-3.279,2.32-7.928,3.461-13.943,3.461
			c-6.438,0-11.535-0.982-15.313-2.953v-4.725c4.852,2.416,9.947,3.625,15.313,3.625c4.75,0,8.357-0.787,10.811-2.369
			c2.47-1.588,3.695-3.688,3.695-6.299c0-2.422-0.979-4.457-2.943-6.109c-1.952-1.654-5.182-3.279-9.67-4.871
			c-4.803-1.74-8.18-3.234-10.133-4.492c-1.928-1.25-3.418-2.668-4.397-4.242c-0.99-1.586-1.479-3.498-1.479-5.773
			c0-3.588,1.508-6.445,4.533-8.533c3.029-2.09,7.252-3.145,12.674-3.145c5.193,0,10.127,0.977,14.783,2.924l-1.646,3.979
			c-4.713-1.941-9.098-2.926-13.137-2.926c-3.938,0-7.031,0.648-9.332,1.949c-2.309,1.293-3.438,3.096-3.438,5.396
			c0,2.52,0.885,4.521,2.668,6.012c1.783,1.514,5.271,3.186,10.473,5.055c4.334,1.563,7.496,2.959,9.475,4.217
			c1.97,1.258,3.455,2.674,4.451,4.262C987.244,651.859,987.74,653.74,987.74,655.888"/>
	</g>
	<g>
		<path fill="#6D7176" d="M878.506,548.413c2.972-3.016,3.229-7.155,3.229-9.495c0-9.33-5.574-23.869-16.293-23.869
			c-3.369,0-6.99,1.676-9.063,4.28c-2.201,2.724-2.853,6.22-2.853,9.608c0,8.685,5.043,23.117,16.181,23.117
			C872.919,552.054,876.426,550.493,878.506,548.413 M874.751,573.066c-1.021-0.12-1.68-0.12-2.957-0.12
			c-1.176,0-8.164,0.247-13.588,2.06c-2.857,1.059-11.129,4.188-11.129,13.41c0,9.203,8.951,15.84,22.791,15.84
			c12.387,0,18.979-5.984,18.979-14.02C888.839,583.591,884.581,580.123,874.751,573.066z M883.937,515.421
			c2.954,2.485,9.181,7.668,9.181,17.517c0.002,9.641-5.446,14.173-10.876,18.466c-1.662,1.701-3.609,3.495-3.609,6.365
			c0,2.85,1.947,4.406,3.355,5.562l4.646,3.636c5.688,4.816,10.882,9.195,10.882,18.188c0,12.193-11.781,24.525-34.029,24.525
			c-18.744,0-27.789-8.957-27.789-18.58c0-4.645,2.31-11.256,9.957-15.84c8.006-4.918,18.883-5.584,24.703-5.961
			c-1.799-2.345-3.893-4.812-3.893-8.817c0-2.193,0.664-3.509,1.303-5.063c-1.436,0.141-2.846,0.26-4.146,0.26
			c-13.7,0-21.454-10.293-21.454-20.381c0-6,2.723-12.6,8.272-17.39c7.34-6.12,16.158-7.164,23.137-7.164h26.653l-8.293,4.679
			H883.937L883.937,515.421z"/>
		<path fill="#6D7176" d="M818.641,560.501c3.104-4.146,3.896-9.297,3.896-14.4c0-11.41-5.43-33.164-21.441-33.164
			c-4.281-0.002-8.533,1.667-11.643,4.398c-5.031,4.523-5.957,10.233-5.957,15.821c0,12.831,6.354,33.956,21.984,33.956
			C810.508,567.113,815.678,564.661,818.641,560.501 M802.508,570.992c-20.539,0-31.504-16.08-31.504-30.593
			c0-16.978,13.801-31.497,33.433-31.497c18.977,0,30.864,14.904,30.864,30.586C835.296,554.792,823.565,570.992,802.508,570.992z"
			/>
		<path fill="#6D7176" d="M748.659,560.501c3.108-4.146,3.873-9.297,3.873-14.4c0-11.41-5.402-33.164-21.443-33.164
			c-4.268-0.002-8.504,1.667-11.615,4.398c-5.031,4.523-5.945,10.233-5.945,15.821c0,12.831,6.318,33.956,21.941,33.956
			C740.53,567.113,745.694,564.661,748.659,560.501 M732.518,570.992c-20.547,0-31.504-16.08-31.504-30.593
			c0-16.978,13.808-31.497,33.438-31.497c18.984,0,30.871,14.904,30.871,30.586C765.329,554.792,753.575,570.992,732.518,570.992z"
			/>
		<path fill="#6D7176" d="M691.133,568.953l-18.556,4.305c-7.541,1.189-14.266,2.232-21.416,2.232
			c-35.827,0-49.444-26.459-49.444-47.191c0-25.291,19.338-48.733,52.431-48.733c7.018,0,13.782,1.036,19.866,2.718
			c9.716,2.751,14.287,6.161,17.117,8.081l-10.742,10.287l-4.567,1.037l3.252-5.203c-4.435-4.293-12.467-12.22-27.789-12.22
			c-20.521,0-35.957,15.629-35.957,38.428c0,24.506,17.656,47.57,45.949,47.57c8.328,0,12.6-1.722,16.494-3.275v-20.971
			l-19.609,1.022l10.371-5.575h27.524l-3.354,3.256c-0.918,0.765-1.051,1.017-1.297,2.053c-0.14,1.216-0.273,4.984-0.273,6.293
			C691.133,553.065,691.131,568.953,691.133,568.953"/>
		<path fill="#6D7176" d="M924.967,565.232c-4.301-0.412-5.195-1.182-5.195-6.253v-1.455v-72.317
			c0.037-0.292,0.053-0.564,0.084-0.837c0.527-4.584,1.83-5.335,5.836-7.714h-18.559l-9.748,4.691h9.947v0.074l-0.008-0.026v76.13
			v4.318c0,2.605-0.537,2.979-3.527,6.865h22.979l4.853-2.871C929.385,565.623,927.174,565.464,924.967,565.232"/>
		<path fill="#6D7176" d="M965.68,527.845c2.459-0.916,3.734-1.674,3.734-3.48c0-5.197-5.801-11.157-12.77-11.157
			c-5.156,0-14.826,4.04-14.826,18.015c0,2.207,0.272,4.531,0.385,6.838L965.68,527.845z M977.799,566.407
			c-1.412,0.778-2.854,1.715-4.277,2.347c-4.238,1.967-8.619,2.445-12.486,2.445c-4.139,0-10.565-0.24-17.172-5.063
			c-9.108-6.434-13.147-17.584-13.147-27.287c0-20.073,16.26-29.895,29.528-29.895c4.652,0,9.451,1.178,13.271,3.608
			c6.468,4.267,8.168,9.829,9.022,12.811l-30.278,12.308l-9.94,0.771c3.205,16.46,14.307,26.022,26.567,26.022
			c6.563-0.002,11.322-2.332,15.715-4.51L977.799,566.407z"/>
	</g>
</g>
<g>
	<g>
		<g>
			<path fill="#231F20" d="M-19.628,133.373v-0.002V133.373z"/>
			<path fill="#231F20" d="M288.569,161.315l0.154,0.003c9.278,0,15.811-6.429,15.881-15.631c0.035-4.556-1.281-8.726-3.707-11.74
				c-2.564-3.189-6.152-4.891-10.381-4.924h-0.084c-5.707,0-11.004,4.33-16.199,13.238l-0.414,0.71l-0.266-0.776
				c-1.312-3.819-2.48-7-3.179-8.901c-0.487-1.327-0.705-1.924-0.756-2.117c-0.248-0.963-1.074-1.562-2.151-1.562
				c-0.664,0-1.369,0.226-2.037,0.649c-0.662,0.421-1.031,0.937-1.164,1.624l-0.033,0.103c-5.199,16.212-9.486,24.086-13.115,24.086
				c-0.528-0.005-0.94-0.178-1.252-0.521c-0.949-1.05-0.717-3.551-0.391-7.012c0.235-2.542,0.506-5.422,0.395-8.476
				c-0.215-5.872-3.43-9.398-8.594-9.438c-6.564-0.002-10.82,6.988-12.779,11.156l-0.586,1.244l-0.129-1.369
				c-0.49-5.156-2.221-11.315-7.686-11.357c-6.373,0-11.229,7.479-14.193,13.757l-0.793,1.682l0.08-1.857
				c0.352-8.373,0.641-13.316,0.857-14.688c0.215-1.375,0.102-2.299-0.349-2.827c-0.426-0.496-1.229-0.678-2.408-0.603
				c-2.039,0.129-3.084,1.371-4.653,5.534c-2.58,6.836-9.146,22.744-14.386,22.744c-1.04-0.007-1.864-0.362-2.469-1.053
				c-2.196-2.52-1.315-9.331-0.1-18.758l0.092-0.713c0.574-4.463-0.408-5.416-2.83-5.861c-0.262-0.048-0.508-0.072-0.736-0.072
				c-1.938,0-2.844,1.854-4.649,7.006c-3.217,9.169-7.355,18.811-12.193,18.811c-0.178,0-0.354-0.013-0.531-0.042
				c-2.563-0.436-2.506-4.24-2.438-9.059c0.039-2.606,0.082-5.56-0.318-8.228c-0.723-4.786-3.543-7.776-7.36-7.805
				c-7.621,0-12.758,9.757-15.148,15.573l-0.541,1.316l-0.182-1.413c-0.32-2.522-0.74-6.519-0.926-11.246l-0.005-0.141l0.087-0.109
				c14.26-17.949,20.657-30.904,20.743-42c0.056-7.092-3.219-11.349-8.75-11.393c-4.045,0-13.668,3.371-17.008,34.586
				c-0.621,5.789-0.963,11.724-1.014,17.642v0.116l-0.066,0.094c-6.522,9.443-20.446,25.686-34.078,25.686
				c-12.315,0-22.143-9.964-22.143-27.554c0-23.578,16.688-38.056,29.248-38.056l0.104,0.001c2.729,0.021,5.068,0.783,6.769,2.206
				c1.766,1.475,2.686,3.544,2.67,5.981c-0.027,3.255-1.086,4.929-2.111,6.545c-0.264,0.416-0.526,0.829-0.766,1.268
				c-0.242,0.441-0.465,1.083-0.143,1.632c0.331,0.563,1.174,0.917,2.202,0.926c2.99,0,7.511-4.328,7.562-10.849
				c0.051-6.827-5.699-13.858-15.955-13.858c-15.521,0-36.426,17.051-36.426,44.689c0,19.548,12.256,33.06,28.859,33.06
				c11.784,0,23.438-8.436,33.76-22.527l0.633-0.853l0.045,1.062c0.221,5.157,0.592,9.222,0.867,12.189
				c0.178,1.908,0.305,3.286,0.297,4.047c-0.012,1.667,0.26,2.823,0.834,3.534s1.486,1.046,2.869,1.057
				c2.317,0,2.782-1.582,3.701-5.479l0.266-1.114c1.141-4.725,5.354-20.145,11.69-20.145c1.035,0.009,1.835,0.316,2.4,0.917
				c1.4,1.485,1.246,4.532,1.068,8.062c-0.109,2.202-0.226,4.476-0.004,6.692c0.598,5.981,3.18,8.905,7.896,8.941
				c4.842,0.002,9.896-5.214,12.562-10.062l0.506-0.914l0.194,1.026c0.494,2.593,2.693,11.108,9.584,11.108
				c6.25,0,11.607-6.579,17.482-20.117l0.768-1.768l-0.049,1.928c-0.125,5.13-0.399,11.395-0.401,16.238
				c-0.003,3.746,0.375,5.176,2.106,5.176c0.123,0,0.254,0.018,0.394,0.018c1.659,0,2.788-0.992,3.352-2.953
				c4.418-15.405,8.24-22.579,12.025-22.579c3.705,0.028,4.053,6.804,4.35,18.778l0.02,0.84c0.091,4.187,0.242,6.041,2.843,6.06
				c1.975,0,2.467-1.551,3.485-5.37c0.195-0.728,0.408-1.527,0.658-2.388c3.568-12.382,6.527-17.434,10.211-17.434
				c3.15,0.024,3.326,3.275,3.385,4.343c0.121,2.288-0.112,4.683-0.342,6.995c-0.211,2.15-0.43,4.372-0.346,6.44
				c0.193,4.844,2.846,7.531,7.467,7.565c5.998,0,11.414-7.017,16.156-20.851l0.33-0.965l0.377,0.947
				c0.859,2.174,1.979,5.118,3.018,8.629l0.039,0.134l-0.057,0.127c-4.592,10.197-7.83,21.557-7.877,27.624
				c-0.062,7.993,3.553,13.187,9.213,13.231h0.098c3.078,0,10.252-1.235,10.394-12.674c0.057-4.688-1.051-11.316-3.289-19.704
				l-0.256-0.961l0.826,0.551C282.106,160.273,285.329,161.289,288.569,161.315z M133.94,122.526
				c0.129-2.866,0.369-5.657,0.711-8.296c2.221-17.003,6.854-28.879,11.275-28.879h0.02c2.105,0.015,3.162,1.608,3.139,4.733
				c-0.059,7.678-4.924,18.669-14.459,32.672l-0.746,1.094L133.94,122.526z M274.854,183.662c-0.705,0.937-1.685,1.41-2.91,1.41
				c-1.408-0.011-2.469-0.502-3.188-1.463c-2.016-2.695-1.446-9.028,1.845-20.526c0.391-1.373,0.819-2.755,1.27-4.106l0.381-1.147
				l0.336,1.16C276.421,172.262,277.183,180.562,274.854,183.662z M276.044,149.661l-0.067-0.127l-0.142-0.441l0.064-0.131
				c4.371-9.007,9.379-14.169,13.74-14.169h0.043c4.922,0.037,8.323,4.465,8.278,10.765c-0.032,4.205-1.887,6.626-3.436,7.917
				c-1.766,1.473-4.119,2.315-6.455,2.315C282.31,155.746,278.358,152.434,276.044,149.661z"/>
			<path fill="#231F20" d="M289.64,135.172v-0.005V135.172z"/>
			<path fill="#231F20" d="M-2.733,159.828c6.746-0.542,12.1-9.717,14.088-13.637l0.51-1.011l0.197,1.117
				c0.951,5.514,3.951,14.779,13.336,14.852h0.078c4.057,0,8.664-2.483,13.316-7.177l0.342-0.345l0.248,0.415
				c3.133,5.24,7.334,8.023,11.809,7.795c6.588-0.342,10.586-5.01,10.938-8.252c0.09-0.827-0.129-1.604-0.6-2.13
				c-0.594-0.66-1.453-0.737-2.088-0.131l-0.299,0.285c-1.533,1.472-4.394,4.216-7.504,4.378c-3.812,0.187-6.631-2.092-8.451-6.795
				l-0.078-0.198l0.129-0.167c10.482-13.709,17.836-34.628,17.111-48.657c-0.334-6.493-2.226-14.233-9.314-14.233
				c-0.174,0-0.352,0.004-0.529,0.013c-2.717,0.14-5.188,1.435-7.344,3.848c-6.578,7.361-10.023,25.48-8.771,46.161
				c0.261,4.297,1.004,8.313,2.216,11.932l0.067,0.202l-0.139,0.163c-3.889,4.544-7.725,7.049-10.805,7.049
				c-7.408,0-7.16-12.421-6.574-22.724c0.129-2.222,0.316-3.637-0.342-4.439c-0.469-0.577-1.256-0.86-2.398-0.871H16.28
				c-2.635,0-3.188,0.542-4.537,4.456c-2.805,8.128-8.346,21.77-13.918,21.77c-1.545-0.013-2.725-0.542-3.531-1.57
				c-2.703-3.451-0.65-12.056,1-18.971c0.295-1.244,0.58-2.437,0.822-3.542c0.363-1.639,0.254-2.836-0.328-3.56
				c-0.58-0.722-1.742-1.014-3.273-0.893c-2.385,0.191-3.912,1.191-4.647,5.729l-0.147,0.943l-0.556-0.671
				c-1.043-1.538-3.076-3.371-6.846-3.371c-0.332,0-0.672,0.013-1.025,0.042c-4.025,0.329-8.611,3.135-11.965,7.32
				c-3.918,4.887-5.787,11.072-5.268,17.416c0.027,0.335,0.078,0.658,0.125,0.978l0.029,0.178l-0.123,0.134
				c-2.344,2.553-4.73,3.847-7.098,3.847c-3.649-0.028-5.744-2.742-5.744-7.26c0-7.609,5.154-30.543,5.154-38.846
				c0-8.835-3.937-13.646-10.774-13.698l-0.103-0.001c-9.982,0-17.765,11.328-25.209,34.635c-0.682,2.135-1.423,4.6-2.059,6.732
				l-1.046,3.505l0.312-3.643c0.691-8.12,1.166-16.019,1.411-23.479c0.37-11.265-1.152-18.514-4.656-22.162
				c-1.889-1.967-4.39-2.937-7.646-2.96h-0.086c-12.217,0-18.069,20.603-22.331,35.141c-1.285,4.389-3.821,14.288-5.513,21.055
				l1.002-1.63c0.751-8.521,2.929-29.867,2.787-41.447c-0.153-12.421-4.291-17.993-13.415-18.062h-0.112
				c-4.874,0-8.255,2.422-10.235,4.453c-3.175,3.262-5.155,8.028-5.044,12.146c0.067,2.501,1.603,4.729,2.767,4.729
				c0.758,0,1.179-1.012,1.361-1.614c2.822-9.333,6.475-13.869,11.165-13.869c1.945,0.016,3.392,0.588,4.475,1.752
				c3.663,3.928,2.997,14.541,1.788,33.803c-0.389,6.208-0.83,13.242-1.202,21.244c-0.064,1.373-0.15,2.698-0.231,3.959
				c-0.356,5.556-0.639,9.947,1.469,10.274c2.742,0.428,4.527-0.687,5.44-3.4c1.354-4.027,4.392-15.034,10.27-35.148
				c5.639-19.3,9.901-26.323,15.352-26.323c6.298,0,6.768,10.814,5.613,33.634c-0.246,4.837-0.575,10.315-0.828,16.28
				c-0.035,0.838-0.074,1.65-0.114,2.433c-0.243,4.938-0.435,8.833,0.976,10.327c0.441,0.465,1.039,0.695,1.83,0.7
				c2.73,0,3.55-2.393,4.911-6.361c0.24-0.699,0.495-1.447,0.78-2.23c9.355-25.806,16.273-48.196,25.556-48.196
				c2.786,0,4.952,2.262,4.952,6.673c0,10.183-4.978,29.858-4.978,39.834c0,3.573,1.029,6.782,2.972,9.037
				c1.995,2.314,4.785,3.549,8.07,3.575h0.072c3.105,0,6.344-1.509,9.623-4.485l0.307-0.279l0.246,0.333
				c2.16,2.902,5.643,4.461,9.406,4.172c5.77-0.449,10.611-5.586,12.409-10.432l0.354-0.948l0.353,0.948
				C-11.815,155.996-8.921,160.328-2.733,159.828z M50.437,92.397l0.1-0.002c0.658,0,1.236,0.33,1.719,0.982
				c2.291,3.099,2.326,14.403-1.617,27.267c-2.25,7.352-5.278,14.297-8.754,20.083l-0.555,0.921l-0.143-1.066
				c-0.406-3.11-0.609-6.35-0.75-9.107C39.429,112.033,45.312,92.662,50.437,92.397z M-13.587,137.839
				c-2.02,8.126-5.893,17.934-12.873,18.495c-0.195,0.013-0.387,0.024-0.57,0.024c-2.896,0-4.52-1.897-4.826-5.637
				c-0.383-4.681,1.635-10.162,5.141-13.968c2.23-2.424,4.75-3.758,7.088-3.758h0.049c2.951,0.022,5.021,2.393,5.973,4.604
				l0.051,0.114L-13.587,137.839z"/>
			<path fill="#231F20" d="M145.927,85.726L145.927,85.726L145.927,85.726z"/>
			<path fill="#231F20" d="M18.796,108.05c-2.576,0-4.66,2.031-4.678,4.527c-0.02,2.514,2.049,4.576,4.609,4.595l0.037,0.375l0,0
				v-0.375c2.539,0,4.621-2.028,4.639-4.525C23.425,110.132,21.356,108.07,18.796,108.05z"/>
			<path fill="#231F20" d="M180.845,108.05c-2.578,0-4.66,2.031-4.681,4.527c-0.02,2.514,2.047,4.576,4.609,4.595l0.035,0.375l0,0
				v-0.375c2.541,0,4.623-2.028,4.643-4.525C185.47,110.132,183.403,108.07,180.845,108.05z"/>
		</g>
		<g>
			<path fill="#231F20" d="M307.038,156.167c-1.744,0-3.166,1.421-3.166,3.168c0,1.744,1.422,3.163,3.166,3.163
				s3.164-1.419,3.164-3.163C310.202,157.588,308.782,156.167,307.038,156.167z M307.038,162.039c-1.498,0-2.707-1.206-2.707-2.704
				c0-1.499,1.209-2.707,2.707-2.707c1.496,0,2.705,1.208,2.705,2.707C309.743,160.833,308.534,162.039,307.038,162.039z"/>
			<path fill="#231F20" d="M308.438,158.507c0-0.653-0.32-1.011-1.146-1.011h-1.403v3.647h0.461v-1.597h0.653l1.091,1.597h0.518
				l-1.088-1.597C308.015,159.462,308.438,159.181,308.438,158.507z M306.937,159.137h-0.588v-1.233h0.815
				c0.389,0,0.816,0.136,0.816,0.603C307.981,159.113,307.437,159.137,306.937,159.137z"/>
		</g>
	</g>
	<g>
		<path fill="#231F20" d="M-146.936,163.292c-0.013-0.344-0.043-0.672-0.081-0.98c-0.025-0.205-0.063-0.408-0.114-0.605
			c-0.085-0.457-0.19-0.911-0.344-1.342l-0.003-0.008c-0.316-0.896-0.805-1.756-1.433-2.481c-0.625-0.724-1.375-1.297-2.124-1.693
			l-0.023-0.014c-0.799-0.419-1.585-0.652-2.297-0.789c-0.21-0.038-0.405-0.058-0.6-0.079c0.911-3.901-0.229-6.88-0.966-8.272
			c0.057-0.055,0.117-0.109,0.171-0.162c0.973-0.939,1.799-1.838,2.494-2.741l0.132-0.18c0.56-0.802,0.928-1.624,1.164-2.378
			c0.201-0.648,0.3-1.235,0.358-1.77l0.006,0.001l0.006-0.033l0.003-0.077l0.022-0.165h-0.013l0.01-0.185h0.004l0.002-0.11
			c0.004-0.109,0.007-0.223,0.007-0.342c0.005-0.221,0.004-0.45-0.007-0.702c-0.053-1.208-0.272-2.779-1.065-4.48
			c-0.397-0.847-0.944-1.718-1.674-2.525c-0.725-0.806-1.63-1.54-2.671-2.121l0.006,0.002c-0.077-0.042-0.135-0.083-0.205-0.124
			c-2.161-3.181-4.629-5.647-6.817-7.518c-1.135-0.97-2.195-1.779-3.097-2.44c-0.895-0.657-1.648-1.175-2.069-1.486l0.005,0.003
			c-0.963-0.706-1.678-1.131-2.021-1.325c-0.788-0.479-1.375-0.861-1.729-1.128c-0.275-0.209-0.411-0.344-0.461-0.398l-0.027-0.035
			c-0.004-0.008-0.035-0.067-0.076-0.281c-0.044-0.212-0.092-0.576-0.113-1.101c-0.036-0.826-0.008-2.035,0.083-3.631
			c0.145-2.568,0.436-6.112,0.738-10.913c0.1-1.528,0.114-2.967,0.059-4.322c-0.09-2.174-0.371-4.145-0.826-5.929l-0.002-0.009
			c-0.1-0.406-0.215-0.806-0.337-1.198l-0.002-0.005l-0.002-0.004c-0.091-0.292-0.172-0.514-0.221-0.656l0.003,0.008
			c-0.092-0.26-0.187-0.519-0.292-0.782l-0.002-0.011c-0.053-0.127-0.118-0.292-0.205-0.496l-0.001-0.005l-0.001-0.003
			c-0.165-0.387-0.352-0.803-0.589-1.251l-0.063-0.12l-0.119-0.212l-0.084-0.141c-0.438-0.72-0.901-1.378-1.385-1.989
			c-0.244-1.104-0.668-2.738-1.374-4.595c-0.625-1.634-1.463-3.447-2.654-5.234c-0.414-0.616-0.884-1.227-1.399-1.824l0.171-0.178
			c0.242-0.252,5.965-6.247,10.447-14.026c8.354-14.499,5.573-23.364,1.771-28.248l-0.108-0.136l-0.114-0.129
			c-3.666-4.074-8.652-6.529-14.819-7.295c-12.772-1.589-27.217,4.679-31.004,6.461l-6.885-7.605l-0.025-0.028
			c-0.609-0.669-1.285-1.267-2.01-1.792c-0.729-0.525-1.51-0.979-2.33-1.359c-1.646-0.763-3.45-1.241-5.372-1.48
			c-3.853-0.475-8.179-0.014-12.883,1.193c-7.051,1.818-14.971,5.341-23.249,10.307c-8.275,4.964-16.897,11.381-25.269,19.016
			c-10.229,9.33-18.679,19.193-24.835,28.556c-3.076,4.681-5.581,9.239-7.441,13.561c-1.858,4.326-3.08,8.414-3.55,12.197
			c-0.342,2.75-0.287,5.348,0.265,7.743c0.241,1.049,0.587,2.055,1.031,3.008c0.569,1.226,1.306,2.362,2.223,3.368l0.022,0.024
			l7.213,7.554l0.798,0.835l-0.046,0.08c-0.087,0.152-0.168,0.305-0.254,0.458c-0.124,0.228-0.248,0.455-0.367,0.685
			c-0.079,0.157-0.157,0.314-0.233,0.473c-0.115,0.235-0.225,0.468-0.334,0.706c-0.073,0.158-0.143,0.319-0.212,0.48
			c-0.105,0.241-0.208,0.483-0.304,0.729c-0.064,0.161-0.127,0.322-0.19,0.485c-0.093,0.247-0.182,0.5-0.271,0.751
			c-0.056,0.164-0.113,0.326-0.166,0.49c-0.084,0.257-0.161,0.516-0.238,0.776c-0.022,0.072-0.046,0.142-0.067,0.215
			c-0.026,0.091-0.05,0.185-0.076,0.277c-0.074,0.266-0.14,0.536-0.205,0.805c-0.039,0.161-0.081,0.323-0.118,0.487
			c-0.025,0.118-0.051,0.235-0.075,0.354c-0.035,0.167-0.065,0.333-0.098,0.501c-0.029,0.151-0.062,0.303-0.088,0.455
			c-0.06,0.338-0.109,0.683-0.156,1.025c-0.013,0.101-0.032,0.2-0.045,0.302l-0.003,0.029l-0.008,0.091
			c-0.027,0.224-0.046,0.449-0.07,0.676c-0.033,0.354-0.062,0.708-0.08,1.066c-0.012,0.156-0.019,0.316-0.026,0.476
			c-0.004,0.122-0.014,0.243-0.019,0.368c-0.006,0.249-0.003,0.501-0.004,0.755c0,0.15-0.002,0.301,0,0.455
			c0.001,0.09-0.002,0.18,0,0.271v0.032v0.019c0.004,0.163,0.011,0.326,0.016,0.487c0.008,0.178,0.024,0.353,0.035,0.529
			c0.008,0.131,0.011,0.263,0.019,0.393c0.011,0.116,0.018,0.204,0.026,0.279c0.014,0.166,0.03,0.334,0.047,0.499
			c0.017,0.19,0.038,0.394,0.066,0.626l0.001,0.02v-0.003c0.013,0.09,0.022,0.151,0.032,0.222c0.026,0.188,0.056,0.376,0.084,0.564
			c0.022,0.168,0.052,0.356,0.09,0.592c0.019,0.094,0.033,0.173,0.047,0.242c0.021,0.114,0.044,0.227,0.067,0.337l0.001,0.009
			l0.003,0.015l0.03,0.144c0.028,0.155,0.068,0.351,0.127,0.617c0.016,0.071,0.028,0.119,0.042,0.18
			c0.042,0.169,0.074,0.296,0.099,0.386l0.041,0.172c0.014,0.056,0.028,0.108,0.047,0.188l0.041,0.159l0.037,0.133l0.03,0.12
			c0.018,0.06,0.03,0.101,0.047,0.156l0.043,0.164c0.038,0.127,0.081,0.252,0.119,0.379c0.046,0.148,0.104,0.345,0.19,0.609
			l-0.014-0.043l0.016,0.049c0.021,0.063,0.036,0.105,0.056,0.158c0.076,0.219,0.138,0.387,0.168,0.474l0.005,0.01v0.001
			c0.051,0.144,0.125,0.354,0.229,0.628l0.002,0.004l0.001,0.006l-0.001-0.006l0.009,0.025l-0.004-0.013l0.046,0.113
			c0.067,0.169,0.12,0.3,0.164,0.4l0.052,0.129l0.008,0.02c0.027,0.065,0.063,0.153,0.106,0.254c0.04,0.095,0.087,0.207,0.143,0.334
			l-0.005-0.01l0.058,0.122c0.052,0.117,0.101,0.228,0.146,0.317c0.043,0.086,0.079,0.165,0.109,0.228l-0.004-0.01l0.006,0.014l0,0
			l0.004,0.01l-0.004-0.01c0.066,0.141,0.148,0.321,0.262,0.545l0.009,0.021l0.006,0.012l0.048,0.094
			c0.049,0.092,0.095,0.183,0.136,0.26c0.059,0.111,0.113,0.207,0.154,0.288l0.008,0.017c0.062,0.112,0.147,0.277,0.265,0.488
			l0.008,0.014l0.007,0.016l0.049,0.082c0.048,0.085,0.094,0.167,0.138,0.239c0.074,0.127,0.145,0.24,0.199,0.335l0.017,0.026
			l0.003,0.008c0.057,0.091,0.145,0.238,0.267,0.435l0.011,0.018l0.035,0.057c0.06,0.094,0.119,0.185,0.173,0.267
			c0.087,0.13,0.165,0.248,0.232,0.349l-0.011-0.017c0.073,0.107,0.172,0.261,0.31,0.454l0.011,0.017l0.006,0.012l-0.013-0.021
			l0.014,0.021l0.011,0.015l-0.003-0.002l0.005,0.007l0.001,0.001c0.065,0.092,0.13,0.183,0.195,0.273
			c0.09,0.125,0.176,0.242,0.252,0.344l-0.005-0.007c0.073,0.099,0.165,0.223,0.276,0.369l0.023,0.032
			c0.084,0.109,0.164,0.21,0.242,0.308c0.101,0.127,0.198,0.247,0.289,0.356l0.03,0.038c0.062,0.074,0.133,0.164,0.23,0.277
			l0.042,0.051l-0.001,0.001l0.014,0.018l0.025,0.027l0,0c0.145,0.17,0.274,0.315,0.405,0.461l0.138,0.159v-0.001l0.001,0.002
			l0.006,0.006l0.01,0.01l-0.003-0.002c0.065,0.071,0.144,0.162,0.243,0.266l0.03,0.035l0.001,0.002l0.005,0.004l0.019,0.02
			l-0.005-0.004c0.157,0.169,0.31,0.325,0.464,0.482c0.063,0.064,0.127,0.135,0.19,0.197l0.008,0.008
			c0.033,0.032,0.108,0.11,0.228,0.231l0.024,0.021l0.069,0.072c0.187,0.183,0.38,0.358,0.572,0.534l0.044,0.044l0.013,0.01
			l0.005,0.005l0.007,0.006c0.048,0.043,0.128,0.117,0.242,0.22l0.013,0.013c0.246,0.218,0.494,0.43,0.739,0.635l0.014,0.012
			l0.14,0.115l0.095,0.078l-0.003-0.003l0.143,0.113c0.208,0.167,0.413,0.329,0.609,0.479l0.055,0.043l0.025,0.019
			c0.076,0.056,0.131,0.097,0.162,0.122l0.038,0.029l0.03,0.021c0.058,0.041,0.114,0.081,0.173,0.124
			c0.175,0.125,0.349,0.249,0.525,0.37l0.148,0.104l0.017,0.012l0.183,0.125l0.007,0.003l0.094,0.06
			c0.178,0.12,0.368,0.238,0.556,0.358c0.099,0.063,0.189,0.124,0.292,0.187l0.16,0.097l0.091,0.053l0.059,0.035
			c0.293,0.176,0.569,0.335,0.821,0.474l0.024,0.013l0.157,0.084l0.011,0.008c0.349,0.187,0.681,0.357,0.995,0.512l0.054,0.026
			l0.171,0.082l0.001-0.001c0.17,0.082,0.334,0.153,0.503,0.229c0.078,0.037,0.159,0.074,0.238,0.109
			c0.095,0.042,0.195,0.093,0.29,0.133l0.081,0.036l0.024,0.01l0.038,0.017c0.164,0.068,0.324,0.127,0.484,0.193l0.083,0.031
			c0.181,0.073,0.362,0.149,0.542,0.218l0.043,0.016l0.133,0.048c0.084,0.03,0.172,0.057,0.257,0.087l0.079,0.027
			c0.259,0.092,0.517,0.186,0.78,0.27l0.062,0.019l0.022,0.007l0.009,0.005c0.405,0.126,0.809,0.243,1.212,0.352l0.016,0.004
			l0.068,0.017l-0.023-0.005c0.357,0.093,0.708,0.174,1.055,0.252h0.004l0.128,0.034l0.135,0.028c0.332,0.072,0.669,0.131,1.01,0.19
			l0.096,0.026l0.24,0.037c0.205,0.033,0.409,0.06,0.614,0.088c0.032,0.085,0.062,0.168,0.089,0.24l0.003,0.011
			c0.56,1.527,1.166,3.047,1.818,4.555c9.608,26.588,36.167,47.198,66.474,50.967c30.309,3.768,62.661-16.376,75.841-43.597
			c0.568-1.042,1.087-2.063,1.56-3.054c1.307-1.345,2.322-2.741,2.996-4.22C-147.131,166.62-146.86,164.79-146.936,163.292z"/>
		<polygon fill="#654E44" points="-173.589,85.264 -173.585,85.271 -173.583,85.273 		"/>
		<polygon fill="#654E44" points="-307.326,159.697 -307.327,159.695 -307.329,159.695 		"/>
		<polygon fill="#654E44" points="-315.909,151.655 -315.907,151.658 -315.907,151.656 		"/>
		<polygon fill="#654E44" points="-315.905,151.663 -315.903,151.664 -315.907,151.658 		"/>
		<polygon fill="#654E44" points="-319.923,143.149 -319.927,143.137 -319.929,143.134 		"/>
		<polygon fill="#654E44" points="-320.263,141.804 -320.264,141.799 -320.266,141.798 		"/>
		<polygon fill="#654E44" points="-315.128,152.722 -315.117,152.735 -315.132,152.718 -315.139,152.707 		"/>
		<path fill="#969696" d="M-172.859,30.417c-1.467-1.631-3.165-2.861-5.01-3.772c-0.34-0.125-0.682-0.25-1.032-0.352
			c-0.172-0.114-0.346-0.222-0.523-0.326c-1.631-0.624-3.357-1.032-5.132-1.26c-8.806-1.133-18.831,2.072-24.563,4.35
			c-0.314,0.131-0.631,0.262-0.952,0.398c-0.482,0.207-0.967,0.416-1.459,0.632c-0.827,0.364-1.662,0.745-2.517,1.143
			c-0.124,0.058-0.248,0.116-0.372,0.175l-1.556-1.808l-0.703-0.816l-0.647-0.753l-0.279-0.326l-5.909-6.861l-0.514-0.596
			l-0.634-0.737l-0.114,0.025l-1.671,0.378l-1.931,0.437c-1.068-0.495-2.335-0.849-3.803-1.031
			c-2.938-0.371-6.671-0.03-10.922,1.068c-4.252,1.092-9.02,2.927-14.076,5.445c-10.112,5.032-21.37,12.788-32.203,22.67
			c-3.78,3.447-7.305,6.968-10.545,10.5c-3.147,3.426-6.026,6.864-8.609,10.254c-5.245,6.884-9.265,13.579-11.833,19.551
			c-1.714,3.98-2.775,7.637-3.162,10.766c-0.286,2.275-0.211,4.264,0.169,5.909c0.125,0.531,0.288,1.015,0.471,1.477
			c0.383,0.971,0.887,1.808,1.538,2.525l6.554,6.867l0.703,0.734l0.046-0.049c0.2-0.231,0.404-0.462,0.612-0.688l0.055-0.06
			c0.076-0.081,0.154-0.157,0.23-0.235c0.197-0.206,0.395-0.411,0.598-0.613c0.126-0.124,0.254-0.242,0.382-0.364
			c0.125-0.118,0.246-0.238,0.373-0.355c0.058-0.051,0.116-0.1,0.175-0.152c0.133-0.12,0.271-0.24,0.409-0.358
			c0.192-0.165,0.384-0.33,0.582-0.492c0.116-0.094,0.232-0.187,0.349-0.281l0.051-0.04c0.208-0.163,0.419-0.323,0.63-0.48
			c0.133-0.1,0.267-0.197,0.401-0.295c0.219-0.155,0.443-0.31,0.667-0.46c0.135-0.09,0.268-0.181,0.404-0.268
			c0.23-0.15,0.465-0.295,0.7-0.439c0.137-0.083,0.27-0.165,0.406-0.245c0.246-0.144,0.495-0.281,0.744-0.417
			c0.133-0.071,0.263-0.146,0.396-0.215l0.15-0.08l0.022-0.013c0.211-0.108,0.427-0.209,0.641-0.313
			c0.121-0.057,0.237-0.117,0.359-0.175c0.179-0.083,0.363-0.161,0.545-0.242c0.159-0.068,0.315-0.14,0.476-0.207l0.178-0.078
			c0.404-0.165,0.812-0.32,1.225-0.466c0.13-0.048,0.265-0.088,0.396-0.134c0.142-0.046,0.283-0.095,0.428-0.14l0.167-0.057
			c0.085-0.026,0.171-0.056,0.255-0.081c0.176-0.053,0.354-0.099,0.529-0.149l0.131-0.034c0.205-0.057,0.408-0.114,0.614-0.165
			c0.192-0.051,0.385-0.092,0.579-0.136c0.24-0.056,0.479-0.109,0.72-0.159c0.1-0.021,0.2-0.042,0.301-0.062
			c0.101-0.019,0.205-0.033,0.307-0.051c0.235-0.043,0.474-0.084,0.71-0.121c0.211-0.032,0.421-0.059,0.63-0.089
			c0.17-0.021,0.336-0.044,0.505-0.063c0.069-0.006,0.137-0.013,0.206-0.018c0.078-0.009,0.152-0.021,0.229-0.027l0.127-0.008
			c0.841-0.033,1.76-0.027,2.766,0.048l0.153,0.011c1.015,0.083,2.113,0.244,3.266,0.489c0.276,0.059,0.55,0.115,0.834,0.186
			c0.059-0.109,0.119-0.221,0.178-0.329c0.611-1.095,1.229-2.164,1.853-3.212c3.65-6.12,7.565-11.469,11.561-16.132
			c1.363-1.593,2.738-3.109,4.112-4.547c5.732-5.984,11.497-10.645,16.768-14.244c1.171-0.799,2.318-1.546,3.435-2.244
			c1.521-0.95,2.985-1.809,4.379-2.58c1.134-0.629,2.221-1.201,3.254-1.719c1.721-0.866,3.288-1.584,4.667-2.175
			c0.427-0.182,0.837-0.354,1.225-0.511c0.602-0.245,1.158-0.462,1.663-0.652c-0.435-0.045-0.876-0.081-1.326-0.104
			c-0.42-0.021-0.847-0.03-1.278-0.031c-0.109-0.001-0.216,0-0.325,0c-0.435,0.005-0.875,0.017-1.32,0.044
			c-0.845,0.051-1.707,0.139-2.59,0.278c-0.295,0.046-0.591,0.099-0.891,0.157c2.193-1.135,4.358-1.987,6.446-2.628
			c1.388-0.427,2.745-0.761,4.047-1.015c1.796-0.347,3.493-0.549,5.059-0.651c1.05-0.067,2.039-0.091,2.953-0.083
			c0.922,0.009,1.769,0.049,2.531,0.106c2.662,0.2,4.265,0.606,4.265,0.606c-0.377-0.532-0.853-0.996-1.37-1.4
			c-0.942-0.73-2.027-1.253-2.979-1.624c-0.374-0.146-0.731-0.271-1.044-0.37c-0.25-0.079-0.481-0.146-0.673-0.198
			c0.449-0.078,0.892-0.142,1.329-0.201c0.464-0.063,0.922-0.116,1.373-0.159c3.836-0.358,7.19-0.029,9.71,0.439
			c3.039,0.563,4.869,1.327,4.869,1.327c-0.433-0.845-1.075-1.565-1.778-2.174c-0.513-0.442-1.053-0.825-1.57-1.145
			c1.018,0.236,1.985,0.498,2.906,0.779c2.43,0.742,4.497,1.605,6.123,2.39c0.526,0.254,1.008,0.499,1.44,0.729
			c0.124,0.066,0.237,0.128,0.351,0.191c1.488,0.812,2.311,1.395,2.311,1.395c-0.249-0.875-0.754-1.702-1.344-2.444
			c-0.147-0.186-0.298-0.371-0.452-0.544l0.071,0.033c0.054,0.017,0.172,0.055,0.333,0.109c0.119,0.04,0.262,0.09,0.433,0.152
			c0.646,0.235,1.638,0.63,2.801,1.208c0.055,0.027,0.113,0.056,0.17,0.085c0.158,0.081,0.319,0.163,0.48,0.249
			c0.4,0.211,0.813,0.444,1.234,0.695c0.392,0.234,0.793,0.485,1.196,0.756c0.208,0.14,0.415,0.284,0.623,0.433
			c0.444,0.318,0.885,0.66,1.323,1.026c0.447,0.374,0.889,0.774,1.315,1.2c0.083,0.084,0.169,0.167,0.253,0.254
			c0.313,0.321,0.613,0.658,0.903,1.007c0.552,0.66,1.063,1.372,1.517,2.138c0.544,0.919,1.008,1.913,1.354,2.993
			c0.019,0.06,0.035,0.124,0.052,0.185c0.25-0.27,0.693-0.754,1.27-1.416C-178.458,59.176-164.371,41.315-172.859,30.417z"/>
		<polygon fill="#8F694C" points="-187.396,70.848 -187.394,70.849 -187.403,70.843 		"/>
		<path fill="#969696" d="M-230.385,27.351l-0.265-3.254l1.629-3.606l0,0l0.644-0.145c-1.068-0.495-2.335-0.849-3.803-1.031
			c-2.938-0.371-6.671-0.03-10.922,1.068c-4.252,1.092-9.02,2.927-14.076,5.445c-10.112,5.032-21.37,12.788-32.203,22.67
			c-3.78,3.447-7.305,6.968-10.545,10.5c-3.147,3.426-6.026,6.864-8.609,10.254c-5.245,6.884-9.265,13.579-11.833,19.551
			c-1.714,3.98-2.775,7.637-3.162,10.766c-0.286,2.275-0.211,4.264,0.169,5.909c0.125,0.531,0.288,1.015,0.471,1.477
			c0.383,0.971,0.887,1.808,1.538,2.525l6.554,6.867l0.703,0.734l0.046-0.049c0.2-0.231,0.404-0.462,0.612-0.688l0.055-0.06
			c0.076-0.081,0.154-0.157,0.23-0.235c0.197-0.206,0.395-0.411,0.598-0.613c0.126-0.124,0.254-0.242,0.382-0.364
			c0.125-0.118,0.246-0.238,0.373-0.355c0.058-0.051,0.116-0.1,0.175-0.152c0.133-0.12,0.271-0.24,0.409-0.358
			c0.192-0.165,0.384-0.33,0.582-0.492c0.116-0.094,0.232-0.187,0.349-0.281l0.051-0.04c0.208-0.163,0.419-0.323,0.63-0.48
			c0.133-0.1,0.267-0.197,0.401-0.295c0.219-0.155,0.443-0.31,0.667-0.46c0.135-0.09,0.268-0.181,0.404-0.268
			c0.23-0.15,0.465-0.295,0.7-0.439c0.137-0.083,0.27-0.165,0.406-0.245c0.246-0.144,0.495-0.281,0.744-0.417
			c0.133-0.071,0.263-0.146,0.396-0.215l0.15-0.08l0.008-0.027c1.569-4.343,3.92-9.059,6.967-13.973
			c3.745-6.035,8.528-12.364,14.207-18.668c3.571-3.966,7.492-7.921,11.726-11.784c5.478-4.992,11.061-9.447,16.569-13.307
			c3.71-2.6,7.381-4.916,10.964-6.947c0.339-0.193,0.681-0.392,1.018-0.578c0.955-0.529,1.901-1.031,2.841-1.515
			c2.046-1.058,4.058-2.018,6.018-2.866l-0.961-1.154l-0.159-0.189l-1.181-1.42l-6.779-8.152l0.062-5.831l-0.074-0.085l4.782-1.426
			L-230.385,27.351z"/>
		<path fill="#C8C8C8" d="M-151.806,163.854l0.003-0.001c0,0,0.165-1.236-0.489-2.343l-0.014-0.03
			c-0.039-0.067-0.08-0.125-0.121-0.185l-0.043-0.064c-0.071-0.097-0.158-0.189-0.248-0.282c-0.16-0.168-0.347-0.327-0.569-0.467
			c-0.116-0.076-0.241-0.146-0.376-0.212c-0.371-0.178-0.815-0.313-1.343-0.389c-0.386-0.057-0.827-0.073-1.307-0.059
			c-0.194,0.008-0.386,0.011-0.595,0.03l-0.095,0.006c0,0,0.014,0.052,0.035,0.128c0.022,0.081,0.052,0.196,0.093,0.35
			c0.015,0.06,0.03,0.123,0.048,0.191c0.068,0.274,0.151,0.622,0.234,1.015c-0.001,0.003-0.025,0.08-0.086,0.224l-0.033,0.076
			c-0.241,0.558-0.895,1.85-2.351,3.528c-0.247,0.285-0.521,0.584-0.816,0.891c-4.063,4.197-12.854,10.173-31.352,13.518
			c-6.277,0.885-12.063,0.934-17.006,0.319c-7.309-0.909-12.785-3.244-15.333-6.384c-0.222-0.27-0.424-0.547-0.616-0.828
			c-0.143-0.207-0.28-0.417-0.406-0.628c-0.046-0.078-0.087-0.158-0.132-0.235c-1.095-1.936-1.572-4.046-1.544-6.089
			c0.035-2.481,0.809-4.855,2.119-6.68c1.063-1.48,2.476-2.598,4.129-3.115c0.811-0.253,1.677-0.366,2.587-0.304
			c0.184,0.013,0.427,0.039,0.73,0.076c0.607,0.076,1.456,0.195,2.498,0.33c0.116,0.014,0.224,0.028,0.346,0.043
			c3.471,0.432,8.999,0.953,15.684,0.545c12.162-0.741,28.169-4.568,42.704-17.674l0.04-0.052v-0.002v-0.021
			c0.049-1.098-0.098-3.081-1.485-4.622c-0.242-0.27-0.525-0.525-0.847-0.762c-0.184-0.135-0.375-0.264-0.587-0.384
			c-0.213-0.119-0.409-0.238-0.598-0.358c-0.256-0.161-0.5-0.322-0.715-0.482l-0.032-0.046c-0.099-0.154-0.203-0.303-0.303-0.457
			c-3.771-5.709-8.964-9.024-11.036-10.543c-0.977-0.719-1.599-1.046-1.599-1.046c-4.484-2.732-5.143-3.639-4.724-11.058
			c0.151-2.673,0.44-6.185,0.738-10.945c0.04-0.62,0.059-1.208,0.069-1.786c0.003-0.139,0.006-0.273,0.006-0.41
			c0.004-0.546-0.001-1.081-0.022-1.593l-0.004-0.146l-0.013-0.159c-0.021-0.402-0.05-0.792-0.083-1.173
			c-0.016-0.168-0.032-0.336-0.049-0.501c-0.044-0.406-0.095-0.803-0.159-1.184c-0.032-0.195-0.07-0.384-0.105-0.573
			c-0.041-0.214-0.083-0.423-0.127-0.628c-0.044-0.202-0.089-0.404-0.138-0.598l-0.001-0.001l0.001-0.002v0.002
			c-0.061-0.239-0.13-0.465-0.196-0.692c-0.025-0.082-0.043-0.169-0.071-0.249c-0.025-0.078-0.052-0.147-0.076-0.224l-0.025-0.074
			l-0.076-0.217l-0.003-0.016c-0.062-0.174-0.127-0.346-0.19-0.512l-0.021-0.056l-0.065-0.157l-0.078-0.194l-0.017-0.038v-0.002
			v-0.003c-0.135-0.314-0.276-0.621-0.426-0.906l-0.119-0.211c-0.169-0.281-0.344-0.544-0.522-0.798l-0.071-0.107l-0.089-0.117
			c-0.127-0.174-0.255-0.346-0.384-0.506l-0.175-0.221c-0.172-0.203-0.343-0.401-0.516-0.585l-0.002-0.001
			c-0.212-0.223-0.423-0.435-0.639-0.63c-0.248-0.154-0.49-0.292-0.735-0.412c-0.08-0.043-0.16-0.073-0.241-0.107
			c-0.161-0.077-0.324-0.149-0.486-0.21c-0.094-0.035-0.186-0.063-0.279-0.095c-0.145-0.046-0.292-0.094-0.438-0.132
			c-0.095-0.024-0.194-0.044-0.289-0.063c-0.143-0.03-0.282-0.056-0.423-0.075c-0.097-0.014-0.192-0.025-0.289-0.033
			c-0.14-0.014-0.281-0.021-0.42-0.025c-0.095-0.003-0.189-0.005-0.281-0.003c-0.145,0.003-0.287,0.01-0.43,0.021
			c-0.087,0.008-0.176,0.014-0.263,0.023l-0.192,0.029c-0.087,0.016-0.175,0.025-0.265,0.043c-0.076,0.013-0.154,0.025-0.229,0.041
			c-0.178,0.037-0.354,0.083-0.53,0.133l-0.154,0.04c-0.463,0.138-0.925,0.316-1.382,0.524l-0.152,0.071
			c-0.179,0.083-0.357,0.168-0.535,0.261l-0.205,0.109c-0.162,0.083-0.324,0.173-0.484,0.263l-0.219,0.128
			c-0.159,0.092-0.317,0.186-0.476,0.284l-0.216,0.133c-0.165,0.104-0.332,0.209-0.499,0.317l-0.184,0.12
			c-0.188,0.123-0.376,0.248-0.563,0.376l-0.112,0.075c-0.211,0.144-0.425,0.292-0.64,0.439l-0.008,0.006l-0.033,0.021h0.002
			c-0.399,0.275-0.798,0.556-1.202,0.836c-0.338,0.236-0.682,0.471-1.028,0.706l-0.167,0.114c-0.349,0.233-0.701,0.462-1.055,0.688
			l-0.178,0.113c-0.355,0.22-0.712,0.436-1.072,0.639l-0.188,0.106c-0.362,0.203-0.73,0.394-1.101,0.576l-0.185,0.086
			c-0.375,0.179-0.759,0.346-1.146,0.491l-0.16,0.06c-0.4,0.148-0.806,0.281-1.219,0.391l-0.107,0.026
			c-0.436,0.111-0.873,0.201-1.32,0.262c-0.752,0.103-1.505,0.135-2.261,0.14c-1.231,0.005-2.467-0.095-3.707-0.279
			c-0.414-0.063-0.832-0.136-1.247-0.212c-0.147-0.027-0.295-0.049-0.441-0.078c-1.082-0.211-2.17-0.462-3.266-0.727
			c-0.46-0.109-0.92-0.221-1.381-0.333c-0.743-0.181-1.493-0.355-2.244-0.526c-0.148-0.034-0.292-0.072-0.442-0.104l0.007-0.002
			c-0.105-0.021-0.211-0.044-0.318-0.066c-0.167-0.036-0.333-0.071-0.498-0.109c-0.158-0.032-0.319-0.063-0.478-0.095l-0.082-0.017
			l-0.056-0.01c-0.146-0.03-0.292-0.059-0.438-0.087c-0.34-0.065-0.683-0.125-1.026-0.183c-0.101-0.018-0.204-0.03-0.305-0.046
			c-0.255-0.04-0.509-0.08-0.763-0.114c-0.128-0.019-0.259-0.032-0.386-0.046l-0.028-0.002c-0.222-0.029-0.444-0.056-0.666-0.076
			c-0.148-0.016-0.297-0.027-0.442-0.041c-0.067-0.005-0.134-0.01-0.202-0.015c-0.151-0.011-0.305-0.024-0.457-0.033
			c-0.146-0.009-0.292-0.018-0.439-0.023c-0.235-0.01-0.465-0.016-0.697-0.019c-0.07-0.002-0.14-0.002-0.209-0.003
			c-0.063-0.001-0.13-0.003-0.195-0.003c-0.287,0-0.58,0.007-0.871,0.02c-0.076,0.001-0.155,0.001-0.232,0.006
			c-0.371,0.016-0.743,0.046-1.116,0.083c-0.097,0.01-0.194,0.024-0.292,0.035c-0.241,0.028-0.483,0.06-0.726,0.099l-0.108,0.014
			c-0.131,0.021-0.267,0.044-0.398,0.068c-0.25,0.046-0.495,0.094-0.744,0.147c-0.145,0.032-0.287,0.063-0.43,0.101
			c-0.245,0.058-0.493,0.124-0.741,0.193c-0.14,0.04-0.281,0.078-0.422,0.123c-0.268,0.081-0.534,0.173-0.802,0.268
			c-0.122,0.041-0.243,0.08-0.365,0.127c-0.392,0.144-0.78,0.303-1.175,0.477c-3.082,1.775-5.729,4.197-7.834,7.023
			c-0.701,0.94-1.343,1.927-1.919,2.948c-0.611,1.083-1.141,2.205-1.601,3.357c-0.135,0.335-0.264,0.671-0.386,1.012
			c-0.201,0.574-0.393,1.153-0.556,1.74c-0.018,0.062-0.031,0.127-0.048,0.189c-0.181,0.662-0.336,1.328-0.465,1.999
			c-0.136,0.703-0.241,1.409-0.319,2.118c-0.042,0.382-0.081,0.767-0.106,1.15c-0.066,1.033-0.059,2.069,0.003,3.103
			c0.005,0.094,0.013,0.189,0.019,0.281c0.018,0.265,0.027,0.528,0.055,0.792c0.077,0.736,0.181,1.472,0.329,2.202
			c0.052,0.271,0.125,0.525,0.19,0.785c0.061,0.249,0.116,0.505,0.183,0.748v-0.001c0.515,1.864,1.258,3.544,2.14,5.07
			c3.358,5.802,8.88,9.272,12.88,11.134c1.556,0.686,3.181,1.299,4.869,1.837c0,0-0.079,0.05-0.204,0.133
			c-0.298,0.075-0.647,0.167-1.034,0.277c-0.585,0.165-1.261,0.37-2.006,0.622c-0.837,0.282-1.761,0.621-2.734,1.024
			c-2.597,1.077-5.544,2.606-8.157,4.72c-0.327,0.263-0.648,0.536-0.963,0.818c-0.536,0.482-1.046,0.997-1.539,1.535
			c-0.055,0.062-0.116,0.12-0.169,0.182c-0.075,0.083-0.148,0.168-0.221,0.252c-0.186,0.216-0.369,0.438-0.547,0.665
			c-0.072,0.09-0.143,0.181-0.214,0.272c-0.235,0.311-0.463,0.625-0.681,0.951c-0.212,0.32-0.417,0.65-0.61,0.985
			c-1.548,2.702-2.425,5.937-2.156,9.795l0.008-0.04l0.005-0.028c0.006-0.035,0.016-0.083,0.028-0.144l0.008-0.032
			c0.011-0.059,0.028-0.128,0.046-0.204l0.011-0.048c0.021-0.088,0.046-0.189,0.075-0.298l0.019-0.071
			c0.032-0.118,0.066-0.244,0.106-0.381l0.002-0.002c0.038-0.135,0.085-0.28,0.133-0.43l0.03-0.092
			c0.051-0.152,0.106-0.312,0.167-0.478l0.031-0.079c0.056-0.156,0.119-0.316,0.188-0.48l0.032-0.076
			c0.073-0.178,0.154-0.362,0.238-0.548l0.054-0.117c0.091-0.19,0.183-0.384,0.286-0.58l0,0c0.004-0.008,0.009-0.015,0.013-0.022
			c0.153-0.292,0.325-0.591,0.508-0.891c0.069-0.113,0.136-0.226,0.212-0.34l0.059-0.095l0.002-0.002
			c0.157-0.235,0.322-0.47,0.5-0.702c0.144-0.19,0.298-0.378,0.457-0.566c0.049-0.059,0.103-0.116,0.156-0.175
			c0.127-0.143,0.259-0.285,0.395-0.424c0.056-0.056,0.111-0.113,0.167-0.169c0.187-0.182,0.378-0.361,0.582-0.534l0.017-0.016
			v0.001v-0.001c0,0-3.513,7.95-1.985,14.253c0,0-0.001-0.019-0.001-0.052c0-0.011,0-0.026,0-0.04
			c-0.002-0.035-0.002-0.075-0.002-0.128c0-0.011,0-0.023-0.001-0.034c0.001-0.064,0.001-0.14,0.004-0.229
			c0-0.011,0-0.022,0.001-0.035c0-0.093,0.007-0.197,0.012-0.313c0-0.011,0.001-0.023,0.001-0.034
			c0.006-0.119,0.014-0.25,0.024-0.389c0-0.013,0.001-0.023,0.002-0.035c0.011-0.142,0.023-0.292,0.041-0.449
			c0.001-0.013,0.003-0.026,0.005-0.039c0.016-0.159,0.038-0.323,0.062-0.496c0.001-0.016,0.005-0.031,0.006-0.047
			c0.027-0.183,0.057-0.372,0.094-0.568l0.008-0.047l0.019-0.098v-0.004c0.042-0.22,0.094-0.444,0.152-0.672
			c0.005-0.015,0.008-0.03,0.012-0.046c0.06-0.222,0.124-0.447,0.195-0.674c0.023-0.07,0.044-0.138,0.066-0.208l0.049-0.145v-0.002
			c0.067-0.187,0.14-0.372,0.218-0.558l0.013-0.03v-0.002c0.109-0.259,0.238-0.51,0.375-0.759c0.035-0.066,0.074-0.132,0.112-0.196
			c0.145-0.246,0.298-0.487,0.472-0.716l0.007-0.011v0.001v-0.001h0.001c0,0-0.202,1.957-0.149,4.286
			c0.01,0.367,0.027,0.744,0.05,1.123c0.015,0.253,0.031,0.507,0.055,0.761c0.156-2.503,0.612-4.855,1.278-7.047
			c-0.666,2.193-1.123,4.544-1.277,7.049l0,0c-0.101,1.598-0.079,3.255,0.086,4.973c0.279,2.864,0.959,5.894,2.158,9.083
			c0,0-1.099-3.667,0.484-7.336c0.143,0.334,0.295,0.67,0.455,1.008c0.13,1.088,0.349,2.634,0.669,4.336
			c0.306,2.834,1.663,11.341,7.441,17.322c0,0-2.185-2.833-1.845-6.522c0.228,0.484,0.454,0.921,0.669,1.298
			c0.988,1.851,2.955,5.296,5.099,7.685c0,0-1.739-3.368-1.334-4.094c0,0,5.671,7.052,7.475,7.739l-2.372-3.932l-0.054-0.116
			c8.241,5.976,19.546,8.193,33.529,4.299c2.403-0.67,4.886-1.52,7.445-2.564c1.572-0.68,3.126-1.426,4.665-2.253l0.224-0.125
			c1.077-0.588,2.144-1.221,3.204-1.888l0.024-0.014c0.796-0.501,1.584-1.025,2.365-1.569c1.307-0.922,2.602-1.891,3.863-2.945
			l0.003-0.001l0.005-0.004c0.073-0.063,0.147-0.126,0.224-0.19c1.25-1.092,2.42-2.216,3.507-3.36
			c1.436-1.51,2.725-3.054,3.893-4.601l0.085-0.112c0.285-0.382,0.564-0.762,0.836-1.138l0.076-0.111
			c0.088-0.128,0.167-0.251,0.254-0.379c0.377-0.542,0.75-1.085,1.099-1.625c0.084-0.129,0.169-0.261,0.254-0.39
			c0.181-0.287,0.355-0.572,0.529-0.854c0.132-0.221,0.267-0.442,0.395-0.662c0.142-0.239,0.285-0.478,0.422-0.715
			c0.246-0.431,0.484-0.86,0.712-1.285c0.09-0.169,0.176-0.333,0.263-0.5c0.175-0.332,0.346-0.659,0.508-0.983
			c0.076-0.151,0.152-0.303,0.226-0.453l0.066-0.142c0.204-0.408,0.397-0.814,0.584-1.213l0.035-0.084
			c0.704-0.657,1.252-1.282,1.691-1.88c0.063-0.084,0.13-0.17,0.189-0.255C-152.142,166.217-151.824,164.972-151.806,163.854z"/>
		<path fill="#C8C8C8" d="M-283.173,143.09c-0.244,0.076-0.519,0.399-0.795,0.839c-0.103,0.164-0.205,0.345-0.306,0.535
			c-0.739,1.389-1.406,3.315-1.406,3.315c0.053-0.644,0.123-1.312,0.201-1.982c0.01-0.078,0.021-0.155,0.03-0.233
			c0.083-0.683,0.178-1.372,0.28-2.057c0.011-0.083,0.023-0.165,0.036-0.246c0.118-0.771,0.244-1.538,0.374-2.277
			c0.017-0.097,0.032-0.19,0.049-0.286l0.01-0.049c0.016-0.085,0.03-0.172,0.046-0.258c0.022-0.127,0.044-0.254,0.068-0.38
			c0.106-0.586,0.216-1.153,0.322-1.691c0.097-0.485,0.19-0.946,0.281-1.378l0.029-0.14c0.013-0.068,0.027-0.13,0.041-0.195
			c0.014-0.063,0.027-0.129,0.04-0.194l0.005-0.023c0.024-0.107,0.048-0.22,0.07-0.322l0.006-0.027
			c0.021-0.102,0.04-0.188,0.06-0.283c0.034-0.148,0.065-0.302,0.096-0.44l0.009-0.039c0.025-0.112,0.049-0.227,0.072-0.331
			c0.034-0.148,0.066-0.284,0.093-0.414l0.001-0.004l0.001-0.003c0.017-0.074,0.032-0.138,0.048-0.207l0.003-0.013
			c0.014-0.062,0.026-0.126,0.041-0.18c0.032-0.137,0.06-0.261,0.083-0.354l0.022-0.085l0.008-0.031l0.024-0.1l0.016-0.069
			l0.003-0.009l-0.011,0.008l-0.149,0.136c-0.131,0.117-0.266,0.231-0.39,0.362l-0.135,0.149c-0.146,0.163-0.287,0.333-0.418,0.514
			l-0.07,0.088c-0.164,0.228-0.316,0.466-0.46,0.709v0.001l-0.019,0.032l-0.001,0.001l-0.058,0.108
			c-0.034,0.06-0.065,0.121-0.097,0.18c-0.083,0.153-0.169,0.3-0.244,0.454l-0.004,0.005l-0.002,0.005l-0.005,0.014l-0.028,0.057
			l-0.029,0.057c-0.118,0.243-0.224,0.484-0.324,0.722c-0.282,0.669-0.501,1.307-0.665,1.84c-0.057,0.188-0.111,0.369-0.154,0.526
			c-0.095,0.344-0.162,0.612-0.192,0.744l-0.002,0.012l-0.021,0.088v-0.002v0.002l0.008-0.104c0.011-0.205,0.034-0.408,0.051-0.611
			c0.031-0.426,0.059-0.855,0.106-1.28c0.037-0.357,0.092-0.707,0.143-1.061c0.016-0.11,0.033-0.222,0.049-0.332
			c0.022-0.164,0.045-0.327,0.071-0.489c0.023-0.152,0.057-0.302,0.086-0.45l0.001-0.012l0,0l0.032-0.167l0.009-0.045
			c0.034-0.182,0.068-0.367,0.103-0.549c0.013-0.071,0.026-0.141,0.04-0.212l0.025-0.126l0.005-0.022
			c0.012-0.06,0.025-0.121,0.038-0.18c0.015-0.074,0.035-0.146,0.05-0.217c0.06-0.267,0.125-0.529,0.187-0.793l0.012-0.044
			c0.046-0.196,0.088-0.394,0.14-0.586l0.001-0.009l0.004-0.013l0.016-0.056c0.103-0.398,0.217-0.788,0.332-1.18l0.03-0.108
			l0.031-0.108c0.022-0.073,0.04-0.149,0.063-0.222c0.189-0.636,0.392-1.264,0.607-1.878l0.028-0.077
			c0.184-0.521,0.371-1.035,0.566-1.541l0.021-0.058c0.089-0.223,0.179-0.436,0.267-0.656l0.014-0.033
			c0.133-0.328,0.265-0.658,0.401-0.976v-0.003v-0.002l0.002-0.004l0.016-0.04c0.037-0.079,0.12-0.272,0.252-0.556l0.002-0.005
			l0.019-0.039v-0.001c0.05-0.112,0.1-0.221,0.149-0.333c0.081-0.182,0.162-0.36,0.241-0.538l0.073-0.156
			c-0.114-0.062-0.233-0.117-0.35-0.175l-0.067-0.033l-0.124-0.063c-0.76-0.364-1.56-0.655-2.388-0.871l-0.131-0.032
			c-0.531-0.132-1.074-0.234-1.628-0.298l0,0c-0.32-0.036-0.642-0.066-0.969-0.079c-0.271-0.011-0.543-0.015-0.817-0.009
			c-0.412,0.009-0.818,0.043-1.218,0.088c-0.127,0.016-0.25,0.038-0.374,0.054c-0.198,0.03-0.394,0.068-0.59,0.104
			c-0.077,0.017-0.157,0.027-0.234,0.044c-0.138,0.029-0.274,0.058-0.411,0.093c-0.268,0.065-0.53,0.139-0.79,0.221
			c-0.121,0.039-0.242,0.069-0.359,0.11c-0.352,0.124-0.698,0.259-1.036,0.409c-0.134,0.06-0.26,0.129-0.391,0.19
			c-0.155,0.076-0.307,0.157-0.459,0.236l-0.157,0.08c-0.166,0.093-0.33,0.192-0.491,0.291c-0.151,0.092-0.302,0.188-0.447,0.288
			c-0.179,0.119-0.354,0.237-0.524,0.363c-0.104,0.08-0.205,0.163-0.309,0.244c-0.276,0.219-0.539,0.454-0.796,0.693
			c-0.134,0.124-0.262,0.25-0.39,0.379c-0.226,0.224-0.446,0.452-0.652,0.692l-0.104,0.12c-0.109,0.13-0.211,0.268-0.313,0.403
			l-0.016,0.019l-0.009,0.019c-0.07,0.091-0.145,0.179-0.211,0.271l-0.027,0.037l-0.027,0.037l-0.001,0.003l-0.001,0.002
			c-0.417,0.583-0.782,1.204-1.1,1.85c-0.046,0.093-0.087,0.187-0.132,0.282c-0.146,0.316-0.28,0.639-0.402,0.969
			c-0.048,0.131-0.102,0.257-0.146,0.389l-0.001,0.002v0.001l-0.003,0.001c-0.111,0.336-0.209,0.676-0.294,1.026l-0.032,0.13
			l-0.031,0.165l-0.004,0.015c-0.057,0.253-0.112,0.507-0.152,0.764c-0.021,0.126-0.033,0.255-0.05,0.384l-0.005,0.037
			c-0.016,0.136-0.03,0.274-0.044,0.412c-0.012,0.103-0.028,0.208-0.036,0.314c-0.03,0.406-0.042,0.815-0.033,1.23
			c0.008,0.321,0.037,0.636,0.066,0.952l0.002,0.018l0.01,0.146c0.018,0.175,0.048,0.347,0.073,0.52
			c0.094,0.63,0.222,1.246,0.403,1.84c0.135,0.454,0.293,0.896,0.476,1.328c0.335,0.792,0.75,1.539,1.226,2.241
			c1,1.48,2.285,2.749,3.785,3.716c0.852,0.548,1.772,0.994,2.743,1.335c0.933,0.33,1.906,0.57,2.92,0.681
			c0.228,0.024,0.458,0.041,0.69,0.057c0.346,0.023,0.691,0.037,1.044,0.03c0.325-0.007,0.641-0.047,0.96-0.078
			c0.182-0.017,0.369-0.019,0.55-0.044c0.458-0.063,0.909-0.157,1.352-0.268l0.1-0.021c0.184-0.048,0.355-0.116,0.534-0.171
			c0.558-0.169,1.097-0.375,1.62-0.615l0.114-0.051c0.146-0.063,0.297-0.123,0.438-0.195l0.018-0.006
			c-0.256-1.409-0.45-2.855-0.588-4.333C-283.148,143.296-283.162,143.194-283.173,143.09z"/>
		<polygon fill="none" points="-315.896,151.673 -315.907,151.656 -315.907,151.658 -315.903,151.664 -315.89,151.685 		"/>
		<polygon fill="#4E9DD6" points="-228.345,28.395 -228.102,28.519 -228.107,28.487 		"/>
		<path fill="#FFFFFF" d="M-156.826,160.527c-0.018-0.068-0.033-0.131-0.048-0.191c-0.041-0.153-0.071-0.269-0.093-0.35
			c-0.398-1.292-0.902-2.302-1.352-3.021c-0.574-0.929-1.05-1.388-1.05-1.388c0.096-0.328,0.171-0.646,0.239-0.961
			c0.087-0.412,0.156-0.814,0.202-1.205c0.346-2.946-0.443-5.238-1.074-6.532c-0.101-0.207-0.195-0.386-0.282-0.54
			c-0.455,0.324-0.916,0.642-1.375,0.954c-8.732,5.913-18.562,9.706-29.204,11.337c-7.333,1.124-15.049,1.229-23.071,0.252
			l0.14,0.041c0,0-4.835,0.662-6.147,5.3l0.083,0.047l-0.399,3.111c0.141,4.212,2.066,6.848,4.259,8.236
			c2.278,0.869,5.028,1.532,8.083,1.912c5.317,0.661,11.419,0.486,17.649-0.503l0.031-0.005l0.032-0.005
			c8.285-1.11,19.979-5.535,28.339-11.245c1.905-1.3,3.637-2.666,5.116-4.078l0.055-0.054l0.101-0.098
			C-156.676,161.149-156.758,160.801-156.826,160.527z"/>
		<path fill="#231F20" d="M-184.946,167.598c1.147-0.397,2.146-0.717,2.92-1.055c1.553-0.661,2.387-1.107,2.335-1.272
			c-0.053-0.168-0.99-0.042-2.64,0.332c-0.826,0.193-1.826,0.362-2.978,0.62c-0.571,0.137-1.203,0.216-1.857,0.343
			c-0.66,0.114-1.353,0.258-2.086,0.338c-1.445,0.205-3.098,0.391-4.853,0.595c-0.865,0.071-1.757,0.145-2.676,0.219
			c-0.926,0.046-1.878,0.093-2.855,0.141c-3.904,0.114-8.214-0.063-12.599-0.869c-2.313-0.407-5.402-1.458-7.625-2.72l-0.083-0.047
			c1.312-4.639,6.147-5.3,6.147-5.3l-0.14-0.041c-0.081-0.009-0.162-0.018-0.244-0.027c-0.703-0.087-1.321-0.171-1.851-0.243
			c-0.379-0.051-0.711-0.096-0.992-0.131c-0.271-0.033-0.461-0.053-0.574-0.061c-2.913-0.2-4.508,2.267-5.059,3.336
			c-0.079,0.154-0.152,0.312-0.225,0.474c-0.42,0.958-0.699,2.063-0.775,3.231c-0.143,2.179,0.418,4.573,2.089,6.611
			c1.113,1.375,3.052,2.586,5.566,3.544c-2.193-1.388-4.118-4.023-4.259-8.236c2.482,1.067,5.376,1.719,7.549,2.106
			c4.654,0.857,9.146,0.96,13.184,0.712c1.009-0.085,1.991-0.159,2.944-0.254c0.955-0.125,1.881-0.245,2.779-0.36
			c1.748-0.295,3.36-0.581,4.873-0.914c0.755-0.141,1.455-0.348,2.118-0.529C-186.149,167.951-185.521,167.806-184.946,167.598z"/>
		<path fill="#231F20" d="M-188.807,113.31c2.432,0.057,4.083,0.83,5.184,1.953c0.268-1.083,0.399-2.381,0.314-3.787
			c-0.093-1.539-0.416-2.925-0.875-4.013c-0.164-0.618-1.129-2.389-2.343-2.292c-1.566,0.095-2.66,3.064-2.449,6.637
			C-188.947,112.328-188.887,112.83-188.807,113.31z"/>
		<path fill="#231F20" d="M-184.7,122.52c0.003,0.676,0.219,1.244,0.606,1.443c0.583,0.29,1.307-0.345,1.629-1.415
			c0.03-0.093,0.048-0.188,0.07-0.278v-0.002c0.206-0.973-0.005-1.913-0.529-2.176c-0.576-0.292-1.307,0.341-1.629,1.409
			C-184.658,121.848-184.702,122.196-184.7,122.52z"/>
		<path fill="#231F20" d="M-195.742,124.244c0.258,0.419,0.646,0.825,1.143,1.142c1.05,0.666,2.216,0.722,2.808,0.186
			c0.087-0.078,0.164-0.17,0.222-0.274c0.284-0.493,0.173-1.157-0.226-1.772l-0.002-0.001c-0.258-0.399-0.636-0.78-1.11-1.082
			c-1.038-0.659-2.181-0.72-2.781-0.209c-0.099,0.084-0.188,0.179-0.252,0.293C-196.21,123.004-196.11,123.641-195.742,124.244
			L-195.742,124.244z"/>
		<path fill="#654E44" d="M-155.43,139.107L-155.43,139.107v-0.022l-0.068,0.1c0.01-0.009,0.021-0.016,0.03-0.024L-155.43,139.107z"
			/>
		<path fill="#231F20" d="M-156.691,161.644l-0.056,0.054c-1.479,1.411-3.211,2.777-5.115,4.078
			c-8.36,5.711-20.054,10.135-28.34,11.245l-0.032,0.005l-0.031,0.004c-6.229,0.99-12.332,1.164-17.649,0.503
			c-3.055-0.38-5.804-1.042-8.083-1.912c-2.513-0.958-4.451-2.169-5.566-3.544c-1.67-2.037-2.232-4.43-2.088-6.611
			c0.077-1.167,0.355-2.274,0.776-3.231c0.071-0.162,0.146-0.321,0.224-0.474c0.552-1.069,2.146-3.536,5.06-3.337
			c0.111,0.009,0.305,0.027,0.573,0.062c0.281,0.034,0.614,0.08,0.993,0.131c0.528,0.071,1.148,0.154,1.851,0.242
			c0.083,0.01,0.162,0.018,0.243,0.028c8.022,0.977,15.737,0.872,23.071-0.252c10.642-1.631,20.473-5.425,29.204-11.337
			c0.461-0.312,0.92-0.63,1.375-0.954l4.786-7.159c-14.525,13.085-30.52,16.908-42.675,17.648
			c-6.685,0.409-12.213-0.113-15.682-0.544c-0.124-0.015-0.23-0.029-0.348-0.044c-1.042-0.133-1.891-0.253-2.497-0.329
			c-0.303-0.039-0.547-0.064-0.731-0.077c-0.911-0.062-1.776,0.051-2.586,0.305c-1.654,0.517-3.068,1.634-4.129,3.115
			c-1.312,1.825-2.084,4.198-2.121,6.68c-0.026,2.042,0.45,4.153,1.546,6.089c0.042,0.078,0.084,0.158,0.131,0.236
			c0.126,0.212,0.262,0.42,0.405,0.627c0.192,0.281,0.394,0.558,0.617,0.829c2.546,3.139,8.023,5.475,15.331,6.384
			c4.944,0.615,10.731,0.565,17.008-0.32c18.496-3.343,27.289-9.319,31.35-13.517c0.297-0.307,0.569-0.605,0.817-0.891
			c1.456-1.678,2.111-2.969,2.35-3.528l0.034-0.076c0.06-0.144,0.085-0.222,0.085-0.224L-156.691,161.644z"/>
		<path fill="#231F20" d="M-215.553,97.5c-0.584-0.317-1.22-0.544-1.863-0.703c-0.425-0.104-0.852-0.179-1.273-0.231
			c-0.159-0.021-0.316-0.035-0.475-0.048c-2.165-0.188-4.037,0.176-4.037,0.176c-0.402,0.092-0.787,0.197-1.158,0.309
			c-2.941,0.894-4.989,2.424-6.42,4.191c-1.158,1.431-1.911,3.014-2.392,4.543c-0.043,0.135-0.081,0.27-0.119,0.403
			c-0.113,0.396-0.211,0.785-0.293,1.167c-0.271,1.287-0.376,2.471-0.406,3.411c-0.036,1.283,0.063,2.109,0.063,2.109
			c0.511-1.121,1.047-2.149,1.599-3.112c1.371-2.385,2.855-4.308,4.356-5.853c2.924-3.007,5.903-4.596,8.213-5.43
			C-217.263,97.532-215.553,97.5-215.553,97.5z"/>
		<path fill="#231F20" d="M-180.422,93.312l-0.098-0.13c-0.332-0.417-0.727-0.804-1.199-1.127c-1.117-0.768-2.659-1.167-4.795-0.73
			c0,0-2.537,0.598-4.02,2.257c0,0,4.421-1.887,9.101,1.438c0.427,0.303,0.854,0.654,1.281,1.051
			c0.437,0.403,0.871,0.852,1.304,1.361c0,0-0.185-2.038-1.346-3.796C-180.265,93.526-180.343,93.417-180.422,93.312z"/>
		<path fill="#231F20" d="M-215.019,125.681c1.694-0.523,3.529-1.007,5.495-1.451c0.342-1.531,0.427-3.426,0.184-5.448
			c-0.559-4.744-2.7-8.38-4.778-8.124c-2.08,0.257-3.307,4.312-2.746,9.054C-216.581,122.101-215.896,124.211-215.019,125.681z"/>
		<path fill="#FFFFFF" d="M-224.661,19.506l-4.359,0.985l0.914,7.995l-11.62-5.915l-4.782,1.426l0.074,0.085l14.115,16.087
			l0.135-0.085l0.182-0.114c0.439-0.28,0.879-0.559,1.323-0.834c0.154-0.097,0.309-0.197,0.464-0.293
			c0.64-0.393,1.28-0.778,1.923-1.161l-5.995-6.868l9.702,4.743l0.036-0.02c0.293-0.161,0.583-0.321,0.875-0.479l-0.895-6.927
			l4.402,5.092l0.054-0.027c0.373-0.188,0.737-0.365,1.104-0.546l0.114-0.055l0.177-0.089c0.063-0.03,0.127-0.062,0.189-0.094
			c0.155-0.075,0.315-0.157,0.469-0.231c0.032-0.016,0.062-0.029,0.094-0.044c0.522-0.252,1.034-0.493,1.546-0.733L-224.661,19.506z
			"/>
		<path fill="#4E9DD6" d="M-228.992,20.745l-0.029-0.254L-228.992,20.745z"/>
		<polygon fill="#132034" points="-229.021,20.491 -230.65,24.097 -230.385,27.351 -228.107,28.487 		"/>
		<polygon fill="#132034" points="-232.287,30.815 -222.585,35.558 -226.292,37.683 		"/>
		<polygon fill="#132034" points="-222.57,28.131 -221.675,35.058 -218.167,33.223 		"/>
		<path fill="#231F20" d="M-185.865,25.571c0.598-0.024,1.184-0.03,1.759-0.019c1.633,0.033,3.167,0.226,4.62,0.589
			c0.078,0.02,0.159,0.032,0.236,0.052l0.018,0.005l0.057,0.013l0.143,0.042l0.132,0.04c-0.172-0.114-0.346-0.222-0.523-0.326
			c-1.631-0.624-3.357-1.032-5.132-1.26c-8.806-1.133-18.831,2.072-24.563,4.35c-0.314,0.131-0.631,0.262-0.952,0.398
			c-0.482,0.207-0.967,0.416-1.459,0.632c-0.827,0.364-1.662,0.745-2.517,1.143c-0.124,0.058-0.248,0.116-0.372,0.175
			c-0.512,0.24-1.024,0.481-1.546,0.733c-0.032,0.015-0.062,0.029-0.094,0.044c-0.154,0.074-0.314,0.156-0.469,0.231
			c-0.063,0.032-0.127,0.063-0.189,0.094l-0.177,0.089l-0.114,0.055c-0.367,0.181-0.731,0.358-1.104,0.546l-0.054,0.027
			c-0.012,0.006-0.022,0.012-0.034,0.017c-0.092,0.044-0.179,0.087-0.27,0.132l-0.048,0.023c-0.068,0.034-0.134,0.07-0.201,0.105
			c-0.571,0.29-1.139,0.588-1.706,0.888c-0.396,0.209-0.791,0.421-1.186,0.634l-0.065,0.035c-0.292,0.159-0.582,0.319-0.875,0.479
			l-0.036,0.02c-0.949,0.524-1.891,1.06-2.832,1.609c-0.098,0.057-0.196,0.112-0.295,0.17c-0.083,0.05-0.168,0.098-0.25,0.147
			c-0.078,0.045-0.154,0.094-0.229,0.139l-0.1,0.06c-0.643,0.383-1.284,0.769-1.923,1.161c-0.155,0.096-0.31,0.196-0.464,0.293
			c-0.444,0.275-0.884,0.554-1.323,0.834l-0.182,0.114l-0.135,0.085c-1.223,0.784-2.437,1.588-3.644,2.41
			c-1.993,1.356-3.962,2.756-5.906,4.204c-0.252,0.187-0.503,0.378-0.755,0.568c-5.094,3.835-10.013,7.949-14.726,12.222
			c-4.977,4.514-9.717,9.203-14.197,13.916c-2.426,2.432-4.51,4.61-6.21,6.44c-3.412,3.675-5.273,5.947-5.197,5.998
			c0.031,0.033,0.332-0.246,0.865-0.779c-0.441,0.512-0.882,1.023-1.315,1.533c7.438-7.93,15.687-16.051,24.544-23.702
			c5.381-4.643,10.98-9.113,16.764-13.26l0,0c2.533-1.817,5.103-3.572,7.705-5.252c0.831-0.539,1.668-1.07,2.507-1.593
			c0.419-0.26,0.841-0.512,1.261-0.769c0.236-0.146,0.475-0.292,0.714-0.437c0.449-0.271,0.899-0.538,1.35-0.804
			c0.442-0.26,0.882-0.52,1.325-0.776c0.231-0.132,0.463-0.268,0.695-0.399c0.562-0.322,1.126-0.636,1.692-0.949
			c0.336-0.188,0.675-0.375,1.014-0.559l0.003-0.001c1.068-0.582,2.14-1.144,3.215-1.695c0.089-0.046,0.18-0.09,0.27-0.136
			c0.168-0.086,0.336-0.171,0.504-0.256c0.224-0.113,0.444-0.229,0.668-0.34c0.085-0.042,0.168-0.087,0.252-0.129l0.036-0.017
			c0.153-0.075,0.302-0.147,0.453-0.22c0.032-0.016,0.063-0.03,0.095-0.046l0.053-0.027c0.471-0.23,0.939-0.457,1.4-0.679
			c0.084-0.04,0.17-0.084,0.256-0.124c0.15-0.073,0.298-0.139,0.448-0.211c0.54-0.255,1.078-0.508,1.607-0.752
			c0.146-0.066,0.295-0.139,0.439-0.204c0.076-0.035,0.151-0.068,0.227-0.102c0.151-0.067,0.302-0.135,0.453-0.204
			c0.622-0.281,1.243-0.559,1.85-0.823c0.555-0.242,1.095-0.464,1.637-0.691c3.063-1.288,5.943-2.371,8.62-3.232
			C-194.202,26.641-189.762,25.738-185.865,25.571z"/>
	</g>
</g>
<g id="Layer_2_1_">
</g>
<g>
	<g>
		<g>
			<path fill="#187FD0" d="M460.659,275.492c-1.181-1.632-3.088-2.601-5.112-2.601h-229.39l-11.146-40.65
				c-0.758-2.751-3.251-4.65-6.096-4.65h-44.058c-3.485,0-6.315,2.832-6.315,6.324c0,3.496,2.83,6.324,6.315,6.324h39.229
				l21.991,80.172c0.061,0.347,0.152,0.669,0.271,0.989l23.853,86.963c0.755,2.747,3.247,4.652,6.094,4.652h158.01
				c2.75,0,5.171-1.774,6.021-4.373l41.223-127.481C462.181,279.233,461.843,277.123,460.659,275.492z M328.15,325.568v74.796
				h-47.411v-74.796H328.15z M280.739,312.923v-27.395h47.411v27.395H280.739z M342.91,325.568h48.462v74.796H342.91V325.568z
				 M342.91,312.923v-27.395h48.462v27.395H342.91z M265.996,285.531v27.392h-28.864l-7.516-27.392H265.996z M240.601,325.568
				h25.395v74.796h-4.878L240.601,325.568z M409.706,400.364h-3.59v-74.796h27.786L409.706,400.364z M437.997,312.923h-31.875
				v-27.395h40.737L437.997,312.923z"/>
		</g>
		<g>
			<path fill="#187FD0" d="M279.375,425.131c-15.044,0-27.292,12.25-27.292,27.291c0,15.039,12.251,27.281,27.292,27.281
				c15.034,0,27.281-12.242,27.281-27.281C306.656,437.381,294.41,425.131,279.375,425.131z M279.375,467.069
				c-8.083,0-14.651-6.58-14.651-14.646c0-8.072,6.568-14.643,14.651-14.643c8.068,0,14.637,6.57,14.637,14.643
				S287.448,467.069,279.375,467.069z"/>
		</g>
		<g>
			<path fill="#187FD0" d="M391.375,425.131c-15.047,0-27.284,12.25-27.284,27.291c0,15.039,12.243,27.281,27.284,27.281
				c15.041,0,27.284-12.242,27.284-27.281C418.659,437.381,406.422,425.131,391.375,425.131z M391.375,467.069
				c-8.076,0-14.649-6.58-14.649-14.646c0-8.072,6.573-14.643,14.649-14.643c8.067,0,14.643,6.57,14.643,14.643
				S399.448,467.069,391.375,467.069z"/>
		</g>
	</g>
</g>
<g>
	<path fill="#231F20" d="M-187.158,574.154c6.723,0,13.173-5.598,14.295-12.503c1.327-6.722-3.231-12.317-9.949-12.317
		c-6.72,0-13.171,5.596-14.309,12.317C-198.432,568.556-194.062,574.154-187.158,574.154z"/>
	<path fill="#231F20" d="M269.065,594.129c0,0,14.753,0,15.039,0c2.061,0,3.268-0.836,3.733-2.76c0.664-2.769,1.874-7.6,2.22-8.921
		c0.445-1.732-0.563-3.043-2.482-3.043c-0.46,0-7.531,0-14.84,0c1.069-4.254,5.231-18.061,5.231-27.064
		c0-17.978-15.265-33.27-36.926-33.27c-24.463,0-40.378,16.416-40.378,39.518c0,6.738,2.513,14.593,5.63,19.465
		c-1.302-0.074-2.644-0.113-4.028-0.113c-18.588,0-30.296,10.083-30.296,24.755c0,13.77,10.856,19.121,21.076,22.681
		c9.078,3.164,17.437,4.636,17.437,11.728c0,4.782-4.6,7.588-13.601,7.588c-10.681,0-16.551-5.03-18.044-6.938
		c1.012-0.796,2.517-2.688,2.517-5.842c0-4.412-3.098-8.013-8.855-8.013c-4.871,0-8.988,3.972-10.021,9.197
		c-7.822,6.4-16.359,10.546-28.467,10.546c-11.921,0-18.11-6.201-18.11-19.396c2.795,0.85,10.073,1.873,14.883,1.873
		c20.186,0,33.945-9.172,33.945-27.54c0-9.877-8.671-20.25-25.825-20.25h-0.039c-22.563,0-35.2,14.292-40.718,30.013
		c-1.545-0.372-3.096-0.737-4.646-1.084c1.234-3.488,2.12-7.529,2.12-12.009c0-7.764-4.808-16.92-17.674-16.92
		c-8.962,0-17.463,5.87-23.355,14.668c1.465-5.738,2.437-9.56,2.501-9.817c0.383-1.5-0.242-3.173-2.582-3.173
		c-3.007,0-13.206,0-13.206,0c-1.881,0-3.209,0.665-3.745,2.808c-0.359,1.43-4.896,19.232-9.313,36.565
		c-2.782,10.808-17.174,24.262-35.263,24.262c-11.924,0-18.107-6.609-18.107-19.808c3.12,1.242,10.072,2.285,14.88,2.285
		c21.007,0,33.945-9.172,33.945-27.54c0-9.877-8.67-20.25-25.826-20.25h-0.037c-25.407,0-40.969,19.733-43.607,42.107
		c-1.097,9.301-8.947,22.073-17.457,22.073c-4.145,0-6.458-2.604-6.458-7.025c0-3.819,2.689-13.155,5.634-24.854
		c0.987-3.914,2.485-9.884,4.145-16.502c7.501,0,13.526,0,13.813,0c2.056,0,3.262-0.836,3.729-2.76
		c0.662-2.769,1.874-7.6,2.218-8.921c0.446-1.732-0.556-3.043-2.482-3.043c-0.455,0-13.582,0-13.582,0s6.253-24.951,6.402-25.592
		c0.602-2.537-1.52-4.001-3.742-3.534c0,0-10.498,2.056-12.445,2.462c-1.957,0.395-3.476,1.471-4.183,4.292
		c-0.09,0.36-5.56,22.372-5.56,22.372s-10.657,0-10.906,0c-2.055,0-3.264,0.838-3.725,2.758c-0.664,2.765-1.882,7.602-2.218,8.923
		c-0.451,1.732,0.556,3.043,2.479,3.043c0.393,0,4.875,0,10.696,0c-0.077,0.307-3.864,14.714-6.926,27.613
		c-1.443,6.204-6.271,20.72-14.179,20.72c-4.723,0-6.72-2.383-6.72-7.494c0-8.049,7.923-28.198,7.923-37.341
		c0-12.213-6.551-19.288-19.974-19.288c-8.461,0-17.235,5.463-20.952,10.258c0,0,1.127-3.925,1.513-5.434
		c0.412-1.595-0.443-3.16-2.536-3.16c-3,0-10.275,0-13.124,0c-2.793,0-3.565,1.492-3.975,3.135
		c-0.164,0.659-4.892,19.23-9.432,37.057c-3.106,12.207-10.651,22.407-18.717,22.407c-4.148,0-5.995-2.603-5.995-7.024
		c0-3.82,2.468-13.247,5.413-24.946c3.583-14.243,6.744-25.971,7.082-27.342c0.441-1.757-0.344-3.286-2.607-3.286
		c-2.837,0-10.204,0-13.204,0c-2.391,0-3.246,1.255-3.75,2.998c0,0-3.715,14.067-7.651,29.728
		c-2.858,11.366-6.014,22.942-6.014,28.38c0,9.706,4.359,17.022,16.339,17.022c9.247,0,16.566-4.689,22.154-10.663
		c-0.822,3.234-1.345,5.281-1.399,5.49c-0.482,1.848,0.102,3.483,2.28,3.483c3,0,10.553,0,13.511,0c2.352,0,3.256-0.946,3.747-2.997
		c0.473-1.957,10.565-41.648,10.565-41.648c2.667-10.663,9.263-17.722,18.545-17.722c4.401,0,8.21,2.914,7.768,8.576
		c-0.49,6.231-8.003,28.611-8.003,38.434c0,7.434,2.757,17.053,16.753,17.053c9.54,0,16.564-4.574,21.67-10.476
		c1.87,6.264,6.824,10.476,15.911,10.476c15.102,0,24.205-8.957,29.553-17.954c4.437,10.453,14.832,17.95,30.074,17.95
		c15.535,0,27.557-6.549,36.077-15.453c-1.531,6.004-2.569,10.08-2.657,10.422c-0.483,1.877,0.334,3.353,2.538,3.353
		c2.941,0,12.103,0,13.372,0c1.831,0,3.134-0.931,3.61-2.855c0.235-0.944,2.167-8.411,4.896-19.02
		c5.219-20.303,13.608-41.367,26.211-41.367c4.445,0,6.268,2.485,6.268,6.4c0,1.846-0.536,3.441-0.999,4.296
		c-6.11-1.214-11.025,1.802-11.025,8.325c0,4.25,4.472,8.113,10.508,8.113c4.612,0,8.425-1.13,11.466-3.178
		c2.841,0.585,5.891,1.248,8.959,1.949c-0.469,3.053-0.702,6.053-0.702,8.898c0,16.296,11.636,30.116,32.494,30.116
		c16.343,0,27.559-5.978,37.242-13.643c4.654,7.615,16.405,13.769,31.822,13.769c21.13,0,33.114-10.988,33.114-25.511
		c0-13.144-10.791-17.983-21.919-22.01c-9.045-3.268-16.591-5.045-16.591-11.438c0-5.24,4.126-7.638,11.196-7.638
		c4.587,0,8.031,0.988,9.87,1.504c1.824,4.566,5.598,9.62,12.041,9.62c5.452,0,7.9-4.312,7.9-8.283
		c0-11.304-18.83-12.488-18.83-36.732c0-15.074,8.53-27.51,26.197-27.51c12.275,0,20.291,7.783,20.291,20.347
		c0,10.358-6.283,28.798-6.283,28.798s-10.428,0-10.677,0c-2.052,0-3.263,0.838-3.727,2.758c-0.664,2.765-1.88,7.602-2.222,8.923
		c-0.449,1.732,0.558,3.043,2.483,3.043c0.39,0,10.426,0,10.426,0s-10.779,39.75-10.779,46.979c0,9.706,5.47,17.019,17.456,17.019
		c16.954,0,27.547-11.016,32.154-27.036c0.358-1.24-0.344-2.249-1.599-2.249c-2.174,0-5.474,0-6.468,0
		c-1.291,0-2.04,0.737-2.366,1.999c-1.461,5.686-5.082,11.67-12.212,11.67c-4.145,0-6.457-2.604-6.457-7.025
		c0-3.819,2.528-12.76,5.638-24.854C266.426,604.873,269.065,594.129,269.065,594.129z M135.391,593.451
		c5.995,0,8.843,3.987,8.843,8.741c0,8.039-6.235,12.941-15.987,12.941c-3.491,0-8.37-0.827-11.25-1.787
		C118.208,605.953,123.559,593.451,135.391,593.451z M-5.634,593.451c6.562,0,8.84,3.987,8.84,8.741
		c0,8.039-6.233,12.941-15.984,12.941c-3.491,0-8.37-0.827-11.25-1.787C-22.823,605.953-18.078,593.451-5.634,593.451z"/>
	<path fill="#231F20" d="M-265.07,518.899c-42.778,0-64.347,30.671-64.347,56.246c0,15.486,5.863,29.263,18.438,34.397
		c2.062,0.843,3.909,0.029,4.507-2.254c0.416-1.58,1.4-5.566,1.839-7.226c0.603-2.258,0.369-3.05-1.295-5.018
		c-3.626-4.277-5.943-9.814-5.943-17.657c0-22.754,17.024-43.123,44.33-43.123c24.179,0,37.463,14.773,37.463,34.504
		c0,25.962-11.489,47.872-28.545,47.872c-9.419,0-16.47-7.79-14.21-17.344c2.706-11.406,7.948-23.716,7.948-31.949
		c0-7.37-3.956-13.517-12.143-13.517c-9.629,0-17.364,9.961-17.364,23.305c0,8.499,2.872,14.247,2.872,14.247
		s-9.854,41.751-11.581,49.063c-3.44,14.562-0.517,32.413-0.27,34.216c0.145,1.068,1.518,1.322,2.14,0.515
		c0.888-1.159,12.356-15.317,16.255-29.464c1.103-4.006,6.333-24.749,6.333-24.749c3.128,5.967,12.271,11.223,21.994,11.223
		c28.944,0,48.581-26.387,48.581-61.706C-208.068,543.771-230.689,518.899-265.07,518.899z"/>
</g>
<g>
	<path fill="#231F20" d="M512.396,61.754v15.803h-8.748c0,0-7.902-1.129-7.902,6.491v12.417h16.65l-1.975,17.152h-14.676v48.037
		h-19.189v-48.256h-12.981V96.465h13.546V82.072c0,0-1.693-7.901,5.362-14.392c7.055-6.49,16.366-5.926,16.366-5.926H512.396z"/>
	<path fill="#231F20" d="M558.665,96.747v8.612c-4.896-6.444-11.743-10.447-19.319-10.447c-14.884,0-26.95,13.123-26.95,34.5
		c0,21.236,12.066,34.5,26.95,34.5c7.647,0,14.552-4.08,19.458-10.629l-0.127,8.371h18.484V96.747H558.665z M557.632,135.832
		c0,6.545-5.564,12.699-12.428,12.699s-12.428-6.154-12.428-12.699v-12.416c0-6.547,5.564-12.699,12.428-12.699
		s12.428,6.152,12.428,12.699V135.832z"/>
	<path fill="#231F20" d="M728.15,162.076v-8.611c4.896,6.443,11.742,10.447,19.318,10.447c14.884,0,26.95-13.123,26.95-34.5
		c0-21.235-12.066-34.5-26.95-34.5c-7.648,0-14.552,4.079-19.458,10.628l0.127-42.864l-19.222,2.163v96.941L728.15,162.076z
		 M729.183,122.992c0-6.545,5.564-12.699,12.427-12.699c6.864,0,12.429,6.154,12.429,12.699v12.416
		c0,6.547-5.564,12.699-12.429,12.699c-6.862,0-12.427-6.152-12.427-12.699V122.992z"/>
	<path fill="#231F20" d="M618.927,148.169c0,0-14.816,0.848-14.816-18.344v-1.049c0-19.189,14.816-18.343,14.816-18.343
		c10.018-0.142,13.545,3.386,13.545,3.386l4.656-13.969c-8.043-5.926-32.313-6.914-43.177,3.104
		c-9.401,8.67-9.399,22.717-9.228,26.346c-0.172,3.631-0.174,17.68,9.228,26.348c10.864,10.018,35.134,9.029,43.177,3.104
		l-4.656-13.969C632.472,144.783,628.944,148.31,618.927,148.169"/>
	<path fill="#231F20" d="M700.905,136.255c0,0,7.76-40.638-29.349-40.858c-37.11-0.221-31.748,36.766-31.748,36.766
		c0.847,22.434,11.147,28.926,28.785,31.043c17.637,2.115,31.042-4.658,31.042-4.658l-4.092-13.121c0,0-14.252,4.373-25.539,3.385
		c-11.288-0.986-10.442-12.557-10.442-12.557H700.905z M659.28,123.132c0,0-0.988-14.392,11.994-14.392
		c12.981,0,11.993,14.392,11.993,14.392H659.28z"/>
	<path fill="#231F20" d="M812.657,95.798c-24.157,0-32.287,14.575-32.287,34.057c0,20.668,10.476,34.057,32.287,34.057
		c17.832,0,32.288-11.982,32.288-34.057C844.945,111.046,835.72,95.798,812.657,95.798 M825.244,135.488
		c0,6.547-5.709,12.701-12.752,12.701c-7.042,0-12.752-6.154-12.752-12.701v-12.416c0-6.545,5.71-12.699,12.752-12.699
		c7.043,0,12.752,6.154,12.752,12.699V135.488z"/>
	<path fill="#231F20" d="M883.955,95.798c-24.157,0-32.287,14.575-32.287,34.057c0,20.668,10.477,34.057,32.287,34.057
		c17.832,0,32.288-11.982,32.288-34.057C916.243,111.046,907.018,95.798,883.955,95.798 M896.542,135.488
		c0,6.547-5.709,12.701-12.752,12.701c-7.042,0-12.752-6.154-12.752-12.701v-12.416c0-6.545,5.71-12.699,12.752-12.699
		c7.043,0,12.752,6.154,12.752,12.699V135.488z"/>
	<polygon fill="#231F20" points="983.944,161.937 962.837,129.259 983.007,96.579 962.367,96.579 942.667,125.832 942.667,62.338 
		923.278,64.37 923.278,161.937 942.667,161.937 942.667,128.693 963.932,161.937 	"/>
</g>
<path fill="none" stroke="#187FD0" stroke-width="12.1043" stroke-linecap="round" stroke-linejoin="round" stroke-miterlimit="10" d="
	M60.433,275.186c11.799-3.098,20.545-5.482,30.125-10.674c-2.542-11.497-7.842-23.254-11.996-31.723"/>
<path fill="none" stroke="#187FD0" stroke-width="12.1043" stroke-linecap="round" stroke-linejoin="round" stroke-miterlimit="10" d="
	M145.975,476.792c6.193-10.507,10.725-18.36,13.873-28.794c-9.903-6.373-21.939-10.988-30.858-14.078"/>
<path fill="none" stroke="#187FD0" stroke-width="12.1043" stroke-linecap="round" stroke-linejoin="round" stroke-miterlimit="10" d="
	M64.592,511.272c25.677-45.816,64.534-59.306,95.256-63.273"/>
<path fill="none" stroke="#187FD0" stroke-width="12.1043" stroke-linecap="round" stroke-linejoin="round" stroke-miterlimit="10" d="
	M517.421,426.664c-9.897-7.128-17.207-12.493-24.285-20.779c6.501-9.818,15.662-18.889,22.586-25.302"/>
<path fill="none" stroke="#187FD0" stroke-width="12.1043" stroke-linecap="round" stroke-linejoin="round" stroke-miterlimit="10" d="
	M627.492,445.448c-42.876-36.31-92.407-48.079-134.046-40.228"/>
<path fill="none" stroke="#187FD0" stroke-width="12.1043" stroke-linecap="round" stroke-linejoin="round" stroke-miterlimit="10" d="
	M3.56,196.993c13.073,21.668,42.587,54.041,86.998,67.519"/>
<path fill="none" stroke="#187FD0" stroke-width="12.1043" stroke-linecap="round" stroke-linejoin="round" stroke-miterlimit="10" d="
	M568.134,276.638c-12.035-1.999-20.965-3.569-30.981-7.855c1.472-11.683,5.669-23.879,9.026-32.693"/>
<path fill="none" stroke="#187FD0" stroke-width="12.1043" stroke-linecap="round" stroke-linejoin="round" stroke-miterlimit="10" d="
	M632.217,194.414c-24.36,43.837-65.235,62.217-95.064,74.368"/>
</svg>
